G04 (created by PCBNEW (2013-jul-07)-stable) date Wed 09 Oct 2013 01:20:09 AM EDT*
%MOIN*%
G04 Gerber Fmt 3.4, Leading zero omitted, Abs format*
%FSLAX34Y34*%
G01*
G70*
G90*
G04 APERTURE LIST*
%ADD10C,0.00590551*%
%ADD11C,0.0472441*%
%ADD12C,0.011811*%
%ADD13C,0.00442913*%
G04 APERTURE END LIST*
G54D10*
G54D11*
X82767Y-32643D02*
X82992Y-32530D01*
X83329Y-32530D01*
X83667Y-32643D01*
X83892Y-32868D01*
X84004Y-33093D01*
X84116Y-33543D01*
X84116Y-33880D01*
X84004Y-34330D01*
X83892Y-34555D01*
X83667Y-34780D01*
X83329Y-34893D01*
X83104Y-34893D01*
X82767Y-34780D01*
X82654Y-34668D01*
X82654Y-33880D01*
X83104Y-33880D01*
G54D12*
X88020Y-38399D02*
X87935Y-38428D01*
X87795Y-38428D01*
X87739Y-38399D01*
X87710Y-38371D01*
X87682Y-38315D01*
X87682Y-38259D01*
X87710Y-38203D01*
X87739Y-38174D01*
X87795Y-38146D01*
X87907Y-38118D01*
X87964Y-38090D01*
X87992Y-38062D01*
X88020Y-38006D01*
X88020Y-37949D01*
X87992Y-37893D01*
X87964Y-37865D01*
X87907Y-37837D01*
X87767Y-37837D01*
X87682Y-37865D01*
X87514Y-37837D02*
X87176Y-37837D01*
X87345Y-38428D02*
X87345Y-37837D01*
X86979Y-38428D02*
X86979Y-37837D01*
X86782Y-38259D01*
X86586Y-37837D01*
X86586Y-38428D01*
X86361Y-37837D02*
X85995Y-37837D01*
X86192Y-38062D01*
X86107Y-38062D01*
X86051Y-38090D01*
X86023Y-38118D01*
X85995Y-38174D01*
X85995Y-38315D01*
X86023Y-38371D01*
X86051Y-38399D01*
X86107Y-38428D01*
X86276Y-38428D01*
X86332Y-38399D01*
X86361Y-38371D01*
X85770Y-37893D02*
X85742Y-37865D01*
X85686Y-37837D01*
X85545Y-37837D01*
X85489Y-37865D01*
X85461Y-37893D01*
X85433Y-37949D01*
X85433Y-38006D01*
X85461Y-38090D01*
X85798Y-38428D01*
X85433Y-38428D01*
X84983Y-38118D02*
X85179Y-38118D01*
X85179Y-38428D02*
X85179Y-37837D01*
X84898Y-37837D01*
X84364Y-38428D02*
X84701Y-38428D01*
X84533Y-38428D02*
X84533Y-37837D01*
X84589Y-37921D01*
X84645Y-37978D01*
X84701Y-38006D01*
X83998Y-37837D02*
X83942Y-37837D01*
X83886Y-37865D01*
X83858Y-37893D01*
X83830Y-37949D01*
X83802Y-38062D01*
X83802Y-38203D01*
X83830Y-38315D01*
X83858Y-38371D01*
X83886Y-38399D01*
X83942Y-38428D01*
X83998Y-38428D01*
X84055Y-38399D01*
X84083Y-38371D01*
X84111Y-38315D01*
X84139Y-38203D01*
X84139Y-38062D01*
X84111Y-37949D01*
X84083Y-37893D01*
X84055Y-37865D01*
X83998Y-37837D01*
X83605Y-37837D02*
X83211Y-37837D01*
X83464Y-38428D01*
X82536Y-38428D02*
X82536Y-37837D01*
X82311Y-37837D01*
X82255Y-37865D01*
X82227Y-37893D01*
X82199Y-37949D01*
X82199Y-38034D01*
X82227Y-38090D01*
X82255Y-38118D01*
X82311Y-38146D01*
X82536Y-38146D01*
X81861Y-38428D02*
X81917Y-38399D01*
X81946Y-38371D01*
X81974Y-38315D01*
X81974Y-38146D01*
X81946Y-38090D01*
X81917Y-38062D01*
X81861Y-38034D01*
X81777Y-38034D01*
X81721Y-38062D01*
X81692Y-38090D01*
X81664Y-38146D01*
X81664Y-38315D01*
X81692Y-38371D01*
X81721Y-38399D01*
X81777Y-38428D01*
X81861Y-38428D01*
X81411Y-38118D02*
X81214Y-38118D01*
X81130Y-38428D02*
X81411Y-38428D01*
X81411Y-37837D01*
X81130Y-37837D01*
X80230Y-38118D02*
X80146Y-38146D01*
X80118Y-38174D01*
X80089Y-38231D01*
X80089Y-38315D01*
X80118Y-38371D01*
X80146Y-38399D01*
X80202Y-38428D01*
X80427Y-38428D01*
X80427Y-37837D01*
X80230Y-37837D01*
X80174Y-37865D01*
X80146Y-37893D01*
X80118Y-37949D01*
X80118Y-38006D01*
X80146Y-38062D01*
X80174Y-38090D01*
X80230Y-38118D01*
X80427Y-38118D01*
X79752Y-38428D02*
X79808Y-38399D01*
X79836Y-38371D01*
X79865Y-38315D01*
X79865Y-38146D01*
X79836Y-38090D01*
X79808Y-38062D01*
X79752Y-38034D01*
X79668Y-38034D01*
X79611Y-38062D01*
X79583Y-38090D01*
X79555Y-38146D01*
X79555Y-38315D01*
X79583Y-38371D01*
X79611Y-38399D01*
X79668Y-38428D01*
X79752Y-38428D01*
X79049Y-38428D02*
X79049Y-38118D01*
X79077Y-38062D01*
X79133Y-38034D01*
X79246Y-38034D01*
X79302Y-38062D01*
X79049Y-38399D02*
X79105Y-38428D01*
X79246Y-38428D01*
X79302Y-38399D01*
X79330Y-38343D01*
X79330Y-38287D01*
X79302Y-38231D01*
X79246Y-38203D01*
X79105Y-38203D01*
X79049Y-38174D01*
X78768Y-38428D02*
X78768Y-38034D01*
X78768Y-38146D02*
X78740Y-38090D01*
X78712Y-38062D01*
X78655Y-38034D01*
X78599Y-38034D01*
X78149Y-38428D02*
X78149Y-37837D01*
X78149Y-38399D02*
X78205Y-38428D01*
X78318Y-38428D01*
X78374Y-38399D01*
X78402Y-38371D01*
X78430Y-38315D01*
X78430Y-38146D01*
X78402Y-38090D01*
X78374Y-38062D01*
X78318Y-38034D01*
X78205Y-38034D01*
X78149Y-38062D01*
X86825Y-37415D02*
X86768Y-37443D01*
X86656Y-37443D01*
X86600Y-37415D01*
X86571Y-37359D01*
X86571Y-37331D01*
X86600Y-37275D01*
X86656Y-37246D01*
X86740Y-37246D01*
X86796Y-37218D01*
X86825Y-37162D01*
X86825Y-37134D01*
X86796Y-37078D01*
X86740Y-37050D01*
X86656Y-37050D01*
X86600Y-37078D01*
X86318Y-37443D02*
X86318Y-37050D01*
X86318Y-37106D02*
X86290Y-37078D01*
X86234Y-37050D01*
X86150Y-37050D01*
X86093Y-37078D01*
X86065Y-37134D01*
X86065Y-37443D01*
X86065Y-37134D02*
X86037Y-37078D01*
X85981Y-37050D01*
X85897Y-37050D01*
X85840Y-37078D01*
X85812Y-37134D01*
X85812Y-37443D01*
X85278Y-37050D02*
X85278Y-37528D01*
X85306Y-37584D01*
X85334Y-37612D01*
X85390Y-37640D01*
X85475Y-37640D01*
X85531Y-37612D01*
X85278Y-37415D02*
X85334Y-37443D01*
X85447Y-37443D01*
X85503Y-37415D01*
X85531Y-37387D01*
X85559Y-37331D01*
X85559Y-37162D01*
X85531Y-37106D01*
X85503Y-37078D01*
X85447Y-37050D01*
X85334Y-37050D01*
X85278Y-37078D01*
X84997Y-37387D02*
X84969Y-37415D01*
X84997Y-37443D01*
X85025Y-37415D01*
X84997Y-37387D01*
X84997Y-37443D01*
X84715Y-37443D02*
X84715Y-37050D01*
X84715Y-36853D02*
X84744Y-36881D01*
X84715Y-36909D01*
X84687Y-36881D01*
X84715Y-36853D01*
X84715Y-36909D01*
X84181Y-37443D02*
X84181Y-36853D01*
X84181Y-37415D02*
X84237Y-37443D01*
X84350Y-37443D01*
X84406Y-37415D01*
X84434Y-37387D01*
X84462Y-37331D01*
X84462Y-37162D01*
X84434Y-37106D01*
X84406Y-37078D01*
X84350Y-37050D01*
X84237Y-37050D01*
X84181Y-37078D01*
X83675Y-37415D02*
X83731Y-37443D01*
X83844Y-37443D01*
X83900Y-37415D01*
X83928Y-37359D01*
X83928Y-37134D01*
X83900Y-37078D01*
X83844Y-37050D01*
X83731Y-37050D01*
X83675Y-37078D01*
X83647Y-37134D01*
X83647Y-37190D01*
X83928Y-37246D01*
X83141Y-37443D02*
X83141Y-37134D01*
X83169Y-37078D01*
X83225Y-37050D01*
X83338Y-37050D01*
X83394Y-37078D01*
X83141Y-37415D02*
X83197Y-37443D01*
X83338Y-37443D01*
X83394Y-37415D01*
X83422Y-37359D01*
X83422Y-37303D01*
X83394Y-37246D01*
X83338Y-37218D01*
X83197Y-37218D01*
X83141Y-37190D01*
X82606Y-37415D02*
X82663Y-37443D01*
X82775Y-37443D01*
X82831Y-37415D01*
X82859Y-37387D01*
X82888Y-37331D01*
X82888Y-37162D01*
X82859Y-37106D01*
X82831Y-37078D01*
X82775Y-37050D01*
X82663Y-37050D01*
X82606Y-37078D01*
X82353Y-37443D02*
X82353Y-37050D01*
X82353Y-37162D02*
X82325Y-37106D01*
X82297Y-37078D01*
X82241Y-37050D01*
X82185Y-37050D01*
X81735Y-37443D02*
X81735Y-37134D01*
X81763Y-37078D01*
X81819Y-37050D01*
X81931Y-37050D01*
X81988Y-37078D01*
X81735Y-37415D02*
X81791Y-37443D01*
X81931Y-37443D01*
X81988Y-37415D01*
X82016Y-37359D01*
X82016Y-37303D01*
X81988Y-37246D01*
X81931Y-37218D01*
X81791Y-37218D01*
X81735Y-37190D01*
X81538Y-37050D02*
X81313Y-37050D01*
X81453Y-37443D02*
X81453Y-36937D01*
X81425Y-36881D01*
X81369Y-36853D01*
X81313Y-36853D01*
X81200Y-37050D02*
X80975Y-37050D01*
X81116Y-36853D02*
X81116Y-37359D01*
X81088Y-37415D01*
X81032Y-37443D01*
X80975Y-37443D01*
X80778Y-37387D02*
X80750Y-37415D01*
X80778Y-37443D01*
X80807Y-37415D01*
X80778Y-37387D01*
X80778Y-37443D01*
X80413Y-37443D02*
X80469Y-37415D01*
X80497Y-37387D01*
X80525Y-37331D01*
X80525Y-37162D01*
X80497Y-37106D01*
X80469Y-37078D01*
X80413Y-37050D01*
X80329Y-37050D01*
X80272Y-37078D01*
X80244Y-37106D01*
X80216Y-37162D01*
X80216Y-37331D01*
X80244Y-37387D01*
X80272Y-37415D01*
X80329Y-37443D01*
X80413Y-37443D01*
X79963Y-37443D02*
X79963Y-37050D01*
X79963Y-37162D02*
X79935Y-37106D01*
X79907Y-37078D01*
X79850Y-37050D01*
X79794Y-37050D01*
X79344Y-37050D02*
X79344Y-37528D01*
X79372Y-37584D01*
X79401Y-37612D01*
X79457Y-37640D01*
X79541Y-37640D01*
X79597Y-37612D01*
X79344Y-37415D02*
X79401Y-37443D01*
X79513Y-37443D01*
X79569Y-37415D01*
X79597Y-37387D01*
X79625Y-37331D01*
X79625Y-37162D01*
X79597Y-37106D01*
X79569Y-37078D01*
X79513Y-37050D01*
X79401Y-37050D01*
X79344Y-37078D01*
X86164Y-36431D02*
X86079Y-36459D01*
X85939Y-36459D01*
X85883Y-36431D01*
X85854Y-36403D01*
X85826Y-36347D01*
X85826Y-36290D01*
X85854Y-36234D01*
X85883Y-36206D01*
X85939Y-36178D01*
X86051Y-36150D01*
X86107Y-36122D01*
X86136Y-36093D01*
X86164Y-36037D01*
X86164Y-35981D01*
X86136Y-35925D01*
X86107Y-35897D01*
X86051Y-35868D01*
X85911Y-35868D01*
X85826Y-35897D01*
X85320Y-36431D02*
X85376Y-36459D01*
X85489Y-36459D01*
X85545Y-36431D01*
X85573Y-36403D01*
X85601Y-36347D01*
X85601Y-36178D01*
X85573Y-36122D01*
X85545Y-36093D01*
X85489Y-36065D01*
X85376Y-36065D01*
X85320Y-36093D01*
X84983Y-36459D02*
X85039Y-36431D01*
X85067Y-36403D01*
X85095Y-36347D01*
X85095Y-36178D01*
X85067Y-36122D01*
X85039Y-36093D01*
X84983Y-36065D01*
X84898Y-36065D01*
X84842Y-36093D01*
X84814Y-36122D01*
X84786Y-36178D01*
X84786Y-36347D01*
X84814Y-36403D01*
X84842Y-36431D01*
X84898Y-36459D01*
X84983Y-36459D01*
X84617Y-36065D02*
X84392Y-36065D01*
X84533Y-35868D02*
X84533Y-36375D01*
X84505Y-36431D01*
X84448Y-36459D01*
X84392Y-36459D01*
X84280Y-36065D02*
X84055Y-36065D01*
X84195Y-35868D02*
X84195Y-36375D01*
X84167Y-36431D01*
X84111Y-36459D01*
X84055Y-36459D01*
X83098Y-35897D02*
X83155Y-35868D01*
X83239Y-35868D01*
X83323Y-35897D01*
X83380Y-35953D01*
X83408Y-36009D01*
X83436Y-36122D01*
X83436Y-36206D01*
X83408Y-36318D01*
X83380Y-36375D01*
X83323Y-36431D01*
X83239Y-36459D01*
X83183Y-36459D01*
X83098Y-36431D01*
X83070Y-36403D01*
X83070Y-36206D01*
X83183Y-36206D01*
X82817Y-36459D02*
X82817Y-36065D01*
X82817Y-35868D02*
X82845Y-35897D01*
X82817Y-35925D01*
X82789Y-35897D01*
X82817Y-35868D01*
X82817Y-35925D01*
X82452Y-36459D02*
X82508Y-36431D01*
X82536Y-36375D01*
X82536Y-35868D01*
X82142Y-36459D02*
X82199Y-36431D01*
X82227Y-36375D01*
X82227Y-35868D01*
X81917Y-36459D02*
X81917Y-36065D01*
X81917Y-35868D02*
X81946Y-35897D01*
X81917Y-35925D01*
X81889Y-35897D01*
X81917Y-35868D01*
X81917Y-35925D01*
X81552Y-36459D02*
X81608Y-36431D01*
X81636Y-36375D01*
X81636Y-35868D01*
X81074Y-36459D02*
X81074Y-36150D01*
X81102Y-36093D01*
X81158Y-36065D01*
X81271Y-36065D01*
X81327Y-36093D01*
X81074Y-36431D02*
X81130Y-36459D01*
X81271Y-36459D01*
X81327Y-36431D01*
X81355Y-36375D01*
X81355Y-36318D01*
X81327Y-36262D01*
X81271Y-36234D01*
X81130Y-36234D01*
X81074Y-36206D01*
X80793Y-36065D02*
X80793Y-36459D01*
X80793Y-36122D02*
X80764Y-36093D01*
X80708Y-36065D01*
X80624Y-36065D01*
X80568Y-36093D01*
X80539Y-36150D01*
X80539Y-36459D01*
X80005Y-36459D02*
X80005Y-35868D01*
X80005Y-36431D02*
X80061Y-36459D01*
X80174Y-36459D01*
X80230Y-36431D01*
X80258Y-36403D01*
X80286Y-36347D01*
X80286Y-36178D01*
X80258Y-36122D01*
X80230Y-36093D01*
X80174Y-36065D01*
X80061Y-36065D01*
X80005Y-36093D01*
G54D13*
X90134Y-32520D02*
X90134Y-32679D01*
X90144Y-32698D01*
X90153Y-32708D01*
X90172Y-32717D01*
X90209Y-32717D01*
X90228Y-32708D01*
X90238Y-32698D01*
X90247Y-32679D01*
X90247Y-32520D01*
X90331Y-32539D02*
X90341Y-32529D01*
X90359Y-32520D01*
X90406Y-32520D01*
X90425Y-32529D01*
X90434Y-32539D01*
X90444Y-32558D01*
X90444Y-32576D01*
X90434Y-32604D01*
X90322Y-32717D01*
X90444Y-32717D01*
X90566Y-32520D02*
X90584Y-32520D01*
X90603Y-32529D01*
X90613Y-32539D01*
X90622Y-32558D01*
X90631Y-32595D01*
X90631Y-32642D01*
X90622Y-32679D01*
X90613Y-32698D01*
X90603Y-32708D01*
X90584Y-32717D01*
X90566Y-32717D01*
X90547Y-32708D01*
X90538Y-32698D01*
X90528Y-32679D01*
X90519Y-32642D01*
X90519Y-32595D01*
X90528Y-32558D01*
X90538Y-32539D01*
X90547Y-32529D01*
X90566Y-32520D01*
X90706Y-32539D02*
X90716Y-32529D01*
X90734Y-32520D01*
X90781Y-32520D01*
X90800Y-32529D01*
X90809Y-32539D01*
X90819Y-32558D01*
X90819Y-32576D01*
X90809Y-32604D01*
X90697Y-32717D01*
X90819Y-32717D01*
M02*
