G04 (created by PCBNEW (2013-jul-07)-stable) date Wed 09 Oct 2013 01:20:09 AM EDT*
%MOIN*%
G04 Gerber Fmt 3.4, Leading zero omitted, Abs format*
%FSLAX34Y34*%
G01*
G70*
G90*
G04 APERTURE LIST*
%ADD10C,0.00590551*%
%ADD11R,0.0275X0.1574*%
%ADD12R,0.120866X0.0889764*%
%ADD13R,0.109055X0.0889764*%
%ADD14C,0.0551*%
%ADD15C,0.1417*%
%ADD16C,0.0757*%
%ADD17R,0.0984252X0.279528*%
%ADD18R,0.0473X0.0118*%
%ADD19R,0.0118X0.0473*%
%ADD20R,0.0570866X0.173228*%
%ADD21R,0.0413386X0.0125984*%
%ADD22R,0.11811X0.165354*%
%ADD23R,0.0984X0.0709*%
%ADD24R,0.0709X0.0984*%
%ADD25R,0.0236X0.0551*%
%ADD26R,0.02X0.03*%
%ADD27R,0.05X0.0799213*%
%ADD28R,0.15X0.055*%
%ADD29R,0.06X0.08*%
%ADD30R,0.08X0.06*%
%ADD31R,0.035X0.055*%
%ADD32R,0.055X0.035*%
%ADD33R,0.025X0.045*%
%ADD34R,0.045X0.025*%
%ADD35R,0.0315X0.0315*%
%ADD36R,0.0240157X0.0598425*%
%ADD37R,0.1378X0.0945*%
%ADD38R,0.1575X0.0945*%
%ADD39R,0.0944X0.025*%
%ADD40R,0.011811X0.015748*%
%ADD41R,0.0433X0.0236*%
%ADD42R,0.173228X0.0570866*%
%ADD43R,0.0413386X0.0511811*%
%ADD44R,0.0118X0.059*%
%ADD45R,0.059X0.0118*%
%ADD46R,0.0236X0.0236*%
%ADD47C,0.023*%
%ADD48C,0.035*%
%ADD49C,0.006*%
%ADD50C,0.0133858*%
%ADD51C,0.0114173*%
%ADD52C,0.00984252*%
%ADD53C,0.008*%
%ADD54C,0.019685*%
%ADD55C,0.01*%
G04 APERTURE END LIST*
G54D10*
G54D11*
X77441Y-45787D03*
X77834Y-45787D03*
X78228Y-45787D03*
X78622Y-45787D03*
X79015Y-45787D03*
X79409Y-45787D03*
X79803Y-45787D03*
X80197Y-45787D03*
X80590Y-45787D03*
X80984Y-45787D03*
X81378Y-45787D03*
X82559Y-45787D03*
X82952Y-45787D03*
X83346Y-45787D03*
X83740Y-45787D03*
X84134Y-45787D03*
X84527Y-45787D03*
X84921Y-45787D03*
X85315Y-45787D03*
X85708Y-45787D03*
X86102Y-45787D03*
X86496Y-45787D03*
X86889Y-45787D03*
X87283Y-45787D03*
X87677Y-45787D03*
X88071Y-45787D03*
X88464Y-45787D03*
X88858Y-45787D03*
X89252Y-45787D03*
X89645Y-45787D03*
X90039Y-45787D03*
X90433Y-45787D03*
G54D12*
X83620Y-36937D03*
X86458Y-36937D03*
G54D13*
X85039Y-32748D03*
G54D14*
X84077Y-26602D03*
X83677Y-27602D03*
X83277Y-26602D03*
X82877Y-27602D03*
X82477Y-26602D03*
X82077Y-27602D03*
X81677Y-26602D03*
X81277Y-27602D03*
X85377Y-25652D03*
X84477Y-25652D03*
X80877Y-25652D03*
X79977Y-25652D03*
G54D15*
X85177Y-27952D03*
X80177Y-27952D03*
G54D16*
X79477Y-26282D03*
X85877Y-26282D03*
G54D17*
X73641Y-28543D03*
X71830Y-28543D03*
G54D18*
X91535Y-41633D03*
X91535Y-41437D03*
X91535Y-41240D03*
X91535Y-41043D03*
X91535Y-40846D03*
X91535Y-40649D03*
X91535Y-40452D03*
X91535Y-40256D03*
X91535Y-40059D03*
X91535Y-39862D03*
X91535Y-39665D03*
X91535Y-39468D03*
X91535Y-39271D03*
X91535Y-39074D03*
X91535Y-38878D03*
X91535Y-38681D03*
G54D19*
X90747Y-37893D03*
X90551Y-37893D03*
X90354Y-37893D03*
X90157Y-37893D03*
X89960Y-37893D03*
X89763Y-37893D03*
X89566Y-37893D03*
X89370Y-37893D03*
X89173Y-37893D03*
X88976Y-37893D03*
X88779Y-37893D03*
X88582Y-37893D03*
X88385Y-37893D03*
X88188Y-37893D03*
X87992Y-37893D03*
X87795Y-37893D03*
G54D18*
X87007Y-38681D03*
X87007Y-38878D03*
X87007Y-39074D03*
X87007Y-39271D03*
X87007Y-39468D03*
X87007Y-39665D03*
X87007Y-39862D03*
X87007Y-40059D03*
X87007Y-40256D03*
X87007Y-40452D03*
X87007Y-40649D03*
X87007Y-40846D03*
X87007Y-41043D03*
X87007Y-41240D03*
X87007Y-41437D03*
X87007Y-41633D03*
G54D19*
X87795Y-42421D03*
X87992Y-42421D03*
X88188Y-42421D03*
X88385Y-42421D03*
X88582Y-42421D03*
X88779Y-42421D03*
X88976Y-42421D03*
X89173Y-42421D03*
X89370Y-42421D03*
X89566Y-42421D03*
X89763Y-42421D03*
X89960Y-42421D03*
X90157Y-42421D03*
X90354Y-42421D03*
X90551Y-42421D03*
X90747Y-42421D03*
G54D20*
X71377Y-40846D03*
X72519Y-40846D03*
G54D21*
X74970Y-35206D03*
X74970Y-34950D03*
X74970Y-34694D03*
X74970Y-34438D03*
X74970Y-34183D03*
X74970Y-33927D03*
X74970Y-33671D03*
X74970Y-33415D03*
X74970Y-33159D03*
X74970Y-32903D03*
X72667Y-32903D03*
X72667Y-33159D03*
X72667Y-33415D03*
X72667Y-33671D03*
X72667Y-33927D03*
X72667Y-34183D03*
X72667Y-34438D03*
X72667Y-34694D03*
X72667Y-34950D03*
X72667Y-35206D03*
G54D22*
X73818Y-34055D03*
G54D23*
X76574Y-28740D03*
X75000Y-28740D03*
G54D24*
X77559Y-31298D03*
X77559Y-29724D03*
X81692Y-31298D03*
X81692Y-29724D03*
X78937Y-29724D03*
X78937Y-31298D03*
X80314Y-29724D03*
X80314Y-31298D03*
X87204Y-31298D03*
X87204Y-29724D03*
X83070Y-31298D03*
X83070Y-29724D03*
X85826Y-29724D03*
X85826Y-31298D03*
X84448Y-29724D03*
X84448Y-31298D03*
G54D25*
X75234Y-36548D03*
X75234Y-38648D03*
X75734Y-36548D03*
X76234Y-36548D03*
X76734Y-36548D03*
X75734Y-38648D03*
X76234Y-38648D03*
X76734Y-38648D03*
G54D26*
X75867Y-43988D03*
X75117Y-43988D03*
X75867Y-44988D03*
X75492Y-43988D03*
X75117Y-44988D03*
G54D27*
X77952Y-32870D03*
X78937Y-32870D03*
X79921Y-32870D03*
X80905Y-32870D03*
X81889Y-32870D03*
X81889Y-39570D03*
X80905Y-39570D03*
X79921Y-39570D03*
X78937Y-39570D03*
X77952Y-39570D03*
G54D25*
X77891Y-40682D03*
X77891Y-42782D03*
X78391Y-40682D03*
X78891Y-40682D03*
X79391Y-40682D03*
X78391Y-42782D03*
X78891Y-42782D03*
X79391Y-42782D03*
X81238Y-40583D03*
X81238Y-42683D03*
X81738Y-40583D03*
X82238Y-40583D03*
X82738Y-40583D03*
X81738Y-42683D03*
X82238Y-42683D03*
X82738Y-42683D03*
G54D28*
X74803Y-41029D03*
X74803Y-42829D03*
G54D29*
X74468Y-36712D03*
X73168Y-36712D03*
G54D30*
X74212Y-39134D03*
X74212Y-37834D03*
G54D31*
X83483Y-43110D03*
X84233Y-43110D03*
X71770Y-43700D03*
X72520Y-43700D03*
G54D32*
X76082Y-42144D03*
X76082Y-42894D03*
X76968Y-43189D03*
X76968Y-42439D03*
G54D31*
X71278Y-42716D03*
X72028Y-42716D03*
G54D32*
X75472Y-46634D03*
X75472Y-45884D03*
G54D31*
X71475Y-30413D03*
X72225Y-30413D03*
X71475Y-31102D03*
X72225Y-31102D03*
G54D32*
X72047Y-37617D03*
X72047Y-38367D03*
G54D31*
X84134Y-41240D03*
X83384Y-41240D03*
G54D32*
X71555Y-32991D03*
X71555Y-33741D03*
G54D33*
X77170Y-41732D03*
X76570Y-41732D03*
G54D34*
X72637Y-42514D03*
X72637Y-43114D03*
G54D33*
X74709Y-44685D03*
X74109Y-44685D03*
X75093Y-43503D03*
X75693Y-43503D03*
X74995Y-39271D03*
X75595Y-39271D03*
X74709Y-44094D03*
X74109Y-44094D03*
X74670Y-46062D03*
X74070Y-46062D03*
X71353Y-35531D03*
X71953Y-35531D03*
X94099Y-41633D03*
X93499Y-41633D03*
X94099Y-39448D03*
X93499Y-39448D03*
G54D34*
X76377Y-34059D03*
X76377Y-33459D03*
G54D33*
X72642Y-32381D03*
X72042Y-32381D03*
X74109Y-43503D03*
X74709Y-43503D03*
X75979Y-31102D03*
X76579Y-31102D03*
X74020Y-26771D03*
X73420Y-26771D03*
G54D34*
X75590Y-33075D03*
X75590Y-32475D03*
G54D33*
X74404Y-35629D03*
X75004Y-35629D03*
G54D34*
X72834Y-37495D03*
X72834Y-38095D03*
G54D33*
X84118Y-42480D03*
X83518Y-42480D03*
X73125Y-40255D03*
X73725Y-40255D03*
G54D34*
X71358Y-39374D03*
X71358Y-38774D03*
X75787Y-34059D03*
X75787Y-33459D03*
X71358Y-34847D03*
X71358Y-34247D03*
X71948Y-34847D03*
X71948Y-34247D03*
X75787Y-35034D03*
X75787Y-35634D03*
G54D33*
X76874Y-39271D03*
X76274Y-39271D03*
X75881Y-40551D03*
X76481Y-40551D03*
X74995Y-39960D03*
X75595Y-39960D03*
G54D35*
X71475Y-36909D03*
X72027Y-36909D03*
X71751Y-36122D03*
G54D36*
X73675Y-43572D03*
X73175Y-43572D03*
X73175Y-41072D03*
X73675Y-41072D03*
G54D37*
X85827Y-39173D03*
X83267Y-39173D03*
G54D38*
X77952Y-25885D03*
X74802Y-25885D03*
G54D39*
X90554Y-28127D03*
X90554Y-27627D03*
X90554Y-27127D03*
X90554Y-26627D03*
X90554Y-26127D03*
X90554Y-25627D03*
X90554Y-25127D03*
X90554Y-24627D03*
X87398Y-24627D03*
X87398Y-25127D03*
X87398Y-25627D03*
X87398Y-26127D03*
X87398Y-26627D03*
X87398Y-27127D03*
X87398Y-27627D03*
X87398Y-28127D03*
G54D40*
X74133Y-41633D03*
X73897Y-41633D03*
G54D34*
X93503Y-28449D03*
X93503Y-27849D03*
X92913Y-28449D03*
X92913Y-27849D03*
X92913Y-27465D03*
X92913Y-26865D03*
G54D33*
X89266Y-29330D03*
X89866Y-29330D03*
G54D34*
X91456Y-27416D03*
X91456Y-28016D03*
X92047Y-27613D03*
X92047Y-28213D03*
G54D33*
X91441Y-24015D03*
X90841Y-24015D03*
G54D34*
X93700Y-27229D03*
X93700Y-26629D03*
X92421Y-38873D03*
X92421Y-39473D03*
X91240Y-42711D03*
X91240Y-43311D03*
X87795Y-36422D03*
X87795Y-35822D03*
X86318Y-42327D03*
X86318Y-41727D03*
X91830Y-42711D03*
X91830Y-43311D03*
X90157Y-36520D03*
X90157Y-35920D03*
G54D33*
X90251Y-37106D03*
X90851Y-37106D03*
G54D41*
X90787Y-35846D03*
X90787Y-36220D03*
X90787Y-36594D03*
X91889Y-36594D03*
X91889Y-35846D03*
G54D42*
X93208Y-35255D03*
X93208Y-36397D03*
G54D43*
X94064Y-41003D03*
X94064Y-40098D03*
X93336Y-40098D03*
X93336Y-41003D03*
G54D34*
X80708Y-43302D03*
X80708Y-43902D03*
G54D31*
X84134Y-41830D03*
X83384Y-41830D03*
G54D33*
X80614Y-42224D03*
X80014Y-42224D03*
X78646Y-43503D03*
X78046Y-43503D03*
G54D32*
X75295Y-30493D03*
X75295Y-29743D03*
X76476Y-30493D03*
X76476Y-29743D03*
G54D33*
X80014Y-41338D03*
X80614Y-41338D03*
G54D44*
X92381Y-30492D03*
X92184Y-30492D03*
X91987Y-30492D03*
X91791Y-30492D03*
X91594Y-30492D03*
X91397Y-30492D03*
X91201Y-30492D03*
X91004Y-30492D03*
X90807Y-30492D03*
X90611Y-30492D03*
X90414Y-30492D03*
X90217Y-30492D03*
G54D45*
X89626Y-31083D03*
X89626Y-31280D03*
X89626Y-31477D03*
X89626Y-31673D03*
X89626Y-31870D03*
X89626Y-32067D03*
X89626Y-32263D03*
X89626Y-32460D03*
X89626Y-32657D03*
X89626Y-32853D03*
X89626Y-33050D03*
X89626Y-33247D03*
G54D44*
X90217Y-33838D03*
X90414Y-33838D03*
X90611Y-33838D03*
X90807Y-33838D03*
X91004Y-33838D03*
X91201Y-33838D03*
X91397Y-33838D03*
X91594Y-33838D03*
X91791Y-33838D03*
X91987Y-33838D03*
X92184Y-33838D03*
X92381Y-33838D03*
G54D45*
X92972Y-33247D03*
X92972Y-33050D03*
X92972Y-32853D03*
X92972Y-32657D03*
X92972Y-32460D03*
X92972Y-32263D03*
X92972Y-32067D03*
X92972Y-31870D03*
X92972Y-31673D03*
X92972Y-31477D03*
X92972Y-31280D03*
X92972Y-31083D03*
G54D32*
X93779Y-33562D03*
X93779Y-34312D03*
X89251Y-34705D03*
X89251Y-33955D03*
G54D34*
X91377Y-29827D03*
X91377Y-29227D03*
G54D33*
X91559Y-34527D03*
X90959Y-34527D03*
X89936Y-34724D03*
X90536Y-34724D03*
G54D34*
X93110Y-33637D03*
X93110Y-34237D03*
X92007Y-29827D03*
X92007Y-29227D03*
X92637Y-29827D03*
X92637Y-29227D03*
G54D32*
X93503Y-30178D03*
X93503Y-29428D03*
G54D46*
X80708Y-40669D03*
X79842Y-40669D03*
X79783Y-42913D03*
X80649Y-42913D03*
X72145Y-38838D03*
X72145Y-39704D03*
X74803Y-45472D03*
X73937Y-45472D03*
X72834Y-38838D03*
X72834Y-39704D03*
X71358Y-37460D03*
X71358Y-38326D03*
X76043Y-39862D03*
X76909Y-39862D03*
X73937Y-46692D03*
X74803Y-46692D03*
G54D47*
X91771Y-31062D03*
X91102Y-33149D03*
X87342Y-36909D03*
G54D48*
X91968Y-34409D03*
G54D47*
X89448Y-35157D03*
G54D48*
X93031Y-41732D03*
X80629Y-44724D03*
X93385Y-38464D03*
X91909Y-36240D03*
G54D47*
X89881Y-36909D03*
X85826Y-42125D03*
G54D48*
X84645Y-40826D03*
G54D47*
X90787Y-35570D03*
G54D48*
X77952Y-44448D03*
G54D47*
X75944Y-45433D03*
G54D48*
X71358Y-44291D03*
G54D47*
X75492Y-40452D03*
G54D48*
X73622Y-41633D03*
X76968Y-33267D03*
X71259Y-36023D03*
X76279Y-34842D03*
X74606Y-39763D03*
X77362Y-34940D03*
X75590Y-37598D03*
X73425Y-37500D03*
X76968Y-33858D03*
G54D47*
X87539Y-40000D03*
X87854Y-40000D03*
X88169Y-40000D03*
X88405Y-41240D03*
X88720Y-41240D03*
X89035Y-41240D03*
X89350Y-41240D03*
X89665Y-41240D03*
X89980Y-41240D03*
X90236Y-41062D03*
X90433Y-40807D03*
X90846Y-40807D03*
X92027Y-39685D03*
X92401Y-39822D03*
X92224Y-40295D03*
X92677Y-40295D03*
X92283Y-42125D03*
X92007Y-42263D03*
X91692Y-42283D03*
X91338Y-42224D03*
X93700Y-30905D03*
X85393Y-35000D03*
X84527Y-39468D03*
X86437Y-40295D03*
X91437Y-24507D03*
X88622Y-39173D03*
X88838Y-36948D03*
X92362Y-37755D03*
X92007Y-32637D03*
X89055Y-35354D03*
X88996Y-36476D03*
X93011Y-39527D03*
X92027Y-37755D03*
X89153Y-36948D03*
X91653Y-32913D03*
X87874Y-38779D03*
X87795Y-39133D03*
X92047Y-32952D03*
X91614Y-33228D03*
X87992Y-37204D03*
G54D48*
X78385Y-33897D03*
X74960Y-40511D03*
G54D47*
X73720Y-38385D03*
X72440Y-36909D03*
G54D48*
X77755Y-35531D03*
X78641Y-36417D03*
X76279Y-32775D03*
X74015Y-31397D03*
X76574Y-35236D03*
X77362Y-34055D03*
X71358Y-39763D03*
X73622Y-35531D03*
X77165Y-37500D03*
X76279Y-35629D03*
X75393Y-32086D03*
X76082Y-29330D03*
X73228Y-32677D03*
X73622Y-32677D03*
X74015Y-32677D03*
X74409Y-32677D03*
X74409Y-33070D03*
X74015Y-33070D03*
X73622Y-33070D03*
X73228Y-33070D03*
X77165Y-36548D03*
X76968Y-37106D03*
X76476Y-37106D03*
X75984Y-37106D03*
X75590Y-37106D03*
G54D47*
X87834Y-41456D03*
X93779Y-32913D03*
X91062Y-32322D03*
X92244Y-31692D03*
X93425Y-28858D03*
X91417Y-28346D03*
X83070Y-42027D03*
G54D48*
X93267Y-37362D03*
X79842Y-44724D03*
G54D47*
X85787Y-41732D03*
X75590Y-44685D03*
X91535Y-35354D03*
G54D48*
X90787Y-39527D03*
G54D47*
X90433Y-38425D03*
G54D48*
X94114Y-42165D03*
G54D47*
X94114Y-38877D03*
X87322Y-35826D03*
G54D48*
X82775Y-40059D03*
X82381Y-40059D03*
X81397Y-40059D03*
X80905Y-40157D03*
X81594Y-41043D03*
X82185Y-41043D03*
X81889Y-41338D03*
X81200Y-41338D03*
X82677Y-41633D03*
X88287Y-27066D03*
X74803Y-38582D03*
X75000Y-38090D03*
X76181Y-38090D03*
X76574Y-37992D03*
X88287Y-25295D03*
X83759Y-29035D03*
X77559Y-44251D03*
X77519Y-43464D03*
G54D47*
X73582Y-44291D03*
G54D48*
X76082Y-43503D03*
X75098Y-44586D03*
X79409Y-41692D03*
X78897Y-41653D03*
X78385Y-41220D03*
X78897Y-41220D03*
X79409Y-41220D03*
X74212Y-40452D03*
X80216Y-33858D03*
G54D47*
X91968Y-23937D03*
X94015Y-32283D03*
G54D49*
X91559Y-34527D02*
X91535Y-34527D01*
X91397Y-34389D02*
X91397Y-33838D01*
X91535Y-34527D02*
X91397Y-34389D01*
X91397Y-33838D02*
X91397Y-33444D01*
X91791Y-31043D02*
X91791Y-30492D01*
X91771Y-31062D02*
X91791Y-31043D01*
X91397Y-33444D02*
X91102Y-33149D01*
X91791Y-30492D02*
X91791Y-30044D01*
X91791Y-30044D02*
X92007Y-29827D01*
X91594Y-30492D02*
X91594Y-30043D01*
X91594Y-30043D02*
X91377Y-29827D01*
X92007Y-29827D02*
X91377Y-29827D01*
X92637Y-29827D02*
X92007Y-29827D01*
X93503Y-30178D02*
X92988Y-30178D01*
X92988Y-30178D02*
X92637Y-29827D01*
X91397Y-30492D02*
X91397Y-30176D01*
X93070Y-29745D02*
X93503Y-30178D01*
X93070Y-29645D02*
X93070Y-29745D01*
X92913Y-29488D02*
X93070Y-29645D01*
X91023Y-29488D02*
X92913Y-29488D01*
X90984Y-29527D02*
X91023Y-29488D01*
X90984Y-29921D02*
X90984Y-29527D01*
X91141Y-30078D02*
X90984Y-29921D01*
X91299Y-30078D02*
X91141Y-30078D01*
X91397Y-30176D02*
X91299Y-30078D01*
G54D50*
X87342Y-36909D02*
X87519Y-36909D01*
X87480Y-36889D02*
X87519Y-36889D01*
X87500Y-36889D02*
X87480Y-36889D01*
X87519Y-36909D02*
X87500Y-36889D01*
G54D51*
X87795Y-37893D02*
X87795Y-37441D01*
X87519Y-37165D02*
X87519Y-36889D01*
X87795Y-37441D02*
X87519Y-37165D01*
G54D50*
X87519Y-36697D02*
X87795Y-36422D01*
X87519Y-36889D02*
X87519Y-36697D01*
X93110Y-33637D02*
X92937Y-33637D01*
X92937Y-33637D02*
X92677Y-33897D01*
X92677Y-33897D02*
X92677Y-34251D01*
X92677Y-34251D02*
X92519Y-34409D01*
X92519Y-34409D02*
X91968Y-34409D01*
X93110Y-33637D02*
X93704Y-33637D01*
G54D49*
X93704Y-33637D02*
X93779Y-33562D01*
G54D50*
X89251Y-34705D02*
X89251Y-34960D01*
X89251Y-34960D02*
X89448Y-35157D01*
X89251Y-34705D02*
X89917Y-34705D01*
G54D49*
X89917Y-34705D02*
X89936Y-34724D01*
G54D50*
X90217Y-33838D02*
X90217Y-34330D01*
X90217Y-34330D02*
X90196Y-34330D01*
X90414Y-33838D02*
X90414Y-34231D01*
X90414Y-34231D02*
X90314Y-34330D01*
X90314Y-34330D02*
X90196Y-34330D01*
X89936Y-34394D02*
X89936Y-34724D01*
X90000Y-34330D02*
X89936Y-34394D01*
X90196Y-34330D02*
X90000Y-34330D01*
G54D49*
X89251Y-34705D02*
X89388Y-34705D01*
G54D50*
X91574Y-32362D02*
X92204Y-32362D01*
X91574Y-32362D02*
X91201Y-31988D01*
X91201Y-31988D02*
X91201Y-31259D01*
X92849Y-33637D02*
X92480Y-33267D01*
X93110Y-33637D02*
X92849Y-33637D01*
X92204Y-32362D02*
X92480Y-32637D01*
X92480Y-32637D02*
X92480Y-33267D01*
X91004Y-30492D02*
X91004Y-31200D01*
X91004Y-31200D02*
X91063Y-31259D01*
X91063Y-31259D02*
X91201Y-31259D01*
X91201Y-31259D02*
X91201Y-30492D01*
X91830Y-42711D02*
X92918Y-42711D01*
X92918Y-42711D02*
X93031Y-42598D01*
X93031Y-42598D02*
X93031Y-41732D01*
G54D52*
X80197Y-45787D02*
X80197Y-44880D01*
X80354Y-44724D02*
X80629Y-44724D01*
X80197Y-44880D02*
X80354Y-44724D01*
X80590Y-45787D02*
X80590Y-44763D01*
X80590Y-44763D02*
X80629Y-44724D01*
G54D50*
X93385Y-38464D02*
X92977Y-38873D01*
X92977Y-38873D02*
X92421Y-38873D01*
X91909Y-36240D02*
X91889Y-36260D01*
X91889Y-36594D02*
X91889Y-36260D01*
X89881Y-36909D02*
X90054Y-36909D01*
X90054Y-36909D02*
X90251Y-37106D01*
G54D51*
X86318Y-42327D02*
X85949Y-42327D01*
X85949Y-42327D02*
X85826Y-42204D01*
G54D49*
X85826Y-42204D02*
X85826Y-42125D01*
G54D51*
X87007Y-41633D02*
X87007Y-41693D01*
G54D49*
X86373Y-42327D02*
X86318Y-42327D01*
G54D51*
X87007Y-41693D02*
X86373Y-42327D01*
G54D49*
X90747Y-42421D02*
X90747Y-42696D01*
X90762Y-42711D02*
X91240Y-42711D01*
X90747Y-42696D02*
X90762Y-42711D01*
G54D50*
X91830Y-42711D02*
X91240Y-42711D01*
G54D49*
X93208Y-36397D02*
X93641Y-36397D01*
G54D51*
X91535Y-39271D02*
X91948Y-39271D01*
X92140Y-39153D02*
X92421Y-38873D01*
X92066Y-39153D02*
X92140Y-39153D01*
X91948Y-39271D02*
X92066Y-39153D01*
G54D50*
X91889Y-36594D02*
X93011Y-36594D01*
X93011Y-36594D02*
X93208Y-36397D01*
G54D53*
X90251Y-37106D02*
X90251Y-37337D01*
X90354Y-37441D02*
X90354Y-37893D01*
X90251Y-37337D02*
X90354Y-37441D01*
G54D50*
X84645Y-40826D02*
X84645Y-41141D01*
X84645Y-41141D02*
X84547Y-41240D01*
X84134Y-41240D02*
X84547Y-41240D01*
X90787Y-35571D02*
X90787Y-35570D01*
X90787Y-35571D02*
X90787Y-35846D01*
G54D54*
X84134Y-41830D02*
X84134Y-41240D01*
X84118Y-42480D02*
X84118Y-41846D01*
X84118Y-41846D02*
X84134Y-41830D01*
X84233Y-43110D02*
X84233Y-42594D01*
X84233Y-42594D02*
X84118Y-42480D01*
G54D50*
X84134Y-41240D02*
X84134Y-40373D01*
X85334Y-39173D02*
X85827Y-39173D01*
X84134Y-40373D02*
X85334Y-39173D01*
G54D52*
X80157Y-44420D02*
X80096Y-44420D01*
X80096Y-44420D02*
X79960Y-44284D01*
X79960Y-44284D02*
X78117Y-44284D01*
X78117Y-44284D02*
X77952Y-44448D01*
X81211Y-44420D02*
X80157Y-44420D01*
X81388Y-44242D02*
X81211Y-44420D01*
X80984Y-45787D02*
X80984Y-44920D01*
X81102Y-44803D02*
X81378Y-44803D01*
X80984Y-44920D02*
X81102Y-44803D01*
X81378Y-45787D02*
X81378Y-44803D01*
X81378Y-44803D02*
X81378Y-44253D01*
X81378Y-44253D02*
X81388Y-44242D01*
X82874Y-43602D02*
X81675Y-43602D01*
X83759Y-43602D02*
X82874Y-43602D01*
X84233Y-43128D02*
X83759Y-43602D01*
X84233Y-43128D02*
X84233Y-43110D01*
X81388Y-43888D02*
X81388Y-44242D01*
X81675Y-43602D02*
X81388Y-43888D01*
G54D49*
X84350Y-41240D02*
X84134Y-41240D01*
G54D50*
X90787Y-36594D02*
X91102Y-36594D01*
X91102Y-36594D02*
X91200Y-36496D01*
X91200Y-36496D02*
X91200Y-35944D01*
X91200Y-35944D02*
X91102Y-35846D01*
X91102Y-35846D02*
X90787Y-35846D01*
X90157Y-36520D02*
X90378Y-36520D01*
X90378Y-36520D02*
X90452Y-36594D01*
X90452Y-36594D02*
X90787Y-36594D01*
G54D52*
X75472Y-46634D02*
X75687Y-46634D01*
X75687Y-46634D02*
X75944Y-46377D01*
X75944Y-46377D02*
X75944Y-45433D01*
X75472Y-46634D02*
X74861Y-46634D01*
X74861Y-46634D02*
X74803Y-46692D01*
X75453Y-46653D02*
X75472Y-46634D01*
G54D50*
X86458Y-36937D02*
X86291Y-36937D01*
X85827Y-38110D02*
X85827Y-39173D01*
X85827Y-37401D02*
X85827Y-38110D01*
X86291Y-36937D02*
X85827Y-37401D01*
G54D52*
X84059Y-41315D02*
X84134Y-41240D01*
X71278Y-42716D02*
X71278Y-44211D01*
X71278Y-44211D02*
X71358Y-44291D01*
G54D54*
X75295Y-29743D02*
X75295Y-29429D01*
X75000Y-29134D02*
X75000Y-28740D01*
X75295Y-29429D02*
X75000Y-29134D01*
X74020Y-26771D02*
X77067Y-26771D01*
X77067Y-26771D02*
X77952Y-25885D01*
X74020Y-26771D02*
X74020Y-28164D01*
G54D55*
X74020Y-28164D02*
X73641Y-28543D01*
G54D54*
X75000Y-28740D02*
X73838Y-28740D01*
G54D55*
X73838Y-28740D02*
X73641Y-28543D01*
X73897Y-41633D02*
X74192Y-41633D01*
G54D52*
X75595Y-39960D02*
X75595Y-40349D01*
X75595Y-40349D02*
X75492Y-40452D01*
G54D55*
X73622Y-41633D02*
X73897Y-41633D01*
X73675Y-41580D02*
X73675Y-41072D01*
X73622Y-41633D02*
X73675Y-41580D01*
X76377Y-33459D02*
X76776Y-33459D01*
X76776Y-33459D02*
X76968Y-33267D01*
X71353Y-35929D02*
X71353Y-35531D01*
X71259Y-36023D02*
X71353Y-35929D01*
G54D53*
X75787Y-33459D02*
X76377Y-33459D01*
X74970Y-33415D02*
X75742Y-33415D01*
X75742Y-33415D02*
X75787Y-33459D01*
X71358Y-34247D02*
X71166Y-34247D01*
X71166Y-34247D02*
X70964Y-34448D01*
X70964Y-34448D02*
X70964Y-35334D01*
X70964Y-35334D02*
X71161Y-35531D01*
X71161Y-35531D02*
X71353Y-35531D01*
X72667Y-34438D02*
X72238Y-34438D01*
X72238Y-34438D02*
X72047Y-34247D01*
X71456Y-34247D02*
X72047Y-34247D01*
X76131Y-34694D02*
X76279Y-34842D01*
X74970Y-34694D02*
X76131Y-34694D01*
G54D55*
X74704Y-39665D02*
X74995Y-39665D01*
X74606Y-39763D02*
X74704Y-39665D01*
G54D53*
X74995Y-39960D02*
X74995Y-39665D01*
X74995Y-39665D02*
X74995Y-39271D01*
X72667Y-34694D02*
X72199Y-34694D01*
X72199Y-34694D02*
X72047Y-34847D01*
X72667Y-34950D02*
X72431Y-34950D01*
X71648Y-35137D02*
X71358Y-34847D01*
X72244Y-35137D02*
X71648Y-35137D01*
X72431Y-34950D02*
X72244Y-35137D01*
G54D52*
X76874Y-39271D02*
X76874Y-39127D01*
X77007Y-38994D02*
X77007Y-37933D01*
X76874Y-39127D02*
X77007Y-38994D01*
X77007Y-37933D02*
X76673Y-37598D01*
G54D55*
X75324Y-34183D02*
X74970Y-34183D01*
X76771Y-34350D02*
X77362Y-34940D01*
X75492Y-34350D02*
X76771Y-34350D01*
X75324Y-34183D02*
X75492Y-34350D01*
X76673Y-37598D02*
X75590Y-37598D01*
X76909Y-39862D02*
X76909Y-39306D01*
X76909Y-39306D02*
X76874Y-39271D01*
X76874Y-39271D02*
X76874Y-39266D01*
X76909Y-39862D02*
X76870Y-39862D01*
X75393Y-33759D02*
X76870Y-33759D01*
X75305Y-33671D02*
X75393Y-33759D01*
X74970Y-33671D02*
X75305Y-33671D01*
X73420Y-37495D02*
X72834Y-37495D01*
X73425Y-37500D02*
X73420Y-37495D01*
X76870Y-33759D02*
X76968Y-33858D01*
G54D49*
X87007Y-39468D02*
X87283Y-39468D01*
X87539Y-39724D02*
X87539Y-40000D01*
X87283Y-39468D02*
X87539Y-39724D01*
X87007Y-39271D02*
X87382Y-39271D01*
X87854Y-39744D02*
X87854Y-40000D01*
X87382Y-39271D02*
X87854Y-39744D01*
X87007Y-39074D02*
X87368Y-39074D01*
X88169Y-39875D02*
X88169Y-40000D01*
X87368Y-39074D02*
X88169Y-39875D01*
X88385Y-37893D02*
X88385Y-38254D01*
X89310Y-40335D02*
X88405Y-41240D01*
X89310Y-39179D02*
X89310Y-40335D01*
X88385Y-38254D02*
X89310Y-39179D01*
X88582Y-37893D02*
X88582Y-38267D01*
X89440Y-40520D02*
X88720Y-41240D01*
X89440Y-39125D02*
X89440Y-40520D01*
X88582Y-38267D02*
X89440Y-39125D01*
X88779Y-37893D02*
X88779Y-38188D01*
X89570Y-40705D02*
X89035Y-41240D01*
X89570Y-38979D02*
X89570Y-40705D01*
X88779Y-38188D02*
X89570Y-38979D01*
X88976Y-37893D02*
X88976Y-38189D01*
X89700Y-40890D02*
X89350Y-41240D01*
X89700Y-38913D02*
X89700Y-40890D01*
X88976Y-38189D02*
X89700Y-38913D01*
X89763Y-38483D02*
X89763Y-37893D01*
X89830Y-41075D02*
X89665Y-41240D01*
X89830Y-38550D02*
X89830Y-41075D01*
X89763Y-38483D02*
X89830Y-38550D01*
X89960Y-37893D02*
X89960Y-41220D01*
X89960Y-41220D02*
X89980Y-41240D01*
X90157Y-37893D02*
X90157Y-38779D01*
X90106Y-40932D02*
X90236Y-41062D01*
X90106Y-38830D02*
X90106Y-40932D01*
X90157Y-38779D02*
X90106Y-38830D01*
X90747Y-37893D02*
X90747Y-38465D01*
X90236Y-40610D02*
X90433Y-40807D01*
X90236Y-38976D02*
X90236Y-40610D01*
X90747Y-38465D02*
X90236Y-38976D01*
X90846Y-40807D02*
X90846Y-40767D01*
X90728Y-39074D02*
X91535Y-39074D01*
X90433Y-39370D02*
X90728Y-39074D01*
X90433Y-40354D02*
X90433Y-39370D01*
X90846Y-40767D02*
X90433Y-40354D01*
X91535Y-39665D02*
X92008Y-39665D01*
X92008Y-39665D02*
X92027Y-39685D01*
X91535Y-39862D02*
X91822Y-39862D01*
X92294Y-39929D02*
X92401Y-39822D01*
X91889Y-39929D02*
X92294Y-39929D01*
X91822Y-39862D02*
X91889Y-39929D01*
X91535Y-40256D02*
X92185Y-40256D01*
X92185Y-40256D02*
X92224Y-40295D01*
X91535Y-40452D02*
X91929Y-40452D01*
X92677Y-40446D02*
X92677Y-40295D01*
X92603Y-40519D02*
X92677Y-40446D01*
X91996Y-40519D02*
X92603Y-40519D01*
X91929Y-40452D02*
X91996Y-40519D01*
X91535Y-41043D02*
X91903Y-41043D01*
X92228Y-42071D02*
X92283Y-42125D01*
X92228Y-41368D02*
X92228Y-42071D01*
X91903Y-41043D02*
X92228Y-41368D01*
X91535Y-41240D02*
X91916Y-41240D01*
X92007Y-42066D02*
X92007Y-42263D01*
X92098Y-41976D02*
X92007Y-42066D01*
X92098Y-41422D02*
X92098Y-41976D01*
X91916Y-41240D02*
X92098Y-41422D01*
X91535Y-41437D02*
X91929Y-41437D01*
X91692Y-42106D02*
X91692Y-42283D01*
X91968Y-41830D02*
X91692Y-42106D01*
X91968Y-41476D02*
X91968Y-41830D01*
X91929Y-41437D02*
X91968Y-41476D01*
X91535Y-41633D02*
X91535Y-42027D01*
X91535Y-42027D02*
X91338Y-42224D01*
X86456Y-39921D02*
X86141Y-39921D01*
X86712Y-39665D02*
X86456Y-39921D01*
X87007Y-39665D02*
X86712Y-39665D01*
X82559Y-45051D02*
X82559Y-45787D01*
X83178Y-44432D02*
X82559Y-45051D01*
X83932Y-44432D02*
X83178Y-44432D01*
X84790Y-43574D02*
X83932Y-44432D01*
X84790Y-41271D02*
X84790Y-43574D01*
X86141Y-39921D02*
X84790Y-41271D01*
X84920Y-41325D02*
X86187Y-40059D01*
X84920Y-41325D02*
X84920Y-43628D01*
X84920Y-43628D02*
X83986Y-44562D01*
X83986Y-44562D02*
X83232Y-44562D01*
X83232Y-44562D02*
X82952Y-44842D01*
X82952Y-45787D02*
X82952Y-44842D01*
X87007Y-39862D02*
X86724Y-39862D01*
X86528Y-40059D02*
X86187Y-40059D01*
X86724Y-39862D02*
X86528Y-40059D01*
X87007Y-40452D02*
X86641Y-40452D01*
X85910Y-40519D02*
X85050Y-41379D01*
X86574Y-40519D02*
X85910Y-40519D01*
X86641Y-40452D02*
X86574Y-40519D01*
X83346Y-44802D02*
X83346Y-45787D01*
X83456Y-44692D02*
X83346Y-44802D01*
X84040Y-44692D02*
X83456Y-44692D01*
X85050Y-43682D02*
X84040Y-44692D01*
X85050Y-41379D02*
X85050Y-43682D01*
X87007Y-40649D02*
X85963Y-40649D01*
X83740Y-44881D02*
X83740Y-45787D01*
X83799Y-44822D02*
X83740Y-44881D01*
X84094Y-44822D02*
X83799Y-44822D01*
X85180Y-43736D02*
X84094Y-44822D01*
X85180Y-41432D02*
X85180Y-43736D01*
X85963Y-40649D02*
X85180Y-41432D01*
X87007Y-40846D02*
X85950Y-40846D01*
X84134Y-44966D02*
X84134Y-45787D01*
X85310Y-43789D02*
X84134Y-44966D01*
X85310Y-41486D02*
X85310Y-43789D01*
X85950Y-40846D02*
X85310Y-41486D01*
X87007Y-41043D02*
X85937Y-41043D01*
X84527Y-44756D02*
X84527Y-45787D01*
X85440Y-43843D02*
X84527Y-44756D01*
X85440Y-41540D02*
X85440Y-43843D01*
X85937Y-41043D02*
X85440Y-41540D01*
X87007Y-41240D02*
X85924Y-41240D01*
X84921Y-44546D02*
X84921Y-45787D01*
X85570Y-43897D02*
X84921Y-44546D01*
X85570Y-41594D02*
X85570Y-43897D01*
X85924Y-41240D02*
X85570Y-41594D01*
G54D53*
X87795Y-42421D02*
X87795Y-42755D01*
X85315Y-44762D02*
X85315Y-45787D01*
X86535Y-43543D02*
X85315Y-44762D01*
X87007Y-43543D02*
X86535Y-43543D01*
X87795Y-42755D02*
X87007Y-43543D01*
X87992Y-42421D02*
X87992Y-42770D01*
X85708Y-44724D02*
X85708Y-45787D01*
X86739Y-43693D02*
X85708Y-44724D01*
X87070Y-43693D02*
X86739Y-43693D01*
X87992Y-42770D02*
X87070Y-43693D01*
X88188Y-42421D02*
X88188Y-42787D01*
X86102Y-44724D02*
X86102Y-45787D01*
X86983Y-43843D02*
X86102Y-44724D01*
X87132Y-43843D02*
X86983Y-43843D01*
X88188Y-42787D02*
X87132Y-43843D01*
X88385Y-42421D02*
X88385Y-42802D01*
X86496Y-44690D02*
X86496Y-45787D01*
X88385Y-42802D02*
X86496Y-44690D01*
X88582Y-42421D02*
X88582Y-42817D01*
X86889Y-44509D02*
X86889Y-45787D01*
X88582Y-42817D02*
X86889Y-44509D01*
X88779Y-42421D02*
X88779Y-42832D01*
X87283Y-44328D02*
X87283Y-45787D01*
X88779Y-42832D02*
X87283Y-44328D01*
X88976Y-42421D02*
X88976Y-42873D01*
X87677Y-44172D02*
X87677Y-45787D01*
X88976Y-42873D02*
X87677Y-44172D01*
X89173Y-42421D02*
X89173Y-42913D01*
X88071Y-44014D02*
X88071Y-45787D01*
X89173Y-42913D02*
X88071Y-44014D01*
X89370Y-42421D02*
X89370Y-42952D01*
X88464Y-43858D02*
X88464Y-45787D01*
X89370Y-42952D02*
X88464Y-43858D01*
X89566Y-42421D02*
X89566Y-42992D01*
X88858Y-43700D02*
X88858Y-45787D01*
X89566Y-42992D02*
X88858Y-43700D01*
X89763Y-42421D02*
X89763Y-43007D01*
X89252Y-43518D02*
X89252Y-45787D01*
X89763Y-43007D02*
X89252Y-43518D01*
X89960Y-42421D02*
X89960Y-43022D01*
X89645Y-43337D02*
X89645Y-45787D01*
X89960Y-43022D02*
X89645Y-43337D01*
X90157Y-42421D02*
X90157Y-43038D01*
X90039Y-43155D02*
X90039Y-45787D01*
X90157Y-43038D02*
X90039Y-43155D01*
X90354Y-42421D02*
X90354Y-43110D01*
X90433Y-43189D02*
X90433Y-45787D01*
X90354Y-43110D02*
X90433Y-43189D01*
G54D49*
X84685Y-35708D02*
X85393Y-35000D01*
X93640Y-31280D02*
X92972Y-31280D01*
X93700Y-31220D02*
X93640Y-31280D01*
X93700Y-30905D02*
X93700Y-31220D01*
X87007Y-40059D02*
X86711Y-40059D01*
X84685Y-39311D02*
X84685Y-35708D01*
X84685Y-35708D02*
X84685Y-35688D01*
X84527Y-39468D02*
X84685Y-39311D01*
X86515Y-40216D02*
X86437Y-40295D01*
X86555Y-40216D02*
X86515Y-40216D01*
X86711Y-40059D02*
X86555Y-40216D01*
X90841Y-24015D02*
X90629Y-24015D01*
X80877Y-24634D02*
X80877Y-25652D01*
X81692Y-23818D02*
X80877Y-24634D01*
X90433Y-23818D02*
X81692Y-23818D01*
X90629Y-24015D02*
X90433Y-23818D01*
X91567Y-25451D02*
X91567Y-24637D01*
X92436Y-26629D02*
X91827Y-26019D01*
X91827Y-26019D02*
X91827Y-25711D01*
X91827Y-25711D02*
X91567Y-25451D01*
X93700Y-26629D02*
X92436Y-26629D01*
X91567Y-24637D02*
X91437Y-24507D01*
X87007Y-40256D02*
X88286Y-40256D01*
X88622Y-39921D02*
X88622Y-39173D01*
X88286Y-40256D02*
X88622Y-39921D01*
X89626Y-31477D02*
X89191Y-31477D01*
X88845Y-36824D02*
X88295Y-36274D01*
X88845Y-36942D02*
X88845Y-36824D01*
X88845Y-36942D02*
X88838Y-36948D01*
X88295Y-32374D02*
X88295Y-36274D01*
X89191Y-31477D02*
X88295Y-32374D01*
X91535Y-38878D02*
X91829Y-38878D01*
X91929Y-38188D02*
X92362Y-37755D01*
X91929Y-38779D02*
X91929Y-38188D01*
X91829Y-38878D02*
X91929Y-38779D01*
X89649Y-36141D02*
X89649Y-36132D01*
X89649Y-36132D02*
X89055Y-35537D01*
X90611Y-33207D02*
X91220Y-32598D01*
X91220Y-32598D02*
X91968Y-32598D01*
X91968Y-32598D02*
X92007Y-32637D01*
X90611Y-33838D02*
X90611Y-33207D01*
X89055Y-35537D02*
X89055Y-35354D01*
X89566Y-37343D02*
X89566Y-37893D01*
X89649Y-37259D02*
X89566Y-37343D01*
X89649Y-36141D02*
X89649Y-37259D01*
X89626Y-32263D02*
X88799Y-32263D01*
X92479Y-40059D02*
X91535Y-40059D01*
X88996Y-36476D02*
X88555Y-36035D01*
X92479Y-40059D02*
X93011Y-39527D01*
X88555Y-32507D02*
X88555Y-36035D01*
X88799Y-32263D02*
X88555Y-32507D01*
X89626Y-32067D02*
X88811Y-32067D01*
X88425Y-32453D02*
X88425Y-36220D01*
X88811Y-32067D02*
X88425Y-32453D01*
X91535Y-38248D02*
X92027Y-37755D01*
X89153Y-36948D02*
X88464Y-36259D01*
X88464Y-36259D02*
X88425Y-36220D01*
X91535Y-38681D02*
X91535Y-38248D01*
X89626Y-33050D02*
X89193Y-33050D01*
X89193Y-33050D02*
X88815Y-33428D01*
X89370Y-37348D02*
X89370Y-37893D01*
X89519Y-37199D02*
X89519Y-36186D01*
X89370Y-37348D02*
X89519Y-37199D01*
X88815Y-35481D02*
X89519Y-36186D01*
X88815Y-33428D02*
X88815Y-35481D01*
X89626Y-32853D02*
X89206Y-32853D01*
X88685Y-35535D02*
X89389Y-36240D01*
X89173Y-37362D02*
X89389Y-37145D01*
X89389Y-37145D02*
X89389Y-36240D01*
X89173Y-37362D02*
X89173Y-37893D01*
X88685Y-33375D02*
X88685Y-35535D01*
X89206Y-32853D02*
X88685Y-33375D01*
X92184Y-33457D02*
X91653Y-32926D01*
X91653Y-32926D02*
X91653Y-32913D01*
X92184Y-33838D02*
X92184Y-33457D01*
X87776Y-38681D02*
X87007Y-38681D01*
X87874Y-38779D02*
X87776Y-38681D01*
X92381Y-33838D02*
X92381Y-33470D01*
X87540Y-38878D02*
X87007Y-38878D01*
X87795Y-39133D02*
X87540Y-38878D01*
X92047Y-33136D02*
X92047Y-32952D01*
X92381Y-33470D02*
X92047Y-33136D01*
X91987Y-33443D02*
X91771Y-33228D01*
X91771Y-33228D02*
X91614Y-33228D01*
X91987Y-33838D02*
X91987Y-33443D01*
X88188Y-37401D02*
X88188Y-37893D01*
X87992Y-37204D02*
X88188Y-37401D01*
X90611Y-30492D02*
X90611Y-28955D01*
X90838Y-28728D02*
X92559Y-28728D01*
X90611Y-28955D02*
X90838Y-28728D01*
X92562Y-27306D02*
X92562Y-28728D01*
X92562Y-27306D02*
X91437Y-26181D01*
X91437Y-26181D02*
X91437Y-25885D01*
X91437Y-25885D02*
X91179Y-25627D01*
X90554Y-25627D02*
X91179Y-25627D01*
X92559Y-28700D02*
X92559Y-28728D01*
X92559Y-28724D02*
X92559Y-28700D01*
X92562Y-28728D02*
X92559Y-28724D01*
X92716Y-28728D02*
X92559Y-28728D01*
X92913Y-28449D02*
X92913Y-28531D01*
X92913Y-28531D02*
X92716Y-28728D01*
X92716Y-28530D02*
X92716Y-28543D01*
X90807Y-30492D02*
X90807Y-28995D01*
X92928Y-26865D02*
X93307Y-27244D01*
X93307Y-27244D02*
X93307Y-27440D01*
X93307Y-27440D02*
X93385Y-27519D01*
X93385Y-27519D02*
X93779Y-27519D01*
X93779Y-27519D02*
X93976Y-27716D01*
X93976Y-27716D02*
X93976Y-28740D01*
X92874Y-28858D02*
X90944Y-28858D01*
X92928Y-26865D02*
X92913Y-26865D01*
X92913Y-28858D02*
X93149Y-29094D01*
X93149Y-29094D02*
X93622Y-29094D01*
X93622Y-29094D02*
X93976Y-28740D01*
X92874Y-28858D02*
X92913Y-28858D01*
X90807Y-28995D02*
X90944Y-28858D01*
X92913Y-26865D02*
X92488Y-26865D01*
X91163Y-24627D02*
X90554Y-24627D01*
X91437Y-24901D02*
X91163Y-24627D01*
X91437Y-25505D02*
X91437Y-24901D01*
X91697Y-25765D02*
X91437Y-25505D01*
X91697Y-26073D02*
X91697Y-25765D01*
X92488Y-26865D02*
X91697Y-26073D01*
X92913Y-27849D02*
X93602Y-27849D01*
X92913Y-27465D02*
X92905Y-27465D01*
X91072Y-25127D02*
X90554Y-25127D01*
X91240Y-25295D02*
X91072Y-25127D01*
X91240Y-25492D02*
X91240Y-25295D01*
X91567Y-25818D02*
X91240Y-25492D01*
X91567Y-26127D02*
X91567Y-25818D01*
X92905Y-27465D02*
X91567Y-26127D01*
X92913Y-27849D02*
X92913Y-27465D01*
X89866Y-29330D02*
X90217Y-29330D01*
X90217Y-29330D02*
X90196Y-29330D01*
X90196Y-29330D02*
X90217Y-29330D01*
X90554Y-28540D02*
X90554Y-28644D01*
X90554Y-28127D02*
X90554Y-28540D01*
X90217Y-28982D02*
X90217Y-29330D01*
X90217Y-29330D02*
X90217Y-30492D01*
X90554Y-28644D02*
X90217Y-28982D01*
X90787Y-28598D02*
X90784Y-28598D01*
X90784Y-28598D02*
X90414Y-28968D01*
X90414Y-28968D02*
X90414Y-30492D01*
X92047Y-28213D02*
X92047Y-28307D01*
X92047Y-28307D02*
X91756Y-28598D01*
X90554Y-27127D02*
X92200Y-27127D01*
X92298Y-28213D02*
X92047Y-28213D01*
X92432Y-28079D02*
X92298Y-28213D01*
X92432Y-27360D02*
X92432Y-28079D01*
X92200Y-27127D02*
X92432Y-27360D01*
X91756Y-28598D02*
X90787Y-28598D01*
X91456Y-27416D02*
X91850Y-27416D01*
X91850Y-27416D02*
X92047Y-27613D01*
X89266Y-29330D02*
X89266Y-29079D01*
X89931Y-27627D02*
X90554Y-27627D01*
X89842Y-27716D02*
X89931Y-27627D01*
X89842Y-28503D02*
X89842Y-27716D01*
X89266Y-29079D02*
X89842Y-28503D01*
X90554Y-27627D02*
X91112Y-27627D01*
X91323Y-27416D02*
X91456Y-27416D01*
X91112Y-27627D02*
X91323Y-27416D01*
G54D54*
X74901Y-31594D02*
X75590Y-31594D01*
X72736Y-31894D02*
X74601Y-31894D01*
X74901Y-31594D02*
X74601Y-31894D01*
X77425Y-32342D02*
X77952Y-32870D01*
X76920Y-32342D02*
X77425Y-32342D01*
X76526Y-31948D02*
X76920Y-32342D01*
X75944Y-31948D02*
X76526Y-31948D01*
X75590Y-31594D02*
X75944Y-31948D01*
G54D52*
X78385Y-33897D02*
X78228Y-33740D01*
X78228Y-33740D02*
X78228Y-33145D01*
X78228Y-33145D02*
X77952Y-32870D01*
G54D54*
X77854Y-32968D02*
X77952Y-32870D01*
G54D53*
X72667Y-32903D02*
X72667Y-32406D01*
X72667Y-32406D02*
X72642Y-32381D01*
X72642Y-32381D02*
X72642Y-31894D01*
X72642Y-31894D02*
X72647Y-31889D01*
X72647Y-31889D02*
X72736Y-31889D01*
X72736Y-31889D02*
X72736Y-31894D01*
X72667Y-33159D02*
X72667Y-32903D01*
G54D54*
X72736Y-31894D02*
X71953Y-31894D01*
G54D55*
X71475Y-31102D02*
X71475Y-31416D01*
G54D54*
X71475Y-31416D02*
X71953Y-31894D01*
X71475Y-30413D02*
X71475Y-31102D01*
G54D55*
X71830Y-28543D02*
X71830Y-28956D01*
G54D54*
X71475Y-29312D02*
X71475Y-30413D01*
G54D55*
X71830Y-28956D02*
X71475Y-29312D01*
X74192Y-41633D02*
X74133Y-41633D01*
G54D52*
X74133Y-41633D02*
X74350Y-41633D01*
X74803Y-41181D02*
X74803Y-41029D01*
X74350Y-41633D02*
X74803Y-41181D01*
X74960Y-40511D02*
X74803Y-40669D01*
X74803Y-40669D02*
X74803Y-41029D01*
G54D49*
X73425Y-38582D02*
X73523Y-38582D01*
X73523Y-38582D02*
X73720Y-38385D01*
X72027Y-36909D02*
X72440Y-36909D01*
X72440Y-36909D02*
X72440Y-36909D01*
G54D54*
X73523Y-39665D02*
X74015Y-39665D01*
X73425Y-38582D02*
X73425Y-39566D01*
X73425Y-39566D02*
X73523Y-39665D01*
X74606Y-40832D02*
X74803Y-41029D01*
X74606Y-40255D02*
X74606Y-40832D01*
X74015Y-39665D02*
X74606Y-40255D01*
X73976Y-37834D02*
X73425Y-38385D01*
X73425Y-38385D02*
X73425Y-38582D01*
X75881Y-40551D02*
X75881Y-40654D01*
X75881Y-40654D02*
X75506Y-41029D01*
X75506Y-41029D02*
X74803Y-41029D01*
X77362Y-35433D02*
X76771Y-36023D01*
X73917Y-37538D02*
X74212Y-37834D01*
X73917Y-36220D02*
X73917Y-37538D01*
X74114Y-36023D02*
X73917Y-36220D01*
X76771Y-36023D02*
X74114Y-36023D01*
G54D55*
X77755Y-33956D02*
X77755Y-33661D01*
G54D54*
X77559Y-35236D02*
X77755Y-35039D01*
X77755Y-35039D02*
X77755Y-33956D01*
G54D55*
X77066Y-32775D02*
X76279Y-32775D01*
X77362Y-33070D02*
X77066Y-32775D01*
X77362Y-33267D02*
X77362Y-33070D01*
X77755Y-33661D02*
X77362Y-33267D01*
X74970Y-34438D02*
X75297Y-34438D01*
X75297Y-34438D02*
X75379Y-34520D01*
X75379Y-34520D02*
X76646Y-34520D01*
X76646Y-34520D02*
X76968Y-34842D01*
X76968Y-34842D02*
X76968Y-35039D01*
X76968Y-35039D02*
X77362Y-35433D01*
G54D54*
X74212Y-37834D02*
X73976Y-37834D01*
X77559Y-35236D02*
X77362Y-35433D01*
G54D55*
X72047Y-37617D02*
X72047Y-36929D01*
X72047Y-36929D02*
X72027Y-36909D01*
X74212Y-37834D02*
X72972Y-37834D01*
X72225Y-37795D02*
X72047Y-37617D01*
X72933Y-37795D02*
X72225Y-37795D01*
X72972Y-37834D02*
X72933Y-37795D01*
X72145Y-38838D02*
X72283Y-38838D01*
X73326Y-38484D02*
X73976Y-37834D01*
X72637Y-38484D02*
X73326Y-38484D01*
X72283Y-38838D02*
X72637Y-38484D01*
X71358Y-38326D02*
X71358Y-38774D01*
X72145Y-38838D02*
X71422Y-38838D01*
X71422Y-38838D02*
X71358Y-38774D01*
G54D54*
X81889Y-32870D02*
X81889Y-33169D01*
X77559Y-35334D02*
X77559Y-35236D01*
X77755Y-35531D02*
X77559Y-35334D01*
X81889Y-33169D02*
X78641Y-36417D01*
G54D53*
X76087Y-33075D02*
X76279Y-32883D01*
X76279Y-32883D02*
X76279Y-32775D01*
X75590Y-33075D02*
X76087Y-33075D01*
G54D55*
X74212Y-37834D02*
X74212Y-37795D01*
G54D54*
X73720Y-31102D02*
X74015Y-31397D01*
X73720Y-31102D02*
X72225Y-31102D01*
G54D53*
X74970Y-33159D02*
X75506Y-33159D01*
X75506Y-33159D02*
X75590Y-33075D01*
G54D54*
X72225Y-30413D02*
X72225Y-31102D01*
X73420Y-26771D02*
X72834Y-26771D01*
X72736Y-29902D02*
X72225Y-30413D01*
X72736Y-26870D02*
X72736Y-29902D01*
X72834Y-26771D02*
X72736Y-26870D01*
G54D55*
X74802Y-25885D02*
X74015Y-25885D01*
G54D54*
X73420Y-26481D02*
X73420Y-26771D01*
X74015Y-25885D02*
X73420Y-26481D01*
G54D55*
X75787Y-35034D02*
X75979Y-35034D01*
X75979Y-35034D02*
X76181Y-35236D01*
X76181Y-35236D02*
X76574Y-35236D01*
X76377Y-34059D02*
X76481Y-34059D01*
X77263Y-34153D02*
X77362Y-34055D01*
X76574Y-34153D02*
X77263Y-34153D01*
X76481Y-34059D02*
X76574Y-34153D01*
G54D53*
X74970Y-34950D02*
X75703Y-34950D01*
X75703Y-34950D02*
X75787Y-35034D01*
G54D55*
X74635Y-33927D02*
X74606Y-33956D01*
X74606Y-33956D02*
X74606Y-34940D01*
X74606Y-34940D02*
X74409Y-35137D01*
X74409Y-35137D02*
X74015Y-35137D01*
X74635Y-33927D02*
X74970Y-33927D01*
X73622Y-35531D02*
X74015Y-35137D01*
X71358Y-39763D02*
X71358Y-40925D01*
X71358Y-40925D02*
X71377Y-40944D01*
X71358Y-39763D02*
X71358Y-39374D01*
G54D53*
X74970Y-33927D02*
X75364Y-33927D01*
X75364Y-33927D02*
X75496Y-34059D01*
X75496Y-34059D02*
X75787Y-34059D01*
G54D52*
X76181Y-40944D02*
X76673Y-40944D01*
X76673Y-40944D02*
X77165Y-40452D01*
X77165Y-40452D02*
X77165Y-39055D01*
X73175Y-41679D02*
X73175Y-41072D01*
X75688Y-41437D02*
X76181Y-40944D01*
X75098Y-41437D02*
X75688Y-41437D01*
X74606Y-41929D02*
X75098Y-41437D01*
X73425Y-41929D02*
X74606Y-41929D01*
X73175Y-41679D02*
X73425Y-41929D01*
X77204Y-37539D02*
X77165Y-37500D01*
X77204Y-39015D02*
X77204Y-37539D01*
X77165Y-39055D02*
X77204Y-39015D01*
G54D55*
X75787Y-35634D02*
X76274Y-35634D01*
X76274Y-35634D02*
X76279Y-35629D01*
G54D53*
X75004Y-35629D02*
X75393Y-35629D01*
X75393Y-35629D02*
X75398Y-35634D01*
X74970Y-35206D02*
X75265Y-35206D01*
X75398Y-35634D02*
X75787Y-35634D01*
X75393Y-35334D02*
X75393Y-35629D01*
X75265Y-35206D02*
X75393Y-35334D01*
G54D54*
X76574Y-29330D02*
X76574Y-29644D01*
X76574Y-29644D02*
X76476Y-29743D01*
X75393Y-32086D02*
X75590Y-32283D01*
X75590Y-32475D02*
X75590Y-32283D01*
X76082Y-29330D02*
X76574Y-29330D01*
G54D52*
X73818Y-34055D02*
X73818Y-33661D01*
X73818Y-33661D02*
X73228Y-33070D01*
X74015Y-32677D02*
X73622Y-32677D01*
X74409Y-33070D02*
X74409Y-32677D01*
X73622Y-33070D02*
X74015Y-33070D01*
G54D53*
X72667Y-33671D02*
X72253Y-33671D01*
X71770Y-32991D02*
X71555Y-32991D01*
X72047Y-33267D02*
X71770Y-32991D01*
X72047Y-33464D02*
X72047Y-33267D01*
X72253Y-33671D02*
X72047Y-33464D01*
G54D54*
X76574Y-29330D02*
X76377Y-29330D01*
G54D50*
X74970Y-32903D02*
X74970Y-32608D01*
X74970Y-32608D02*
X75103Y-32475D01*
X75103Y-32475D02*
X75590Y-32475D01*
X74970Y-32903D02*
X74576Y-32903D01*
X74576Y-32903D02*
X73818Y-33661D01*
X72667Y-33671D02*
X73435Y-33671D01*
X73435Y-33671D02*
X73818Y-34055D01*
G54D54*
X76574Y-29330D02*
X76574Y-28740D01*
G54D55*
X76574Y-28740D02*
X76574Y-28740D01*
G54D52*
X75234Y-36548D02*
X75234Y-36750D01*
X77165Y-36909D02*
X77165Y-36548D01*
X76968Y-37106D02*
X77165Y-36909D01*
X75984Y-37106D02*
X76476Y-37106D01*
X75234Y-36750D02*
X75590Y-37106D01*
G54D54*
X76734Y-36548D02*
X76234Y-36548D01*
X76234Y-36548D02*
X75734Y-36548D01*
X75734Y-36548D02*
X75234Y-36548D01*
X75234Y-36548D02*
X74633Y-36548D01*
X74633Y-36548D02*
X74468Y-36712D01*
X78937Y-32870D02*
X78937Y-35137D01*
X77526Y-36548D02*
X76734Y-36548D01*
X78937Y-35137D02*
X77526Y-36548D01*
G54D49*
X87007Y-41437D02*
X87815Y-41437D01*
X87815Y-41437D02*
X87834Y-41456D01*
X92972Y-33247D02*
X93406Y-33247D01*
X93406Y-33247D02*
X93740Y-32913D01*
X93740Y-32913D02*
X93779Y-32913D01*
X94251Y-33307D02*
X94251Y-33188D01*
X94251Y-33188D02*
X93976Y-32913D01*
X93976Y-32913D02*
X93779Y-32913D01*
X94251Y-33307D02*
X94251Y-34251D01*
X94251Y-34251D02*
X94191Y-34312D01*
X93779Y-34312D02*
X94191Y-34312D01*
X93110Y-34237D02*
X93110Y-34566D01*
X90959Y-34700D02*
X91181Y-34921D01*
X91181Y-34921D02*
X91850Y-34921D01*
X91850Y-34921D02*
X92165Y-34606D01*
X92165Y-34606D02*
X92834Y-34606D01*
X90959Y-34700D02*
X90959Y-34527D01*
X93070Y-34606D02*
X92834Y-34606D01*
X93110Y-34566D02*
X93070Y-34606D01*
X90275Y-32440D02*
X90944Y-32440D01*
X90944Y-32440D02*
X91062Y-32322D01*
X92244Y-31692D02*
X92244Y-31062D01*
X93203Y-34237D02*
X93775Y-34237D01*
X93775Y-34237D02*
X93818Y-34193D01*
X90536Y-34724D02*
X90762Y-34724D01*
X90762Y-34724D02*
X90959Y-34527D01*
X89251Y-33955D02*
X89251Y-33779D01*
X89626Y-33405D02*
X89626Y-33247D01*
X89251Y-33779D02*
X89626Y-33405D01*
X89626Y-33247D02*
X90059Y-33247D01*
X90275Y-33031D02*
X90275Y-32440D01*
X90275Y-32440D02*
X90275Y-31870D01*
X90059Y-33247D02*
X90275Y-33031D01*
X89626Y-31083D02*
X90177Y-31083D01*
X90295Y-31870D02*
X90275Y-31870D01*
X90275Y-31870D02*
X89626Y-31870D01*
X90472Y-31692D02*
X90295Y-31870D01*
X90472Y-31377D02*
X90472Y-31692D01*
X90177Y-31083D02*
X90472Y-31377D01*
X90959Y-34527D02*
X91102Y-34527D01*
X91201Y-34428D02*
X91201Y-33838D01*
X91102Y-34527D02*
X91201Y-34428D01*
X92184Y-30492D02*
X92184Y-31062D01*
X92184Y-31062D02*
X92204Y-31062D01*
X91987Y-30492D02*
X91987Y-31044D01*
X92381Y-31042D02*
X92381Y-30492D01*
X92244Y-31062D02*
X92401Y-31062D01*
X92401Y-31062D02*
X92381Y-31042D01*
X92005Y-31062D02*
X92204Y-31062D01*
X92204Y-31062D02*
X92244Y-31062D01*
X91987Y-31044D02*
X92005Y-31062D01*
X93503Y-29428D02*
X93719Y-29428D01*
X92479Y-30590D02*
X92381Y-30492D01*
X93740Y-30590D02*
X92479Y-30590D01*
X93937Y-30393D02*
X93740Y-30590D01*
X93937Y-29645D02*
X93937Y-30393D01*
X93719Y-29428D02*
X93937Y-29645D01*
X92637Y-29227D02*
X93007Y-29227D01*
X93207Y-29428D02*
X93503Y-29428D01*
X93007Y-29227D02*
X93207Y-29428D01*
X92007Y-29227D02*
X92637Y-29227D01*
X91377Y-29227D02*
X92007Y-29227D01*
X93503Y-28449D02*
X93503Y-28779D01*
X93503Y-28779D02*
X93425Y-28858D01*
X91456Y-28016D02*
X91456Y-28307D01*
X91456Y-28307D02*
X91417Y-28346D01*
G54D54*
X83384Y-41830D02*
X83384Y-41240D01*
X83384Y-41830D02*
X83384Y-42346D01*
X83384Y-42346D02*
X83518Y-42480D01*
X83070Y-42027D02*
X83187Y-42027D01*
X83187Y-42027D02*
X83384Y-41830D01*
G54D50*
X91220Y-35354D02*
X91102Y-35236D01*
X90157Y-35826D02*
X90157Y-35920D01*
X90157Y-35826D02*
X90629Y-35354D01*
X90748Y-35236D02*
X90629Y-35354D01*
X91102Y-35236D02*
X90748Y-35236D01*
X92618Y-36988D02*
X92893Y-36988D01*
X91318Y-36988D02*
X92618Y-36988D01*
X92893Y-36988D02*
X93267Y-37362D01*
G54D52*
X79409Y-45787D02*
X79409Y-44802D01*
X79488Y-44724D02*
X79842Y-44724D01*
X79409Y-44802D02*
X79488Y-44724D01*
X79803Y-45787D02*
X79803Y-44763D01*
X79803Y-44763D02*
X79842Y-44724D01*
X78721Y-43503D02*
X78721Y-43404D01*
X78721Y-43404D02*
X79025Y-43100D01*
G54D50*
X85792Y-41727D02*
X86318Y-41727D01*
X85787Y-41732D02*
X85792Y-41727D01*
G54D49*
X75867Y-44586D02*
X75688Y-44586D01*
X75688Y-44586D02*
X75590Y-44685D01*
G54D50*
X91220Y-35354D02*
X91535Y-35354D01*
G54D53*
X91535Y-39468D02*
X90846Y-39468D01*
X90846Y-39468D02*
X90787Y-39527D01*
X90433Y-38425D02*
X90551Y-38306D01*
X90551Y-38306D02*
X90551Y-37893D01*
G54D50*
X91200Y-37106D02*
X90851Y-37106D01*
X91318Y-36988D02*
X91200Y-37106D01*
X91417Y-36889D02*
X91318Y-36988D01*
X91220Y-35354D02*
X91417Y-35551D01*
X91417Y-35551D02*
X91417Y-36889D01*
X91830Y-43311D02*
X93794Y-43311D01*
X93794Y-43311D02*
X94114Y-42992D01*
X94114Y-42992D02*
X94114Y-42165D01*
X93110Y-39035D02*
X94035Y-39035D01*
X94035Y-39035D02*
X94099Y-38971D01*
X92421Y-39473D02*
X92672Y-39473D01*
X92672Y-39473D02*
X93110Y-39035D01*
X93499Y-41944D02*
X93499Y-41633D01*
X93720Y-42165D02*
X93499Y-41944D01*
X94114Y-42165D02*
X93720Y-42165D01*
G54D49*
X94099Y-38892D02*
X94099Y-38971D01*
X94114Y-38877D02*
X94099Y-38892D01*
X94099Y-38971D02*
X94099Y-39448D01*
X83267Y-39173D02*
X83267Y-39782D01*
X87007Y-41437D02*
X86608Y-41437D01*
X86608Y-41437D02*
X86318Y-41727D01*
X87327Y-35822D02*
X87322Y-35826D01*
X87795Y-35822D02*
X87327Y-35822D01*
X90787Y-36220D02*
X90457Y-36220D01*
X90457Y-36220D02*
X90157Y-35920D01*
G54D53*
X90551Y-37893D02*
X90551Y-37401D01*
X90846Y-37106D02*
X90851Y-37106D01*
X90551Y-37401D02*
X90846Y-37106D01*
G54D50*
X91240Y-43311D02*
X91830Y-43311D01*
G54D49*
X90551Y-42421D02*
X90551Y-42795D01*
X91067Y-43311D02*
X91240Y-43311D01*
X90551Y-42795D02*
X91067Y-43311D01*
X94099Y-39468D02*
X94074Y-39468D01*
X91535Y-39468D02*
X92416Y-39468D01*
G54D53*
X92416Y-39468D02*
X92421Y-39473D01*
G54D49*
X87992Y-37893D02*
X87992Y-37611D01*
X88149Y-36176D02*
X87795Y-35822D01*
X88149Y-36574D02*
X88149Y-36176D01*
X88070Y-36653D02*
X88149Y-36574D01*
X87834Y-36653D02*
X88070Y-36653D01*
X87677Y-36811D02*
X87834Y-36653D01*
X87677Y-37296D02*
X87677Y-36811D01*
X87992Y-37611D02*
X87677Y-37296D01*
G54D52*
X75867Y-43988D02*
X76090Y-43988D01*
X76471Y-43607D02*
X76471Y-43105D01*
X76090Y-43988D02*
X76471Y-43607D01*
X76471Y-43105D02*
X76260Y-42894D01*
X76260Y-42894D02*
X76082Y-42894D01*
X74670Y-46062D02*
X74670Y-46038D01*
X75602Y-44988D02*
X75867Y-44988D01*
X75078Y-45511D02*
X75602Y-44988D01*
X75078Y-45629D02*
X75078Y-45511D01*
X74670Y-46038D02*
X75078Y-45629D01*
G54D54*
X81738Y-42683D02*
X81738Y-42080D01*
X81738Y-42080D02*
X82578Y-41240D01*
X82578Y-41240D02*
X83384Y-41240D01*
G54D52*
X83267Y-39173D02*
X83267Y-41122D01*
X83267Y-41122D02*
X83384Y-41240D01*
X81791Y-42737D02*
X81738Y-42683D01*
X83384Y-41755D02*
X83459Y-41830D01*
X75867Y-44988D02*
X75867Y-44586D01*
X75867Y-44586D02*
X75867Y-43988D01*
X75492Y-43988D02*
X75867Y-43988D01*
X74803Y-42829D02*
X73340Y-42829D01*
X73026Y-42514D02*
X72637Y-42514D01*
X73340Y-42829D02*
X73026Y-42514D01*
X75984Y-42993D02*
X76082Y-42894D01*
X76968Y-42439D02*
X77479Y-42439D01*
X77821Y-42782D02*
X77891Y-42782D01*
X77479Y-42439D02*
X77821Y-42782D01*
X76082Y-42894D02*
X76298Y-42894D01*
X76752Y-42439D02*
X76968Y-42439D01*
X76298Y-42894D02*
X76752Y-42439D01*
X74803Y-42829D02*
X76017Y-42829D01*
X76017Y-42829D02*
X76082Y-42894D01*
X77873Y-42800D02*
X77891Y-42782D01*
G54D54*
X81238Y-42683D02*
X81238Y-43466D01*
X78891Y-42966D02*
X78891Y-42782D01*
X79232Y-43307D02*
X79025Y-43100D01*
X79025Y-43100D02*
X78891Y-42966D01*
X80019Y-43307D02*
X79232Y-43307D01*
X80314Y-43602D02*
X80019Y-43307D01*
X81102Y-43602D02*
X80314Y-43602D01*
X81238Y-43466D02*
X81102Y-43602D01*
X77891Y-42782D02*
X78391Y-42782D01*
X78391Y-42782D02*
X78891Y-42782D01*
X82238Y-42683D02*
X81738Y-42683D01*
X81238Y-42683D02*
X81738Y-42683D01*
G54D55*
X76274Y-39271D02*
X76377Y-39271D01*
X76574Y-38807D02*
X76734Y-38648D01*
X76574Y-39074D02*
X76574Y-38807D01*
X76377Y-39271D02*
X76574Y-39074D01*
X76043Y-39862D02*
X76043Y-39503D01*
X76043Y-39503D02*
X76274Y-39271D01*
X76481Y-40551D02*
X76481Y-40359D01*
X76481Y-40359D02*
X76043Y-39921D01*
X76043Y-39921D02*
X76043Y-39862D01*
X76776Y-38690D02*
X76734Y-38648D01*
X73425Y-35925D02*
X73818Y-35925D01*
X73031Y-35531D02*
X73425Y-35925D01*
X71953Y-35531D02*
X73031Y-35531D01*
X74114Y-35629D02*
X74404Y-35629D01*
X73818Y-35925D02*
X74114Y-35629D01*
G54D52*
X74109Y-43503D02*
X74109Y-44094D01*
X73675Y-43572D02*
X74040Y-43572D01*
X74040Y-43572D02*
X74109Y-43503D01*
G54D55*
X71358Y-37460D02*
X71358Y-37027D01*
X71358Y-37027D02*
X71475Y-36909D01*
X72047Y-38367D02*
X71930Y-38367D01*
X71358Y-37795D02*
X71358Y-37460D01*
X71930Y-38367D02*
X71358Y-37795D01*
X72047Y-38367D02*
X72164Y-38367D01*
X72436Y-38095D02*
X72834Y-38095D01*
X72164Y-38367D02*
X72436Y-38095D01*
G54D54*
X81238Y-40583D02*
X81238Y-40490D01*
X81397Y-40059D02*
X82381Y-40059D01*
X81238Y-40490D02*
X80905Y-40157D01*
X82185Y-41043D02*
X81594Y-41043D01*
X82238Y-40990D02*
X82185Y-41043D01*
X82238Y-40990D02*
X82238Y-40583D01*
X80708Y-43302D02*
X80708Y-42972D01*
X80708Y-42972D02*
X80649Y-42913D01*
X81238Y-40583D02*
X81738Y-40583D01*
X80905Y-39570D02*
X81889Y-39570D01*
X81889Y-39570D02*
X81889Y-40432D01*
X81889Y-40432D02*
X81738Y-40583D01*
X82738Y-40583D02*
X82238Y-40583D01*
X82238Y-40583D02*
X81738Y-40583D01*
X80689Y-42224D02*
X81003Y-42224D01*
X81738Y-41490D02*
X81738Y-40583D01*
X81003Y-42224D02*
X81738Y-41490D01*
X80649Y-42913D02*
X80649Y-42264D01*
G54D52*
X80649Y-42264D02*
X80689Y-42224D01*
G54D54*
X80689Y-41338D02*
X81200Y-41338D01*
X82738Y-41929D02*
X82738Y-42683D01*
X82738Y-41694D02*
X82677Y-41633D01*
X82738Y-41929D02*
X82738Y-41694D01*
X80708Y-40669D02*
X80708Y-41319D01*
X80708Y-41319D02*
X80689Y-41338D01*
G54D52*
X72637Y-43114D02*
X72717Y-43114D01*
X72717Y-43114D02*
X73175Y-43572D01*
X72028Y-42716D02*
X72028Y-42796D01*
X72347Y-43114D02*
X72637Y-43114D01*
X72028Y-42796D02*
X72347Y-43114D01*
X75472Y-45884D02*
X75472Y-45905D01*
X74424Y-46417D02*
X74070Y-46062D01*
X74960Y-46417D02*
X74424Y-46417D01*
X75472Y-45905D02*
X74960Y-46417D01*
X73937Y-46653D02*
X73937Y-46195D01*
X73937Y-46195D02*
X74070Y-46062D01*
X73937Y-45472D02*
X73937Y-45929D01*
X73937Y-45929D02*
X74070Y-46062D01*
G54D55*
X72834Y-38838D02*
X73090Y-38838D01*
X73129Y-40251D02*
X73125Y-40255D01*
X73129Y-38877D02*
X73129Y-40251D01*
X73090Y-38838D02*
X73129Y-38877D01*
X72834Y-39704D02*
X72657Y-39704D01*
X72657Y-39704D02*
X72519Y-39842D01*
X72519Y-40944D02*
X72519Y-39842D01*
X72381Y-39704D02*
X72145Y-39704D01*
X72519Y-39842D02*
X72381Y-39704D01*
G54D52*
X76570Y-41732D02*
X76279Y-41732D01*
X76082Y-41929D02*
X76082Y-42144D01*
X76279Y-41732D02*
X76082Y-41929D01*
G54D54*
X87398Y-27127D02*
X88226Y-27127D01*
X88226Y-27127D02*
X88287Y-27066D01*
X82477Y-26602D02*
X82477Y-26866D01*
X82477Y-26866D02*
X82877Y-27266D01*
X82877Y-27266D02*
X82877Y-27602D01*
X81692Y-29724D02*
X81692Y-29429D01*
X82877Y-28244D02*
X82877Y-27602D01*
X81692Y-29429D02*
X82877Y-28244D01*
X80314Y-29724D02*
X81692Y-29724D01*
G54D52*
X76234Y-38648D02*
X76234Y-38332D01*
X76181Y-38090D02*
X75000Y-38090D01*
X76234Y-38332D02*
X76574Y-37992D01*
X74803Y-38582D02*
X74803Y-38648D01*
X74803Y-38648D02*
X74803Y-38582D01*
X74803Y-38582D02*
X74803Y-38648D01*
G54D54*
X75734Y-38648D02*
X76234Y-38648D01*
X75234Y-38648D02*
X75734Y-38648D01*
X75734Y-38648D02*
X75701Y-38681D01*
X75590Y-38681D02*
X75590Y-38792D01*
X75701Y-38681D02*
X75590Y-38681D01*
X75595Y-39271D02*
X75595Y-38787D01*
X75595Y-38787D02*
X75590Y-38792D01*
X75590Y-38792D02*
X75734Y-38648D01*
X75234Y-38648D02*
X74803Y-38648D01*
X74803Y-38648D02*
X74698Y-38648D01*
X74698Y-38648D02*
X74212Y-39134D01*
G54D52*
X82077Y-27602D02*
X82077Y-26092D01*
G54D54*
X83541Y-24627D02*
X87398Y-24627D01*
X82077Y-26092D02*
X83541Y-24627D01*
X87398Y-27627D02*
X88159Y-27627D01*
X87204Y-29370D02*
X87204Y-29724D01*
X88188Y-28385D02*
X87204Y-29370D01*
X88188Y-27657D02*
X88188Y-28385D01*
X88159Y-27627D02*
X88188Y-27657D01*
X85826Y-29724D02*
X87204Y-29724D01*
X76181Y-31594D02*
X75984Y-31397D01*
X77066Y-31988D02*
X76673Y-31594D01*
X76673Y-31594D02*
X76181Y-31594D01*
X79232Y-31988D02*
X77066Y-31988D01*
X75984Y-31107D02*
X75979Y-31102D01*
X75984Y-31397D02*
X75984Y-31107D01*
X75295Y-30493D02*
X75295Y-30807D01*
X75295Y-30807D02*
X75590Y-31102D01*
X75590Y-31102D02*
X75979Y-31102D01*
G54D55*
X75984Y-31097D02*
X75979Y-31102D01*
G54D54*
X80314Y-31298D02*
X80314Y-31988D01*
X84448Y-31298D02*
X84448Y-31988D01*
G54D53*
X85826Y-31298D02*
X85826Y-31594D01*
X78937Y-31692D02*
X78937Y-31298D01*
G54D54*
X79232Y-31988D02*
X78937Y-31692D01*
X85433Y-31988D02*
X84448Y-31988D01*
X84448Y-31988D02*
X80314Y-31988D01*
X80314Y-31988D02*
X79232Y-31988D01*
X85826Y-31594D02*
X85433Y-31988D01*
X76579Y-31102D02*
X77362Y-31102D01*
X77362Y-31102D02*
X77559Y-31298D01*
X76476Y-30493D02*
X76476Y-30610D01*
X76579Y-30713D02*
X76579Y-31102D01*
X76476Y-30610D02*
X76579Y-30713D01*
X83070Y-31298D02*
X83070Y-30610D01*
X81692Y-31298D02*
X81692Y-30610D01*
G54D53*
X87204Y-31298D02*
X87204Y-31102D01*
X77559Y-30807D02*
X77559Y-31298D01*
G54D54*
X81692Y-30610D02*
X77755Y-30610D01*
X77755Y-30610D02*
X77559Y-30807D01*
X86712Y-30610D02*
X83070Y-30610D01*
X83070Y-30610D02*
X81692Y-30610D01*
X87204Y-31102D02*
X86712Y-30610D01*
X81277Y-27602D02*
X81277Y-27002D01*
X81277Y-27002D02*
X81311Y-26968D01*
X78937Y-29724D02*
X78937Y-27755D01*
X78937Y-27755D02*
X79724Y-26968D01*
X79724Y-26968D02*
X81311Y-26968D01*
X81311Y-26968D02*
X81677Y-26602D01*
X77559Y-29724D02*
X78937Y-29724D01*
X87398Y-25127D02*
X88120Y-25127D01*
X88120Y-25127D02*
X88287Y-25295D01*
X83759Y-29035D02*
X83759Y-29724D01*
X83070Y-29724D02*
X83759Y-29724D01*
X83759Y-29724D02*
X84448Y-29724D01*
X83277Y-26602D02*
X83277Y-25837D01*
X83277Y-25837D02*
X84114Y-25000D01*
X84114Y-25000D02*
X86023Y-25000D01*
X86023Y-25000D02*
X86651Y-25627D01*
X86651Y-25627D02*
X87398Y-25627D01*
G54D52*
X77559Y-44251D02*
X77580Y-44251D01*
X80257Y-44115D02*
X80393Y-44251D01*
X77716Y-44115D02*
X80257Y-44115D01*
X77580Y-44251D02*
X77716Y-44115D01*
X81220Y-43818D02*
X81220Y-43897D01*
X81496Y-43543D02*
X81220Y-43818D01*
X81496Y-43267D02*
X81496Y-43543D01*
X81653Y-43110D02*
X81496Y-43267D01*
X83483Y-43110D02*
X81653Y-43110D01*
X80393Y-44251D02*
X81141Y-44251D01*
X81141Y-44251D02*
X81220Y-44173D01*
X81220Y-44173D02*
X81220Y-43897D01*
X77971Y-43503D02*
X77559Y-43503D01*
X77559Y-43503D02*
X77519Y-43464D01*
X71938Y-44281D02*
X73572Y-44281D01*
X73572Y-44281D02*
X73582Y-44291D01*
X71770Y-44113D02*
X71770Y-43700D01*
X71938Y-44281D02*
X71770Y-44113D01*
X76082Y-43503D02*
X75693Y-43503D01*
X75117Y-44605D02*
X75117Y-44988D01*
X75098Y-44586D02*
X75117Y-44605D01*
X72874Y-44054D02*
X73739Y-44054D01*
X72520Y-43700D02*
X72874Y-44054D01*
X73818Y-44133D02*
X73818Y-44586D01*
X73739Y-44054D02*
X73818Y-44133D01*
X74109Y-44685D02*
X73917Y-44685D01*
X73917Y-44685D02*
X73818Y-44586D01*
X74803Y-45472D02*
X74803Y-44778D01*
X74803Y-44778D02*
X74709Y-44685D01*
X74709Y-44877D02*
X74709Y-44685D01*
X75093Y-43503D02*
X74709Y-43503D01*
X75093Y-43503D02*
X75093Y-43964D01*
X75093Y-43964D02*
X75117Y-43988D01*
X74709Y-44094D02*
X74709Y-43503D01*
X74709Y-44685D02*
X74709Y-44094D01*
G54D54*
X84077Y-26602D02*
X85264Y-26602D01*
X85264Y-26602D02*
X86789Y-28127D01*
X86789Y-28127D02*
X87398Y-28127D01*
G54D55*
X71751Y-36122D02*
X72283Y-36122D01*
X72283Y-36122D02*
X72873Y-36712D01*
G54D54*
X79391Y-40682D02*
X79829Y-40682D01*
G54D52*
X79829Y-40682D02*
X79842Y-40669D01*
G54D54*
X79939Y-41338D02*
X79939Y-40766D01*
X79939Y-40766D02*
X79842Y-40669D01*
X83620Y-36937D02*
X83620Y-36179D01*
X81791Y-35531D02*
X80385Y-36937D01*
X82972Y-35531D02*
X81791Y-35531D01*
X83620Y-36179D02*
X82972Y-35531D01*
G54D50*
X79409Y-41220D02*
X79409Y-41692D01*
X78897Y-41220D02*
X78385Y-41220D01*
X78891Y-41214D02*
X78897Y-41220D01*
X78891Y-40682D02*
X78891Y-41214D01*
X79391Y-41202D02*
X79391Y-40682D01*
X79409Y-41220D02*
X79391Y-41202D01*
G54D52*
X77170Y-41732D02*
X77170Y-41403D01*
X77170Y-41403D02*
X77891Y-40682D01*
G54D54*
X78937Y-39570D02*
X78937Y-38385D01*
X78937Y-38385D02*
X80385Y-36937D01*
X78391Y-40682D02*
X78891Y-40682D01*
X77891Y-40682D02*
X78391Y-40682D01*
G54D52*
X79429Y-40644D02*
X79391Y-40682D01*
G54D54*
X77952Y-39570D02*
X78937Y-39570D01*
X78891Y-40682D02*
X78891Y-39616D01*
G54D52*
X78891Y-39616D02*
X78937Y-39570D01*
G54D53*
X80708Y-43902D02*
X79247Y-43902D01*
X77007Y-43229D02*
X76968Y-43189D01*
X77007Y-43464D02*
X77007Y-43229D01*
X77500Y-43956D02*
X77007Y-43464D01*
X79192Y-43956D02*
X77500Y-43956D01*
X79247Y-43902D02*
X79192Y-43956D01*
G54D55*
X73725Y-40255D02*
X74015Y-40255D01*
X74015Y-40255D02*
X74212Y-40452D01*
X80905Y-33169D02*
X80905Y-32870D01*
X80216Y-33858D02*
X80905Y-33169D01*
G54D54*
X79783Y-42913D02*
X79522Y-42913D01*
X79783Y-42913D02*
X79783Y-42380D01*
X79522Y-42913D02*
X79391Y-42782D01*
X79783Y-42380D02*
X79939Y-42224D01*
G54D49*
X91968Y-23937D02*
X91889Y-24015D01*
X91441Y-24015D02*
X91889Y-24015D01*
X93995Y-32263D02*
X92972Y-32263D01*
X94015Y-32283D02*
X93995Y-32263D01*
X94133Y-30118D02*
X94133Y-31771D01*
X93838Y-32067D02*
X92972Y-32067D01*
X94133Y-31771D02*
X93838Y-32067D01*
X94133Y-30157D02*
X94133Y-30118D01*
X94133Y-30118D02*
X94133Y-27662D01*
X94133Y-27662D02*
X93700Y-27229D01*
G54D53*
X72667Y-33927D02*
X72214Y-33927D01*
X72028Y-33741D02*
X71555Y-33741D01*
X72214Y-33927D02*
X72028Y-33741D01*
X72042Y-32381D02*
X72042Y-32770D01*
X72293Y-33415D02*
X72667Y-33415D01*
X72244Y-33366D02*
X72293Y-33415D01*
X72244Y-32972D02*
X72244Y-33366D01*
X72042Y-32770D02*
X72244Y-32972D01*
G54D50*
X91889Y-35846D02*
X91889Y-35630D01*
X91889Y-35630D02*
X92263Y-35255D01*
X92263Y-35255D02*
X93208Y-35255D01*
G54D49*
X94064Y-41003D02*
X94064Y-41599D01*
X94064Y-41599D02*
X94099Y-41633D01*
X91535Y-40846D02*
X91862Y-40846D01*
X94064Y-40875D02*
X94064Y-41003D01*
X93740Y-40551D02*
X94064Y-40875D01*
X92939Y-40551D02*
X93740Y-40551D01*
X92711Y-40779D02*
X92939Y-40551D01*
X91929Y-40779D02*
X92711Y-40779D01*
X91862Y-40846D02*
X91929Y-40779D01*
X91535Y-40649D02*
X92657Y-40649D01*
X93208Y-40098D02*
X93336Y-40098D01*
X92657Y-40649D02*
X93208Y-40098D01*
X93499Y-39448D02*
X93499Y-39935D01*
X93499Y-39935D02*
X93336Y-40098D01*
G54D10*
G36*
X79969Y-41879D02*
X79866Y-41879D01*
X79822Y-41897D01*
X79788Y-41931D01*
X79769Y-41975D01*
X79769Y-42023D01*
X79769Y-42085D01*
X79629Y-42226D01*
X79581Y-42297D01*
X79567Y-42371D01*
X78268Y-42371D01*
X77236Y-41338D01*
X77299Y-41275D01*
X77805Y-40768D01*
X77805Y-38997D01*
X79969Y-36833D01*
X79969Y-39051D01*
X79647Y-39051D01*
X79603Y-39069D01*
X79569Y-39103D01*
X79551Y-39147D01*
X79551Y-39195D01*
X79551Y-39994D01*
X79569Y-40038D01*
X79603Y-40072D01*
X79647Y-40090D01*
X79695Y-40090D01*
X79969Y-40090D01*
X79969Y-41879D01*
X79969Y-41879D01*
G37*
G54D55*
X79969Y-41879D02*
X79866Y-41879D01*
X79822Y-41897D01*
X79788Y-41931D01*
X79769Y-41975D01*
X79769Y-42023D01*
X79769Y-42085D01*
X79629Y-42226D01*
X79581Y-42297D01*
X79567Y-42371D01*
X78268Y-42371D01*
X77236Y-41338D01*
X77299Y-41275D01*
X77805Y-40768D01*
X77805Y-38997D01*
X79969Y-36833D01*
X79969Y-39051D01*
X79647Y-39051D01*
X79603Y-39069D01*
X79569Y-39103D01*
X79551Y-39147D01*
X79551Y-39195D01*
X79551Y-39994D01*
X79569Y-40038D01*
X79603Y-40072D01*
X79647Y-40090D01*
X79695Y-40090D01*
X79969Y-40090D01*
X79969Y-41879D01*
G54D10*
G36*
X83020Y-40825D02*
X82824Y-41021D01*
X82578Y-41021D01*
X82578Y-41021D01*
X82495Y-41038D01*
X82424Y-41085D01*
X82424Y-41085D01*
X82424Y-41085D01*
X81583Y-41926D01*
X81536Y-41997D01*
X81519Y-42080D01*
X81519Y-42326D01*
X81495Y-42350D01*
X81495Y-41280D01*
X81451Y-41171D01*
X81368Y-41088D01*
X81259Y-41043D01*
X81142Y-41043D01*
X81033Y-41088D01*
X81002Y-41120D01*
X80927Y-41120D01*
X80927Y-40856D01*
X80928Y-40855D01*
X80946Y-40811D01*
X80946Y-40763D01*
X80946Y-40527D01*
X80928Y-40483D01*
X80894Y-40449D01*
X80850Y-40431D01*
X80802Y-40431D01*
X80566Y-40431D01*
X80522Y-40449D01*
X80488Y-40483D01*
X80470Y-40527D01*
X80470Y-40575D01*
X80470Y-40811D01*
X80488Y-40855D01*
X80490Y-40856D01*
X80490Y-40993D01*
X80466Y-40993D01*
X80422Y-41011D01*
X80388Y-41045D01*
X80369Y-41089D01*
X80369Y-41137D01*
X80369Y-41587D01*
X80388Y-41631D01*
X80421Y-41665D01*
X80465Y-41683D01*
X80513Y-41683D01*
X80763Y-41683D01*
X80807Y-41665D01*
X80841Y-41631D01*
X80859Y-41587D01*
X80859Y-41557D01*
X81002Y-41557D01*
X81033Y-41588D01*
X81141Y-41633D01*
X81259Y-41633D01*
X81367Y-41588D01*
X81450Y-41505D01*
X81495Y-41397D01*
X81495Y-41280D01*
X81495Y-42350D01*
X81475Y-42371D01*
X81470Y-42371D01*
X81457Y-42340D01*
X81424Y-42306D01*
X81380Y-42288D01*
X81332Y-42288D01*
X81096Y-42288D01*
X81052Y-42306D01*
X81018Y-42340D01*
X81005Y-42371D01*
X80259Y-42371D01*
X80259Y-41975D01*
X80241Y-41931D01*
X80208Y-41897D01*
X80168Y-41881D01*
X80168Y-41681D01*
X80207Y-41665D01*
X80241Y-41631D01*
X80259Y-41587D01*
X80259Y-41539D01*
X80259Y-41089D01*
X80241Y-41045D01*
X80208Y-41011D01*
X80168Y-40995D01*
X80168Y-40090D01*
X80195Y-40090D01*
X80239Y-40072D01*
X80272Y-40038D01*
X80291Y-39994D01*
X80291Y-39946D01*
X80291Y-39147D01*
X80273Y-39103D01*
X80239Y-39069D01*
X80195Y-39051D01*
X80168Y-39051D01*
X80168Y-37463D01*
X80540Y-37091D01*
X80540Y-37091D01*
X80540Y-37091D01*
X81881Y-35749D01*
X82881Y-35749D01*
X83020Y-35888D01*
X83020Y-36372D01*
X82991Y-36372D01*
X82947Y-36390D01*
X82914Y-36424D01*
X82895Y-36468D01*
X82895Y-36515D01*
X82895Y-37405D01*
X82913Y-37449D01*
X82947Y-37483D01*
X82991Y-37501D01*
X83020Y-37501D01*
X83020Y-38580D01*
X82554Y-38580D01*
X82510Y-38598D01*
X82476Y-38632D01*
X82458Y-38676D01*
X82458Y-38724D01*
X82458Y-39669D01*
X82476Y-39713D01*
X82510Y-39747D01*
X82554Y-39765D01*
X82602Y-39765D01*
X83020Y-39765D01*
X83020Y-40825D01*
X83020Y-40825D01*
G37*
G54D55*
X83020Y-40825D02*
X82824Y-41021D01*
X82578Y-41021D01*
X82578Y-41021D01*
X82495Y-41038D01*
X82424Y-41085D01*
X82424Y-41085D01*
X82424Y-41085D01*
X81583Y-41926D01*
X81536Y-41997D01*
X81519Y-42080D01*
X81519Y-42326D01*
X81495Y-42350D01*
X81495Y-41280D01*
X81451Y-41171D01*
X81368Y-41088D01*
X81259Y-41043D01*
X81142Y-41043D01*
X81033Y-41088D01*
X81002Y-41120D01*
X80927Y-41120D01*
X80927Y-40856D01*
X80928Y-40855D01*
X80946Y-40811D01*
X80946Y-40763D01*
X80946Y-40527D01*
X80928Y-40483D01*
X80894Y-40449D01*
X80850Y-40431D01*
X80802Y-40431D01*
X80566Y-40431D01*
X80522Y-40449D01*
X80488Y-40483D01*
X80470Y-40527D01*
X80470Y-40575D01*
X80470Y-40811D01*
X80488Y-40855D01*
X80490Y-40856D01*
X80490Y-40993D01*
X80466Y-40993D01*
X80422Y-41011D01*
X80388Y-41045D01*
X80369Y-41089D01*
X80369Y-41137D01*
X80369Y-41587D01*
X80388Y-41631D01*
X80421Y-41665D01*
X80465Y-41683D01*
X80513Y-41683D01*
X80763Y-41683D01*
X80807Y-41665D01*
X80841Y-41631D01*
X80859Y-41587D01*
X80859Y-41557D01*
X81002Y-41557D01*
X81033Y-41588D01*
X81141Y-41633D01*
X81259Y-41633D01*
X81367Y-41588D01*
X81450Y-41505D01*
X81495Y-41397D01*
X81495Y-41280D01*
X81495Y-42350D01*
X81475Y-42371D01*
X81470Y-42371D01*
X81457Y-42340D01*
X81424Y-42306D01*
X81380Y-42288D01*
X81332Y-42288D01*
X81096Y-42288D01*
X81052Y-42306D01*
X81018Y-42340D01*
X81005Y-42371D01*
X80259Y-42371D01*
X80259Y-41975D01*
X80241Y-41931D01*
X80208Y-41897D01*
X80168Y-41881D01*
X80168Y-41681D01*
X80207Y-41665D01*
X80241Y-41631D01*
X80259Y-41587D01*
X80259Y-41539D01*
X80259Y-41089D01*
X80241Y-41045D01*
X80208Y-41011D01*
X80168Y-40995D01*
X80168Y-40090D01*
X80195Y-40090D01*
X80239Y-40072D01*
X80272Y-40038D01*
X80291Y-39994D01*
X80291Y-39946D01*
X80291Y-39147D01*
X80273Y-39103D01*
X80239Y-39069D01*
X80195Y-39051D01*
X80168Y-39051D01*
X80168Y-37463D01*
X80540Y-37091D01*
X80540Y-37091D01*
X80540Y-37091D01*
X81881Y-35749D01*
X82881Y-35749D01*
X83020Y-35888D01*
X83020Y-36372D01*
X82991Y-36372D01*
X82947Y-36390D01*
X82914Y-36424D01*
X82895Y-36468D01*
X82895Y-36515D01*
X82895Y-37405D01*
X82913Y-37449D01*
X82947Y-37483D01*
X82991Y-37501D01*
X83020Y-37501D01*
X83020Y-38580D01*
X82554Y-38580D01*
X82510Y-38598D01*
X82476Y-38632D01*
X82458Y-38676D01*
X82458Y-38724D01*
X82458Y-39669D01*
X82476Y-39713D01*
X82510Y-39747D01*
X82554Y-39765D01*
X82602Y-39765D01*
X83020Y-39765D01*
X83020Y-40825D01*
G54D10*
G36*
X76820Y-38237D02*
X76426Y-38237D01*
X76426Y-38681D01*
X76426Y-38729D01*
X76417Y-38742D01*
X76404Y-38807D01*
X76404Y-38926D01*
X76376Y-38926D01*
X76126Y-38926D01*
X76081Y-38944D01*
X76048Y-38978D01*
X76029Y-39022D01*
X76029Y-39070D01*
X76029Y-39276D01*
X75923Y-39382D01*
X75886Y-39438D01*
X75873Y-39503D01*
X75873Y-39516D01*
X75240Y-39516D01*
X75240Y-39472D01*
X75240Y-39022D01*
X75222Y-38978D01*
X75188Y-38944D01*
X75144Y-38926D01*
X75096Y-38926D01*
X74846Y-38926D01*
X74802Y-38944D01*
X74768Y-38978D01*
X74750Y-39022D01*
X74750Y-39070D01*
X74750Y-39495D01*
X74729Y-39495D01*
X74665Y-39468D01*
X74547Y-39468D01*
X74439Y-39513D01*
X74436Y-39516D01*
X74188Y-39516D01*
X74176Y-39504D01*
X74102Y-39455D01*
X74015Y-39438D01*
X74015Y-39438D01*
X73672Y-39438D01*
X73672Y-38658D01*
X73701Y-38629D01*
X73768Y-38629D01*
X73858Y-38592D01*
X73926Y-38524D01*
X73964Y-38434D01*
X73964Y-38337D01*
X73964Y-38337D01*
X74853Y-38337D01*
X74853Y-37746D01*
X75332Y-37746D01*
X75340Y-37765D01*
X75423Y-37848D01*
X75531Y-37893D01*
X75648Y-37893D01*
X75757Y-37848D01*
X75837Y-37768D01*
X76603Y-37768D01*
X76820Y-37984D01*
X76820Y-38237D01*
X76820Y-38237D01*
G37*
G54D55*
X76820Y-38237D02*
X76426Y-38237D01*
X76426Y-38681D01*
X76426Y-38729D01*
X76417Y-38742D01*
X76404Y-38807D01*
X76404Y-38926D01*
X76376Y-38926D01*
X76126Y-38926D01*
X76081Y-38944D01*
X76048Y-38978D01*
X76029Y-39022D01*
X76029Y-39070D01*
X76029Y-39276D01*
X75923Y-39382D01*
X75886Y-39438D01*
X75873Y-39503D01*
X75873Y-39516D01*
X75240Y-39516D01*
X75240Y-39472D01*
X75240Y-39022D01*
X75222Y-38978D01*
X75188Y-38944D01*
X75144Y-38926D01*
X75096Y-38926D01*
X74846Y-38926D01*
X74802Y-38944D01*
X74768Y-38978D01*
X74750Y-39022D01*
X74750Y-39070D01*
X74750Y-39495D01*
X74729Y-39495D01*
X74665Y-39468D01*
X74547Y-39468D01*
X74439Y-39513D01*
X74436Y-39516D01*
X74188Y-39516D01*
X74176Y-39504D01*
X74102Y-39455D01*
X74015Y-39438D01*
X74015Y-39438D01*
X73672Y-39438D01*
X73672Y-38658D01*
X73701Y-38629D01*
X73768Y-38629D01*
X73858Y-38592D01*
X73926Y-38524D01*
X73964Y-38434D01*
X73964Y-38337D01*
X73964Y-38337D01*
X74853Y-38337D01*
X74853Y-37746D01*
X75332Y-37746D01*
X75340Y-37765D01*
X75423Y-37848D01*
X75531Y-37893D01*
X75648Y-37893D01*
X75757Y-37848D01*
X75837Y-37768D01*
X76603Y-37768D01*
X76820Y-37984D01*
X76820Y-38237D01*
G54D10*
G36*
X79603Y-36270D02*
X78325Y-37548D01*
X77460Y-37548D01*
X77460Y-37441D01*
X77415Y-37333D01*
X77332Y-37250D01*
X77224Y-37205D01*
X77106Y-37204D01*
X76998Y-37249D01*
X76915Y-37332D01*
X76870Y-37441D01*
X76870Y-37548D01*
X76862Y-37548D01*
X76795Y-37481D01*
X76793Y-37478D01*
X76738Y-37441D01*
X76673Y-37428D01*
X75837Y-37428D01*
X75757Y-37348D01*
X75649Y-37303D01*
X75532Y-37303D01*
X75423Y-37348D01*
X75340Y-37431D01*
X75295Y-37539D01*
X75295Y-37548D01*
X74741Y-37548D01*
X74741Y-37508D01*
X74721Y-37461D01*
X74685Y-37425D01*
X74638Y-37405D01*
X74587Y-37405D01*
X74262Y-37405D01*
X74262Y-36270D01*
X78373Y-36270D01*
X78338Y-36356D01*
X78337Y-36477D01*
X78384Y-36589D01*
X78469Y-36674D01*
X78581Y-36721D01*
X78701Y-36721D01*
X78813Y-36674D01*
X78899Y-36589D01*
X78945Y-36478D01*
X78945Y-36434D01*
X79109Y-36270D01*
X79603Y-36270D01*
X79603Y-36270D01*
G37*
G54D55*
X79603Y-36270D02*
X78325Y-37548D01*
X77460Y-37548D01*
X77460Y-37441D01*
X77415Y-37333D01*
X77332Y-37250D01*
X77224Y-37205D01*
X77106Y-37204D01*
X76998Y-37249D01*
X76915Y-37332D01*
X76870Y-37441D01*
X76870Y-37548D01*
X76862Y-37548D01*
X76795Y-37481D01*
X76793Y-37478D01*
X76738Y-37441D01*
X76673Y-37428D01*
X75837Y-37428D01*
X75757Y-37348D01*
X75649Y-37303D01*
X75532Y-37303D01*
X75423Y-37348D01*
X75340Y-37431D01*
X75295Y-37539D01*
X75295Y-37548D01*
X74741Y-37548D01*
X74741Y-37508D01*
X74721Y-37461D01*
X74685Y-37425D01*
X74638Y-37405D01*
X74587Y-37405D01*
X74262Y-37405D01*
X74262Y-36270D01*
X78373Y-36270D01*
X78338Y-36356D01*
X78337Y-36477D01*
X78384Y-36589D01*
X78469Y-36674D01*
X78581Y-36721D01*
X78701Y-36721D01*
X78813Y-36674D01*
X78899Y-36589D01*
X78945Y-36478D01*
X78945Y-36434D01*
X79109Y-36270D01*
X79603Y-36270D01*
G54D10*
G36*
X71416Y-38824D02*
X71408Y-38824D01*
X71408Y-38832D01*
X71308Y-38832D01*
X71308Y-38824D01*
X71300Y-38824D01*
X71300Y-38724D01*
X71308Y-38724D01*
X71308Y-38632D01*
X71308Y-38462D01*
X71308Y-38376D01*
X71300Y-38376D01*
X71300Y-38276D01*
X71308Y-38276D01*
X71308Y-38268D01*
X71408Y-38268D01*
X71408Y-38276D01*
X71416Y-38276D01*
X71416Y-38376D01*
X71408Y-38376D01*
X71408Y-38462D01*
X71408Y-38632D01*
X71408Y-38724D01*
X71416Y-38724D01*
X71416Y-38824D01*
X71416Y-38824D01*
G37*
G54D55*
X71416Y-38824D02*
X71408Y-38824D01*
X71408Y-38832D01*
X71308Y-38832D01*
X71308Y-38824D01*
X71300Y-38824D01*
X71300Y-38724D01*
X71308Y-38724D01*
X71308Y-38632D01*
X71308Y-38462D01*
X71308Y-38376D01*
X71300Y-38376D01*
X71300Y-38276D01*
X71308Y-38276D01*
X71308Y-38268D01*
X71408Y-38268D01*
X71408Y-38276D01*
X71416Y-38276D01*
X71416Y-38376D01*
X71408Y-38376D01*
X71408Y-38462D01*
X71408Y-38632D01*
X71408Y-38724D01*
X71416Y-38724D01*
X71416Y-38824D01*
G54D10*
G36*
X72665Y-37162D02*
X72568Y-37162D01*
X72492Y-37194D01*
X72458Y-37228D01*
X72399Y-37203D01*
X72435Y-37117D01*
X72435Y-37017D01*
X72435Y-36801D01*
X72435Y-36702D01*
X72397Y-36610D01*
X72326Y-36540D01*
X72234Y-36502D01*
X72140Y-36502D01*
X72077Y-36564D01*
X72077Y-36859D01*
X72372Y-36859D01*
X72435Y-36797D01*
X72435Y-36801D01*
X72435Y-37017D01*
X72435Y-37022D01*
X72372Y-36959D01*
X72077Y-36959D01*
X72077Y-37254D01*
X72097Y-37274D01*
X72097Y-37567D01*
X72105Y-37567D01*
X72105Y-37667D01*
X72097Y-37667D01*
X72097Y-37675D01*
X71997Y-37675D01*
X71997Y-37667D01*
X71989Y-37667D01*
X71989Y-37567D01*
X71997Y-37567D01*
X71997Y-37254D01*
X71977Y-37235D01*
X71977Y-36959D01*
X71970Y-36959D01*
X71970Y-36859D01*
X71977Y-36859D01*
X71977Y-36564D01*
X71915Y-36502D01*
X71820Y-36502D01*
X71729Y-36540D01*
X71709Y-36559D01*
X71674Y-36544D01*
X71592Y-36544D01*
X71277Y-36544D01*
X71201Y-36576D01*
X71142Y-36634D01*
X71112Y-36706D01*
X71112Y-36376D01*
X71183Y-36406D01*
X71335Y-36406D01*
X71409Y-36375D01*
X71418Y-36397D01*
X71476Y-36456D01*
X71553Y-36487D01*
X71635Y-36487D01*
X71950Y-36487D01*
X72026Y-36456D01*
X72085Y-36397D01*
X72092Y-36380D01*
X72177Y-36380D01*
X72661Y-36864D01*
X72661Y-37153D01*
X72665Y-37162D01*
X72665Y-37162D01*
G37*
G54D55*
X72665Y-37162D02*
X72568Y-37162D01*
X72492Y-37194D01*
X72458Y-37228D01*
X72399Y-37203D01*
X72435Y-37117D01*
X72435Y-37017D01*
X72435Y-36801D01*
X72435Y-36702D01*
X72397Y-36610D01*
X72326Y-36540D01*
X72234Y-36502D01*
X72140Y-36502D01*
X72077Y-36564D01*
X72077Y-36859D01*
X72372Y-36859D01*
X72435Y-36797D01*
X72435Y-36801D01*
X72435Y-37017D01*
X72435Y-37022D01*
X72372Y-36959D01*
X72077Y-36959D01*
X72077Y-37254D01*
X72097Y-37274D01*
X72097Y-37567D01*
X72105Y-37567D01*
X72105Y-37667D01*
X72097Y-37667D01*
X72097Y-37675D01*
X71997Y-37675D01*
X71997Y-37667D01*
X71989Y-37667D01*
X71989Y-37567D01*
X71997Y-37567D01*
X71997Y-37254D01*
X71977Y-37235D01*
X71977Y-36959D01*
X71970Y-36959D01*
X71970Y-36859D01*
X71977Y-36859D01*
X71977Y-36564D01*
X71915Y-36502D01*
X71820Y-36502D01*
X71729Y-36540D01*
X71709Y-36559D01*
X71674Y-36544D01*
X71592Y-36544D01*
X71277Y-36544D01*
X71201Y-36576D01*
X71142Y-36634D01*
X71112Y-36706D01*
X71112Y-36376D01*
X71183Y-36406D01*
X71335Y-36406D01*
X71409Y-36375D01*
X71418Y-36397D01*
X71476Y-36456D01*
X71553Y-36487D01*
X71635Y-36487D01*
X71950Y-36487D01*
X72026Y-36456D01*
X72085Y-36397D01*
X72092Y-36380D01*
X72177Y-36380D01*
X72661Y-36864D01*
X72661Y-37153D01*
X72665Y-37162D01*
G54D10*
G36*
X72872Y-39379D02*
X72675Y-39379D01*
X72599Y-39410D01*
X72540Y-39468D01*
X72535Y-39482D01*
X72519Y-39493D01*
X72480Y-39466D01*
X72426Y-39456D01*
X72381Y-39410D01*
X72305Y-39379D01*
X72222Y-39379D01*
X71986Y-39379D01*
X71910Y-39410D01*
X71851Y-39468D01*
X71820Y-39545D01*
X71820Y-39627D01*
X71820Y-39843D01*
X71781Y-39804D01*
X71740Y-39787D01*
X71740Y-39688D01*
X71725Y-39650D01*
X71759Y-39617D01*
X71790Y-39541D01*
X71790Y-39458D01*
X71790Y-39208D01*
X71759Y-39132D01*
X71731Y-39104D01*
X71793Y-39043D01*
X71815Y-39098D01*
X71885Y-39168D01*
X71977Y-39206D01*
X72077Y-39206D01*
X72033Y-39206D01*
X72095Y-39144D01*
X72095Y-38888D01*
X72087Y-38888D01*
X72087Y-38788D01*
X72095Y-38788D01*
X72095Y-38780D01*
X72195Y-38780D01*
X72195Y-38788D01*
X72203Y-38788D01*
X72203Y-38888D01*
X72195Y-38888D01*
X72195Y-39144D01*
X72258Y-39206D01*
X72214Y-39206D01*
X72313Y-39206D01*
X72405Y-39168D01*
X72475Y-39098D01*
X72513Y-39007D01*
X72540Y-39074D01*
X72598Y-39132D01*
X72675Y-39164D01*
X72757Y-39164D01*
X72872Y-39164D01*
X72872Y-39379D01*
X72872Y-39379D01*
G37*
G54D55*
X72872Y-39379D02*
X72675Y-39379D01*
X72599Y-39410D01*
X72540Y-39468D01*
X72535Y-39482D01*
X72519Y-39493D01*
X72480Y-39466D01*
X72426Y-39456D01*
X72381Y-39410D01*
X72305Y-39379D01*
X72222Y-39379D01*
X71986Y-39379D01*
X71910Y-39410D01*
X71851Y-39468D01*
X71820Y-39545D01*
X71820Y-39627D01*
X71820Y-39843D01*
X71781Y-39804D01*
X71740Y-39787D01*
X71740Y-39688D01*
X71725Y-39650D01*
X71759Y-39617D01*
X71790Y-39541D01*
X71790Y-39458D01*
X71790Y-39208D01*
X71759Y-39132D01*
X71731Y-39104D01*
X71793Y-39043D01*
X71815Y-39098D01*
X71885Y-39168D01*
X71977Y-39206D01*
X72077Y-39206D01*
X72033Y-39206D01*
X72095Y-39144D01*
X72095Y-38888D01*
X72087Y-38888D01*
X72087Y-38788D01*
X72095Y-38788D01*
X72095Y-38780D01*
X72195Y-38780D01*
X72195Y-38788D01*
X72203Y-38788D01*
X72203Y-38888D01*
X72195Y-38888D01*
X72195Y-39144D01*
X72258Y-39206D01*
X72214Y-39206D01*
X72313Y-39206D01*
X72405Y-39168D01*
X72475Y-39098D01*
X72513Y-39007D01*
X72540Y-39074D01*
X72598Y-39132D01*
X72675Y-39164D01*
X72757Y-39164D01*
X72872Y-39164D01*
X72872Y-39379D01*
G54D10*
G36*
X73965Y-37284D02*
X73862Y-37284D01*
X73762Y-37284D01*
X73751Y-37288D01*
X73749Y-37283D01*
X73659Y-37193D01*
X73676Y-37154D01*
X73676Y-37071D01*
X73676Y-36271D01*
X73644Y-36195D01*
X73632Y-36182D01*
X73818Y-36182D01*
X73917Y-36163D01*
X73965Y-36130D01*
X73965Y-36260D01*
X73961Y-36271D01*
X73961Y-36353D01*
X73961Y-37153D01*
X73965Y-37164D01*
X73965Y-37284D01*
X73965Y-37284D01*
G37*
G54D55*
X73965Y-37284D02*
X73862Y-37284D01*
X73762Y-37284D01*
X73751Y-37288D01*
X73749Y-37283D01*
X73659Y-37193D01*
X73676Y-37154D01*
X73676Y-37071D01*
X73676Y-36271D01*
X73644Y-36195D01*
X73632Y-36182D01*
X73818Y-36182D01*
X73917Y-36163D01*
X73965Y-36130D01*
X73965Y-36260D01*
X73961Y-36271D01*
X73961Y-36353D01*
X73961Y-37153D01*
X73965Y-37164D01*
X73965Y-37284D01*
G54D10*
G36*
X75169Y-40389D02*
X75169Y-40504D01*
X74915Y-40504D01*
X74853Y-40566D01*
X74853Y-40979D01*
X74861Y-40979D01*
X74861Y-41079D01*
X74853Y-41079D01*
X74853Y-41087D01*
X74753Y-41087D01*
X74753Y-41079D01*
X74745Y-41079D01*
X74745Y-40979D01*
X74753Y-40979D01*
X74753Y-40566D01*
X74690Y-40504D01*
X74595Y-40504D01*
X74595Y-40377D01*
X74537Y-40236D01*
X74429Y-40128D01*
X74289Y-40070D01*
X74192Y-40070D01*
X74114Y-40018D01*
X74057Y-40006D01*
X74057Y-39989D01*
X74026Y-39913D01*
X73967Y-39855D01*
X73891Y-39823D01*
X73809Y-39823D01*
X73559Y-39823D01*
X73482Y-39854D01*
X73425Y-39912D01*
X73387Y-39874D01*
X73387Y-38877D01*
X73387Y-38877D01*
X73387Y-38877D01*
X73367Y-38779D01*
X73311Y-38695D01*
X73311Y-38695D01*
X73272Y-38656D01*
X73189Y-38600D01*
X73110Y-38585D01*
X73070Y-38544D01*
X72994Y-38513D01*
X72911Y-38513D01*
X72675Y-38513D01*
X72599Y-38544D01*
X72540Y-38602D01*
X72513Y-38669D01*
X72503Y-38646D01*
X72529Y-38583D01*
X72529Y-38501D01*
X72529Y-38411D01*
X72568Y-38427D01*
X72650Y-38427D01*
X73100Y-38427D01*
X73177Y-38396D01*
X73235Y-38337D01*
X73267Y-38261D01*
X73267Y-38179D01*
X73267Y-37929D01*
X73235Y-37852D01*
X73178Y-37795D01*
X73178Y-37794D01*
X73208Y-37824D01*
X73348Y-37882D01*
X73500Y-37882D01*
X73562Y-37857D01*
X73562Y-37884D01*
X73625Y-37884D01*
X73562Y-37946D01*
X73562Y-38183D01*
X73600Y-38275D01*
X73670Y-38346D01*
X73684Y-38351D01*
X73473Y-38561D01*
X73473Y-39715D01*
X74223Y-39715D01*
X74223Y-39839D01*
X74281Y-39980D01*
X74389Y-40087D01*
X74529Y-40146D01*
X74662Y-40146D01*
X74662Y-40226D01*
X74694Y-40303D01*
X74752Y-40361D01*
X74828Y-40393D01*
X74911Y-40393D01*
X75161Y-40393D01*
X75169Y-40389D01*
X75169Y-40389D01*
G37*
G54D55*
X75169Y-40389D02*
X75169Y-40504D01*
X74915Y-40504D01*
X74853Y-40566D01*
X74853Y-40979D01*
X74861Y-40979D01*
X74861Y-41079D01*
X74853Y-41079D01*
X74853Y-41087D01*
X74753Y-41087D01*
X74753Y-41079D01*
X74745Y-41079D01*
X74745Y-40979D01*
X74753Y-40979D01*
X74753Y-40566D01*
X74690Y-40504D01*
X74595Y-40504D01*
X74595Y-40377D01*
X74537Y-40236D01*
X74429Y-40128D01*
X74289Y-40070D01*
X74192Y-40070D01*
X74114Y-40018D01*
X74057Y-40006D01*
X74057Y-39989D01*
X74026Y-39913D01*
X73967Y-39855D01*
X73891Y-39823D01*
X73809Y-39823D01*
X73559Y-39823D01*
X73482Y-39854D01*
X73425Y-39912D01*
X73387Y-39874D01*
X73387Y-38877D01*
X73387Y-38877D01*
X73387Y-38877D01*
X73367Y-38779D01*
X73311Y-38695D01*
X73311Y-38695D01*
X73272Y-38656D01*
X73189Y-38600D01*
X73110Y-38585D01*
X73070Y-38544D01*
X72994Y-38513D01*
X72911Y-38513D01*
X72675Y-38513D01*
X72599Y-38544D01*
X72540Y-38602D01*
X72513Y-38669D01*
X72503Y-38646D01*
X72529Y-38583D01*
X72529Y-38501D01*
X72529Y-38411D01*
X72568Y-38427D01*
X72650Y-38427D01*
X73100Y-38427D01*
X73177Y-38396D01*
X73235Y-38337D01*
X73267Y-38261D01*
X73267Y-38179D01*
X73267Y-37929D01*
X73235Y-37852D01*
X73178Y-37795D01*
X73178Y-37794D01*
X73208Y-37824D01*
X73348Y-37882D01*
X73500Y-37882D01*
X73562Y-37857D01*
X73562Y-37884D01*
X73625Y-37884D01*
X73562Y-37946D01*
X73562Y-38183D01*
X73600Y-38275D01*
X73670Y-38346D01*
X73684Y-38351D01*
X73473Y-38561D01*
X73473Y-39715D01*
X74223Y-39715D01*
X74223Y-39839D01*
X74281Y-39980D01*
X74389Y-40087D01*
X74529Y-40146D01*
X74662Y-40146D01*
X74662Y-40226D01*
X74694Y-40303D01*
X74752Y-40361D01*
X74828Y-40393D01*
X74911Y-40393D01*
X75161Y-40393D01*
X75169Y-40389D01*
G54D10*
G36*
X75938Y-40601D02*
X75931Y-40601D01*
X75931Y-40609D01*
X75831Y-40609D01*
X75831Y-40601D01*
X75823Y-40601D01*
X75823Y-40501D01*
X75831Y-40501D01*
X75831Y-40493D01*
X75931Y-40493D01*
X75931Y-40501D01*
X75938Y-40501D01*
X75938Y-40601D01*
X75938Y-40601D01*
G37*
G54D55*
X75938Y-40601D02*
X75931Y-40601D01*
X75931Y-40609D01*
X75831Y-40609D01*
X75831Y-40601D01*
X75823Y-40601D01*
X75823Y-40501D01*
X75831Y-40501D01*
X75831Y-40493D01*
X75931Y-40493D01*
X75931Y-40501D01*
X75938Y-40501D01*
X75938Y-40601D01*
G54D10*
G36*
X78631Y-35011D02*
X77570Y-36072D01*
X76909Y-36072D01*
X76893Y-36065D01*
X76811Y-36065D01*
X76575Y-36065D01*
X76559Y-36072D01*
X76409Y-36072D01*
X76393Y-36065D01*
X76311Y-36065D01*
X76075Y-36065D01*
X76059Y-36072D01*
X75909Y-36072D01*
X75893Y-36065D01*
X75811Y-36065D01*
X75575Y-36065D01*
X75559Y-36072D01*
X75409Y-36072D01*
X75393Y-36065D01*
X75311Y-36065D01*
X75075Y-36065D01*
X75059Y-36072D01*
X74036Y-36072D01*
X74119Y-35988D01*
X74162Y-36030D01*
X74238Y-36062D01*
X74320Y-36062D01*
X74570Y-36062D01*
X74647Y-36030D01*
X74704Y-35973D01*
X74762Y-36030D01*
X74838Y-36062D01*
X74920Y-36062D01*
X75170Y-36062D01*
X75247Y-36030D01*
X75305Y-35972D01*
X75337Y-35896D01*
X75337Y-35877D01*
X75374Y-35877D01*
X75374Y-35877D01*
X75389Y-35880D01*
X75444Y-35935D01*
X75520Y-35967D01*
X75603Y-35967D01*
X76053Y-35967D01*
X76073Y-35958D01*
X76203Y-36012D01*
X76355Y-36012D01*
X76495Y-35954D01*
X76603Y-35846D01*
X76661Y-35706D01*
X76662Y-35614D01*
X76791Y-35560D01*
X76898Y-35453D01*
X76957Y-35312D01*
X76957Y-35160D01*
X76899Y-35019D01*
X76791Y-34912D01*
X76661Y-34858D01*
X76662Y-34766D01*
X76603Y-34626D01*
X76585Y-34607D01*
X76665Y-34607D01*
X76979Y-34922D01*
X76979Y-35016D01*
X77037Y-35157D01*
X77145Y-35265D01*
X77285Y-35323D01*
X77437Y-35323D01*
X77578Y-35265D01*
X77686Y-35157D01*
X77744Y-35017D01*
X77744Y-34865D01*
X77686Y-34724D01*
X77579Y-34616D01*
X77438Y-34558D01*
X77343Y-34558D01*
X77196Y-34411D01*
X77221Y-34411D01*
X77285Y-34437D01*
X77437Y-34437D01*
X77578Y-34379D01*
X77686Y-34272D01*
X77744Y-34131D01*
X77744Y-33979D01*
X77686Y-33838D01*
X77579Y-33731D01*
X77438Y-33672D01*
X77305Y-33672D01*
X77292Y-33641D01*
X77214Y-33562D01*
X77292Y-33484D01*
X77350Y-33344D01*
X77351Y-33191D01*
X77292Y-33051D01*
X77274Y-33032D01*
X77478Y-32828D01*
X77495Y-32845D01*
X77495Y-33310D01*
X77526Y-33387D01*
X77585Y-33445D01*
X77661Y-33477D01*
X77743Y-33477D01*
X77971Y-33477D01*
X77971Y-33740D01*
X77971Y-33740D01*
X77987Y-33822D01*
X77991Y-33838D01*
X78003Y-33856D01*
X78003Y-33856D01*
X78003Y-33973D01*
X78061Y-34114D01*
X78168Y-34221D01*
X78309Y-34280D01*
X78461Y-34280D01*
X78602Y-34222D01*
X78631Y-34193D01*
X78631Y-35011D01*
X78631Y-35011D01*
G37*
G54D55*
X78631Y-35011D02*
X77570Y-36072D01*
X76909Y-36072D01*
X76893Y-36065D01*
X76811Y-36065D01*
X76575Y-36065D01*
X76559Y-36072D01*
X76409Y-36072D01*
X76393Y-36065D01*
X76311Y-36065D01*
X76075Y-36065D01*
X76059Y-36072D01*
X75909Y-36072D01*
X75893Y-36065D01*
X75811Y-36065D01*
X75575Y-36065D01*
X75559Y-36072D01*
X75409Y-36072D01*
X75393Y-36065D01*
X75311Y-36065D01*
X75075Y-36065D01*
X75059Y-36072D01*
X74036Y-36072D01*
X74119Y-35988D01*
X74162Y-36030D01*
X74238Y-36062D01*
X74320Y-36062D01*
X74570Y-36062D01*
X74647Y-36030D01*
X74704Y-35973D01*
X74762Y-36030D01*
X74838Y-36062D01*
X74920Y-36062D01*
X75170Y-36062D01*
X75247Y-36030D01*
X75305Y-35972D01*
X75337Y-35896D01*
X75337Y-35877D01*
X75374Y-35877D01*
X75374Y-35877D01*
X75389Y-35880D01*
X75444Y-35935D01*
X75520Y-35967D01*
X75603Y-35967D01*
X76053Y-35967D01*
X76073Y-35958D01*
X76203Y-36012D01*
X76355Y-36012D01*
X76495Y-35954D01*
X76603Y-35846D01*
X76661Y-35706D01*
X76662Y-35614D01*
X76791Y-35560D01*
X76898Y-35453D01*
X76957Y-35312D01*
X76957Y-35160D01*
X76899Y-35019D01*
X76791Y-34912D01*
X76661Y-34858D01*
X76662Y-34766D01*
X76603Y-34626D01*
X76585Y-34607D01*
X76665Y-34607D01*
X76979Y-34922D01*
X76979Y-35016D01*
X77037Y-35157D01*
X77145Y-35265D01*
X77285Y-35323D01*
X77437Y-35323D01*
X77578Y-35265D01*
X77686Y-35157D01*
X77744Y-35017D01*
X77744Y-34865D01*
X77686Y-34724D01*
X77579Y-34616D01*
X77438Y-34558D01*
X77343Y-34558D01*
X77196Y-34411D01*
X77221Y-34411D01*
X77285Y-34437D01*
X77437Y-34437D01*
X77578Y-34379D01*
X77686Y-34272D01*
X77744Y-34131D01*
X77744Y-33979D01*
X77686Y-33838D01*
X77579Y-33731D01*
X77438Y-33672D01*
X77305Y-33672D01*
X77292Y-33641D01*
X77214Y-33562D01*
X77292Y-33484D01*
X77350Y-33344D01*
X77351Y-33191D01*
X77292Y-33051D01*
X77274Y-33032D01*
X77478Y-32828D01*
X77495Y-32845D01*
X77495Y-33310D01*
X77526Y-33387D01*
X77585Y-33445D01*
X77661Y-33477D01*
X77743Y-33477D01*
X77971Y-33477D01*
X77971Y-33740D01*
X77971Y-33740D01*
X77987Y-33822D01*
X77991Y-33838D01*
X78003Y-33856D01*
X78003Y-33856D01*
X78003Y-33973D01*
X78061Y-34114D01*
X78168Y-34221D01*
X78309Y-34280D01*
X78461Y-34280D01*
X78602Y-34222D01*
X78631Y-34193D01*
X78631Y-35011D01*
G54D10*
G36*
X87517Y-31998D02*
X85707Y-33808D01*
X82389Y-33808D01*
X82389Y-33319D01*
X82389Y-32982D01*
X82327Y-32920D01*
X81939Y-32920D01*
X81939Y-33457D01*
X82002Y-33519D01*
X82090Y-33519D01*
X82189Y-33519D01*
X82281Y-33481D01*
X82351Y-33411D01*
X82389Y-33319D01*
X82389Y-33808D01*
X82065Y-33808D01*
X81839Y-34034D01*
X81839Y-33457D01*
X81839Y-32920D01*
X81452Y-32920D01*
X81389Y-32982D01*
X81389Y-33319D01*
X81427Y-33411D01*
X81497Y-33481D01*
X81589Y-33519D01*
X81689Y-33519D01*
X81777Y-33519D01*
X81839Y-33457D01*
X81839Y-34034D01*
X79802Y-36072D01*
X78435Y-36072D01*
X79153Y-35354D01*
X79219Y-35254D01*
X79242Y-35137D01*
X79242Y-33471D01*
X79304Y-33445D01*
X79362Y-33387D01*
X79394Y-33311D01*
X79394Y-33228D01*
X79394Y-32429D01*
X79363Y-32353D01*
X79304Y-32294D01*
X79303Y-32294D01*
X79554Y-32294D01*
X79553Y-32294D01*
X79495Y-32352D01*
X79463Y-32429D01*
X79463Y-32511D01*
X79463Y-33310D01*
X79495Y-33387D01*
X79553Y-33445D01*
X79629Y-33477D01*
X79712Y-33477D01*
X80137Y-33477D01*
X80000Y-33533D01*
X79892Y-33641D01*
X79834Y-33781D01*
X79833Y-33934D01*
X79892Y-34074D01*
X79999Y-34182D01*
X80140Y-34240D01*
X80292Y-34240D01*
X80432Y-34182D01*
X80540Y-34075D01*
X80598Y-33934D01*
X80599Y-33839D01*
X80961Y-33477D01*
X81196Y-33477D01*
X81272Y-33445D01*
X81331Y-33387D01*
X81362Y-33311D01*
X81363Y-33228D01*
X81363Y-32429D01*
X81331Y-32353D01*
X81273Y-32294D01*
X81271Y-32294D01*
X81462Y-32294D01*
X81427Y-32329D01*
X81389Y-32420D01*
X81389Y-32757D01*
X81452Y-32820D01*
X81839Y-32820D01*
X81839Y-32812D01*
X81939Y-32812D01*
X81939Y-32820D01*
X82327Y-32820D01*
X82389Y-32757D01*
X82389Y-32420D01*
X82351Y-32329D01*
X82316Y-32294D01*
X84286Y-32294D01*
X84286Y-32344D01*
X84286Y-33234D01*
X84318Y-33310D01*
X84376Y-33368D01*
X84452Y-33400D01*
X84535Y-33400D01*
X85625Y-33400D01*
X85702Y-33368D01*
X85760Y-33310D01*
X85792Y-33234D01*
X85792Y-33151D01*
X85792Y-32262D01*
X85760Y-32185D01*
X85714Y-32139D01*
X85855Y-31998D01*
X86222Y-31998D01*
X86298Y-31966D01*
X86357Y-31908D01*
X86388Y-31832D01*
X86388Y-31749D01*
X86388Y-30916D01*
X86585Y-30916D01*
X86642Y-30972D01*
X86642Y-31831D01*
X86674Y-31908D01*
X86732Y-31966D01*
X86808Y-31998D01*
X86891Y-31998D01*
X87517Y-31998D01*
X87517Y-31998D01*
G37*
G54D55*
X87517Y-31998D02*
X85707Y-33808D01*
X82389Y-33808D01*
X82389Y-33319D01*
X82389Y-32982D01*
X82327Y-32920D01*
X81939Y-32920D01*
X81939Y-33457D01*
X82002Y-33519D01*
X82090Y-33519D01*
X82189Y-33519D01*
X82281Y-33481D01*
X82351Y-33411D01*
X82389Y-33319D01*
X82389Y-33808D01*
X82065Y-33808D01*
X81839Y-34034D01*
X81839Y-33457D01*
X81839Y-32920D01*
X81452Y-32920D01*
X81389Y-32982D01*
X81389Y-33319D01*
X81427Y-33411D01*
X81497Y-33481D01*
X81589Y-33519D01*
X81689Y-33519D01*
X81777Y-33519D01*
X81839Y-33457D01*
X81839Y-34034D01*
X79802Y-36072D01*
X78435Y-36072D01*
X79153Y-35354D01*
X79219Y-35254D01*
X79242Y-35137D01*
X79242Y-33471D01*
X79304Y-33445D01*
X79362Y-33387D01*
X79394Y-33311D01*
X79394Y-33228D01*
X79394Y-32429D01*
X79363Y-32353D01*
X79304Y-32294D01*
X79303Y-32294D01*
X79554Y-32294D01*
X79553Y-32294D01*
X79495Y-32352D01*
X79463Y-32429D01*
X79463Y-32511D01*
X79463Y-33310D01*
X79495Y-33387D01*
X79553Y-33445D01*
X79629Y-33477D01*
X79712Y-33477D01*
X80137Y-33477D01*
X80000Y-33533D01*
X79892Y-33641D01*
X79834Y-33781D01*
X79833Y-33934D01*
X79892Y-34074D01*
X79999Y-34182D01*
X80140Y-34240D01*
X80292Y-34240D01*
X80432Y-34182D01*
X80540Y-34075D01*
X80598Y-33934D01*
X80599Y-33839D01*
X80961Y-33477D01*
X81196Y-33477D01*
X81272Y-33445D01*
X81331Y-33387D01*
X81362Y-33311D01*
X81363Y-33228D01*
X81363Y-32429D01*
X81331Y-32353D01*
X81273Y-32294D01*
X81271Y-32294D01*
X81462Y-32294D01*
X81427Y-32329D01*
X81389Y-32420D01*
X81389Y-32757D01*
X81452Y-32820D01*
X81839Y-32820D01*
X81839Y-32812D01*
X81939Y-32812D01*
X81939Y-32820D01*
X82327Y-32820D01*
X82389Y-32757D01*
X82389Y-32420D01*
X82351Y-32329D01*
X82316Y-32294D01*
X84286Y-32294D01*
X84286Y-32344D01*
X84286Y-33234D01*
X84318Y-33310D01*
X84376Y-33368D01*
X84452Y-33400D01*
X84535Y-33400D01*
X85625Y-33400D01*
X85702Y-33368D01*
X85760Y-33310D01*
X85792Y-33234D01*
X85792Y-33151D01*
X85792Y-32262D01*
X85760Y-32185D01*
X85714Y-32139D01*
X85855Y-31998D01*
X86222Y-31998D01*
X86298Y-31966D01*
X86357Y-31908D01*
X86388Y-31832D01*
X86388Y-31749D01*
X86388Y-30916D01*
X86585Y-30916D01*
X86642Y-30972D01*
X86642Y-31831D01*
X86674Y-31908D01*
X86732Y-31966D01*
X86808Y-31998D01*
X86891Y-31998D01*
X87517Y-31998D01*
G54D10*
G36*
X72038Y-33495D02*
X72028Y-33493D01*
X72024Y-33493D01*
X72006Y-33448D01*
X71947Y-33390D01*
X71871Y-33358D01*
X71789Y-33358D01*
X71239Y-33358D01*
X71162Y-33390D01*
X71112Y-33439D01*
X71112Y-31467D01*
X71124Y-31494D01*
X71182Y-31553D01*
X71214Y-31566D01*
X71259Y-31632D01*
X71719Y-32092D01*
X71710Y-32115D01*
X71710Y-32197D01*
X71710Y-32647D01*
X71741Y-32724D01*
X71796Y-32779D01*
X71813Y-32865D01*
X71867Y-32945D01*
X71996Y-33074D01*
X71996Y-33366D01*
X72015Y-33460D01*
X72038Y-33495D01*
X72038Y-33495D01*
G37*
G54D55*
X72038Y-33495D02*
X72028Y-33493D01*
X72024Y-33493D01*
X72006Y-33448D01*
X71947Y-33390D01*
X71871Y-33358D01*
X71789Y-33358D01*
X71239Y-33358D01*
X71162Y-33390D01*
X71112Y-33439D01*
X71112Y-31467D01*
X71124Y-31494D01*
X71182Y-31553D01*
X71214Y-31566D01*
X71259Y-31632D01*
X71719Y-32092D01*
X71710Y-32115D01*
X71710Y-32197D01*
X71710Y-32647D01*
X71741Y-32724D01*
X71796Y-32779D01*
X71813Y-32865D01*
X71867Y-32945D01*
X71996Y-33074D01*
X71996Y-33366D01*
X72015Y-33460D01*
X72038Y-33495D01*
G54D10*
G36*
X76663Y-32518D02*
X76562Y-32518D01*
X76496Y-32451D01*
X76355Y-32393D01*
X76203Y-32393D01*
X76063Y-32451D01*
X75955Y-32558D01*
X75897Y-32699D01*
X75897Y-32759D01*
X75857Y-32743D01*
X75774Y-32743D01*
X75324Y-32743D01*
X75248Y-32774D01*
X75189Y-32832D01*
X75166Y-32888D01*
X75136Y-32888D01*
X74722Y-32888D01*
X74646Y-32920D01*
X74587Y-32978D01*
X74556Y-33055D01*
X74556Y-33137D01*
X74556Y-33263D01*
X74566Y-33287D01*
X74556Y-33310D01*
X74556Y-33393D01*
X74556Y-33519D01*
X74566Y-33543D01*
X74556Y-33566D01*
X74556Y-33649D01*
X74556Y-33685D01*
X74537Y-33689D01*
X74453Y-33745D01*
X74424Y-33774D01*
X74368Y-33858D01*
X74348Y-33956D01*
X74348Y-34834D01*
X74302Y-34880D01*
X74015Y-34880D01*
X73917Y-34899D01*
X73833Y-34955D01*
X73833Y-34955D01*
X73800Y-34989D01*
X73081Y-34989D01*
X73081Y-34972D01*
X73081Y-34846D01*
X73071Y-34822D01*
X73081Y-34799D01*
X73081Y-34716D01*
X73081Y-34590D01*
X73071Y-34566D01*
X73081Y-34543D01*
X73081Y-34460D01*
X73081Y-34334D01*
X73071Y-34311D01*
X73081Y-34287D01*
X73081Y-34204D01*
X73081Y-34078D01*
X73071Y-34055D01*
X73081Y-34031D01*
X73081Y-33949D01*
X73081Y-33823D01*
X73050Y-33746D01*
X72991Y-33688D01*
X72950Y-33671D01*
X72991Y-33654D01*
X73049Y-33596D01*
X73081Y-33519D01*
X73081Y-33437D01*
X73081Y-33311D01*
X73071Y-33287D01*
X73081Y-33263D01*
X73081Y-33181D01*
X73081Y-33055D01*
X73071Y-33031D01*
X73081Y-33007D01*
X73081Y-32925D01*
X73081Y-32799D01*
X73050Y-32723D01*
X72991Y-32664D01*
X72971Y-32656D01*
X72974Y-32648D01*
X72975Y-32565D01*
X72975Y-32200D01*
X74601Y-32200D01*
X74718Y-32177D01*
X74817Y-32110D01*
X75028Y-31900D01*
X75463Y-31900D01*
X75728Y-32165D01*
X75827Y-32231D01*
X75944Y-32254D01*
X76399Y-32254D01*
X76663Y-32518D01*
X76663Y-32518D01*
G37*
G54D55*
X76663Y-32518D02*
X76562Y-32518D01*
X76496Y-32451D01*
X76355Y-32393D01*
X76203Y-32393D01*
X76063Y-32451D01*
X75955Y-32558D01*
X75897Y-32699D01*
X75897Y-32759D01*
X75857Y-32743D01*
X75774Y-32743D01*
X75324Y-32743D01*
X75248Y-32774D01*
X75189Y-32832D01*
X75166Y-32888D01*
X75136Y-32888D01*
X74722Y-32888D01*
X74646Y-32920D01*
X74587Y-32978D01*
X74556Y-33055D01*
X74556Y-33137D01*
X74556Y-33263D01*
X74566Y-33287D01*
X74556Y-33310D01*
X74556Y-33393D01*
X74556Y-33519D01*
X74566Y-33543D01*
X74556Y-33566D01*
X74556Y-33649D01*
X74556Y-33685D01*
X74537Y-33689D01*
X74453Y-33745D01*
X74424Y-33774D01*
X74368Y-33858D01*
X74348Y-33956D01*
X74348Y-34834D01*
X74302Y-34880D01*
X74015Y-34880D01*
X73917Y-34899D01*
X73833Y-34955D01*
X73833Y-34955D01*
X73800Y-34989D01*
X73081Y-34989D01*
X73081Y-34972D01*
X73081Y-34846D01*
X73071Y-34822D01*
X73081Y-34799D01*
X73081Y-34716D01*
X73081Y-34590D01*
X73071Y-34566D01*
X73081Y-34543D01*
X73081Y-34460D01*
X73081Y-34334D01*
X73071Y-34311D01*
X73081Y-34287D01*
X73081Y-34204D01*
X73081Y-34078D01*
X73071Y-34055D01*
X73081Y-34031D01*
X73081Y-33949D01*
X73081Y-33823D01*
X73050Y-33746D01*
X72991Y-33688D01*
X72950Y-33671D01*
X72991Y-33654D01*
X73049Y-33596D01*
X73081Y-33519D01*
X73081Y-33437D01*
X73081Y-33311D01*
X73071Y-33287D01*
X73081Y-33263D01*
X73081Y-33181D01*
X73081Y-33055D01*
X73071Y-33031D01*
X73081Y-33007D01*
X73081Y-32925D01*
X73081Y-32799D01*
X73050Y-32723D01*
X72991Y-32664D01*
X72971Y-32656D01*
X72974Y-32648D01*
X72975Y-32565D01*
X72975Y-32200D01*
X74601Y-32200D01*
X74718Y-32177D01*
X74817Y-32110D01*
X75028Y-31900D01*
X75463Y-31900D01*
X75728Y-32165D01*
X75827Y-32231D01*
X75944Y-32254D01*
X76399Y-32254D01*
X76663Y-32518D01*
G54D10*
G36*
X78985Y-27274D02*
X78720Y-27539D01*
X78654Y-27638D01*
X78631Y-27755D01*
X78631Y-29025D01*
X78541Y-29025D01*
X78465Y-29056D01*
X78406Y-29115D01*
X78375Y-29191D01*
X78374Y-29273D01*
X78374Y-29418D01*
X78121Y-29418D01*
X78121Y-29191D01*
X78089Y-29115D01*
X78031Y-29057D01*
X77955Y-29025D01*
X77872Y-29025D01*
X77163Y-29025D01*
X77087Y-29056D01*
X77028Y-29115D01*
X76997Y-29191D01*
X76997Y-29273D01*
X76997Y-30257D01*
X77028Y-30334D01*
X77086Y-30392D01*
X77163Y-30424D01*
X77245Y-30424D01*
X77509Y-30424D01*
X77342Y-30590D01*
X77337Y-30599D01*
X77163Y-30599D01*
X77087Y-30630D01*
X77028Y-30689D01*
X76997Y-30765D01*
X76997Y-30796D01*
X76916Y-30796D01*
X76927Y-30785D01*
X76958Y-30709D01*
X76958Y-30627D01*
X76958Y-30277D01*
X76927Y-30200D01*
X76869Y-30142D01*
X76792Y-30110D01*
X76710Y-30110D01*
X76160Y-30110D01*
X76084Y-30142D01*
X76025Y-30200D01*
X75993Y-30276D01*
X75993Y-30359D01*
X75993Y-30669D01*
X75813Y-30669D01*
X75777Y-30684D01*
X75777Y-30627D01*
X75777Y-30277D01*
X75746Y-30200D01*
X75687Y-30142D01*
X75629Y-30118D01*
X75687Y-30094D01*
X75746Y-30035D01*
X75777Y-29959D01*
X75777Y-29877D01*
X75777Y-29527D01*
X75746Y-29450D01*
X75687Y-29392D01*
X75611Y-29360D01*
X75587Y-29360D01*
X75577Y-29312D01*
X75563Y-29289D01*
X75609Y-29270D01*
X75668Y-29212D01*
X75699Y-29136D01*
X75699Y-29053D01*
X75699Y-28344D01*
X75668Y-28268D01*
X75610Y-28209D01*
X75533Y-28178D01*
X75451Y-28178D01*
X74467Y-28178D01*
X74391Y-28209D01*
X74341Y-28259D01*
X74341Y-27104D01*
X74333Y-27085D01*
X74336Y-27077D01*
X77067Y-27077D01*
X77184Y-27054D01*
X77283Y-26987D01*
X77705Y-26565D01*
X78781Y-26565D01*
X78857Y-26534D01*
X78916Y-26476D01*
X78919Y-26467D01*
X78980Y-26614D01*
X78985Y-26619D01*
X78985Y-27274D01*
X78985Y-27274D01*
G37*
G54D55*
X78985Y-27274D02*
X78720Y-27539D01*
X78654Y-27638D01*
X78631Y-27755D01*
X78631Y-29025D01*
X78541Y-29025D01*
X78465Y-29056D01*
X78406Y-29115D01*
X78375Y-29191D01*
X78374Y-29273D01*
X78374Y-29418D01*
X78121Y-29418D01*
X78121Y-29191D01*
X78089Y-29115D01*
X78031Y-29057D01*
X77955Y-29025D01*
X77872Y-29025D01*
X77163Y-29025D01*
X77087Y-29056D01*
X77028Y-29115D01*
X76997Y-29191D01*
X76997Y-29273D01*
X76997Y-30257D01*
X77028Y-30334D01*
X77086Y-30392D01*
X77163Y-30424D01*
X77245Y-30424D01*
X77509Y-30424D01*
X77342Y-30590D01*
X77337Y-30599D01*
X77163Y-30599D01*
X77087Y-30630D01*
X77028Y-30689D01*
X76997Y-30765D01*
X76997Y-30796D01*
X76916Y-30796D01*
X76927Y-30785D01*
X76958Y-30709D01*
X76958Y-30627D01*
X76958Y-30277D01*
X76927Y-30200D01*
X76869Y-30142D01*
X76792Y-30110D01*
X76710Y-30110D01*
X76160Y-30110D01*
X76084Y-30142D01*
X76025Y-30200D01*
X75993Y-30276D01*
X75993Y-30359D01*
X75993Y-30669D01*
X75813Y-30669D01*
X75777Y-30684D01*
X75777Y-30627D01*
X75777Y-30277D01*
X75746Y-30200D01*
X75687Y-30142D01*
X75629Y-30118D01*
X75687Y-30094D01*
X75746Y-30035D01*
X75777Y-29959D01*
X75777Y-29877D01*
X75777Y-29527D01*
X75746Y-29450D01*
X75687Y-29392D01*
X75611Y-29360D01*
X75587Y-29360D01*
X75577Y-29312D01*
X75563Y-29289D01*
X75609Y-29270D01*
X75668Y-29212D01*
X75699Y-29136D01*
X75699Y-29053D01*
X75699Y-28344D01*
X75668Y-28268D01*
X75610Y-28209D01*
X75533Y-28178D01*
X75451Y-28178D01*
X74467Y-28178D01*
X74391Y-28209D01*
X74341Y-28259D01*
X74341Y-27104D01*
X74333Y-27085D01*
X74336Y-27077D01*
X77067Y-27077D01*
X77184Y-27054D01*
X77283Y-26987D01*
X77705Y-26565D01*
X78781Y-26565D01*
X78857Y-26534D01*
X78916Y-26476D01*
X78919Y-26467D01*
X78980Y-26614D01*
X78985Y-26619D01*
X78985Y-27274D01*
G54D10*
G36*
X72695Y-42564D02*
X72687Y-42564D01*
X72687Y-42572D01*
X72587Y-42572D01*
X72587Y-42564D01*
X72579Y-42564D01*
X72579Y-42464D01*
X72587Y-42464D01*
X72587Y-42457D01*
X72687Y-42457D01*
X72687Y-42464D01*
X72695Y-42464D01*
X72695Y-42564D01*
X72695Y-42564D01*
G37*
G54D55*
X72695Y-42564D02*
X72687Y-42564D01*
X72687Y-42572D01*
X72587Y-42572D01*
X72587Y-42564D01*
X72579Y-42564D01*
X72579Y-42464D01*
X72587Y-42464D01*
X72587Y-42457D01*
X72687Y-42457D01*
X72687Y-42464D01*
X72695Y-42464D01*
X72695Y-42564D01*
G54D10*
G36*
X74861Y-42879D02*
X74853Y-42879D01*
X74853Y-42887D01*
X74753Y-42887D01*
X74753Y-42879D01*
X73865Y-42879D01*
X73803Y-42941D01*
X73803Y-43153D01*
X73771Y-43153D01*
X73531Y-43153D01*
X73487Y-43171D01*
X73453Y-43205D01*
X73435Y-43249D01*
X73435Y-43297D01*
X73435Y-43884D01*
X73415Y-43884D01*
X73415Y-43848D01*
X73415Y-43249D01*
X73397Y-43205D01*
X73363Y-43171D01*
X73319Y-43153D01*
X73271Y-43153D01*
X73031Y-43153D01*
X73005Y-43164D01*
X72982Y-43141D01*
X72982Y-42966D01*
X72964Y-42922D01*
X72930Y-42888D01*
X72923Y-42885D01*
X73004Y-42851D01*
X73074Y-42781D01*
X73112Y-42689D01*
X73112Y-42627D01*
X73055Y-42569D01*
X73803Y-42569D01*
X73803Y-42716D01*
X73865Y-42779D01*
X74753Y-42779D01*
X74753Y-42771D01*
X74853Y-42771D01*
X74853Y-42779D01*
X74861Y-42779D01*
X74861Y-42879D01*
X74861Y-42879D01*
G37*
G54D55*
X74861Y-42879D02*
X74853Y-42879D01*
X74853Y-42887D01*
X74753Y-42887D01*
X74753Y-42879D01*
X73865Y-42879D01*
X73803Y-42941D01*
X73803Y-43153D01*
X73771Y-43153D01*
X73531Y-43153D01*
X73487Y-43171D01*
X73453Y-43205D01*
X73435Y-43249D01*
X73435Y-43297D01*
X73435Y-43884D01*
X73415Y-43884D01*
X73415Y-43848D01*
X73415Y-43249D01*
X73397Y-43205D01*
X73363Y-43171D01*
X73319Y-43153D01*
X73271Y-43153D01*
X73031Y-43153D01*
X73005Y-43164D01*
X72982Y-43141D01*
X72982Y-42966D01*
X72964Y-42922D01*
X72930Y-42888D01*
X72923Y-42885D01*
X73004Y-42851D01*
X73074Y-42781D01*
X73112Y-42689D01*
X73112Y-42627D01*
X73055Y-42569D01*
X73803Y-42569D01*
X73803Y-42716D01*
X73865Y-42779D01*
X74753Y-42779D01*
X74753Y-42771D01*
X74853Y-42771D01*
X74853Y-42779D01*
X74861Y-42779D01*
X74861Y-42879D01*
G54D10*
G36*
X76131Y-44648D02*
X76108Y-44626D01*
X76016Y-44588D01*
X75979Y-44588D01*
X75917Y-44650D01*
X75917Y-44938D01*
X75925Y-44938D01*
X75925Y-45038D01*
X75917Y-45038D01*
X75917Y-45046D01*
X75842Y-45046D01*
X75842Y-44088D01*
X75842Y-44100D01*
X75817Y-44075D01*
X75817Y-44038D01*
X75779Y-44038D01*
X75579Y-44038D01*
X75542Y-44038D01*
X75542Y-44075D01*
X75517Y-44100D01*
X75517Y-44088D01*
X75517Y-44188D01*
X75542Y-44248D01*
X75542Y-44325D01*
X75604Y-44388D01*
X75641Y-44388D01*
X75679Y-44372D01*
X75717Y-44388D01*
X75754Y-44388D01*
X75817Y-44325D01*
X75817Y-44248D01*
X75842Y-44188D01*
X75842Y-44088D01*
X75842Y-45046D01*
X75817Y-45046D01*
X75817Y-45038D01*
X75817Y-44938D01*
X75817Y-44650D01*
X75754Y-44588D01*
X75717Y-44588D01*
X75625Y-44626D01*
X75555Y-44696D01*
X75517Y-44788D01*
X75517Y-44887D01*
X75517Y-44875D01*
X75579Y-44938D01*
X75817Y-44938D01*
X75817Y-45038D01*
X75579Y-45038D01*
X75517Y-45100D01*
X75517Y-45088D01*
X75517Y-45188D01*
X75555Y-45279D01*
X75625Y-45350D01*
X75710Y-45385D01*
X75709Y-45386D01*
X75709Y-45479D01*
X75745Y-45566D01*
X75769Y-45589D01*
X75723Y-45589D01*
X75173Y-45589D01*
X75129Y-45608D01*
X75095Y-45641D01*
X75077Y-45685D01*
X75077Y-45733D01*
X75077Y-46061D01*
X75004Y-46134D01*
X74982Y-46112D01*
X74720Y-46112D01*
X74720Y-46120D01*
X74620Y-46120D01*
X74620Y-46112D01*
X74612Y-46112D01*
X74612Y-46012D01*
X74620Y-46012D01*
X74620Y-46005D01*
X74720Y-46005D01*
X74720Y-46012D01*
X74982Y-46012D01*
X75045Y-45950D01*
X75045Y-45887D01*
X75045Y-45788D01*
X75006Y-45696D01*
X74995Y-45685D01*
X75022Y-45658D01*
X75041Y-45614D01*
X75041Y-45566D01*
X75041Y-45330D01*
X75022Y-45286D01*
X74994Y-45258D01*
X75040Y-45258D01*
X75240Y-45258D01*
X75285Y-45239D01*
X75318Y-45206D01*
X75337Y-45162D01*
X75337Y-45114D01*
X75337Y-44814D01*
X75322Y-44779D01*
X75348Y-44753D01*
X75393Y-44645D01*
X75393Y-44528D01*
X75348Y-44419D01*
X75299Y-44370D01*
X75342Y-44388D01*
X75379Y-44388D01*
X75442Y-44325D01*
X75442Y-44038D01*
X75434Y-44038D01*
X75434Y-43938D01*
X75442Y-43938D01*
X75442Y-43930D01*
X75542Y-43930D01*
X75542Y-43938D01*
X75579Y-43938D01*
X75779Y-43938D01*
X75817Y-43938D01*
X75817Y-43930D01*
X75917Y-43930D01*
X75917Y-43938D01*
X75925Y-43938D01*
X75925Y-44038D01*
X75917Y-44038D01*
X75917Y-44325D01*
X75979Y-44388D01*
X76016Y-44388D01*
X76108Y-44350D01*
X76131Y-44327D01*
X76131Y-44648D01*
X76131Y-44648D01*
G37*
G54D55*
X76131Y-44648D02*
X76108Y-44626D01*
X76016Y-44588D01*
X75979Y-44588D01*
X75917Y-44650D01*
X75917Y-44938D01*
X75925Y-44938D01*
X75925Y-45038D01*
X75917Y-45038D01*
X75917Y-45046D01*
X75842Y-45046D01*
X75842Y-44088D01*
X75842Y-44100D01*
X75817Y-44075D01*
X75817Y-44038D01*
X75779Y-44038D01*
X75579Y-44038D01*
X75542Y-44038D01*
X75542Y-44075D01*
X75517Y-44100D01*
X75517Y-44088D01*
X75517Y-44188D01*
X75542Y-44248D01*
X75542Y-44325D01*
X75604Y-44388D01*
X75641Y-44388D01*
X75679Y-44372D01*
X75717Y-44388D01*
X75754Y-44388D01*
X75817Y-44325D01*
X75817Y-44248D01*
X75842Y-44188D01*
X75842Y-44088D01*
X75842Y-45046D01*
X75817Y-45046D01*
X75817Y-45038D01*
X75817Y-44938D01*
X75817Y-44650D01*
X75754Y-44588D01*
X75717Y-44588D01*
X75625Y-44626D01*
X75555Y-44696D01*
X75517Y-44788D01*
X75517Y-44887D01*
X75517Y-44875D01*
X75579Y-44938D01*
X75817Y-44938D01*
X75817Y-45038D01*
X75579Y-45038D01*
X75517Y-45100D01*
X75517Y-45088D01*
X75517Y-45188D01*
X75555Y-45279D01*
X75625Y-45350D01*
X75710Y-45385D01*
X75709Y-45386D01*
X75709Y-45479D01*
X75745Y-45566D01*
X75769Y-45589D01*
X75723Y-45589D01*
X75173Y-45589D01*
X75129Y-45608D01*
X75095Y-45641D01*
X75077Y-45685D01*
X75077Y-45733D01*
X75077Y-46061D01*
X75004Y-46134D01*
X74982Y-46112D01*
X74720Y-46112D01*
X74720Y-46120D01*
X74620Y-46120D01*
X74620Y-46112D01*
X74612Y-46112D01*
X74612Y-46012D01*
X74620Y-46012D01*
X74620Y-46005D01*
X74720Y-46005D01*
X74720Y-46012D01*
X74982Y-46012D01*
X75045Y-45950D01*
X75045Y-45887D01*
X75045Y-45788D01*
X75006Y-45696D01*
X74995Y-45685D01*
X75022Y-45658D01*
X75041Y-45614D01*
X75041Y-45566D01*
X75041Y-45330D01*
X75022Y-45286D01*
X74994Y-45258D01*
X75040Y-45258D01*
X75240Y-45258D01*
X75285Y-45239D01*
X75318Y-45206D01*
X75337Y-45162D01*
X75337Y-45114D01*
X75337Y-44814D01*
X75322Y-44779D01*
X75348Y-44753D01*
X75393Y-44645D01*
X75393Y-44528D01*
X75348Y-44419D01*
X75299Y-44370D01*
X75342Y-44388D01*
X75379Y-44388D01*
X75442Y-44325D01*
X75442Y-44038D01*
X75434Y-44038D01*
X75434Y-43938D01*
X75442Y-43938D01*
X75442Y-43930D01*
X75542Y-43930D01*
X75542Y-43938D01*
X75579Y-43938D01*
X75779Y-43938D01*
X75817Y-43938D01*
X75817Y-43930D01*
X75917Y-43930D01*
X75917Y-43938D01*
X75925Y-43938D01*
X75925Y-44038D01*
X75917Y-44038D01*
X75917Y-44325D01*
X75979Y-44388D01*
X76016Y-44388D01*
X76108Y-44350D01*
X76131Y-44327D01*
X76131Y-44648D01*
G54D10*
G36*
X76967Y-43650D02*
X76357Y-43650D01*
X76217Y-43790D01*
X76217Y-43788D01*
X76209Y-43770D01*
X76249Y-43754D01*
X76332Y-43671D01*
X76377Y-43562D01*
X76377Y-43445D01*
X76332Y-43337D01*
X76315Y-43319D01*
X76407Y-43319D01*
X76499Y-43281D01*
X76569Y-43211D01*
X76573Y-43202D01*
X76573Y-43388D01*
X76591Y-43432D01*
X76625Y-43466D01*
X76669Y-43484D01*
X76717Y-43484D01*
X76851Y-43484D01*
X76860Y-43525D01*
X76894Y-43577D01*
X76967Y-43650D01*
X76967Y-43650D01*
G37*
G54D55*
X76967Y-43650D02*
X76357Y-43650D01*
X76217Y-43790D01*
X76217Y-43788D01*
X76209Y-43770D01*
X76249Y-43754D01*
X76332Y-43671D01*
X76377Y-43562D01*
X76377Y-43445D01*
X76332Y-43337D01*
X76315Y-43319D01*
X76407Y-43319D01*
X76499Y-43281D01*
X76569Y-43211D01*
X76573Y-43202D01*
X76573Y-43388D01*
X76591Y-43432D01*
X76625Y-43466D01*
X76669Y-43484D01*
X76717Y-43484D01*
X76851Y-43484D01*
X76860Y-43525D01*
X76894Y-43577D01*
X76967Y-43650D01*
G54D10*
G36*
X78949Y-42832D02*
X78941Y-42832D01*
X78941Y-42840D01*
X78841Y-42840D01*
X78841Y-42832D01*
X78697Y-42832D01*
X78586Y-42832D01*
X78441Y-42832D01*
X78441Y-42840D01*
X78341Y-42840D01*
X78341Y-42832D01*
X78197Y-42832D01*
X78086Y-42832D01*
X77941Y-42832D01*
X77941Y-42840D01*
X77841Y-42840D01*
X77841Y-42832D01*
X77586Y-42832D01*
X77523Y-42894D01*
X77523Y-43008D01*
X77523Y-43107D01*
X77549Y-43169D01*
X77493Y-43169D01*
X77493Y-42664D01*
X77493Y-42552D01*
X77431Y-42489D01*
X77018Y-42489D01*
X77018Y-42802D01*
X77081Y-42864D01*
X77193Y-42865D01*
X77293Y-42864D01*
X77385Y-42826D01*
X77455Y-42756D01*
X77493Y-42664D01*
X77493Y-43169D01*
X77461Y-43169D01*
X77363Y-43209D01*
X77363Y-42991D01*
X77345Y-42947D01*
X77311Y-42913D01*
X77267Y-42894D01*
X77219Y-42894D01*
X76918Y-42894D01*
X76918Y-42802D01*
X76918Y-42489D01*
X76506Y-42489D01*
X76491Y-42504D01*
X76407Y-42469D01*
X76308Y-42469D01*
X76195Y-42469D01*
X76132Y-42532D01*
X76132Y-42844D01*
X76545Y-42844D01*
X76559Y-42830D01*
X76643Y-42864D01*
X76743Y-42865D01*
X76856Y-42864D01*
X76918Y-42802D01*
X76918Y-42894D01*
X76669Y-42894D01*
X76625Y-42913D01*
X76591Y-42946D01*
X76578Y-42978D01*
X76545Y-42944D01*
X76132Y-42944D01*
X76132Y-42952D01*
X76032Y-42952D01*
X76032Y-42944D01*
X76024Y-42944D01*
X76024Y-42844D01*
X76032Y-42844D01*
X76032Y-42532D01*
X75970Y-42469D01*
X75857Y-42469D01*
X75788Y-42469D01*
X75774Y-42435D01*
X75783Y-42439D01*
X75831Y-42439D01*
X76381Y-42439D01*
X76425Y-42421D01*
X76459Y-42387D01*
X76472Y-42356D01*
X76506Y-42389D01*
X76918Y-42389D01*
X76918Y-42382D01*
X77018Y-42382D01*
X77018Y-42389D01*
X77431Y-42389D01*
X77493Y-42327D01*
X77493Y-42215D01*
X77455Y-42123D01*
X77385Y-42053D01*
X77373Y-42048D01*
X77396Y-42025D01*
X77415Y-41981D01*
X77415Y-41933D01*
X77415Y-41823D01*
X77887Y-42256D01*
X77841Y-42256D01*
X77841Y-42319D01*
X77779Y-42256D01*
X77724Y-42256D01*
X77632Y-42294D01*
X77561Y-42364D01*
X77523Y-42456D01*
X77523Y-42556D01*
X77523Y-42669D01*
X77586Y-42732D01*
X77841Y-42732D01*
X77841Y-42724D01*
X77941Y-42724D01*
X77941Y-42732D01*
X78086Y-42732D01*
X78197Y-42732D01*
X78341Y-42732D01*
X78341Y-42724D01*
X78441Y-42724D01*
X78441Y-42732D01*
X78586Y-42732D01*
X78697Y-42732D01*
X78841Y-42732D01*
X78841Y-42724D01*
X78941Y-42724D01*
X78941Y-42732D01*
X78949Y-42732D01*
X78949Y-42832D01*
X78949Y-42832D01*
G37*
G54D55*
X78949Y-42832D02*
X78941Y-42832D01*
X78941Y-42840D01*
X78841Y-42840D01*
X78841Y-42832D01*
X78697Y-42832D01*
X78586Y-42832D01*
X78441Y-42832D01*
X78441Y-42840D01*
X78341Y-42840D01*
X78341Y-42832D01*
X78197Y-42832D01*
X78086Y-42832D01*
X77941Y-42832D01*
X77941Y-42840D01*
X77841Y-42840D01*
X77841Y-42832D01*
X77586Y-42832D01*
X77523Y-42894D01*
X77523Y-43008D01*
X77523Y-43107D01*
X77549Y-43169D01*
X77493Y-43169D01*
X77493Y-42664D01*
X77493Y-42552D01*
X77431Y-42489D01*
X77018Y-42489D01*
X77018Y-42802D01*
X77081Y-42864D01*
X77193Y-42865D01*
X77293Y-42864D01*
X77385Y-42826D01*
X77455Y-42756D01*
X77493Y-42664D01*
X77493Y-43169D01*
X77461Y-43169D01*
X77363Y-43209D01*
X77363Y-42991D01*
X77345Y-42947D01*
X77311Y-42913D01*
X77267Y-42894D01*
X77219Y-42894D01*
X76918Y-42894D01*
X76918Y-42802D01*
X76918Y-42489D01*
X76506Y-42489D01*
X76491Y-42504D01*
X76407Y-42469D01*
X76308Y-42469D01*
X76195Y-42469D01*
X76132Y-42532D01*
X76132Y-42844D01*
X76545Y-42844D01*
X76559Y-42830D01*
X76643Y-42864D01*
X76743Y-42865D01*
X76856Y-42864D01*
X76918Y-42802D01*
X76918Y-42894D01*
X76669Y-42894D01*
X76625Y-42913D01*
X76591Y-42946D01*
X76578Y-42978D01*
X76545Y-42944D01*
X76132Y-42944D01*
X76132Y-42952D01*
X76032Y-42952D01*
X76032Y-42944D01*
X76024Y-42944D01*
X76024Y-42844D01*
X76032Y-42844D01*
X76032Y-42532D01*
X75970Y-42469D01*
X75857Y-42469D01*
X75788Y-42469D01*
X75774Y-42435D01*
X75783Y-42439D01*
X75831Y-42439D01*
X76381Y-42439D01*
X76425Y-42421D01*
X76459Y-42387D01*
X76472Y-42356D01*
X76506Y-42389D01*
X76918Y-42389D01*
X76918Y-42382D01*
X77018Y-42382D01*
X77018Y-42389D01*
X77431Y-42389D01*
X77493Y-42327D01*
X77493Y-42215D01*
X77455Y-42123D01*
X77385Y-42053D01*
X77373Y-42048D01*
X77396Y-42025D01*
X77415Y-41981D01*
X77415Y-41933D01*
X77415Y-41823D01*
X77887Y-42256D01*
X77841Y-42256D01*
X77841Y-42319D01*
X77779Y-42256D01*
X77724Y-42256D01*
X77632Y-42294D01*
X77561Y-42364D01*
X77523Y-42456D01*
X77523Y-42556D01*
X77523Y-42669D01*
X77586Y-42732D01*
X77841Y-42732D01*
X77841Y-42724D01*
X77941Y-42724D01*
X77941Y-42732D01*
X78086Y-42732D01*
X78197Y-42732D01*
X78341Y-42732D01*
X78341Y-42724D01*
X78441Y-42724D01*
X78441Y-42732D01*
X78586Y-42732D01*
X78697Y-42732D01*
X78841Y-42732D01*
X78841Y-42724D01*
X78941Y-42724D01*
X78941Y-42732D01*
X78949Y-42732D01*
X78949Y-42832D01*
G54D10*
G36*
X82519Y-42218D02*
X82497Y-42196D01*
X82405Y-42158D01*
X82350Y-42158D01*
X82288Y-42220D01*
X82288Y-42633D01*
X82296Y-42633D01*
X82296Y-42733D01*
X82288Y-42733D01*
X82288Y-42741D01*
X82188Y-42741D01*
X82188Y-42733D01*
X82043Y-42733D01*
X81932Y-42733D01*
X81788Y-42733D01*
X81788Y-42741D01*
X81688Y-42741D01*
X81688Y-42733D01*
X81543Y-42733D01*
X81432Y-42733D01*
X81288Y-42733D01*
X81288Y-43146D01*
X81341Y-43200D01*
X81339Y-43202D01*
X81326Y-43267D01*
X81326Y-43473D01*
X81100Y-43699D01*
X81064Y-43754D01*
X81053Y-43806D01*
X81053Y-43753D01*
X81035Y-43709D01*
X81001Y-43675D01*
X80957Y-43657D01*
X80909Y-43657D01*
X80459Y-43657D01*
X80415Y-43675D01*
X80381Y-43709D01*
X80368Y-43742D01*
X79247Y-43742D01*
X79186Y-43754D01*
X79134Y-43789D01*
X79126Y-43796D01*
X79014Y-43796D01*
X79021Y-43778D01*
X79021Y-43679D01*
X79021Y-43616D01*
X78958Y-43553D01*
X78696Y-43553D01*
X78696Y-43561D01*
X78596Y-43561D01*
X78596Y-43553D01*
X78588Y-43553D01*
X78588Y-43453D01*
X78596Y-43453D01*
X78596Y-43446D01*
X78696Y-43446D01*
X78696Y-43453D01*
X78958Y-43453D01*
X79021Y-43391D01*
X79021Y-43328D01*
X79021Y-43307D01*
X79059Y-43307D01*
X79151Y-43269D01*
X79221Y-43199D01*
X79233Y-43170D01*
X79249Y-43177D01*
X79297Y-43177D01*
X79533Y-43177D01*
X79577Y-43159D01*
X79602Y-43135D01*
X79641Y-43151D01*
X79689Y-43151D01*
X79925Y-43151D01*
X79969Y-43133D01*
X80003Y-43099D01*
X80021Y-43055D01*
X80021Y-43007D01*
X80021Y-42771D01*
X80003Y-42727D01*
X80001Y-42726D01*
X80001Y-42569D01*
X80431Y-42569D01*
X80431Y-42726D01*
X80429Y-42727D01*
X80411Y-42771D01*
X80411Y-42819D01*
X80411Y-43055D01*
X80419Y-43074D01*
X80415Y-43075D01*
X80381Y-43109D01*
X80363Y-43153D01*
X80363Y-43201D01*
X80363Y-43451D01*
X80381Y-43495D01*
X80415Y-43529D01*
X80459Y-43547D01*
X80507Y-43547D01*
X80957Y-43547D01*
X81001Y-43529D01*
X81035Y-43495D01*
X81053Y-43451D01*
X81053Y-43403D01*
X81053Y-43202D01*
X81070Y-43209D01*
X81125Y-43209D01*
X81188Y-43146D01*
X81188Y-42733D01*
X80932Y-42733D01*
X80887Y-42778D01*
X80887Y-42771D01*
X80869Y-42727D01*
X80867Y-42726D01*
X80867Y-42569D01*
X80870Y-42569D01*
X80870Y-42571D01*
X80932Y-42633D01*
X81188Y-42633D01*
X81188Y-42625D01*
X81288Y-42625D01*
X81288Y-42633D01*
X81432Y-42633D01*
X81543Y-42633D01*
X81688Y-42633D01*
X81688Y-42625D01*
X81788Y-42625D01*
X81788Y-42633D01*
X81932Y-42633D01*
X82043Y-42633D01*
X82188Y-42633D01*
X82188Y-42220D01*
X82125Y-42158D01*
X82070Y-42158D01*
X81988Y-42192D01*
X81921Y-42164D01*
X82385Y-41700D01*
X82426Y-41800D01*
X82509Y-41883D01*
X82519Y-41887D01*
X82519Y-41929D01*
X82519Y-42218D01*
X82519Y-42218D01*
G37*
G54D55*
X82519Y-42218D02*
X82497Y-42196D01*
X82405Y-42158D01*
X82350Y-42158D01*
X82288Y-42220D01*
X82288Y-42633D01*
X82296Y-42633D01*
X82296Y-42733D01*
X82288Y-42733D01*
X82288Y-42741D01*
X82188Y-42741D01*
X82188Y-42733D01*
X82043Y-42733D01*
X81932Y-42733D01*
X81788Y-42733D01*
X81788Y-42741D01*
X81688Y-42741D01*
X81688Y-42733D01*
X81543Y-42733D01*
X81432Y-42733D01*
X81288Y-42733D01*
X81288Y-43146D01*
X81341Y-43200D01*
X81339Y-43202D01*
X81326Y-43267D01*
X81326Y-43473D01*
X81100Y-43699D01*
X81064Y-43754D01*
X81053Y-43806D01*
X81053Y-43753D01*
X81035Y-43709D01*
X81001Y-43675D01*
X80957Y-43657D01*
X80909Y-43657D01*
X80459Y-43657D01*
X80415Y-43675D01*
X80381Y-43709D01*
X80368Y-43742D01*
X79247Y-43742D01*
X79186Y-43754D01*
X79134Y-43789D01*
X79126Y-43796D01*
X79014Y-43796D01*
X79021Y-43778D01*
X79021Y-43679D01*
X79021Y-43616D01*
X78958Y-43553D01*
X78696Y-43553D01*
X78696Y-43561D01*
X78596Y-43561D01*
X78596Y-43553D01*
X78588Y-43553D01*
X78588Y-43453D01*
X78596Y-43453D01*
X78596Y-43446D01*
X78696Y-43446D01*
X78696Y-43453D01*
X78958Y-43453D01*
X79021Y-43391D01*
X79021Y-43328D01*
X79021Y-43307D01*
X79059Y-43307D01*
X79151Y-43269D01*
X79221Y-43199D01*
X79233Y-43170D01*
X79249Y-43177D01*
X79297Y-43177D01*
X79533Y-43177D01*
X79577Y-43159D01*
X79602Y-43135D01*
X79641Y-43151D01*
X79689Y-43151D01*
X79925Y-43151D01*
X79969Y-43133D01*
X80003Y-43099D01*
X80021Y-43055D01*
X80021Y-43007D01*
X80021Y-42771D01*
X80003Y-42727D01*
X80001Y-42726D01*
X80001Y-42569D01*
X80431Y-42569D01*
X80431Y-42726D01*
X80429Y-42727D01*
X80411Y-42771D01*
X80411Y-42819D01*
X80411Y-43055D01*
X80419Y-43074D01*
X80415Y-43075D01*
X80381Y-43109D01*
X80363Y-43153D01*
X80363Y-43201D01*
X80363Y-43451D01*
X80381Y-43495D01*
X80415Y-43529D01*
X80459Y-43547D01*
X80507Y-43547D01*
X80957Y-43547D01*
X81001Y-43529D01*
X81035Y-43495D01*
X81053Y-43451D01*
X81053Y-43403D01*
X81053Y-43202D01*
X81070Y-43209D01*
X81125Y-43209D01*
X81188Y-43146D01*
X81188Y-42733D01*
X80932Y-42733D01*
X80887Y-42778D01*
X80887Y-42771D01*
X80869Y-42727D01*
X80867Y-42726D01*
X80867Y-42569D01*
X80870Y-42569D01*
X80870Y-42571D01*
X80932Y-42633D01*
X81188Y-42633D01*
X81188Y-42625D01*
X81288Y-42625D01*
X81288Y-42633D01*
X81432Y-42633D01*
X81543Y-42633D01*
X81688Y-42633D01*
X81688Y-42625D01*
X81788Y-42625D01*
X81788Y-42633D01*
X81932Y-42633D01*
X82043Y-42633D01*
X82188Y-42633D01*
X82188Y-42220D01*
X82125Y-42158D01*
X82070Y-42158D01*
X81988Y-42192D01*
X81921Y-42164D01*
X82385Y-41700D01*
X82426Y-41800D01*
X82509Y-41883D01*
X82519Y-41887D01*
X82519Y-41929D01*
X82519Y-42218D01*
G54D10*
G36*
X87056Y-36372D02*
X87039Y-36372D01*
X85830Y-36372D01*
X85786Y-36390D01*
X85752Y-36424D01*
X85734Y-36468D01*
X85734Y-36515D01*
X85734Y-37229D01*
X85695Y-37268D01*
X85654Y-37329D01*
X85640Y-37401D01*
X85640Y-38110D01*
X85640Y-38580D01*
X85114Y-38580D01*
X85070Y-38598D01*
X85036Y-38632D01*
X85018Y-38676D01*
X85018Y-38724D01*
X85018Y-39225D01*
X84762Y-39480D01*
X84762Y-39445D01*
X84791Y-39417D01*
X84791Y-39417D01*
X84791Y-39417D01*
X84823Y-39368D01*
X84823Y-39368D01*
X84835Y-39311D01*
X84835Y-35770D01*
X85370Y-35234D01*
X85440Y-35235D01*
X85526Y-35199D01*
X85592Y-35133D01*
X85628Y-35046D01*
X85628Y-34953D01*
X85593Y-34867D01*
X85526Y-34800D01*
X85440Y-34765D01*
X85347Y-34764D01*
X85260Y-34800D01*
X85194Y-34866D01*
X85158Y-34953D01*
X85158Y-35022D01*
X84632Y-35549D01*
X84627Y-35550D01*
X84578Y-35582D01*
X84546Y-35631D01*
X84535Y-35688D01*
X84535Y-35708D01*
X84535Y-39233D01*
X84481Y-39233D01*
X84394Y-39269D01*
X84328Y-39335D01*
X84292Y-39421D01*
X84292Y-39515D01*
X84328Y-39601D01*
X84394Y-39667D01*
X84480Y-39703D01*
X84540Y-39703D01*
X84206Y-40037D01*
X84206Y-39596D01*
X84206Y-38750D01*
X84206Y-38650D01*
X84168Y-38558D01*
X84097Y-38488D01*
X84005Y-38450D01*
X83379Y-38450D01*
X83317Y-38513D01*
X83317Y-39123D01*
X84143Y-39123D01*
X84206Y-39060D01*
X84206Y-38750D01*
X84206Y-39596D01*
X84206Y-39285D01*
X84143Y-39223D01*
X83317Y-39223D01*
X83317Y-39833D01*
X83379Y-39895D01*
X84005Y-39895D01*
X84097Y-39857D01*
X84168Y-39787D01*
X84206Y-39695D01*
X84206Y-39596D01*
X84206Y-40037D01*
X84002Y-40240D01*
X83962Y-40301D01*
X83947Y-40373D01*
X83947Y-40845D01*
X83936Y-40845D01*
X83891Y-40863D01*
X83858Y-40897D01*
X83839Y-40941D01*
X83839Y-40988D01*
X83839Y-41538D01*
X83839Y-41539D01*
X83839Y-41579D01*
X83839Y-42097D01*
X83809Y-42067D01*
X83809Y-42056D01*
X83809Y-41605D01*
X83809Y-41535D01*
X83809Y-41465D01*
X83809Y-41014D01*
X83809Y-40915D01*
X83771Y-40823D01*
X83701Y-40753D01*
X83609Y-40715D01*
X83497Y-40715D01*
X83434Y-40777D01*
X83434Y-41190D01*
X83747Y-41190D01*
X83809Y-41127D01*
X83809Y-41014D01*
X83809Y-41465D01*
X83809Y-41352D01*
X83747Y-41290D01*
X83434Y-41290D01*
X83434Y-41368D01*
X83434Y-41702D01*
X83434Y-41780D01*
X83747Y-41780D01*
X83809Y-41718D01*
X83809Y-41605D01*
X83809Y-42056D01*
X83809Y-41943D01*
X83747Y-41880D01*
X83434Y-41880D01*
X83434Y-41888D01*
X83334Y-41888D01*
X83334Y-41880D01*
X83022Y-41880D01*
X82959Y-41943D01*
X82959Y-42056D01*
X82959Y-42155D01*
X82998Y-42247D01*
X83068Y-42317D01*
X83143Y-42348D01*
X83143Y-42367D01*
X83206Y-42430D01*
X83468Y-42430D01*
X83468Y-42422D01*
X83568Y-42422D01*
X83568Y-42430D01*
X83576Y-42430D01*
X83576Y-42530D01*
X83568Y-42530D01*
X83568Y-42538D01*
X83468Y-42538D01*
X83468Y-42530D01*
X83206Y-42530D01*
X83143Y-42592D01*
X83143Y-42655D01*
X83143Y-42755D01*
X83182Y-42847D01*
X83188Y-42853D01*
X83188Y-42859D01*
X83188Y-42941D01*
X82976Y-42941D01*
X82976Y-42935D01*
X82976Y-42384D01*
X82957Y-42340D01*
X82956Y-42339D01*
X82956Y-41929D01*
X82956Y-41730D01*
X82961Y-41719D01*
X83022Y-41780D01*
X83334Y-41780D01*
X83334Y-41702D01*
X83334Y-41368D01*
X83334Y-41290D01*
X83022Y-41290D01*
X82959Y-41352D01*
X82959Y-41465D01*
X82959Y-41535D01*
X82959Y-41545D01*
X82927Y-41466D01*
X82844Y-41383D01*
X82744Y-41342D01*
X82959Y-41126D01*
X82959Y-41127D01*
X83022Y-41190D01*
X83334Y-41190D01*
X83334Y-40777D01*
X83272Y-40715D01*
X83219Y-40715D01*
X83219Y-37501D01*
X84248Y-37501D01*
X84292Y-37483D01*
X84326Y-37449D01*
X84344Y-37405D01*
X84344Y-37358D01*
X84344Y-36468D01*
X84326Y-36424D01*
X84292Y-36390D01*
X84248Y-36372D01*
X84200Y-36372D01*
X83838Y-36372D01*
X83838Y-36179D01*
X83821Y-36095D01*
X83774Y-36024D01*
X83219Y-35469D01*
X83219Y-34498D01*
X85945Y-34498D01*
X87056Y-33388D01*
X87056Y-36372D01*
X87056Y-36372D01*
G37*
G54D55*
X87056Y-36372D02*
X87039Y-36372D01*
X85830Y-36372D01*
X85786Y-36390D01*
X85752Y-36424D01*
X85734Y-36468D01*
X85734Y-36515D01*
X85734Y-37229D01*
X85695Y-37268D01*
X85654Y-37329D01*
X85640Y-37401D01*
X85640Y-38110D01*
X85640Y-38580D01*
X85114Y-38580D01*
X85070Y-38598D01*
X85036Y-38632D01*
X85018Y-38676D01*
X85018Y-38724D01*
X85018Y-39225D01*
X84762Y-39480D01*
X84762Y-39445D01*
X84791Y-39417D01*
X84791Y-39417D01*
X84791Y-39417D01*
X84823Y-39368D01*
X84823Y-39368D01*
X84835Y-39311D01*
X84835Y-35770D01*
X85370Y-35234D01*
X85440Y-35235D01*
X85526Y-35199D01*
X85592Y-35133D01*
X85628Y-35046D01*
X85628Y-34953D01*
X85593Y-34867D01*
X85526Y-34800D01*
X85440Y-34765D01*
X85347Y-34764D01*
X85260Y-34800D01*
X85194Y-34866D01*
X85158Y-34953D01*
X85158Y-35022D01*
X84632Y-35549D01*
X84627Y-35550D01*
X84578Y-35582D01*
X84546Y-35631D01*
X84535Y-35688D01*
X84535Y-35708D01*
X84535Y-39233D01*
X84481Y-39233D01*
X84394Y-39269D01*
X84328Y-39335D01*
X84292Y-39421D01*
X84292Y-39515D01*
X84328Y-39601D01*
X84394Y-39667D01*
X84480Y-39703D01*
X84540Y-39703D01*
X84206Y-40037D01*
X84206Y-39596D01*
X84206Y-38750D01*
X84206Y-38650D01*
X84168Y-38558D01*
X84097Y-38488D01*
X84005Y-38450D01*
X83379Y-38450D01*
X83317Y-38513D01*
X83317Y-39123D01*
X84143Y-39123D01*
X84206Y-39060D01*
X84206Y-38750D01*
X84206Y-39596D01*
X84206Y-39285D01*
X84143Y-39223D01*
X83317Y-39223D01*
X83317Y-39833D01*
X83379Y-39895D01*
X84005Y-39895D01*
X84097Y-39857D01*
X84168Y-39787D01*
X84206Y-39695D01*
X84206Y-39596D01*
X84206Y-40037D01*
X84002Y-40240D01*
X83962Y-40301D01*
X83947Y-40373D01*
X83947Y-40845D01*
X83936Y-40845D01*
X83891Y-40863D01*
X83858Y-40897D01*
X83839Y-40941D01*
X83839Y-40988D01*
X83839Y-41538D01*
X83839Y-41539D01*
X83839Y-41579D01*
X83839Y-42097D01*
X83809Y-42067D01*
X83809Y-42056D01*
X83809Y-41605D01*
X83809Y-41535D01*
X83809Y-41465D01*
X83809Y-41014D01*
X83809Y-40915D01*
X83771Y-40823D01*
X83701Y-40753D01*
X83609Y-40715D01*
X83497Y-40715D01*
X83434Y-40777D01*
X83434Y-41190D01*
X83747Y-41190D01*
X83809Y-41127D01*
X83809Y-41014D01*
X83809Y-41465D01*
X83809Y-41352D01*
X83747Y-41290D01*
X83434Y-41290D01*
X83434Y-41368D01*
X83434Y-41702D01*
X83434Y-41780D01*
X83747Y-41780D01*
X83809Y-41718D01*
X83809Y-41605D01*
X83809Y-42056D01*
X83809Y-41943D01*
X83747Y-41880D01*
X83434Y-41880D01*
X83434Y-41888D01*
X83334Y-41888D01*
X83334Y-41880D01*
X83022Y-41880D01*
X82959Y-41943D01*
X82959Y-42056D01*
X82959Y-42155D01*
X82998Y-42247D01*
X83068Y-42317D01*
X83143Y-42348D01*
X83143Y-42367D01*
X83206Y-42430D01*
X83468Y-42430D01*
X83468Y-42422D01*
X83568Y-42422D01*
X83568Y-42430D01*
X83576Y-42430D01*
X83576Y-42530D01*
X83568Y-42530D01*
X83568Y-42538D01*
X83468Y-42538D01*
X83468Y-42530D01*
X83206Y-42530D01*
X83143Y-42592D01*
X83143Y-42655D01*
X83143Y-42755D01*
X83182Y-42847D01*
X83188Y-42853D01*
X83188Y-42859D01*
X83188Y-42941D01*
X82976Y-42941D01*
X82976Y-42935D01*
X82976Y-42384D01*
X82957Y-42340D01*
X82956Y-42339D01*
X82956Y-41929D01*
X82956Y-41730D01*
X82961Y-41719D01*
X83022Y-41780D01*
X83334Y-41780D01*
X83334Y-41702D01*
X83334Y-41368D01*
X83334Y-41290D01*
X83022Y-41290D01*
X82959Y-41352D01*
X82959Y-41465D01*
X82959Y-41535D01*
X82959Y-41545D01*
X82927Y-41466D01*
X82844Y-41383D01*
X82744Y-41342D01*
X82959Y-41126D01*
X82959Y-41127D01*
X83022Y-41190D01*
X83334Y-41190D01*
X83334Y-40777D01*
X83272Y-40715D01*
X83219Y-40715D01*
X83219Y-37501D01*
X84248Y-37501D01*
X84292Y-37483D01*
X84326Y-37449D01*
X84344Y-37405D01*
X84344Y-37358D01*
X84344Y-36468D01*
X84326Y-36424D01*
X84292Y-36390D01*
X84248Y-36372D01*
X84200Y-36372D01*
X83838Y-36372D01*
X83838Y-36179D01*
X83821Y-36095D01*
X83774Y-36024D01*
X83219Y-35469D01*
X83219Y-34498D01*
X85945Y-34498D01*
X87056Y-33388D01*
X87056Y-36372D01*
G54D10*
G36*
X86723Y-41437D02*
X86700Y-41446D01*
X86644Y-41446D01*
X86633Y-41457D01*
X86577Y-41434D01*
X86510Y-41434D01*
X86369Y-41434D01*
X86327Y-41476D01*
X86327Y-41718D01*
X86335Y-41718D01*
X86335Y-41736D01*
X86327Y-41736D01*
X86327Y-41978D01*
X86369Y-42020D01*
X86429Y-42020D01*
X86367Y-42082D01*
X86070Y-42082D01*
X86061Y-42085D01*
X86061Y-42079D01*
X86032Y-42009D01*
X86060Y-42020D01*
X86127Y-42020D01*
X86267Y-42020D01*
X86309Y-41978D01*
X86309Y-41736D01*
X86309Y-41718D01*
X86309Y-41476D01*
X86267Y-41434D01*
X86127Y-41434D01*
X86060Y-41434D01*
X85998Y-41460D01*
X85951Y-41507D01*
X85925Y-41569D01*
X85925Y-41676D01*
X85967Y-41718D01*
X86309Y-41718D01*
X86309Y-41736D01*
X85967Y-41736D01*
X85925Y-41778D01*
X85925Y-41885D01*
X85939Y-41918D01*
X85873Y-41891D01*
X85780Y-41890D01*
X85720Y-41915D01*
X85720Y-41656D01*
X85986Y-41390D01*
X86606Y-41390D01*
X86644Y-41428D01*
X86703Y-41428D01*
X86723Y-41437D01*
X86723Y-41437D01*
G37*
G54D55*
X86723Y-41437D02*
X86700Y-41446D01*
X86644Y-41446D01*
X86633Y-41457D01*
X86577Y-41434D01*
X86510Y-41434D01*
X86369Y-41434D01*
X86327Y-41476D01*
X86327Y-41718D01*
X86335Y-41718D01*
X86335Y-41736D01*
X86327Y-41736D01*
X86327Y-41978D01*
X86369Y-42020D01*
X86429Y-42020D01*
X86367Y-42082D01*
X86070Y-42082D01*
X86061Y-42085D01*
X86061Y-42079D01*
X86032Y-42009D01*
X86060Y-42020D01*
X86127Y-42020D01*
X86267Y-42020D01*
X86309Y-41978D01*
X86309Y-41736D01*
X86309Y-41718D01*
X86309Y-41476D01*
X86267Y-41434D01*
X86127Y-41434D01*
X86060Y-41434D01*
X85998Y-41460D01*
X85951Y-41507D01*
X85925Y-41569D01*
X85925Y-41676D01*
X85967Y-41718D01*
X86309Y-41718D01*
X86309Y-41736D01*
X85967Y-41736D01*
X85925Y-41778D01*
X85925Y-41885D01*
X85939Y-41918D01*
X85873Y-41891D01*
X85780Y-41890D01*
X85720Y-41915D01*
X85720Y-41656D01*
X85986Y-41390D01*
X86606Y-41390D01*
X86644Y-41428D01*
X86703Y-41428D01*
X86723Y-41437D01*
G54D10*
G36*
X90597Y-38403D02*
X90307Y-38693D01*
X90307Y-38275D01*
X90324Y-38275D01*
X90403Y-38275D01*
X90459Y-38298D01*
X90500Y-38298D01*
X90542Y-38256D01*
X90542Y-38197D01*
X90550Y-38177D01*
X90560Y-38200D01*
X90560Y-38256D01*
X90597Y-38293D01*
X90597Y-38403D01*
X90597Y-38403D01*
G37*
G54D55*
X90597Y-38403D02*
X90307Y-38693D01*
X90307Y-38275D01*
X90324Y-38275D01*
X90403Y-38275D01*
X90459Y-38298D01*
X90500Y-38298D01*
X90542Y-38256D01*
X90542Y-38197D01*
X90550Y-38177D01*
X90560Y-38200D01*
X90560Y-38256D01*
X90597Y-38293D01*
X90597Y-38403D01*
G54D10*
G36*
X91218Y-33847D02*
X91210Y-33847D01*
X91210Y-33855D01*
X91192Y-33855D01*
X91192Y-33847D01*
X91184Y-33847D01*
X91184Y-33829D01*
X91192Y-33829D01*
X91192Y-33821D01*
X91210Y-33821D01*
X91210Y-33829D01*
X91218Y-33829D01*
X91218Y-33847D01*
X91218Y-33847D01*
G37*
G54D55*
X91218Y-33847D02*
X91210Y-33847D01*
X91210Y-33855D01*
X91192Y-33855D01*
X91192Y-33847D01*
X91184Y-33847D01*
X91184Y-33829D01*
X91192Y-33829D01*
X91192Y-33821D01*
X91210Y-33821D01*
X91210Y-33829D01*
X91218Y-33829D01*
X91218Y-33847D01*
G54D10*
G36*
X91360Y-34848D02*
X91252Y-34955D01*
X91252Y-34719D01*
X91252Y-34578D01*
X91210Y-34536D01*
X90968Y-34536D01*
X90968Y-34878D01*
X91010Y-34920D01*
X91118Y-34920D01*
X91179Y-34895D01*
X91227Y-34847D01*
X91252Y-34786D01*
X91252Y-34719D01*
X91252Y-34955D01*
X91022Y-35186D01*
X90527Y-35186D01*
X90527Y-35075D01*
X90527Y-34733D01*
X90285Y-34733D01*
X90243Y-34775D01*
X90243Y-34916D01*
X90243Y-34982D01*
X90268Y-35044D01*
X90316Y-35092D01*
X90377Y-35117D01*
X90485Y-35117D01*
X90527Y-35075D01*
X90527Y-35186D01*
X90235Y-35186D01*
X89812Y-35609D01*
X89812Y-35678D01*
X89789Y-35700D01*
X89764Y-35762D01*
X89764Y-35869D01*
X89806Y-35911D01*
X89812Y-35911D01*
X89812Y-35929D01*
X89806Y-35929D01*
X89764Y-35971D01*
X89764Y-36039D01*
X89755Y-36026D01*
X89755Y-36026D01*
X89235Y-35506D01*
X89254Y-35487D01*
X89290Y-35401D01*
X89290Y-35331D01*
X89315Y-35356D01*
X89401Y-35392D01*
X89495Y-35392D01*
X89581Y-35356D01*
X89647Y-35290D01*
X89683Y-35204D01*
X89683Y-35110D01*
X89648Y-35024D01*
X89600Y-34976D01*
X89628Y-34948D01*
X89646Y-34904D01*
X89646Y-34892D01*
X89691Y-34892D01*
X89691Y-34973D01*
X89709Y-35017D01*
X89743Y-35051D01*
X89787Y-35069D01*
X89834Y-35069D01*
X90084Y-35069D01*
X90129Y-35051D01*
X90162Y-35017D01*
X90181Y-34973D01*
X90181Y-34925D01*
X90181Y-34517D01*
X90196Y-34517D01*
X90217Y-34517D01*
X90243Y-34517D01*
X90243Y-34532D01*
X90243Y-34673D01*
X90285Y-34715D01*
X90527Y-34715D01*
X90527Y-34707D01*
X90545Y-34707D01*
X90545Y-34715D01*
X90553Y-34715D01*
X90553Y-34733D01*
X90545Y-34733D01*
X90545Y-35075D01*
X90587Y-35117D01*
X90694Y-35117D01*
X90756Y-35092D01*
X90803Y-35044D01*
X90829Y-34982D01*
X90829Y-34920D01*
X90908Y-34920D01*
X90950Y-34878D01*
X90950Y-34536D01*
X90942Y-34536D01*
X90942Y-34518D01*
X90950Y-34518D01*
X90950Y-34510D01*
X90968Y-34510D01*
X90968Y-34518D01*
X91210Y-34518D01*
X91252Y-34476D01*
X91252Y-34418D01*
X91258Y-34446D01*
X91291Y-34495D01*
X91314Y-34519D01*
X91314Y-34776D01*
X91333Y-34820D01*
X91360Y-34848D01*
X91360Y-34848D01*
G37*
G54D55*
X91360Y-34848D02*
X91252Y-34955D01*
X91252Y-34719D01*
X91252Y-34578D01*
X91210Y-34536D01*
X90968Y-34536D01*
X90968Y-34878D01*
X91010Y-34920D01*
X91118Y-34920D01*
X91179Y-34895D01*
X91227Y-34847D01*
X91252Y-34786D01*
X91252Y-34719D01*
X91252Y-34955D01*
X91022Y-35186D01*
X90527Y-35186D01*
X90527Y-35075D01*
X90527Y-34733D01*
X90285Y-34733D01*
X90243Y-34775D01*
X90243Y-34916D01*
X90243Y-34982D01*
X90268Y-35044D01*
X90316Y-35092D01*
X90377Y-35117D01*
X90485Y-35117D01*
X90527Y-35075D01*
X90527Y-35186D01*
X90235Y-35186D01*
X89812Y-35609D01*
X89812Y-35678D01*
X89789Y-35700D01*
X89764Y-35762D01*
X89764Y-35869D01*
X89806Y-35911D01*
X89812Y-35911D01*
X89812Y-35929D01*
X89806Y-35929D01*
X89764Y-35971D01*
X89764Y-36039D01*
X89755Y-36026D01*
X89755Y-36026D01*
X89235Y-35506D01*
X89254Y-35487D01*
X89290Y-35401D01*
X89290Y-35331D01*
X89315Y-35356D01*
X89401Y-35392D01*
X89495Y-35392D01*
X89581Y-35356D01*
X89647Y-35290D01*
X89683Y-35204D01*
X89683Y-35110D01*
X89648Y-35024D01*
X89600Y-34976D01*
X89628Y-34948D01*
X89646Y-34904D01*
X89646Y-34892D01*
X89691Y-34892D01*
X89691Y-34973D01*
X89709Y-35017D01*
X89743Y-35051D01*
X89787Y-35069D01*
X89834Y-35069D01*
X90084Y-35069D01*
X90129Y-35051D01*
X90162Y-35017D01*
X90181Y-34973D01*
X90181Y-34925D01*
X90181Y-34517D01*
X90196Y-34517D01*
X90217Y-34517D01*
X90243Y-34517D01*
X90243Y-34532D01*
X90243Y-34673D01*
X90285Y-34715D01*
X90527Y-34715D01*
X90527Y-34707D01*
X90545Y-34707D01*
X90545Y-34715D01*
X90553Y-34715D01*
X90553Y-34733D01*
X90545Y-34733D01*
X90545Y-35075D01*
X90587Y-35117D01*
X90694Y-35117D01*
X90756Y-35092D01*
X90803Y-35044D01*
X90829Y-34982D01*
X90829Y-34920D01*
X90908Y-34920D01*
X90950Y-34878D01*
X90950Y-34536D01*
X90942Y-34536D01*
X90942Y-34518D01*
X90950Y-34518D01*
X90950Y-34510D01*
X90968Y-34510D01*
X90968Y-34518D01*
X91210Y-34518D01*
X91252Y-34476D01*
X91252Y-34418D01*
X91258Y-34446D01*
X91291Y-34495D01*
X91314Y-34519D01*
X91314Y-34776D01*
X91333Y-34820D01*
X91360Y-34848D01*
G54D10*
G36*
X91554Y-42477D02*
X91537Y-42485D01*
X91535Y-42487D01*
X91533Y-42485D01*
X91489Y-42466D01*
X91441Y-42466D01*
X90991Y-42466D01*
X90951Y-42483D01*
X90951Y-42156D01*
X90929Y-42103D01*
X90888Y-42062D01*
X90835Y-42040D01*
X90777Y-42040D01*
X90699Y-42040D01*
X90643Y-42017D01*
X90602Y-42017D01*
X90560Y-42059D01*
X90560Y-42115D01*
X90550Y-42138D01*
X90542Y-42117D01*
X90542Y-42059D01*
X90500Y-42017D01*
X90459Y-42017D01*
X90403Y-42040D01*
X90384Y-42040D01*
X90266Y-42040D01*
X90255Y-42044D01*
X90245Y-42040D01*
X90187Y-42040D01*
X90069Y-42040D01*
X90058Y-42044D01*
X90048Y-42040D01*
X89990Y-42040D01*
X89872Y-42040D01*
X89861Y-42044D01*
X89851Y-42040D01*
X89793Y-42040D01*
X89675Y-42040D01*
X89664Y-42044D01*
X89654Y-42040D01*
X89596Y-42040D01*
X89478Y-42040D01*
X89468Y-42044D01*
X89458Y-42040D01*
X89400Y-42040D01*
X89282Y-42040D01*
X89271Y-42044D01*
X89261Y-42040D01*
X89203Y-42040D01*
X89085Y-42040D01*
X89074Y-42044D01*
X89064Y-42040D01*
X89006Y-42040D01*
X88888Y-42040D01*
X88877Y-42044D01*
X88867Y-42040D01*
X88809Y-42040D01*
X88691Y-42040D01*
X88680Y-42044D01*
X88670Y-42040D01*
X88612Y-42040D01*
X88494Y-42040D01*
X88483Y-42044D01*
X88473Y-42040D01*
X88415Y-42040D01*
X88297Y-42040D01*
X88286Y-42044D01*
X88276Y-42040D01*
X88218Y-42040D01*
X88100Y-42040D01*
X88090Y-42044D01*
X88080Y-42040D01*
X88022Y-42040D01*
X87904Y-42040D01*
X87893Y-42044D01*
X87883Y-42040D01*
X87825Y-42040D01*
X87707Y-42040D01*
X87654Y-42062D01*
X87613Y-42103D01*
X87591Y-42156D01*
X87591Y-42214D01*
X87591Y-42687D01*
X87604Y-42719D01*
X86941Y-43383D01*
X86535Y-43383D01*
X86474Y-43395D01*
X86422Y-43430D01*
X85202Y-44649D01*
X85167Y-44701D01*
X85161Y-44733D01*
X85071Y-44733D01*
X85071Y-44608D01*
X85676Y-44003D01*
X85676Y-44003D01*
X85676Y-44003D01*
X85709Y-43955D01*
X85709Y-43955D01*
X85718Y-43909D01*
X85720Y-43897D01*
X85720Y-43897D01*
X85720Y-43897D01*
X85720Y-42349D01*
X85824Y-42452D01*
X85824Y-42452D01*
X85881Y-42491D01*
X85949Y-42504D01*
X85985Y-42504D01*
X85992Y-42520D01*
X86025Y-42554D01*
X86069Y-42572D01*
X86117Y-42572D01*
X86567Y-42572D01*
X86611Y-42554D01*
X86645Y-42520D01*
X86663Y-42476D01*
X86663Y-42428D01*
X86663Y-42287D01*
X87113Y-41837D01*
X87272Y-41837D01*
X87325Y-41815D01*
X87366Y-41775D01*
X87388Y-41721D01*
X87388Y-41664D01*
X87388Y-41586D01*
X87412Y-41530D01*
X87412Y-41488D01*
X87370Y-41446D01*
X87313Y-41446D01*
X87290Y-41437D01*
X87311Y-41428D01*
X87370Y-41428D01*
X87412Y-41386D01*
X87412Y-41345D01*
X87388Y-41289D01*
X87388Y-41271D01*
X87388Y-41153D01*
X87384Y-41142D01*
X87388Y-41131D01*
X87388Y-41074D01*
X87388Y-40956D01*
X87384Y-40945D01*
X87388Y-40934D01*
X87388Y-40877D01*
X87388Y-40759D01*
X87384Y-40748D01*
X87388Y-40737D01*
X87388Y-40680D01*
X87388Y-40562D01*
X87384Y-40551D01*
X87388Y-40540D01*
X87388Y-40483D01*
X87388Y-40406D01*
X88286Y-40406D01*
X88343Y-40395D01*
X88343Y-40395D01*
X88392Y-40362D01*
X88728Y-40027D01*
X88728Y-40027D01*
X88728Y-40027D01*
X88760Y-39978D01*
X88760Y-39978D01*
X88769Y-39932D01*
X88772Y-39921D01*
X88772Y-39921D01*
X88772Y-39921D01*
X88772Y-39355D01*
X88821Y-39306D01*
X88857Y-39220D01*
X88857Y-39126D01*
X88821Y-39040D01*
X88755Y-38974D01*
X88668Y-38938D01*
X88575Y-38938D01*
X88489Y-38973D01*
X88422Y-39039D01*
X88387Y-39126D01*
X88387Y-39219D01*
X88422Y-39306D01*
X88472Y-39355D01*
X88472Y-39859D01*
X88396Y-39934D01*
X88368Y-39867D01*
X88302Y-39800D01*
X88294Y-39797D01*
X88294Y-39797D01*
X88275Y-39769D01*
X87865Y-39359D01*
X87928Y-39333D01*
X87994Y-39267D01*
X88030Y-39180D01*
X88030Y-39087D01*
X87994Y-39000D01*
X87982Y-38988D01*
X88006Y-38978D01*
X88073Y-38912D01*
X88108Y-38826D01*
X88109Y-38732D01*
X88073Y-38646D01*
X88007Y-38580D01*
X87920Y-38544D01*
X87835Y-38544D01*
X87835Y-38544D01*
X87833Y-38543D01*
X87776Y-38531D01*
X87357Y-38531D01*
X87326Y-38500D01*
X87272Y-38477D01*
X87215Y-38477D01*
X86742Y-38477D01*
X86688Y-38499D01*
X86648Y-38540D01*
X86625Y-38593D01*
X86625Y-38651D01*
X86625Y-38651D01*
X86618Y-38632D01*
X86584Y-38599D01*
X86540Y-38580D01*
X86492Y-38580D01*
X86490Y-38580D01*
X87254Y-37815D01*
X87254Y-37127D01*
X87295Y-37144D01*
X87342Y-37144D01*
X87342Y-37165D01*
X87342Y-37165D01*
X87356Y-37233D01*
X87394Y-37290D01*
X87618Y-37514D01*
X87618Y-37570D01*
X87613Y-37575D01*
X87591Y-37628D01*
X87591Y-37686D01*
X87591Y-38159D01*
X87613Y-38212D01*
X87654Y-38253D01*
X87707Y-38275D01*
X87765Y-38275D01*
X87844Y-38275D01*
X87900Y-38298D01*
X87941Y-38298D01*
X87983Y-38256D01*
X87983Y-38197D01*
X87991Y-38177D01*
X88001Y-38200D01*
X88001Y-38256D01*
X88043Y-38298D01*
X88084Y-38298D01*
X88140Y-38275D01*
X88158Y-38275D01*
X88239Y-38275D01*
X88246Y-38311D01*
X88279Y-38360D01*
X89160Y-39241D01*
X89160Y-40273D01*
X88428Y-41005D01*
X88358Y-41005D01*
X88272Y-41040D01*
X88206Y-41106D01*
X88170Y-41193D01*
X88170Y-41286D01*
X88206Y-41373D01*
X88272Y-41439D01*
X88358Y-41475D01*
X88452Y-41475D01*
X88538Y-41439D01*
X88562Y-41415D01*
X88587Y-41439D01*
X88673Y-41475D01*
X88767Y-41475D01*
X88853Y-41439D01*
X88877Y-41415D01*
X88902Y-41439D01*
X88988Y-41475D01*
X89081Y-41475D01*
X89168Y-41439D01*
X89192Y-41415D01*
X89217Y-41439D01*
X89303Y-41475D01*
X89396Y-41475D01*
X89483Y-41439D01*
X89507Y-41415D01*
X89532Y-41439D01*
X89618Y-41475D01*
X89711Y-41475D01*
X89798Y-41439D01*
X89822Y-41415D01*
X89847Y-41439D01*
X89933Y-41475D01*
X90026Y-41475D01*
X90113Y-41439D01*
X90179Y-41373D01*
X90210Y-41297D01*
X90282Y-41298D01*
X90369Y-41262D01*
X90435Y-41196D01*
X90471Y-41109D01*
X90471Y-41042D01*
X90479Y-41042D01*
X90566Y-41006D01*
X90632Y-40940D01*
X90639Y-40922D01*
X90647Y-40940D01*
X90713Y-41006D01*
X90799Y-41042D01*
X90892Y-41042D01*
X90979Y-41006D01*
X91045Y-40940D01*
X91081Y-40854D01*
X91081Y-40760D01*
X91045Y-40674D01*
X90979Y-40607D01*
X90893Y-40572D01*
X90862Y-40572D01*
X90583Y-40292D01*
X90583Y-39432D01*
X90790Y-39224D01*
X91153Y-39224D01*
X91153Y-39241D01*
X91153Y-39320D01*
X91130Y-39376D01*
X91130Y-39417D01*
X91172Y-39459D01*
X91231Y-39459D01*
X91253Y-39468D01*
X91231Y-39477D01*
X91172Y-39477D01*
X91130Y-39519D01*
X91130Y-39561D01*
X91153Y-39617D01*
X91153Y-39635D01*
X91153Y-39753D01*
X91158Y-39764D01*
X91153Y-39774D01*
X91153Y-39832D01*
X91153Y-39950D01*
X91158Y-39961D01*
X91153Y-39971D01*
X91153Y-40029D01*
X91153Y-40147D01*
X91158Y-40158D01*
X91153Y-40168D01*
X91153Y-40226D01*
X91153Y-40344D01*
X91158Y-40354D01*
X91153Y-40364D01*
X91153Y-40422D01*
X91153Y-40540D01*
X91158Y-40551D01*
X91153Y-40561D01*
X91153Y-40619D01*
X91153Y-40737D01*
X91158Y-40748D01*
X91153Y-40758D01*
X91153Y-40816D01*
X91153Y-40934D01*
X91158Y-40945D01*
X91153Y-40955D01*
X91153Y-41013D01*
X91153Y-41131D01*
X91158Y-41142D01*
X91153Y-41152D01*
X91153Y-41210D01*
X91153Y-41328D01*
X91158Y-41339D01*
X91153Y-41349D01*
X91153Y-41407D01*
X91153Y-41525D01*
X91158Y-41535D01*
X91153Y-41545D01*
X91153Y-41603D01*
X91153Y-41721D01*
X91175Y-41774D01*
X91216Y-41815D01*
X91269Y-41837D01*
X91327Y-41837D01*
X91385Y-41837D01*
X91385Y-41965D01*
X91361Y-41989D01*
X91292Y-41989D01*
X91205Y-42025D01*
X91139Y-42091D01*
X91103Y-42177D01*
X91103Y-42270D01*
X91139Y-42357D01*
X91205Y-42423D01*
X91291Y-42459D01*
X91385Y-42459D01*
X91471Y-42423D01*
X91489Y-42406D01*
X91493Y-42416D01*
X91554Y-42477D01*
X91554Y-42477D01*
G37*
G54D55*
X91554Y-42477D02*
X91537Y-42485D01*
X91535Y-42487D01*
X91533Y-42485D01*
X91489Y-42466D01*
X91441Y-42466D01*
X90991Y-42466D01*
X90951Y-42483D01*
X90951Y-42156D01*
X90929Y-42103D01*
X90888Y-42062D01*
X90835Y-42040D01*
X90777Y-42040D01*
X90699Y-42040D01*
X90643Y-42017D01*
X90602Y-42017D01*
X90560Y-42059D01*
X90560Y-42115D01*
X90550Y-42138D01*
X90542Y-42117D01*
X90542Y-42059D01*
X90500Y-42017D01*
X90459Y-42017D01*
X90403Y-42040D01*
X90384Y-42040D01*
X90266Y-42040D01*
X90255Y-42044D01*
X90245Y-42040D01*
X90187Y-42040D01*
X90069Y-42040D01*
X90058Y-42044D01*
X90048Y-42040D01*
X89990Y-42040D01*
X89872Y-42040D01*
X89861Y-42044D01*
X89851Y-42040D01*
X89793Y-42040D01*
X89675Y-42040D01*
X89664Y-42044D01*
X89654Y-42040D01*
X89596Y-42040D01*
X89478Y-42040D01*
X89468Y-42044D01*
X89458Y-42040D01*
X89400Y-42040D01*
X89282Y-42040D01*
X89271Y-42044D01*
X89261Y-42040D01*
X89203Y-42040D01*
X89085Y-42040D01*
X89074Y-42044D01*
X89064Y-42040D01*
X89006Y-42040D01*
X88888Y-42040D01*
X88877Y-42044D01*
X88867Y-42040D01*
X88809Y-42040D01*
X88691Y-42040D01*
X88680Y-42044D01*
X88670Y-42040D01*
X88612Y-42040D01*
X88494Y-42040D01*
X88483Y-42044D01*
X88473Y-42040D01*
X88415Y-42040D01*
X88297Y-42040D01*
X88286Y-42044D01*
X88276Y-42040D01*
X88218Y-42040D01*
X88100Y-42040D01*
X88090Y-42044D01*
X88080Y-42040D01*
X88022Y-42040D01*
X87904Y-42040D01*
X87893Y-42044D01*
X87883Y-42040D01*
X87825Y-42040D01*
X87707Y-42040D01*
X87654Y-42062D01*
X87613Y-42103D01*
X87591Y-42156D01*
X87591Y-42214D01*
X87591Y-42687D01*
X87604Y-42719D01*
X86941Y-43383D01*
X86535Y-43383D01*
X86474Y-43395D01*
X86422Y-43430D01*
X85202Y-44649D01*
X85167Y-44701D01*
X85161Y-44733D01*
X85071Y-44733D01*
X85071Y-44608D01*
X85676Y-44003D01*
X85676Y-44003D01*
X85676Y-44003D01*
X85709Y-43955D01*
X85709Y-43955D01*
X85718Y-43909D01*
X85720Y-43897D01*
X85720Y-43897D01*
X85720Y-43897D01*
X85720Y-42349D01*
X85824Y-42452D01*
X85824Y-42452D01*
X85881Y-42491D01*
X85949Y-42504D01*
X85985Y-42504D01*
X85992Y-42520D01*
X86025Y-42554D01*
X86069Y-42572D01*
X86117Y-42572D01*
X86567Y-42572D01*
X86611Y-42554D01*
X86645Y-42520D01*
X86663Y-42476D01*
X86663Y-42428D01*
X86663Y-42287D01*
X87113Y-41837D01*
X87272Y-41837D01*
X87325Y-41815D01*
X87366Y-41775D01*
X87388Y-41721D01*
X87388Y-41664D01*
X87388Y-41586D01*
X87412Y-41530D01*
X87412Y-41488D01*
X87370Y-41446D01*
X87313Y-41446D01*
X87290Y-41437D01*
X87311Y-41428D01*
X87370Y-41428D01*
X87412Y-41386D01*
X87412Y-41345D01*
X87388Y-41289D01*
X87388Y-41271D01*
X87388Y-41153D01*
X87384Y-41142D01*
X87388Y-41131D01*
X87388Y-41074D01*
X87388Y-40956D01*
X87384Y-40945D01*
X87388Y-40934D01*
X87388Y-40877D01*
X87388Y-40759D01*
X87384Y-40748D01*
X87388Y-40737D01*
X87388Y-40680D01*
X87388Y-40562D01*
X87384Y-40551D01*
X87388Y-40540D01*
X87388Y-40483D01*
X87388Y-40406D01*
X88286Y-40406D01*
X88343Y-40395D01*
X88343Y-40395D01*
X88392Y-40362D01*
X88728Y-40027D01*
X88728Y-40027D01*
X88728Y-40027D01*
X88760Y-39978D01*
X88760Y-39978D01*
X88769Y-39932D01*
X88772Y-39921D01*
X88772Y-39921D01*
X88772Y-39921D01*
X88772Y-39355D01*
X88821Y-39306D01*
X88857Y-39220D01*
X88857Y-39126D01*
X88821Y-39040D01*
X88755Y-38974D01*
X88668Y-38938D01*
X88575Y-38938D01*
X88489Y-38973D01*
X88422Y-39039D01*
X88387Y-39126D01*
X88387Y-39219D01*
X88422Y-39306D01*
X88472Y-39355D01*
X88472Y-39859D01*
X88396Y-39934D01*
X88368Y-39867D01*
X88302Y-39800D01*
X88294Y-39797D01*
X88294Y-39797D01*
X88275Y-39769D01*
X87865Y-39359D01*
X87928Y-39333D01*
X87994Y-39267D01*
X88030Y-39180D01*
X88030Y-39087D01*
X87994Y-39000D01*
X87982Y-38988D01*
X88006Y-38978D01*
X88073Y-38912D01*
X88108Y-38826D01*
X88109Y-38732D01*
X88073Y-38646D01*
X88007Y-38580D01*
X87920Y-38544D01*
X87835Y-38544D01*
X87835Y-38544D01*
X87833Y-38543D01*
X87776Y-38531D01*
X87357Y-38531D01*
X87326Y-38500D01*
X87272Y-38477D01*
X87215Y-38477D01*
X86742Y-38477D01*
X86688Y-38499D01*
X86648Y-38540D01*
X86625Y-38593D01*
X86625Y-38651D01*
X86625Y-38651D01*
X86618Y-38632D01*
X86584Y-38599D01*
X86540Y-38580D01*
X86492Y-38580D01*
X86490Y-38580D01*
X87254Y-37815D01*
X87254Y-37127D01*
X87295Y-37144D01*
X87342Y-37144D01*
X87342Y-37165D01*
X87342Y-37165D01*
X87356Y-37233D01*
X87394Y-37290D01*
X87618Y-37514D01*
X87618Y-37570D01*
X87613Y-37575D01*
X87591Y-37628D01*
X87591Y-37686D01*
X87591Y-38159D01*
X87613Y-38212D01*
X87654Y-38253D01*
X87707Y-38275D01*
X87765Y-38275D01*
X87844Y-38275D01*
X87900Y-38298D01*
X87941Y-38298D01*
X87983Y-38256D01*
X87983Y-38197D01*
X87991Y-38177D01*
X88001Y-38200D01*
X88001Y-38256D01*
X88043Y-38298D01*
X88084Y-38298D01*
X88140Y-38275D01*
X88158Y-38275D01*
X88239Y-38275D01*
X88246Y-38311D01*
X88279Y-38360D01*
X89160Y-39241D01*
X89160Y-40273D01*
X88428Y-41005D01*
X88358Y-41005D01*
X88272Y-41040D01*
X88206Y-41106D01*
X88170Y-41193D01*
X88170Y-41286D01*
X88206Y-41373D01*
X88272Y-41439D01*
X88358Y-41475D01*
X88452Y-41475D01*
X88538Y-41439D01*
X88562Y-41415D01*
X88587Y-41439D01*
X88673Y-41475D01*
X88767Y-41475D01*
X88853Y-41439D01*
X88877Y-41415D01*
X88902Y-41439D01*
X88988Y-41475D01*
X89081Y-41475D01*
X89168Y-41439D01*
X89192Y-41415D01*
X89217Y-41439D01*
X89303Y-41475D01*
X89396Y-41475D01*
X89483Y-41439D01*
X89507Y-41415D01*
X89532Y-41439D01*
X89618Y-41475D01*
X89711Y-41475D01*
X89798Y-41439D01*
X89822Y-41415D01*
X89847Y-41439D01*
X89933Y-41475D01*
X90026Y-41475D01*
X90113Y-41439D01*
X90179Y-41373D01*
X90210Y-41297D01*
X90282Y-41298D01*
X90369Y-41262D01*
X90435Y-41196D01*
X90471Y-41109D01*
X90471Y-41042D01*
X90479Y-41042D01*
X90566Y-41006D01*
X90632Y-40940D01*
X90639Y-40922D01*
X90647Y-40940D01*
X90713Y-41006D01*
X90799Y-41042D01*
X90892Y-41042D01*
X90979Y-41006D01*
X91045Y-40940D01*
X91081Y-40854D01*
X91081Y-40760D01*
X91045Y-40674D01*
X90979Y-40607D01*
X90893Y-40572D01*
X90862Y-40572D01*
X90583Y-40292D01*
X90583Y-39432D01*
X90790Y-39224D01*
X91153Y-39224D01*
X91153Y-39241D01*
X91153Y-39320D01*
X91130Y-39376D01*
X91130Y-39417D01*
X91172Y-39459D01*
X91231Y-39459D01*
X91253Y-39468D01*
X91231Y-39477D01*
X91172Y-39477D01*
X91130Y-39519D01*
X91130Y-39561D01*
X91153Y-39617D01*
X91153Y-39635D01*
X91153Y-39753D01*
X91158Y-39764D01*
X91153Y-39774D01*
X91153Y-39832D01*
X91153Y-39950D01*
X91158Y-39961D01*
X91153Y-39971D01*
X91153Y-40029D01*
X91153Y-40147D01*
X91158Y-40158D01*
X91153Y-40168D01*
X91153Y-40226D01*
X91153Y-40344D01*
X91158Y-40354D01*
X91153Y-40364D01*
X91153Y-40422D01*
X91153Y-40540D01*
X91158Y-40551D01*
X91153Y-40561D01*
X91153Y-40619D01*
X91153Y-40737D01*
X91158Y-40748D01*
X91153Y-40758D01*
X91153Y-40816D01*
X91153Y-40934D01*
X91158Y-40945D01*
X91153Y-40955D01*
X91153Y-41013D01*
X91153Y-41131D01*
X91158Y-41142D01*
X91153Y-41152D01*
X91153Y-41210D01*
X91153Y-41328D01*
X91158Y-41339D01*
X91153Y-41349D01*
X91153Y-41407D01*
X91153Y-41525D01*
X91158Y-41535D01*
X91153Y-41545D01*
X91153Y-41603D01*
X91153Y-41721D01*
X91175Y-41774D01*
X91216Y-41815D01*
X91269Y-41837D01*
X91327Y-41837D01*
X91385Y-41837D01*
X91385Y-41965D01*
X91361Y-41989D01*
X91292Y-41989D01*
X91205Y-42025D01*
X91139Y-42091D01*
X91103Y-42177D01*
X91103Y-42270D01*
X91139Y-42357D01*
X91205Y-42423D01*
X91291Y-42459D01*
X91385Y-42459D01*
X91471Y-42423D01*
X91489Y-42406D01*
X91493Y-42416D01*
X91554Y-42477D01*
G54D10*
G36*
X91728Y-28414D02*
X91693Y-28448D01*
X90787Y-28448D01*
X90784Y-28448D01*
X90784Y-28448D01*
X90773Y-28450D01*
X90727Y-28459D01*
X90704Y-28475D01*
X90704Y-28372D01*
X91050Y-28372D01*
X91094Y-28354D01*
X91128Y-28321D01*
X91142Y-28286D01*
X91198Y-28309D01*
X91264Y-28309D01*
X91405Y-28309D01*
X91447Y-28267D01*
X91447Y-28025D01*
X91439Y-28025D01*
X91439Y-28007D01*
X91447Y-28007D01*
X91447Y-27765D01*
X91405Y-27723D01*
X91264Y-27723D01*
X91228Y-27723D01*
X91290Y-27661D01*
X91702Y-27661D01*
X91702Y-27723D01*
X91648Y-27723D01*
X91507Y-27723D01*
X91465Y-27765D01*
X91465Y-28007D01*
X91473Y-28007D01*
X91473Y-28025D01*
X91465Y-28025D01*
X91465Y-28267D01*
X91507Y-28309D01*
X91648Y-28309D01*
X91702Y-28309D01*
X91702Y-28362D01*
X91720Y-28406D01*
X91728Y-28414D01*
X91728Y-28414D01*
G37*
G54D55*
X91728Y-28414D02*
X91693Y-28448D01*
X90787Y-28448D01*
X90784Y-28448D01*
X90784Y-28448D01*
X90773Y-28450D01*
X90727Y-28459D01*
X90704Y-28475D01*
X90704Y-28372D01*
X91050Y-28372D01*
X91094Y-28354D01*
X91128Y-28321D01*
X91142Y-28286D01*
X91198Y-28309D01*
X91264Y-28309D01*
X91405Y-28309D01*
X91447Y-28267D01*
X91447Y-28025D01*
X91439Y-28025D01*
X91439Y-28007D01*
X91447Y-28007D01*
X91447Y-27765D01*
X91405Y-27723D01*
X91264Y-27723D01*
X91228Y-27723D01*
X91290Y-27661D01*
X91702Y-27661D01*
X91702Y-27723D01*
X91648Y-27723D01*
X91507Y-27723D01*
X91465Y-27765D01*
X91465Y-28007D01*
X91473Y-28007D01*
X91473Y-28025D01*
X91465Y-28025D01*
X91465Y-28267D01*
X91507Y-28309D01*
X91648Y-28309D01*
X91702Y-28309D01*
X91702Y-28362D01*
X91720Y-28406D01*
X91728Y-28414D01*
G54D10*
G36*
X92021Y-26977D02*
X91146Y-26977D01*
X91146Y-26729D01*
X91146Y-26479D01*
X91146Y-26229D01*
X91146Y-25979D01*
X91128Y-25935D01*
X91094Y-25901D01*
X91050Y-25882D01*
X91002Y-25882D01*
X90058Y-25882D01*
X90014Y-25901D01*
X89980Y-25934D01*
X89962Y-25978D01*
X89962Y-26026D01*
X89962Y-26276D01*
X89980Y-26320D01*
X90014Y-26354D01*
X90058Y-26372D01*
X90106Y-26372D01*
X91050Y-26372D01*
X91094Y-26354D01*
X91128Y-26321D01*
X91146Y-26276D01*
X91146Y-26229D01*
X91146Y-26479D01*
X91128Y-26435D01*
X91094Y-26401D01*
X91050Y-26382D01*
X91002Y-26382D01*
X90058Y-26382D01*
X90014Y-26401D01*
X89980Y-26434D01*
X89962Y-26478D01*
X89962Y-26526D01*
X89962Y-26776D01*
X89980Y-26820D01*
X90014Y-26854D01*
X90058Y-26872D01*
X90106Y-26872D01*
X91050Y-26872D01*
X91094Y-26854D01*
X91128Y-26821D01*
X91146Y-26776D01*
X91146Y-26729D01*
X91146Y-26977D01*
X91145Y-26977D01*
X91128Y-26935D01*
X91094Y-26901D01*
X91050Y-26882D01*
X91002Y-26882D01*
X90058Y-26882D01*
X90014Y-26901D01*
X89980Y-26934D01*
X89962Y-26978D01*
X89962Y-27026D01*
X89962Y-27276D01*
X89980Y-27320D01*
X90014Y-27354D01*
X90058Y-27372D01*
X90106Y-27372D01*
X91050Y-27372D01*
X91094Y-27354D01*
X91111Y-27337D01*
X91111Y-27416D01*
X91110Y-27417D01*
X91094Y-27401D01*
X91050Y-27382D01*
X91002Y-27382D01*
X90058Y-27382D01*
X90014Y-27401D01*
X89980Y-27434D01*
X89962Y-27477D01*
X89931Y-27477D01*
X89873Y-27489D01*
X89825Y-27521D01*
X89736Y-27610D01*
X89703Y-27659D01*
X89692Y-27716D01*
X89692Y-28441D01*
X89160Y-28973D01*
X89152Y-28985D01*
X89118Y-28985D01*
X89074Y-29003D01*
X89040Y-29037D01*
X89021Y-29081D01*
X89021Y-29129D01*
X89021Y-29579D01*
X89040Y-29623D01*
X89073Y-29657D01*
X89117Y-29675D01*
X89165Y-29675D01*
X89415Y-29675D01*
X89459Y-29657D01*
X89493Y-29623D01*
X89511Y-29579D01*
X89511Y-29531D01*
X89511Y-29081D01*
X89501Y-29056D01*
X89948Y-28610D01*
X89981Y-28561D01*
X89981Y-28561D01*
X89992Y-28503D01*
X89992Y-28332D01*
X90014Y-28354D01*
X90058Y-28372D01*
X90106Y-28372D01*
X90404Y-28372D01*
X90404Y-28540D01*
X90404Y-28582D01*
X90111Y-28875D01*
X90078Y-28924D01*
X90067Y-28982D01*
X90067Y-29011D01*
X90059Y-29004D01*
X90015Y-28985D01*
X89968Y-28985D01*
X89718Y-28985D01*
X89674Y-29003D01*
X89640Y-29037D01*
X89621Y-29081D01*
X89621Y-29129D01*
X89621Y-29579D01*
X89640Y-29623D01*
X89673Y-29657D01*
X89717Y-29675D01*
X89765Y-29675D01*
X90015Y-29675D01*
X90059Y-29657D01*
X90067Y-29650D01*
X90067Y-30118D01*
X90056Y-30129D01*
X90038Y-30173D01*
X90038Y-30221D01*
X90038Y-30811D01*
X90056Y-30855D01*
X90090Y-30889D01*
X90134Y-30907D01*
X90181Y-30907D01*
X90299Y-30907D01*
X90315Y-30900D01*
X90331Y-30907D01*
X90378Y-30907D01*
X90496Y-30907D01*
X90512Y-30900D01*
X90528Y-30907D01*
X90575Y-30907D01*
X90693Y-30907D01*
X90709Y-30901D01*
X90724Y-30907D01*
X90771Y-30907D01*
X90817Y-30907D01*
X90817Y-31200D01*
X90831Y-31272D01*
X90872Y-31332D01*
X90931Y-31392D01*
X90931Y-31392D01*
X90971Y-31419D01*
X90992Y-31432D01*
X90992Y-31432D01*
X91014Y-31436D01*
X91014Y-31988D01*
X91028Y-32060D01*
X91069Y-32120D01*
X91396Y-32448D01*
X91220Y-32448D01*
X91220Y-32448D01*
X91209Y-32450D01*
X91163Y-32459D01*
X91114Y-32492D01*
X91114Y-32492D01*
X90505Y-33101D01*
X90472Y-33150D01*
X90461Y-33207D01*
X90461Y-33423D01*
X90449Y-33423D01*
X90331Y-33423D01*
X90315Y-33429D01*
X90300Y-33423D01*
X90252Y-33423D01*
X90134Y-33423D01*
X90090Y-33441D01*
X90089Y-33442D01*
X90089Y-33273D01*
X90089Y-33298D01*
X90047Y-33256D01*
X89635Y-33256D01*
X89635Y-33432D01*
X89677Y-33474D01*
X89954Y-33474D01*
X90016Y-33448D01*
X90063Y-33401D01*
X90089Y-33339D01*
X90089Y-33273D01*
X90089Y-33442D01*
X90056Y-33475D01*
X90038Y-33519D01*
X90038Y-33567D01*
X90038Y-33798D01*
X90030Y-33838D01*
X90030Y-34143D01*
X90000Y-34143D01*
X89940Y-34155D01*
X89928Y-34158D01*
X89867Y-34198D01*
X89804Y-34262D01*
X89763Y-34322D01*
X89749Y-34394D01*
X89749Y-34395D01*
X89743Y-34397D01*
X89709Y-34431D01*
X89695Y-34466D01*
X89695Y-34164D01*
X89695Y-33747D01*
X89669Y-33685D01*
X89622Y-33638D01*
X89560Y-33612D01*
X89493Y-33612D01*
X89303Y-33612D01*
X89261Y-33654D01*
X89261Y-33946D01*
X89653Y-33946D01*
X89695Y-33904D01*
X89695Y-33747D01*
X89695Y-34164D01*
X89695Y-34006D01*
X89653Y-33964D01*
X89261Y-33964D01*
X89261Y-34256D01*
X89303Y-34298D01*
X89493Y-34298D01*
X89560Y-34298D01*
X89622Y-34273D01*
X89669Y-34225D01*
X89695Y-34164D01*
X89695Y-34466D01*
X89691Y-34475D01*
X89691Y-34518D01*
X89646Y-34518D01*
X89646Y-34506D01*
X89628Y-34462D01*
X89595Y-34429D01*
X89550Y-34410D01*
X89503Y-34410D01*
X88965Y-34410D01*
X88965Y-34298D01*
X89010Y-34298D01*
X89200Y-34298D01*
X89242Y-34256D01*
X89242Y-33964D01*
X89235Y-33964D01*
X89235Y-33946D01*
X89242Y-33946D01*
X89242Y-33654D01*
X89200Y-33612D01*
X89010Y-33612D01*
X88965Y-33612D01*
X88965Y-33491D01*
X89163Y-33293D01*
X89163Y-33339D01*
X89188Y-33401D01*
X89236Y-33448D01*
X89297Y-33474D01*
X89575Y-33474D01*
X89617Y-33432D01*
X89617Y-33256D01*
X89609Y-33256D01*
X89609Y-33238D01*
X89617Y-33238D01*
X89617Y-33230D01*
X89635Y-33230D01*
X89635Y-33238D01*
X90047Y-33238D01*
X90089Y-33196D01*
X90089Y-33221D01*
X90089Y-33154D01*
X90063Y-33093D01*
X90041Y-33070D01*
X90041Y-32967D01*
X90034Y-32951D01*
X90041Y-32936D01*
X90041Y-32888D01*
X90041Y-32770D01*
X90034Y-32755D01*
X90041Y-32740D01*
X90041Y-32692D01*
X90041Y-32574D01*
X90034Y-32558D01*
X90041Y-32543D01*
X90041Y-32495D01*
X90041Y-32377D01*
X90034Y-32361D01*
X90041Y-32346D01*
X90041Y-32298D01*
X90041Y-32180D01*
X90034Y-32165D01*
X90041Y-32150D01*
X90041Y-32102D01*
X90041Y-32047D01*
X90063Y-32024D01*
X90089Y-31962D01*
X90089Y-31896D01*
X90089Y-31921D01*
X90047Y-31879D01*
X89635Y-31879D01*
X89635Y-31887D01*
X89617Y-31887D01*
X89617Y-31879D01*
X89205Y-31879D01*
X89167Y-31917D01*
X89163Y-31917D01*
X89163Y-31896D01*
X89163Y-31917D01*
X88964Y-31917D01*
X89211Y-31670D01*
X89211Y-31693D01*
X89188Y-31716D01*
X89163Y-31777D01*
X89163Y-31844D01*
X89163Y-31819D01*
X89205Y-31861D01*
X89617Y-31861D01*
X89617Y-31853D01*
X89635Y-31853D01*
X89635Y-31861D01*
X90047Y-31861D01*
X90089Y-31819D01*
X90089Y-31844D01*
X90089Y-31777D01*
X90063Y-31716D01*
X90041Y-31693D01*
X90041Y-31590D01*
X90034Y-31575D01*
X90041Y-31560D01*
X90041Y-31512D01*
X90041Y-31394D01*
X90034Y-31378D01*
X90041Y-31363D01*
X90041Y-31315D01*
X90041Y-31260D01*
X90063Y-31237D01*
X90089Y-31175D01*
X90089Y-31109D01*
X90089Y-31057D01*
X90089Y-30990D01*
X90063Y-30929D01*
X90016Y-30881D01*
X89954Y-30856D01*
X89677Y-30856D01*
X89635Y-30898D01*
X89635Y-31074D01*
X90047Y-31074D01*
X90089Y-31032D01*
X90089Y-31057D01*
X90089Y-31109D01*
X90089Y-31134D01*
X90047Y-31092D01*
X89635Y-31092D01*
X89635Y-31100D01*
X89617Y-31100D01*
X89617Y-31092D01*
X89617Y-31074D01*
X89617Y-30898D01*
X89575Y-30856D01*
X89297Y-30856D01*
X89236Y-30881D01*
X89188Y-30929D01*
X89163Y-30990D01*
X89163Y-31057D01*
X89163Y-31032D01*
X89205Y-31074D01*
X89617Y-31074D01*
X89617Y-31092D01*
X89205Y-31092D01*
X89163Y-31134D01*
X89163Y-31109D01*
X89163Y-31175D01*
X89188Y-31237D01*
X89211Y-31260D01*
X89211Y-31327D01*
X89191Y-31327D01*
X89134Y-31338D01*
X89115Y-31351D01*
X89085Y-31371D01*
X89085Y-31371D01*
X88189Y-32268D01*
X88156Y-32316D01*
X88145Y-32374D01*
X88145Y-35584D01*
X88115Y-35554D01*
X88053Y-35528D01*
X87986Y-35528D01*
X87846Y-35528D01*
X87804Y-35570D01*
X87804Y-35812D01*
X87812Y-35812D01*
X87812Y-35831D01*
X87804Y-35831D01*
X87804Y-36073D01*
X87846Y-36115D01*
X87986Y-36115D01*
X88053Y-36115D01*
X88115Y-36089D01*
X88145Y-36059D01*
X88145Y-36274D01*
X88156Y-36331D01*
X88189Y-36380D01*
X88635Y-36826D01*
X88603Y-36901D01*
X88603Y-36995D01*
X88639Y-37081D01*
X88705Y-37147D01*
X88791Y-37183D01*
X88885Y-37183D01*
X88971Y-37148D01*
X88996Y-37123D01*
X89020Y-37147D01*
X89106Y-37183D01*
X89139Y-37183D01*
X89067Y-37255D01*
X89034Y-37304D01*
X89023Y-37362D01*
X89023Y-37512D01*
X89006Y-37512D01*
X88888Y-37512D01*
X88877Y-37516D01*
X88867Y-37512D01*
X88809Y-37512D01*
X88691Y-37512D01*
X88680Y-37516D01*
X88670Y-37512D01*
X88612Y-37512D01*
X88494Y-37512D01*
X88483Y-37516D01*
X88473Y-37512D01*
X88415Y-37512D01*
X88338Y-37512D01*
X88338Y-37401D01*
X88327Y-37343D01*
X88327Y-37343D01*
X88294Y-37294D01*
X88227Y-37227D01*
X88227Y-37158D01*
X88191Y-37071D01*
X88125Y-37005D01*
X88039Y-36969D01*
X87945Y-36969D01*
X87859Y-37005D01*
X87793Y-37071D01*
X87758Y-37153D01*
X87696Y-37092D01*
X87696Y-36958D01*
X87696Y-36958D01*
X87706Y-36909D01*
X87706Y-36909D01*
X87704Y-36899D01*
X87706Y-36889D01*
X87706Y-36775D01*
X87814Y-36667D01*
X88044Y-36667D01*
X88088Y-36648D01*
X88121Y-36615D01*
X88140Y-36571D01*
X88140Y-36523D01*
X88140Y-36273D01*
X88122Y-36229D01*
X88088Y-36195D01*
X88044Y-36177D01*
X87996Y-36177D01*
X87786Y-36177D01*
X87786Y-36073D01*
X87786Y-35831D01*
X87786Y-35812D01*
X87786Y-35570D01*
X87744Y-35528D01*
X87603Y-35528D01*
X87536Y-35528D01*
X87474Y-35554D01*
X87427Y-35601D01*
X87402Y-35663D01*
X87402Y-35770D01*
X87444Y-35812D01*
X87786Y-35812D01*
X87786Y-35831D01*
X87444Y-35831D01*
X87402Y-35873D01*
X87402Y-35980D01*
X87427Y-36042D01*
X87474Y-36089D01*
X87536Y-36115D01*
X87603Y-36115D01*
X87744Y-36115D01*
X87786Y-36073D01*
X87786Y-36177D01*
X87546Y-36177D01*
X87502Y-36195D01*
X87468Y-36228D01*
X87450Y-36273D01*
X87450Y-36320D01*
X87450Y-36502D01*
X87387Y-36565D01*
X87346Y-36626D01*
X87337Y-36674D01*
X87295Y-36674D01*
X87254Y-36691D01*
X87254Y-33190D01*
X88238Y-32205D01*
X88238Y-29154D01*
X89321Y-28071D01*
X89321Y-23968D01*
X90370Y-23968D01*
X90523Y-24121D01*
X90523Y-24121D01*
X90572Y-24154D01*
X90572Y-24154D01*
X90596Y-24159D01*
X90596Y-24264D01*
X90614Y-24308D01*
X90648Y-24342D01*
X90692Y-24360D01*
X90740Y-24360D01*
X90990Y-24360D01*
X91034Y-24342D01*
X91068Y-24308D01*
X91086Y-24264D01*
X91086Y-24216D01*
X91086Y-23868D01*
X91196Y-23868D01*
X91196Y-24264D01*
X91214Y-24308D01*
X91248Y-24342D01*
X91263Y-24348D01*
X91237Y-24374D01*
X91202Y-24460D01*
X91202Y-24485D01*
X91163Y-24477D01*
X91145Y-24477D01*
X91128Y-24435D01*
X91094Y-24401D01*
X91050Y-24382D01*
X91002Y-24382D01*
X90058Y-24382D01*
X90014Y-24401D01*
X89980Y-24434D01*
X89962Y-24478D01*
X89962Y-24526D01*
X89962Y-24776D01*
X89980Y-24820D01*
X90014Y-24854D01*
X90058Y-24872D01*
X90106Y-24872D01*
X91050Y-24872D01*
X91094Y-24854D01*
X91128Y-24821D01*
X91132Y-24809D01*
X91287Y-24963D01*
X91287Y-25129D01*
X91178Y-25021D01*
X91146Y-25000D01*
X91146Y-25000D01*
X91146Y-24979D01*
X91128Y-24935D01*
X91094Y-24901D01*
X91050Y-24882D01*
X91002Y-24882D01*
X90058Y-24882D01*
X90014Y-24901D01*
X89980Y-24934D01*
X89962Y-24978D01*
X89962Y-25026D01*
X89962Y-25276D01*
X89980Y-25320D01*
X90014Y-25354D01*
X90058Y-25372D01*
X90106Y-25372D01*
X91050Y-25372D01*
X91089Y-25356D01*
X91090Y-25357D01*
X91090Y-25399D01*
X91050Y-25382D01*
X91002Y-25382D01*
X90058Y-25382D01*
X90014Y-25401D01*
X89980Y-25434D01*
X89962Y-25478D01*
X89962Y-25526D01*
X89962Y-25776D01*
X89980Y-25820D01*
X90014Y-25854D01*
X90058Y-25872D01*
X90106Y-25872D01*
X91050Y-25872D01*
X91094Y-25854D01*
X91128Y-25821D01*
X91137Y-25798D01*
X91287Y-25947D01*
X91287Y-26181D01*
X91298Y-26238D01*
X91330Y-26287D01*
X92021Y-26977D01*
X92021Y-26977D01*
G37*
G54D55*
X92021Y-26977D02*
X91146Y-26977D01*
X91146Y-26729D01*
X91146Y-26479D01*
X91146Y-26229D01*
X91146Y-25979D01*
X91128Y-25935D01*
X91094Y-25901D01*
X91050Y-25882D01*
X91002Y-25882D01*
X90058Y-25882D01*
X90014Y-25901D01*
X89980Y-25934D01*
X89962Y-25978D01*
X89962Y-26026D01*
X89962Y-26276D01*
X89980Y-26320D01*
X90014Y-26354D01*
X90058Y-26372D01*
X90106Y-26372D01*
X91050Y-26372D01*
X91094Y-26354D01*
X91128Y-26321D01*
X91146Y-26276D01*
X91146Y-26229D01*
X91146Y-26479D01*
X91128Y-26435D01*
X91094Y-26401D01*
X91050Y-26382D01*
X91002Y-26382D01*
X90058Y-26382D01*
X90014Y-26401D01*
X89980Y-26434D01*
X89962Y-26478D01*
X89962Y-26526D01*
X89962Y-26776D01*
X89980Y-26820D01*
X90014Y-26854D01*
X90058Y-26872D01*
X90106Y-26872D01*
X91050Y-26872D01*
X91094Y-26854D01*
X91128Y-26821D01*
X91146Y-26776D01*
X91146Y-26729D01*
X91146Y-26977D01*
X91145Y-26977D01*
X91128Y-26935D01*
X91094Y-26901D01*
X91050Y-26882D01*
X91002Y-26882D01*
X90058Y-26882D01*
X90014Y-26901D01*
X89980Y-26934D01*
X89962Y-26978D01*
X89962Y-27026D01*
X89962Y-27276D01*
X89980Y-27320D01*
X90014Y-27354D01*
X90058Y-27372D01*
X90106Y-27372D01*
X91050Y-27372D01*
X91094Y-27354D01*
X91111Y-27337D01*
X91111Y-27416D01*
X91110Y-27417D01*
X91094Y-27401D01*
X91050Y-27382D01*
X91002Y-27382D01*
X90058Y-27382D01*
X90014Y-27401D01*
X89980Y-27434D01*
X89962Y-27477D01*
X89931Y-27477D01*
X89873Y-27489D01*
X89825Y-27521D01*
X89736Y-27610D01*
X89703Y-27659D01*
X89692Y-27716D01*
X89692Y-28441D01*
X89160Y-28973D01*
X89152Y-28985D01*
X89118Y-28985D01*
X89074Y-29003D01*
X89040Y-29037D01*
X89021Y-29081D01*
X89021Y-29129D01*
X89021Y-29579D01*
X89040Y-29623D01*
X89073Y-29657D01*
X89117Y-29675D01*
X89165Y-29675D01*
X89415Y-29675D01*
X89459Y-29657D01*
X89493Y-29623D01*
X89511Y-29579D01*
X89511Y-29531D01*
X89511Y-29081D01*
X89501Y-29056D01*
X89948Y-28610D01*
X89981Y-28561D01*
X89981Y-28561D01*
X89992Y-28503D01*
X89992Y-28332D01*
X90014Y-28354D01*
X90058Y-28372D01*
X90106Y-28372D01*
X90404Y-28372D01*
X90404Y-28540D01*
X90404Y-28582D01*
X90111Y-28875D01*
X90078Y-28924D01*
X90067Y-28982D01*
X90067Y-29011D01*
X90059Y-29004D01*
X90015Y-28985D01*
X89968Y-28985D01*
X89718Y-28985D01*
X89674Y-29003D01*
X89640Y-29037D01*
X89621Y-29081D01*
X89621Y-29129D01*
X89621Y-29579D01*
X89640Y-29623D01*
X89673Y-29657D01*
X89717Y-29675D01*
X89765Y-29675D01*
X90015Y-29675D01*
X90059Y-29657D01*
X90067Y-29650D01*
X90067Y-30118D01*
X90056Y-30129D01*
X90038Y-30173D01*
X90038Y-30221D01*
X90038Y-30811D01*
X90056Y-30855D01*
X90090Y-30889D01*
X90134Y-30907D01*
X90181Y-30907D01*
X90299Y-30907D01*
X90315Y-30900D01*
X90331Y-30907D01*
X90378Y-30907D01*
X90496Y-30907D01*
X90512Y-30900D01*
X90528Y-30907D01*
X90575Y-30907D01*
X90693Y-30907D01*
X90709Y-30901D01*
X90724Y-30907D01*
X90771Y-30907D01*
X90817Y-30907D01*
X90817Y-31200D01*
X90831Y-31272D01*
X90872Y-31332D01*
X90931Y-31392D01*
X90931Y-31392D01*
X90971Y-31419D01*
X90992Y-31432D01*
X90992Y-31432D01*
X91014Y-31436D01*
X91014Y-31988D01*
X91028Y-32060D01*
X91069Y-32120D01*
X91396Y-32448D01*
X91220Y-32448D01*
X91220Y-32448D01*
X91209Y-32450D01*
X91163Y-32459D01*
X91114Y-32492D01*
X91114Y-32492D01*
X90505Y-33101D01*
X90472Y-33150D01*
X90461Y-33207D01*
X90461Y-33423D01*
X90449Y-33423D01*
X90331Y-33423D01*
X90315Y-33429D01*
X90300Y-33423D01*
X90252Y-33423D01*
X90134Y-33423D01*
X90090Y-33441D01*
X90089Y-33442D01*
X90089Y-33273D01*
X90089Y-33298D01*
X90047Y-33256D01*
X89635Y-33256D01*
X89635Y-33432D01*
X89677Y-33474D01*
X89954Y-33474D01*
X90016Y-33448D01*
X90063Y-33401D01*
X90089Y-33339D01*
X90089Y-33273D01*
X90089Y-33442D01*
X90056Y-33475D01*
X90038Y-33519D01*
X90038Y-33567D01*
X90038Y-33798D01*
X90030Y-33838D01*
X90030Y-34143D01*
X90000Y-34143D01*
X89940Y-34155D01*
X89928Y-34158D01*
X89867Y-34198D01*
X89804Y-34262D01*
X89763Y-34322D01*
X89749Y-34394D01*
X89749Y-34395D01*
X89743Y-34397D01*
X89709Y-34431D01*
X89695Y-34466D01*
X89695Y-34164D01*
X89695Y-33747D01*
X89669Y-33685D01*
X89622Y-33638D01*
X89560Y-33612D01*
X89493Y-33612D01*
X89303Y-33612D01*
X89261Y-33654D01*
X89261Y-33946D01*
X89653Y-33946D01*
X89695Y-33904D01*
X89695Y-33747D01*
X89695Y-34164D01*
X89695Y-34006D01*
X89653Y-33964D01*
X89261Y-33964D01*
X89261Y-34256D01*
X89303Y-34298D01*
X89493Y-34298D01*
X89560Y-34298D01*
X89622Y-34273D01*
X89669Y-34225D01*
X89695Y-34164D01*
X89695Y-34466D01*
X89691Y-34475D01*
X89691Y-34518D01*
X89646Y-34518D01*
X89646Y-34506D01*
X89628Y-34462D01*
X89595Y-34429D01*
X89550Y-34410D01*
X89503Y-34410D01*
X88965Y-34410D01*
X88965Y-34298D01*
X89010Y-34298D01*
X89200Y-34298D01*
X89242Y-34256D01*
X89242Y-33964D01*
X89235Y-33964D01*
X89235Y-33946D01*
X89242Y-33946D01*
X89242Y-33654D01*
X89200Y-33612D01*
X89010Y-33612D01*
X88965Y-33612D01*
X88965Y-33491D01*
X89163Y-33293D01*
X89163Y-33339D01*
X89188Y-33401D01*
X89236Y-33448D01*
X89297Y-33474D01*
X89575Y-33474D01*
X89617Y-33432D01*
X89617Y-33256D01*
X89609Y-33256D01*
X89609Y-33238D01*
X89617Y-33238D01*
X89617Y-33230D01*
X89635Y-33230D01*
X89635Y-33238D01*
X90047Y-33238D01*
X90089Y-33196D01*
X90089Y-33221D01*
X90089Y-33154D01*
X90063Y-33093D01*
X90041Y-33070D01*
X90041Y-32967D01*
X90034Y-32951D01*
X90041Y-32936D01*
X90041Y-32888D01*
X90041Y-32770D01*
X90034Y-32755D01*
X90041Y-32740D01*
X90041Y-32692D01*
X90041Y-32574D01*
X90034Y-32558D01*
X90041Y-32543D01*
X90041Y-32495D01*
X90041Y-32377D01*
X90034Y-32361D01*
X90041Y-32346D01*
X90041Y-32298D01*
X90041Y-32180D01*
X90034Y-32165D01*
X90041Y-32150D01*
X90041Y-32102D01*
X90041Y-32047D01*
X90063Y-32024D01*
X90089Y-31962D01*
X90089Y-31896D01*
X90089Y-31921D01*
X90047Y-31879D01*
X89635Y-31879D01*
X89635Y-31887D01*
X89617Y-31887D01*
X89617Y-31879D01*
X89205Y-31879D01*
X89167Y-31917D01*
X89163Y-31917D01*
X89163Y-31896D01*
X89163Y-31917D01*
X88964Y-31917D01*
X89211Y-31670D01*
X89211Y-31693D01*
X89188Y-31716D01*
X89163Y-31777D01*
X89163Y-31844D01*
X89163Y-31819D01*
X89205Y-31861D01*
X89617Y-31861D01*
X89617Y-31853D01*
X89635Y-31853D01*
X89635Y-31861D01*
X90047Y-31861D01*
X90089Y-31819D01*
X90089Y-31844D01*
X90089Y-31777D01*
X90063Y-31716D01*
X90041Y-31693D01*
X90041Y-31590D01*
X90034Y-31575D01*
X90041Y-31560D01*
X90041Y-31512D01*
X90041Y-31394D01*
X90034Y-31378D01*
X90041Y-31363D01*
X90041Y-31315D01*
X90041Y-31260D01*
X90063Y-31237D01*
X90089Y-31175D01*
X90089Y-31109D01*
X90089Y-31057D01*
X90089Y-30990D01*
X90063Y-30929D01*
X90016Y-30881D01*
X89954Y-30856D01*
X89677Y-30856D01*
X89635Y-30898D01*
X89635Y-31074D01*
X90047Y-31074D01*
X90089Y-31032D01*
X90089Y-31057D01*
X90089Y-31109D01*
X90089Y-31134D01*
X90047Y-31092D01*
X89635Y-31092D01*
X89635Y-31100D01*
X89617Y-31100D01*
X89617Y-31092D01*
X89617Y-31074D01*
X89617Y-30898D01*
X89575Y-30856D01*
X89297Y-30856D01*
X89236Y-30881D01*
X89188Y-30929D01*
X89163Y-30990D01*
X89163Y-31057D01*
X89163Y-31032D01*
X89205Y-31074D01*
X89617Y-31074D01*
X89617Y-31092D01*
X89205Y-31092D01*
X89163Y-31134D01*
X89163Y-31109D01*
X89163Y-31175D01*
X89188Y-31237D01*
X89211Y-31260D01*
X89211Y-31327D01*
X89191Y-31327D01*
X89134Y-31338D01*
X89115Y-31351D01*
X89085Y-31371D01*
X89085Y-31371D01*
X88189Y-32268D01*
X88156Y-32316D01*
X88145Y-32374D01*
X88145Y-35584D01*
X88115Y-35554D01*
X88053Y-35528D01*
X87986Y-35528D01*
X87846Y-35528D01*
X87804Y-35570D01*
X87804Y-35812D01*
X87812Y-35812D01*
X87812Y-35831D01*
X87804Y-35831D01*
X87804Y-36073D01*
X87846Y-36115D01*
X87986Y-36115D01*
X88053Y-36115D01*
X88115Y-36089D01*
X88145Y-36059D01*
X88145Y-36274D01*
X88156Y-36331D01*
X88189Y-36380D01*
X88635Y-36826D01*
X88603Y-36901D01*
X88603Y-36995D01*
X88639Y-37081D01*
X88705Y-37147D01*
X88791Y-37183D01*
X88885Y-37183D01*
X88971Y-37148D01*
X88996Y-37123D01*
X89020Y-37147D01*
X89106Y-37183D01*
X89139Y-37183D01*
X89067Y-37255D01*
X89034Y-37304D01*
X89023Y-37362D01*
X89023Y-37512D01*
X89006Y-37512D01*
X88888Y-37512D01*
X88877Y-37516D01*
X88867Y-37512D01*
X88809Y-37512D01*
X88691Y-37512D01*
X88680Y-37516D01*
X88670Y-37512D01*
X88612Y-37512D01*
X88494Y-37512D01*
X88483Y-37516D01*
X88473Y-37512D01*
X88415Y-37512D01*
X88338Y-37512D01*
X88338Y-37401D01*
X88327Y-37343D01*
X88327Y-37343D01*
X88294Y-37294D01*
X88227Y-37227D01*
X88227Y-37158D01*
X88191Y-37071D01*
X88125Y-37005D01*
X88039Y-36969D01*
X87945Y-36969D01*
X87859Y-37005D01*
X87793Y-37071D01*
X87758Y-37153D01*
X87696Y-37092D01*
X87696Y-36958D01*
X87696Y-36958D01*
X87706Y-36909D01*
X87706Y-36909D01*
X87704Y-36899D01*
X87706Y-36889D01*
X87706Y-36775D01*
X87814Y-36667D01*
X88044Y-36667D01*
X88088Y-36648D01*
X88121Y-36615D01*
X88140Y-36571D01*
X88140Y-36523D01*
X88140Y-36273D01*
X88122Y-36229D01*
X88088Y-36195D01*
X88044Y-36177D01*
X87996Y-36177D01*
X87786Y-36177D01*
X87786Y-36073D01*
X87786Y-35831D01*
X87786Y-35812D01*
X87786Y-35570D01*
X87744Y-35528D01*
X87603Y-35528D01*
X87536Y-35528D01*
X87474Y-35554D01*
X87427Y-35601D01*
X87402Y-35663D01*
X87402Y-35770D01*
X87444Y-35812D01*
X87786Y-35812D01*
X87786Y-35831D01*
X87444Y-35831D01*
X87402Y-35873D01*
X87402Y-35980D01*
X87427Y-36042D01*
X87474Y-36089D01*
X87536Y-36115D01*
X87603Y-36115D01*
X87744Y-36115D01*
X87786Y-36073D01*
X87786Y-36177D01*
X87546Y-36177D01*
X87502Y-36195D01*
X87468Y-36228D01*
X87450Y-36273D01*
X87450Y-36320D01*
X87450Y-36502D01*
X87387Y-36565D01*
X87346Y-36626D01*
X87337Y-36674D01*
X87295Y-36674D01*
X87254Y-36691D01*
X87254Y-33190D01*
X88238Y-32205D01*
X88238Y-29154D01*
X89321Y-28071D01*
X89321Y-23968D01*
X90370Y-23968D01*
X90523Y-24121D01*
X90523Y-24121D01*
X90572Y-24154D01*
X90572Y-24154D01*
X90596Y-24159D01*
X90596Y-24264D01*
X90614Y-24308D01*
X90648Y-24342D01*
X90692Y-24360D01*
X90740Y-24360D01*
X90990Y-24360D01*
X91034Y-24342D01*
X91068Y-24308D01*
X91086Y-24264D01*
X91086Y-24216D01*
X91086Y-23868D01*
X91196Y-23868D01*
X91196Y-24264D01*
X91214Y-24308D01*
X91248Y-24342D01*
X91263Y-24348D01*
X91237Y-24374D01*
X91202Y-24460D01*
X91202Y-24485D01*
X91163Y-24477D01*
X91145Y-24477D01*
X91128Y-24435D01*
X91094Y-24401D01*
X91050Y-24382D01*
X91002Y-24382D01*
X90058Y-24382D01*
X90014Y-24401D01*
X89980Y-24434D01*
X89962Y-24478D01*
X89962Y-24526D01*
X89962Y-24776D01*
X89980Y-24820D01*
X90014Y-24854D01*
X90058Y-24872D01*
X90106Y-24872D01*
X91050Y-24872D01*
X91094Y-24854D01*
X91128Y-24821D01*
X91132Y-24809D01*
X91287Y-24963D01*
X91287Y-25129D01*
X91178Y-25021D01*
X91146Y-25000D01*
X91146Y-25000D01*
X91146Y-24979D01*
X91128Y-24935D01*
X91094Y-24901D01*
X91050Y-24882D01*
X91002Y-24882D01*
X90058Y-24882D01*
X90014Y-24901D01*
X89980Y-24934D01*
X89962Y-24978D01*
X89962Y-25026D01*
X89962Y-25276D01*
X89980Y-25320D01*
X90014Y-25354D01*
X90058Y-25372D01*
X90106Y-25372D01*
X91050Y-25372D01*
X91089Y-25356D01*
X91090Y-25357D01*
X91090Y-25399D01*
X91050Y-25382D01*
X91002Y-25382D01*
X90058Y-25382D01*
X90014Y-25401D01*
X89980Y-25434D01*
X89962Y-25478D01*
X89962Y-25526D01*
X89962Y-25776D01*
X89980Y-25820D01*
X90014Y-25854D01*
X90058Y-25872D01*
X90106Y-25872D01*
X91050Y-25872D01*
X91094Y-25854D01*
X91128Y-25821D01*
X91137Y-25798D01*
X91287Y-25947D01*
X91287Y-26181D01*
X91298Y-26238D01*
X91330Y-26287D01*
X92021Y-26977D01*
G54D10*
G36*
X93102Y-29419D02*
X93060Y-29419D01*
X93060Y-29423D01*
X93028Y-29391D01*
X93030Y-29385D01*
X93030Y-29278D01*
X92988Y-29236D01*
X92646Y-29236D01*
X92646Y-29244D01*
X92628Y-29244D01*
X92628Y-29236D01*
X92358Y-29236D01*
X92286Y-29236D01*
X92016Y-29236D01*
X92016Y-29244D01*
X91998Y-29244D01*
X91998Y-29236D01*
X91729Y-29236D01*
X91656Y-29236D01*
X91387Y-29236D01*
X91387Y-29244D01*
X91368Y-29244D01*
X91368Y-29236D01*
X91026Y-29236D01*
X90984Y-29278D01*
X90984Y-29345D01*
X90966Y-29349D01*
X90957Y-29355D01*
X90957Y-29058D01*
X91007Y-29008D01*
X91010Y-29008D01*
X90984Y-29069D01*
X90984Y-29176D01*
X91026Y-29218D01*
X91368Y-29218D01*
X91368Y-29210D01*
X91387Y-29210D01*
X91387Y-29218D01*
X91656Y-29218D01*
X91729Y-29218D01*
X91998Y-29218D01*
X91998Y-29210D01*
X92016Y-29210D01*
X92016Y-29218D01*
X92286Y-29218D01*
X92358Y-29218D01*
X92628Y-29218D01*
X92628Y-29210D01*
X92646Y-29210D01*
X92646Y-29218D01*
X92988Y-29218D01*
X93025Y-29182D01*
X93043Y-29200D01*
X93063Y-29213D01*
X93060Y-29219D01*
X93060Y-29377D01*
X93102Y-29419D01*
X93102Y-29419D01*
G37*
G54D55*
X93102Y-29419D02*
X93060Y-29419D01*
X93060Y-29423D01*
X93028Y-29391D01*
X93030Y-29385D01*
X93030Y-29278D01*
X92988Y-29236D01*
X92646Y-29236D01*
X92646Y-29244D01*
X92628Y-29244D01*
X92628Y-29236D01*
X92358Y-29236D01*
X92286Y-29236D01*
X92016Y-29236D01*
X92016Y-29244D01*
X91998Y-29244D01*
X91998Y-29236D01*
X91729Y-29236D01*
X91656Y-29236D01*
X91387Y-29236D01*
X91387Y-29244D01*
X91368Y-29244D01*
X91368Y-29236D01*
X91026Y-29236D01*
X90984Y-29278D01*
X90984Y-29345D01*
X90966Y-29349D01*
X90957Y-29355D01*
X90957Y-29058D01*
X91007Y-29008D01*
X91010Y-29008D01*
X90984Y-29069D01*
X90984Y-29176D01*
X91026Y-29218D01*
X91368Y-29218D01*
X91368Y-29210D01*
X91387Y-29210D01*
X91387Y-29218D01*
X91656Y-29218D01*
X91729Y-29218D01*
X91998Y-29218D01*
X91998Y-29210D01*
X92016Y-29210D01*
X92016Y-29218D01*
X92286Y-29218D01*
X92358Y-29218D01*
X92628Y-29218D01*
X92628Y-29210D01*
X92646Y-29210D01*
X92646Y-29218D01*
X92988Y-29218D01*
X93025Y-29182D01*
X93043Y-29200D01*
X93063Y-29213D01*
X93060Y-29219D01*
X93060Y-29377D01*
X93102Y-29419D01*
G54D10*
G36*
X93826Y-28184D02*
X93824Y-28182D01*
X93762Y-28156D01*
X93695Y-28156D01*
X93555Y-28156D01*
X93512Y-28198D01*
X93512Y-28440D01*
X93520Y-28440D01*
X93520Y-28458D01*
X93512Y-28458D01*
X93512Y-28700D01*
X93555Y-28742D01*
X93695Y-28742D01*
X93761Y-28742D01*
X93559Y-28944D01*
X93211Y-28944D01*
X93019Y-28752D01*
X92970Y-28719D01*
X92942Y-28714D01*
X92962Y-28694D01*
X93161Y-28694D01*
X93183Y-28717D01*
X93245Y-28742D01*
X93312Y-28742D01*
X93452Y-28742D01*
X93494Y-28700D01*
X93494Y-28458D01*
X93487Y-28458D01*
X93487Y-28440D01*
X93494Y-28440D01*
X93494Y-28198D01*
X93452Y-28156D01*
X93312Y-28156D01*
X93245Y-28156D01*
X93183Y-28182D01*
X93161Y-28204D01*
X93114Y-28204D01*
X92712Y-28204D01*
X92712Y-28094D01*
X93162Y-28094D01*
X93206Y-28076D01*
X93208Y-28074D01*
X93210Y-28076D01*
X93254Y-28094D01*
X93302Y-28094D01*
X93752Y-28094D01*
X93796Y-28076D01*
X93826Y-28046D01*
X93826Y-28184D01*
X93826Y-28184D01*
G37*
G54D55*
X93826Y-28184D02*
X93824Y-28182D01*
X93762Y-28156D01*
X93695Y-28156D01*
X93555Y-28156D01*
X93512Y-28198D01*
X93512Y-28440D01*
X93520Y-28440D01*
X93520Y-28458D01*
X93512Y-28458D01*
X93512Y-28700D01*
X93555Y-28742D01*
X93695Y-28742D01*
X93761Y-28742D01*
X93559Y-28944D01*
X93211Y-28944D01*
X93019Y-28752D01*
X92970Y-28719D01*
X92942Y-28714D01*
X92962Y-28694D01*
X93161Y-28694D01*
X93183Y-28717D01*
X93245Y-28742D01*
X93312Y-28742D01*
X93452Y-28742D01*
X93494Y-28700D01*
X93494Y-28458D01*
X93487Y-28458D01*
X93487Y-28440D01*
X93494Y-28440D01*
X93494Y-28198D01*
X93452Y-28156D01*
X93312Y-28156D01*
X93245Y-28156D01*
X93183Y-28182D01*
X93161Y-28204D01*
X93114Y-28204D01*
X92712Y-28204D01*
X92712Y-28094D01*
X93162Y-28094D01*
X93206Y-28076D01*
X93208Y-28074D01*
X93210Y-28076D01*
X93254Y-28094D01*
X93302Y-28094D01*
X93752Y-28094D01*
X93796Y-28076D01*
X93826Y-28046D01*
X93826Y-28184D01*
G54D10*
G36*
X93983Y-31709D02*
X93947Y-31746D01*
X93947Y-29636D01*
X93947Y-29479D01*
X93905Y-29437D01*
X93512Y-29437D01*
X93512Y-29729D01*
X93555Y-29771D01*
X93745Y-29771D01*
X93812Y-29771D01*
X93874Y-29745D01*
X93921Y-29698D01*
X93947Y-29636D01*
X93947Y-31746D01*
X93776Y-31917D01*
X93387Y-31917D01*
X93387Y-31905D01*
X93387Y-31787D01*
X93380Y-31771D01*
X93387Y-31756D01*
X93387Y-31708D01*
X93387Y-31590D01*
X93380Y-31575D01*
X93387Y-31560D01*
X93387Y-31512D01*
X93387Y-31430D01*
X93640Y-31430D01*
X93698Y-31418D01*
X93698Y-31418D01*
X93746Y-31386D01*
X93806Y-31326D01*
X93806Y-31326D01*
X93806Y-31326D01*
X93839Y-31277D01*
X93839Y-31277D01*
X93848Y-31231D01*
X93850Y-31220D01*
X93850Y-31220D01*
X93850Y-31220D01*
X93850Y-31087D01*
X93899Y-31038D01*
X93935Y-30952D01*
X93935Y-30858D01*
X93900Y-30772D01*
X93834Y-30706D01*
X93747Y-30670D01*
X93654Y-30670D01*
X93567Y-30706D01*
X93501Y-30772D01*
X93465Y-30858D01*
X93465Y-30952D01*
X93501Y-31038D01*
X93550Y-31087D01*
X93550Y-31130D01*
X93387Y-31130D01*
X93387Y-31118D01*
X93387Y-31000D01*
X93369Y-30956D01*
X93335Y-30922D01*
X93291Y-30904D01*
X93243Y-30904D01*
X92653Y-30904D01*
X92609Y-30922D01*
X92575Y-30956D01*
X92557Y-31000D01*
X92557Y-31048D01*
X92557Y-31166D01*
X92563Y-31181D01*
X92557Y-31197D01*
X92557Y-31245D01*
X92557Y-31363D01*
X92563Y-31378D01*
X92557Y-31394D01*
X92557Y-31442D01*
X92557Y-31560D01*
X92563Y-31575D01*
X92557Y-31590D01*
X92557Y-31638D01*
X92557Y-31756D01*
X92563Y-31771D01*
X92557Y-31787D01*
X92557Y-31835D01*
X92557Y-31953D01*
X92563Y-31968D01*
X92557Y-31984D01*
X92557Y-32032D01*
X92557Y-32150D01*
X92563Y-32165D01*
X92557Y-32180D01*
X92557Y-32228D01*
X92557Y-32346D01*
X92563Y-32361D01*
X92557Y-32377D01*
X92557Y-32425D01*
X92557Y-32450D01*
X92336Y-32230D01*
X92276Y-32189D01*
X92204Y-32175D01*
X91652Y-32175D01*
X91388Y-31911D01*
X91388Y-31259D01*
X91388Y-30907D01*
X91479Y-30907D01*
X91495Y-30900D01*
X91511Y-30907D01*
X91558Y-30907D01*
X91594Y-30907D01*
X91572Y-30929D01*
X91536Y-31016D01*
X91536Y-31109D01*
X91572Y-31195D01*
X91638Y-31262D01*
X91724Y-31297D01*
X91818Y-31298D01*
X91904Y-31262D01*
X91970Y-31196D01*
X92006Y-31109D01*
X92006Y-31016D01*
X91970Y-30930D01*
X91966Y-30925D01*
X91978Y-30913D01*
X91978Y-30871D01*
X91982Y-30882D01*
X91996Y-30896D01*
X91996Y-30913D01*
X92038Y-30955D01*
X92079Y-30955D01*
X92085Y-30952D01*
X92091Y-30955D01*
X92133Y-30955D01*
X92175Y-30913D01*
X92175Y-30896D01*
X92184Y-30887D01*
X92193Y-30896D01*
X92193Y-30913D01*
X92235Y-30955D01*
X92276Y-30955D01*
X92282Y-30952D01*
X92288Y-30955D01*
X92330Y-30955D01*
X92372Y-30913D01*
X92372Y-30896D01*
X92385Y-30882D01*
X92390Y-30871D01*
X92390Y-30913D01*
X92432Y-30955D01*
X92473Y-30955D01*
X92535Y-30929D01*
X92582Y-30882D01*
X92608Y-30820D01*
X92608Y-30754D01*
X92608Y-30543D01*
X92566Y-30501D01*
X92390Y-30501D01*
X92390Y-30522D01*
X92372Y-30504D01*
X92372Y-30501D01*
X92369Y-30501D01*
X92196Y-30501D01*
X92193Y-30501D01*
X92193Y-30504D01*
X92184Y-30513D01*
X92175Y-30504D01*
X92175Y-30501D01*
X92172Y-30501D01*
X92167Y-30501D01*
X92167Y-30483D01*
X92172Y-30483D01*
X92175Y-30483D01*
X92175Y-30480D01*
X92180Y-30475D01*
X92188Y-30475D01*
X92193Y-30480D01*
X92193Y-30483D01*
X92196Y-30483D01*
X92369Y-30483D01*
X92372Y-30483D01*
X92372Y-30480D01*
X92377Y-30475D01*
X92390Y-30475D01*
X92390Y-30483D01*
X92566Y-30483D01*
X92608Y-30441D01*
X92608Y-30230D01*
X92608Y-30163D01*
X92582Y-30102D01*
X92553Y-30072D01*
X92670Y-30072D01*
X92882Y-30284D01*
X92930Y-30316D01*
X92930Y-30316D01*
X92988Y-30328D01*
X93108Y-30328D01*
X93108Y-30376D01*
X93127Y-30421D01*
X93160Y-30454D01*
X93204Y-30473D01*
X93252Y-30473D01*
X93802Y-30473D01*
X93846Y-30454D01*
X93880Y-30421D01*
X93898Y-30377D01*
X93898Y-30329D01*
X93898Y-29979D01*
X93880Y-29935D01*
X93847Y-29901D01*
X93802Y-29883D01*
X93755Y-29883D01*
X93421Y-29883D01*
X93309Y-29771D01*
X93452Y-29771D01*
X93494Y-29729D01*
X93494Y-29437D01*
X93487Y-29437D01*
X93487Y-29419D01*
X93494Y-29419D01*
X93494Y-29411D01*
X93512Y-29411D01*
X93512Y-29419D01*
X93905Y-29419D01*
X93947Y-29377D01*
X93947Y-29219D01*
X93921Y-29158D01*
X93874Y-29110D01*
X93834Y-29094D01*
X93983Y-28944D01*
X93983Y-30118D01*
X93983Y-30157D01*
X93983Y-31709D01*
X93983Y-31709D01*
G37*
G54D55*
X93983Y-31709D02*
X93947Y-31746D01*
X93947Y-29636D01*
X93947Y-29479D01*
X93905Y-29437D01*
X93512Y-29437D01*
X93512Y-29729D01*
X93555Y-29771D01*
X93745Y-29771D01*
X93812Y-29771D01*
X93874Y-29745D01*
X93921Y-29698D01*
X93947Y-29636D01*
X93947Y-31746D01*
X93776Y-31917D01*
X93387Y-31917D01*
X93387Y-31905D01*
X93387Y-31787D01*
X93380Y-31771D01*
X93387Y-31756D01*
X93387Y-31708D01*
X93387Y-31590D01*
X93380Y-31575D01*
X93387Y-31560D01*
X93387Y-31512D01*
X93387Y-31430D01*
X93640Y-31430D01*
X93698Y-31418D01*
X93698Y-31418D01*
X93746Y-31386D01*
X93806Y-31326D01*
X93806Y-31326D01*
X93806Y-31326D01*
X93839Y-31277D01*
X93839Y-31277D01*
X93848Y-31231D01*
X93850Y-31220D01*
X93850Y-31220D01*
X93850Y-31220D01*
X93850Y-31087D01*
X93899Y-31038D01*
X93935Y-30952D01*
X93935Y-30858D01*
X93900Y-30772D01*
X93834Y-30706D01*
X93747Y-30670D01*
X93654Y-30670D01*
X93567Y-30706D01*
X93501Y-30772D01*
X93465Y-30858D01*
X93465Y-30952D01*
X93501Y-31038D01*
X93550Y-31087D01*
X93550Y-31130D01*
X93387Y-31130D01*
X93387Y-31118D01*
X93387Y-31000D01*
X93369Y-30956D01*
X93335Y-30922D01*
X93291Y-30904D01*
X93243Y-30904D01*
X92653Y-30904D01*
X92609Y-30922D01*
X92575Y-30956D01*
X92557Y-31000D01*
X92557Y-31048D01*
X92557Y-31166D01*
X92563Y-31181D01*
X92557Y-31197D01*
X92557Y-31245D01*
X92557Y-31363D01*
X92563Y-31378D01*
X92557Y-31394D01*
X92557Y-31442D01*
X92557Y-31560D01*
X92563Y-31575D01*
X92557Y-31590D01*
X92557Y-31638D01*
X92557Y-31756D01*
X92563Y-31771D01*
X92557Y-31787D01*
X92557Y-31835D01*
X92557Y-31953D01*
X92563Y-31968D01*
X92557Y-31984D01*
X92557Y-32032D01*
X92557Y-32150D01*
X92563Y-32165D01*
X92557Y-32180D01*
X92557Y-32228D01*
X92557Y-32346D01*
X92563Y-32361D01*
X92557Y-32377D01*
X92557Y-32425D01*
X92557Y-32450D01*
X92336Y-32230D01*
X92276Y-32189D01*
X92204Y-32175D01*
X91652Y-32175D01*
X91388Y-31911D01*
X91388Y-31259D01*
X91388Y-30907D01*
X91479Y-30907D01*
X91495Y-30900D01*
X91511Y-30907D01*
X91558Y-30907D01*
X91594Y-30907D01*
X91572Y-30929D01*
X91536Y-31016D01*
X91536Y-31109D01*
X91572Y-31195D01*
X91638Y-31262D01*
X91724Y-31297D01*
X91818Y-31298D01*
X91904Y-31262D01*
X91970Y-31196D01*
X92006Y-31109D01*
X92006Y-31016D01*
X91970Y-30930D01*
X91966Y-30925D01*
X91978Y-30913D01*
X91978Y-30871D01*
X91982Y-30882D01*
X91996Y-30896D01*
X91996Y-30913D01*
X92038Y-30955D01*
X92079Y-30955D01*
X92085Y-30952D01*
X92091Y-30955D01*
X92133Y-30955D01*
X92175Y-30913D01*
X92175Y-30896D01*
X92184Y-30887D01*
X92193Y-30896D01*
X92193Y-30913D01*
X92235Y-30955D01*
X92276Y-30955D01*
X92282Y-30952D01*
X92288Y-30955D01*
X92330Y-30955D01*
X92372Y-30913D01*
X92372Y-30896D01*
X92385Y-30882D01*
X92390Y-30871D01*
X92390Y-30913D01*
X92432Y-30955D01*
X92473Y-30955D01*
X92535Y-30929D01*
X92582Y-30882D01*
X92608Y-30820D01*
X92608Y-30754D01*
X92608Y-30543D01*
X92566Y-30501D01*
X92390Y-30501D01*
X92390Y-30522D01*
X92372Y-30504D01*
X92372Y-30501D01*
X92369Y-30501D01*
X92196Y-30501D01*
X92193Y-30501D01*
X92193Y-30504D01*
X92184Y-30513D01*
X92175Y-30504D01*
X92175Y-30501D01*
X92172Y-30501D01*
X92167Y-30501D01*
X92167Y-30483D01*
X92172Y-30483D01*
X92175Y-30483D01*
X92175Y-30480D01*
X92180Y-30475D01*
X92188Y-30475D01*
X92193Y-30480D01*
X92193Y-30483D01*
X92196Y-30483D01*
X92369Y-30483D01*
X92372Y-30483D01*
X92372Y-30480D01*
X92377Y-30475D01*
X92390Y-30475D01*
X92390Y-30483D01*
X92566Y-30483D01*
X92608Y-30441D01*
X92608Y-30230D01*
X92608Y-30163D01*
X92582Y-30102D01*
X92553Y-30072D01*
X92670Y-30072D01*
X92882Y-30284D01*
X92930Y-30316D01*
X92930Y-30316D01*
X92988Y-30328D01*
X93108Y-30328D01*
X93108Y-30376D01*
X93127Y-30421D01*
X93160Y-30454D01*
X93204Y-30473D01*
X93252Y-30473D01*
X93802Y-30473D01*
X93846Y-30454D01*
X93880Y-30421D01*
X93898Y-30377D01*
X93898Y-30329D01*
X93898Y-29979D01*
X93880Y-29935D01*
X93847Y-29901D01*
X93802Y-29883D01*
X93755Y-29883D01*
X93421Y-29883D01*
X93309Y-29771D01*
X93452Y-29771D01*
X93494Y-29729D01*
X93494Y-29437D01*
X93487Y-29437D01*
X93487Y-29419D01*
X93494Y-29419D01*
X93494Y-29411D01*
X93512Y-29411D01*
X93512Y-29419D01*
X93905Y-29419D01*
X93947Y-29377D01*
X93947Y-29219D01*
X93921Y-29158D01*
X93874Y-29110D01*
X93834Y-29094D01*
X93983Y-28944D01*
X93983Y-30118D01*
X93983Y-30157D01*
X93983Y-31709D01*
G54D10*
G36*
X94241Y-39055D02*
X94222Y-39055D01*
X94222Y-34520D01*
X94222Y-34103D01*
X94197Y-34041D01*
X94149Y-33994D01*
X94088Y-33968D01*
X94021Y-33968D01*
X93830Y-33968D01*
X93788Y-34010D01*
X93788Y-34302D01*
X94180Y-34302D01*
X94222Y-34260D01*
X94222Y-34103D01*
X94222Y-34520D01*
X94222Y-34363D01*
X94180Y-34321D01*
X93788Y-34321D01*
X93788Y-34613D01*
X93830Y-34655D01*
X94021Y-34655D01*
X94088Y-34655D01*
X94149Y-34629D01*
X94197Y-34582D01*
X94222Y-34520D01*
X94222Y-39055D01*
X94150Y-39055D01*
X94144Y-39061D01*
X94108Y-39097D01*
X94108Y-39439D01*
X94116Y-39439D01*
X94116Y-39457D01*
X94108Y-39457D01*
X94108Y-39465D01*
X94090Y-39465D01*
X94090Y-39457D01*
X94090Y-39439D01*
X94090Y-39097D01*
X94048Y-39055D01*
X93940Y-39055D01*
X93879Y-39081D01*
X93831Y-39128D01*
X93806Y-39190D01*
X93806Y-39257D01*
X93806Y-39397D01*
X93848Y-39439D01*
X94090Y-39439D01*
X94090Y-39457D01*
X93848Y-39457D01*
X93806Y-39499D01*
X93806Y-39640D01*
X93806Y-39707D01*
X93815Y-39730D01*
X93790Y-39740D01*
X93756Y-39774D01*
X93738Y-39818D01*
X93738Y-39866D01*
X93738Y-40378D01*
X93748Y-40402D01*
X93740Y-40401D01*
X93653Y-40401D01*
X93663Y-40378D01*
X93663Y-40330D01*
X93663Y-39818D01*
X93652Y-39792D01*
X93692Y-39775D01*
X93725Y-39741D01*
X93744Y-39697D01*
X93744Y-39650D01*
X93744Y-39200D01*
X93726Y-39155D01*
X93692Y-39122D01*
X93648Y-39103D01*
X93600Y-39103D01*
X93350Y-39103D01*
X93306Y-39122D01*
X93272Y-39155D01*
X93254Y-39199D01*
X93254Y-39247D01*
X93254Y-39697D01*
X93264Y-39722D01*
X93149Y-39722D01*
X93210Y-39660D01*
X93246Y-39574D01*
X93246Y-39481D01*
X93211Y-39394D01*
X93145Y-39328D01*
X93058Y-39292D01*
X92965Y-39292D01*
X92878Y-39328D01*
X92814Y-39392D01*
X92814Y-39314D01*
X92788Y-39253D01*
X92741Y-39205D01*
X92679Y-39180D01*
X92612Y-39180D01*
X92472Y-39180D01*
X92430Y-39222D01*
X92430Y-39464D01*
X92438Y-39464D01*
X92438Y-39482D01*
X92430Y-39482D01*
X92430Y-39490D01*
X92412Y-39490D01*
X92412Y-39482D01*
X92404Y-39482D01*
X92404Y-39464D01*
X92412Y-39464D01*
X92412Y-39222D01*
X92370Y-39180D01*
X92364Y-39180D01*
X92426Y-39118D01*
X92670Y-39118D01*
X92714Y-39100D01*
X92747Y-39066D01*
X92750Y-39060D01*
X92977Y-39060D01*
X93048Y-39045D01*
X93109Y-39005D01*
X93355Y-38759D01*
X93444Y-38759D01*
X93552Y-38714D01*
X93635Y-38631D01*
X93680Y-38523D01*
X93680Y-38406D01*
X93636Y-38297D01*
X93553Y-38214D01*
X93444Y-38169D01*
X93327Y-38169D01*
X93218Y-38214D01*
X93135Y-38297D01*
X93090Y-38405D01*
X93090Y-38495D01*
X92899Y-38686D01*
X92750Y-38686D01*
X92748Y-38680D01*
X92714Y-38646D01*
X92670Y-38628D01*
X92622Y-38628D01*
X92172Y-38628D01*
X92128Y-38646D01*
X92094Y-38680D01*
X92079Y-38717D01*
X92079Y-38251D01*
X92339Y-37990D01*
X92408Y-37990D01*
X92495Y-37955D01*
X92561Y-37889D01*
X92597Y-37802D01*
X92597Y-37709D01*
X92561Y-37622D01*
X92495Y-37556D01*
X92409Y-37520D01*
X92315Y-37520D01*
X92229Y-37556D01*
X92194Y-37590D01*
X92160Y-37556D01*
X92074Y-37520D01*
X91981Y-37520D01*
X91894Y-37556D01*
X91828Y-37622D01*
X91792Y-37708D01*
X91792Y-37778D01*
X91429Y-38141D01*
X91396Y-38190D01*
X91385Y-38248D01*
X91385Y-38477D01*
X91270Y-38477D01*
X91216Y-38499D01*
X91176Y-38540D01*
X91153Y-38593D01*
X91153Y-38651D01*
X91153Y-38769D01*
X91158Y-38780D01*
X91153Y-38790D01*
X91153Y-38848D01*
X91153Y-38924D01*
X91144Y-38924D01*
X91144Y-37298D01*
X91144Y-37157D01*
X91102Y-37115D01*
X90860Y-37115D01*
X90860Y-37457D01*
X90902Y-37499D01*
X91009Y-37499D01*
X91071Y-37473D01*
X91118Y-37426D01*
X91144Y-37364D01*
X91144Y-37298D01*
X91144Y-38924D01*
X90728Y-38924D01*
X90670Y-38936D01*
X90622Y-38968D01*
X90386Y-39204D01*
X90386Y-39038D01*
X90853Y-38571D01*
X90886Y-38522D01*
X90886Y-38522D01*
X90897Y-38465D01*
X90897Y-38244D01*
X90929Y-38212D01*
X90951Y-38159D01*
X90951Y-38101D01*
X90951Y-37628D01*
X90929Y-37575D01*
X90888Y-37534D01*
X90842Y-37515D01*
X90842Y-37457D01*
X90842Y-37115D01*
X90600Y-37115D01*
X90558Y-37157D01*
X90558Y-37298D01*
X90558Y-37364D01*
X90583Y-37426D01*
X90631Y-37473D01*
X90692Y-37499D01*
X90800Y-37499D01*
X90842Y-37457D01*
X90842Y-37515D01*
X90835Y-37512D01*
X90777Y-37512D01*
X90699Y-37512D01*
X90643Y-37489D01*
X90602Y-37489D01*
X90560Y-37531D01*
X90560Y-37587D01*
X90550Y-37610D01*
X90542Y-37589D01*
X90542Y-37531D01*
X90514Y-37503D01*
X90514Y-37441D01*
X90502Y-37379D01*
X90492Y-37364D01*
X90496Y-37355D01*
X90496Y-37307D01*
X90496Y-36861D01*
X90558Y-36861D01*
X90558Y-36914D01*
X90558Y-37055D01*
X90600Y-37097D01*
X90842Y-37097D01*
X90842Y-37089D01*
X90860Y-37089D01*
X90860Y-37097D01*
X91102Y-37097D01*
X91144Y-37055D01*
X91144Y-36914D01*
X91144Y-36861D01*
X94144Y-36861D01*
X94144Y-36783D01*
X94176Y-36751D01*
X94194Y-36707D01*
X94194Y-36659D01*
X94194Y-36088D01*
X94176Y-36044D01*
X94144Y-36012D01*
X94144Y-35641D01*
X94176Y-35609D01*
X94194Y-35565D01*
X94194Y-35517D01*
X94194Y-34946D01*
X94176Y-34902D01*
X94142Y-34868D01*
X94098Y-34850D01*
X94051Y-34850D01*
X93877Y-34850D01*
X93819Y-34792D01*
X93770Y-34792D01*
X93770Y-34613D01*
X93770Y-34321D01*
X93762Y-34321D01*
X93762Y-34302D01*
X93770Y-34302D01*
X93770Y-34010D01*
X93728Y-33968D01*
X93537Y-33968D01*
X93470Y-33968D01*
X93441Y-33980D01*
X93430Y-33969D01*
X93368Y-33943D01*
X93301Y-33943D01*
X93161Y-33943D01*
X93119Y-33985D01*
X93119Y-34227D01*
X93127Y-34227D01*
X93127Y-34246D01*
X93119Y-34246D01*
X93119Y-34488D01*
X93161Y-34530D01*
X93301Y-34530D01*
X93340Y-34530D01*
X93361Y-34582D01*
X93409Y-34629D01*
X93470Y-34655D01*
X93537Y-34655D01*
X93728Y-34655D01*
X93770Y-34613D01*
X93770Y-34792D01*
X91798Y-34792D01*
X91804Y-34776D01*
X91804Y-34728D01*
X91804Y-34660D01*
X91909Y-34704D01*
X92026Y-34704D01*
X92135Y-34659D01*
X92198Y-34596D01*
X92519Y-34596D01*
X92591Y-34582D01*
X92651Y-34541D01*
X92740Y-34452D01*
X92742Y-34457D01*
X92789Y-34504D01*
X92851Y-34530D01*
X92918Y-34530D01*
X93059Y-34530D01*
X93101Y-34488D01*
X93101Y-34246D01*
X93093Y-34246D01*
X93093Y-34227D01*
X93101Y-34227D01*
X93101Y-33985D01*
X93059Y-33943D01*
X92918Y-33943D01*
X92895Y-33943D01*
X92957Y-33882D01*
X93359Y-33882D01*
X93403Y-33863D01*
X93432Y-33834D01*
X93436Y-33838D01*
X93480Y-33856D01*
X93528Y-33857D01*
X94078Y-33857D01*
X94122Y-33838D01*
X94156Y-33805D01*
X94174Y-33760D01*
X94174Y-33713D01*
X94174Y-33363D01*
X94156Y-33319D01*
X94122Y-33285D01*
X94078Y-33267D01*
X94030Y-33266D01*
X93480Y-33266D01*
X93436Y-33285D01*
X93435Y-33286D01*
X93435Y-33273D01*
X93435Y-33286D01*
X93429Y-33292D01*
X93393Y-33256D01*
X92981Y-33256D01*
X92981Y-33264D01*
X92963Y-33264D01*
X92963Y-33256D01*
X92955Y-33256D01*
X92955Y-33238D01*
X92963Y-33238D01*
X92963Y-33230D01*
X92981Y-33230D01*
X92981Y-33238D01*
X93393Y-33238D01*
X93435Y-33196D01*
X93435Y-33221D01*
X93435Y-33154D01*
X93409Y-33093D01*
X93387Y-33070D01*
X93387Y-32967D01*
X93380Y-32951D01*
X93387Y-32936D01*
X93387Y-32888D01*
X93387Y-32770D01*
X93380Y-32755D01*
X93387Y-32740D01*
X93387Y-32692D01*
X93387Y-32574D01*
X93380Y-32558D01*
X93387Y-32543D01*
X93387Y-32495D01*
X93387Y-32413D01*
X93815Y-32413D01*
X93816Y-32416D01*
X93882Y-32482D01*
X93968Y-32518D01*
X94062Y-32518D01*
X94148Y-32482D01*
X94214Y-32416D01*
X94241Y-32352D01*
X94241Y-39055D01*
X94241Y-39055D01*
G37*
G54D55*
X94241Y-39055D02*
X94222Y-39055D01*
X94222Y-34520D01*
X94222Y-34103D01*
X94197Y-34041D01*
X94149Y-33994D01*
X94088Y-33968D01*
X94021Y-33968D01*
X93830Y-33968D01*
X93788Y-34010D01*
X93788Y-34302D01*
X94180Y-34302D01*
X94222Y-34260D01*
X94222Y-34103D01*
X94222Y-34520D01*
X94222Y-34363D01*
X94180Y-34321D01*
X93788Y-34321D01*
X93788Y-34613D01*
X93830Y-34655D01*
X94021Y-34655D01*
X94088Y-34655D01*
X94149Y-34629D01*
X94197Y-34582D01*
X94222Y-34520D01*
X94222Y-39055D01*
X94150Y-39055D01*
X94144Y-39061D01*
X94108Y-39097D01*
X94108Y-39439D01*
X94116Y-39439D01*
X94116Y-39457D01*
X94108Y-39457D01*
X94108Y-39465D01*
X94090Y-39465D01*
X94090Y-39457D01*
X94090Y-39439D01*
X94090Y-39097D01*
X94048Y-39055D01*
X93940Y-39055D01*
X93879Y-39081D01*
X93831Y-39128D01*
X93806Y-39190D01*
X93806Y-39257D01*
X93806Y-39397D01*
X93848Y-39439D01*
X94090Y-39439D01*
X94090Y-39457D01*
X93848Y-39457D01*
X93806Y-39499D01*
X93806Y-39640D01*
X93806Y-39707D01*
X93815Y-39730D01*
X93790Y-39740D01*
X93756Y-39774D01*
X93738Y-39818D01*
X93738Y-39866D01*
X93738Y-40378D01*
X93748Y-40402D01*
X93740Y-40401D01*
X93653Y-40401D01*
X93663Y-40378D01*
X93663Y-40330D01*
X93663Y-39818D01*
X93652Y-39792D01*
X93692Y-39775D01*
X93725Y-39741D01*
X93744Y-39697D01*
X93744Y-39650D01*
X93744Y-39200D01*
X93726Y-39155D01*
X93692Y-39122D01*
X93648Y-39103D01*
X93600Y-39103D01*
X93350Y-39103D01*
X93306Y-39122D01*
X93272Y-39155D01*
X93254Y-39199D01*
X93254Y-39247D01*
X93254Y-39697D01*
X93264Y-39722D01*
X93149Y-39722D01*
X93210Y-39660D01*
X93246Y-39574D01*
X93246Y-39481D01*
X93211Y-39394D01*
X93145Y-39328D01*
X93058Y-39292D01*
X92965Y-39292D01*
X92878Y-39328D01*
X92814Y-39392D01*
X92814Y-39314D01*
X92788Y-39253D01*
X92741Y-39205D01*
X92679Y-39180D01*
X92612Y-39180D01*
X92472Y-39180D01*
X92430Y-39222D01*
X92430Y-39464D01*
X92438Y-39464D01*
X92438Y-39482D01*
X92430Y-39482D01*
X92430Y-39490D01*
X92412Y-39490D01*
X92412Y-39482D01*
X92404Y-39482D01*
X92404Y-39464D01*
X92412Y-39464D01*
X92412Y-39222D01*
X92370Y-39180D01*
X92364Y-39180D01*
X92426Y-39118D01*
X92670Y-39118D01*
X92714Y-39100D01*
X92747Y-39066D01*
X92750Y-39060D01*
X92977Y-39060D01*
X93048Y-39045D01*
X93109Y-39005D01*
X93355Y-38759D01*
X93444Y-38759D01*
X93552Y-38714D01*
X93635Y-38631D01*
X93680Y-38523D01*
X93680Y-38406D01*
X93636Y-38297D01*
X93553Y-38214D01*
X93444Y-38169D01*
X93327Y-38169D01*
X93218Y-38214D01*
X93135Y-38297D01*
X93090Y-38405D01*
X93090Y-38495D01*
X92899Y-38686D01*
X92750Y-38686D01*
X92748Y-38680D01*
X92714Y-38646D01*
X92670Y-38628D01*
X92622Y-38628D01*
X92172Y-38628D01*
X92128Y-38646D01*
X92094Y-38680D01*
X92079Y-38717D01*
X92079Y-38251D01*
X92339Y-37990D01*
X92408Y-37990D01*
X92495Y-37955D01*
X92561Y-37889D01*
X92597Y-37802D01*
X92597Y-37709D01*
X92561Y-37622D01*
X92495Y-37556D01*
X92409Y-37520D01*
X92315Y-37520D01*
X92229Y-37556D01*
X92194Y-37590D01*
X92160Y-37556D01*
X92074Y-37520D01*
X91981Y-37520D01*
X91894Y-37556D01*
X91828Y-37622D01*
X91792Y-37708D01*
X91792Y-37778D01*
X91429Y-38141D01*
X91396Y-38190D01*
X91385Y-38248D01*
X91385Y-38477D01*
X91270Y-38477D01*
X91216Y-38499D01*
X91176Y-38540D01*
X91153Y-38593D01*
X91153Y-38651D01*
X91153Y-38769D01*
X91158Y-38780D01*
X91153Y-38790D01*
X91153Y-38848D01*
X91153Y-38924D01*
X91144Y-38924D01*
X91144Y-37298D01*
X91144Y-37157D01*
X91102Y-37115D01*
X90860Y-37115D01*
X90860Y-37457D01*
X90902Y-37499D01*
X91009Y-37499D01*
X91071Y-37473D01*
X91118Y-37426D01*
X91144Y-37364D01*
X91144Y-37298D01*
X91144Y-38924D01*
X90728Y-38924D01*
X90670Y-38936D01*
X90622Y-38968D01*
X90386Y-39204D01*
X90386Y-39038D01*
X90853Y-38571D01*
X90886Y-38522D01*
X90886Y-38522D01*
X90897Y-38465D01*
X90897Y-38244D01*
X90929Y-38212D01*
X90951Y-38159D01*
X90951Y-38101D01*
X90951Y-37628D01*
X90929Y-37575D01*
X90888Y-37534D01*
X90842Y-37515D01*
X90842Y-37457D01*
X90842Y-37115D01*
X90600Y-37115D01*
X90558Y-37157D01*
X90558Y-37298D01*
X90558Y-37364D01*
X90583Y-37426D01*
X90631Y-37473D01*
X90692Y-37499D01*
X90800Y-37499D01*
X90842Y-37457D01*
X90842Y-37515D01*
X90835Y-37512D01*
X90777Y-37512D01*
X90699Y-37512D01*
X90643Y-37489D01*
X90602Y-37489D01*
X90560Y-37531D01*
X90560Y-37587D01*
X90550Y-37610D01*
X90542Y-37589D01*
X90542Y-37531D01*
X90514Y-37503D01*
X90514Y-37441D01*
X90502Y-37379D01*
X90492Y-37364D01*
X90496Y-37355D01*
X90496Y-37307D01*
X90496Y-36861D01*
X90558Y-36861D01*
X90558Y-36914D01*
X90558Y-37055D01*
X90600Y-37097D01*
X90842Y-37097D01*
X90842Y-37089D01*
X90860Y-37089D01*
X90860Y-37097D01*
X91102Y-37097D01*
X91144Y-37055D01*
X91144Y-36914D01*
X91144Y-36861D01*
X94144Y-36861D01*
X94144Y-36783D01*
X94176Y-36751D01*
X94194Y-36707D01*
X94194Y-36659D01*
X94194Y-36088D01*
X94176Y-36044D01*
X94144Y-36012D01*
X94144Y-35641D01*
X94176Y-35609D01*
X94194Y-35565D01*
X94194Y-35517D01*
X94194Y-34946D01*
X94176Y-34902D01*
X94142Y-34868D01*
X94098Y-34850D01*
X94051Y-34850D01*
X93877Y-34850D01*
X93819Y-34792D01*
X93770Y-34792D01*
X93770Y-34613D01*
X93770Y-34321D01*
X93762Y-34321D01*
X93762Y-34302D01*
X93770Y-34302D01*
X93770Y-34010D01*
X93728Y-33968D01*
X93537Y-33968D01*
X93470Y-33968D01*
X93441Y-33980D01*
X93430Y-33969D01*
X93368Y-33943D01*
X93301Y-33943D01*
X93161Y-33943D01*
X93119Y-33985D01*
X93119Y-34227D01*
X93127Y-34227D01*
X93127Y-34246D01*
X93119Y-34246D01*
X93119Y-34488D01*
X93161Y-34530D01*
X93301Y-34530D01*
X93340Y-34530D01*
X93361Y-34582D01*
X93409Y-34629D01*
X93470Y-34655D01*
X93537Y-34655D01*
X93728Y-34655D01*
X93770Y-34613D01*
X93770Y-34792D01*
X91798Y-34792D01*
X91804Y-34776D01*
X91804Y-34728D01*
X91804Y-34660D01*
X91909Y-34704D01*
X92026Y-34704D01*
X92135Y-34659D01*
X92198Y-34596D01*
X92519Y-34596D01*
X92591Y-34582D01*
X92651Y-34541D01*
X92740Y-34452D01*
X92742Y-34457D01*
X92789Y-34504D01*
X92851Y-34530D01*
X92918Y-34530D01*
X93059Y-34530D01*
X93101Y-34488D01*
X93101Y-34246D01*
X93093Y-34246D01*
X93093Y-34227D01*
X93101Y-34227D01*
X93101Y-33985D01*
X93059Y-33943D01*
X92918Y-33943D01*
X92895Y-33943D01*
X92957Y-33882D01*
X93359Y-33882D01*
X93403Y-33863D01*
X93432Y-33834D01*
X93436Y-33838D01*
X93480Y-33856D01*
X93528Y-33857D01*
X94078Y-33857D01*
X94122Y-33838D01*
X94156Y-33805D01*
X94174Y-33760D01*
X94174Y-33713D01*
X94174Y-33363D01*
X94156Y-33319D01*
X94122Y-33285D01*
X94078Y-33267D01*
X94030Y-33266D01*
X93480Y-33266D01*
X93436Y-33285D01*
X93435Y-33286D01*
X93435Y-33273D01*
X93435Y-33286D01*
X93429Y-33292D01*
X93393Y-33256D01*
X92981Y-33256D01*
X92981Y-33264D01*
X92963Y-33264D01*
X92963Y-33256D01*
X92955Y-33256D01*
X92955Y-33238D01*
X92963Y-33238D01*
X92963Y-33230D01*
X92981Y-33230D01*
X92981Y-33238D01*
X93393Y-33238D01*
X93435Y-33196D01*
X93435Y-33221D01*
X93435Y-33154D01*
X93409Y-33093D01*
X93387Y-33070D01*
X93387Y-32967D01*
X93380Y-32951D01*
X93387Y-32936D01*
X93387Y-32888D01*
X93387Y-32770D01*
X93380Y-32755D01*
X93387Y-32740D01*
X93387Y-32692D01*
X93387Y-32574D01*
X93380Y-32558D01*
X93387Y-32543D01*
X93387Y-32495D01*
X93387Y-32413D01*
X93815Y-32413D01*
X93816Y-32416D01*
X93882Y-32482D01*
X93968Y-32518D01*
X94062Y-32518D01*
X94148Y-32482D01*
X94214Y-32416D01*
X94241Y-32352D01*
X94241Y-39055D01*
G54D10*
G36*
X94241Y-43552D02*
X94144Y-43552D01*
X94094Y-43552D01*
X93792Y-43552D01*
X93792Y-41825D01*
X93792Y-41684D01*
X93750Y-41642D01*
X93508Y-41642D01*
X93508Y-41984D01*
X93550Y-42026D01*
X93657Y-42026D01*
X93719Y-42001D01*
X93766Y-41954D01*
X93792Y-41892D01*
X93792Y-41825D01*
X93792Y-43552D01*
X92177Y-43552D01*
X92198Y-43531D01*
X92223Y-43470D01*
X92223Y-43153D01*
X92198Y-43091D01*
X92151Y-43044D01*
X92089Y-43018D01*
X92022Y-43018D01*
X91881Y-43018D01*
X91839Y-43060D01*
X91839Y-43302D01*
X92181Y-43302D01*
X92223Y-43260D01*
X92223Y-43153D01*
X92223Y-43470D01*
X92223Y-43362D01*
X92181Y-43320D01*
X91839Y-43320D01*
X91839Y-43328D01*
X91821Y-43328D01*
X91821Y-43320D01*
X91821Y-43302D01*
X91821Y-43060D01*
X91779Y-43018D01*
X91639Y-43018D01*
X91572Y-43018D01*
X91535Y-43033D01*
X91498Y-43018D01*
X91431Y-43018D01*
X91291Y-43018D01*
X91249Y-43060D01*
X91249Y-43302D01*
X91479Y-43302D01*
X91591Y-43302D01*
X91821Y-43302D01*
X91821Y-43320D01*
X91591Y-43320D01*
X91479Y-43320D01*
X91249Y-43320D01*
X91249Y-43328D01*
X91231Y-43328D01*
X91231Y-43320D01*
X91231Y-43302D01*
X91231Y-43060D01*
X91189Y-43018D01*
X91048Y-43018D01*
X90981Y-43018D01*
X90919Y-43044D01*
X90872Y-43091D01*
X90847Y-43153D01*
X90847Y-43260D01*
X90889Y-43302D01*
X91231Y-43302D01*
X91231Y-43320D01*
X90889Y-43320D01*
X90847Y-43362D01*
X90847Y-43470D01*
X90872Y-43531D01*
X90892Y-43552D01*
X90593Y-43552D01*
X90593Y-43189D01*
X90581Y-43128D01*
X90546Y-43076D01*
X90514Y-43044D01*
X90514Y-42812D01*
X90542Y-42784D01*
X90542Y-42725D01*
X90550Y-42705D01*
X90560Y-42728D01*
X90560Y-42784D01*
X90602Y-42826D01*
X90643Y-42826D01*
X90659Y-42819D01*
X90705Y-42850D01*
X90705Y-42850D01*
X90751Y-42859D01*
X90762Y-42861D01*
X90762Y-42861D01*
X90762Y-42861D01*
X90895Y-42861D01*
X90913Y-42904D01*
X90947Y-42938D01*
X90991Y-42956D01*
X91038Y-42956D01*
X91488Y-42956D01*
X91533Y-42938D01*
X91535Y-42936D01*
X91537Y-42938D01*
X91581Y-42956D01*
X91629Y-42956D01*
X92079Y-42956D01*
X92123Y-42938D01*
X92157Y-42904D01*
X92159Y-42898D01*
X92918Y-42898D01*
X92989Y-42884D01*
X93050Y-42843D01*
X93163Y-42730D01*
X93163Y-42730D01*
X93204Y-42669D01*
X93204Y-42669D01*
X93206Y-42658D01*
X93218Y-42598D01*
X93218Y-42598D01*
X93218Y-41962D01*
X93230Y-41950D01*
X93231Y-41954D01*
X93279Y-42001D01*
X93340Y-42026D01*
X93448Y-42026D01*
X93490Y-41984D01*
X93490Y-41642D01*
X93482Y-41642D01*
X93482Y-41624D01*
X93490Y-41624D01*
X93490Y-41616D01*
X93508Y-41616D01*
X93508Y-41624D01*
X93750Y-41624D01*
X93792Y-41582D01*
X93792Y-41442D01*
X93792Y-41375D01*
X93783Y-41355D01*
X93790Y-41361D01*
X93834Y-41379D01*
X93856Y-41379D01*
X93854Y-41384D01*
X93854Y-41432D01*
X93854Y-41882D01*
X93872Y-41926D01*
X93906Y-41960D01*
X93950Y-41978D01*
X93997Y-41978D01*
X94144Y-41978D01*
X94241Y-41978D01*
X94241Y-43552D01*
X94241Y-43552D01*
G37*
G54D55*
X94241Y-43552D02*
X94144Y-43552D01*
X94094Y-43552D01*
X93792Y-43552D01*
X93792Y-41825D01*
X93792Y-41684D01*
X93750Y-41642D01*
X93508Y-41642D01*
X93508Y-41984D01*
X93550Y-42026D01*
X93657Y-42026D01*
X93719Y-42001D01*
X93766Y-41954D01*
X93792Y-41892D01*
X93792Y-41825D01*
X93792Y-43552D01*
X92177Y-43552D01*
X92198Y-43531D01*
X92223Y-43470D01*
X92223Y-43153D01*
X92198Y-43091D01*
X92151Y-43044D01*
X92089Y-43018D01*
X92022Y-43018D01*
X91881Y-43018D01*
X91839Y-43060D01*
X91839Y-43302D01*
X92181Y-43302D01*
X92223Y-43260D01*
X92223Y-43153D01*
X92223Y-43470D01*
X92223Y-43362D01*
X92181Y-43320D01*
X91839Y-43320D01*
X91839Y-43328D01*
X91821Y-43328D01*
X91821Y-43320D01*
X91821Y-43302D01*
X91821Y-43060D01*
X91779Y-43018D01*
X91639Y-43018D01*
X91572Y-43018D01*
X91535Y-43033D01*
X91498Y-43018D01*
X91431Y-43018D01*
X91291Y-43018D01*
X91249Y-43060D01*
X91249Y-43302D01*
X91479Y-43302D01*
X91591Y-43302D01*
X91821Y-43302D01*
X91821Y-43320D01*
X91591Y-43320D01*
X91479Y-43320D01*
X91249Y-43320D01*
X91249Y-43328D01*
X91231Y-43328D01*
X91231Y-43320D01*
X91231Y-43302D01*
X91231Y-43060D01*
X91189Y-43018D01*
X91048Y-43018D01*
X90981Y-43018D01*
X90919Y-43044D01*
X90872Y-43091D01*
X90847Y-43153D01*
X90847Y-43260D01*
X90889Y-43302D01*
X91231Y-43302D01*
X91231Y-43320D01*
X90889Y-43320D01*
X90847Y-43362D01*
X90847Y-43470D01*
X90872Y-43531D01*
X90892Y-43552D01*
X90593Y-43552D01*
X90593Y-43189D01*
X90581Y-43128D01*
X90546Y-43076D01*
X90514Y-43044D01*
X90514Y-42812D01*
X90542Y-42784D01*
X90542Y-42725D01*
X90550Y-42705D01*
X90560Y-42728D01*
X90560Y-42784D01*
X90602Y-42826D01*
X90643Y-42826D01*
X90659Y-42819D01*
X90705Y-42850D01*
X90705Y-42850D01*
X90751Y-42859D01*
X90762Y-42861D01*
X90762Y-42861D01*
X90762Y-42861D01*
X90895Y-42861D01*
X90913Y-42904D01*
X90947Y-42938D01*
X90991Y-42956D01*
X91038Y-42956D01*
X91488Y-42956D01*
X91533Y-42938D01*
X91535Y-42936D01*
X91537Y-42938D01*
X91581Y-42956D01*
X91629Y-42956D01*
X92079Y-42956D01*
X92123Y-42938D01*
X92157Y-42904D01*
X92159Y-42898D01*
X92918Y-42898D01*
X92989Y-42884D01*
X93050Y-42843D01*
X93163Y-42730D01*
X93163Y-42730D01*
X93204Y-42669D01*
X93204Y-42669D01*
X93206Y-42658D01*
X93218Y-42598D01*
X93218Y-42598D01*
X93218Y-41962D01*
X93230Y-41950D01*
X93231Y-41954D01*
X93279Y-42001D01*
X93340Y-42026D01*
X93448Y-42026D01*
X93490Y-41984D01*
X93490Y-41642D01*
X93482Y-41642D01*
X93482Y-41624D01*
X93490Y-41624D01*
X93490Y-41616D01*
X93508Y-41616D01*
X93508Y-41624D01*
X93750Y-41624D01*
X93792Y-41582D01*
X93792Y-41442D01*
X93792Y-41375D01*
X93783Y-41355D01*
X93790Y-41361D01*
X93834Y-41379D01*
X93856Y-41379D01*
X93854Y-41384D01*
X93854Y-41432D01*
X93854Y-41882D01*
X93872Y-41926D01*
X93906Y-41960D01*
X93950Y-41978D01*
X93997Y-41978D01*
X94144Y-41978D01*
X94241Y-41978D01*
X94241Y-43552D01*
M02*
