G04 (created by PCBNEW (2013-jul-07)-stable) date Wed 09 Oct 2013 01:20:09 AM EDT*
%MOIN*%
G04 Gerber Fmt 3.4, Leading zero omitted, Abs format*
%FSLAX34Y34*%
G01*
G70*
G90*
G04 APERTURE LIST*
%ADD10C,0.00590551*%
%ADD11R,0.0275X0.1574*%
%ADD12R,0.120866X0.0889764*%
%ADD13R,0.109055X0.0889764*%
%ADD14C,0.0551*%
%ADD15C,0.1417*%
%ADD16C,0.0757*%
%ADD17R,0.0984252X0.279528*%
%ADD18R,0.0473X0.0118*%
%ADD19R,0.0118X0.0473*%
%ADD20R,0.0570866X0.173228*%
%ADD21R,0.0413386X0.0125984*%
%ADD22R,0.11811X0.165354*%
%ADD23R,0.0984X0.0709*%
%ADD24R,0.0709X0.0984*%
%ADD25R,0.0236X0.0551*%
%ADD26R,0.02X0.03*%
%ADD27R,0.05X0.0799213*%
%ADD28R,0.15X0.055*%
%ADD29R,0.06X0.08*%
%ADD30R,0.08X0.06*%
%ADD31R,0.035X0.055*%
%ADD32R,0.055X0.035*%
%ADD33R,0.025X0.045*%
%ADD34R,0.045X0.025*%
%ADD35R,0.0315X0.0315*%
%ADD36R,0.0240157X0.0598425*%
%ADD37R,0.1378X0.0945*%
%ADD38R,0.1575X0.0945*%
%ADD39R,0.0944X0.025*%
%ADD40R,0.011811X0.015748*%
%ADD41R,0.0433X0.0236*%
%ADD42R,0.173228X0.0570866*%
%ADD43R,0.0413386X0.0511811*%
%ADD44R,0.0118X0.059*%
%ADD45R,0.059X0.0118*%
%ADD46R,0.0236X0.0236*%
G04 APERTURE END LIST*
G54D10*
G54D11*
X77441Y-45787D03*
X77834Y-45787D03*
X78228Y-45787D03*
X78622Y-45787D03*
X79015Y-45787D03*
X79409Y-45787D03*
X79803Y-45787D03*
X80197Y-45787D03*
X80590Y-45787D03*
X80984Y-45787D03*
X81378Y-45787D03*
X82559Y-45787D03*
X82952Y-45787D03*
X83346Y-45787D03*
X83740Y-45787D03*
X84134Y-45787D03*
X84527Y-45787D03*
X84921Y-45787D03*
X85315Y-45787D03*
X85708Y-45787D03*
X86102Y-45787D03*
X86496Y-45787D03*
X86889Y-45787D03*
X87283Y-45787D03*
X87677Y-45787D03*
X88071Y-45787D03*
X88464Y-45787D03*
X88858Y-45787D03*
X89252Y-45787D03*
X89645Y-45787D03*
X90039Y-45787D03*
X90433Y-45787D03*
G54D12*
X83620Y-36937D03*
X86458Y-36937D03*
G54D13*
X85039Y-32748D03*
G54D14*
X84077Y-26602D03*
X83677Y-27602D03*
X83277Y-26602D03*
X82877Y-27602D03*
X82477Y-26602D03*
X82077Y-27602D03*
X81677Y-26602D03*
X81277Y-27602D03*
X85377Y-25652D03*
X84477Y-25652D03*
X80877Y-25652D03*
X79977Y-25652D03*
G54D15*
X85177Y-27952D03*
X80177Y-27952D03*
G54D16*
X79477Y-26282D03*
X85877Y-26282D03*
G54D17*
X73641Y-28543D03*
X71830Y-28543D03*
G54D18*
X91535Y-41633D03*
X91535Y-41437D03*
X91535Y-41240D03*
X91535Y-41043D03*
X91535Y-40846D03*
X91535Y-40649D03*
X91535Y-40452D03*
X91535Y-40256D03*
X91535Y-40059D03*
X91535Y-39862D03*
X91535Y-39665D03*
X91535Y-39468D03*
X91535Y-39271D03*
X91535Y-39074D03*
X91535Y-38878D03*
X91535Y-38681D03*
G54D19*
X90747Y-37893D03*
X90551Y-37893D03*
X90354Y-37893D03*
X90157Y-37893D03*
X89960Y-37893D03*
X89763Y-37893D03*
X89566Y-37893D03*
X89370Y-37893D03*
X89173Y-37893D03*
X88976Y-37893D03*
X88779Y-37893D03*
X88582Y-37893D03*
X88385Y-37893D03*
X88188Y-37893D03*
X87992Y-37893D03*
X87795Y-37893D03*
G54D18*
X87007Y-38681D03*
X87007Y-38878D03*
X87007Y-39074D03*
X87007Y-39271D03*
X87007Y-39468D03*
X87007Y-39665D03*
X87007Y-39862D03*
X87007Y-40059D03*
X87007Y-40256D03*
X87007Y-40452D03*
X87007Y-40649D03*
X87007Y-40846D03*
X87007Y-41043D03*
X87007Y-41240D03*
X87007Y-41437D03*
X87007Y-41633D03*
G54D19*
X87795Y-42421D03*
X87992Y-42421D03*
X88188Y-42421D03*
X88385Y-42421D03*
X88582Y-42421D03*
X88779Y-42421D03*
X88976Y-42421D03*
X89173Y-42421D03*
X89370Y-42421D03*
X89566Y-42421D03*
X89763Y-42421D03*
X89960Y-42421D03*
X90157Y-42421D03*
X90354Y-42421D03*
X90551Y-42421D03*
X90747Y-42421D03*
G54D20*
X71377Y-40846D03*
X72519Y-40846D03*
G54D21*
X74970Y-35206D03*
X74970Y-34950D03*
X74970Y-34694D03*
X74970Y-34438D03*
X74970Y-34183D03*
X74970Y-33927D03*
X74970Y-33671D03*
X74970Y-33415D03*
X74970Y-33159D03*
X74970Y-32903D03*
X72667Y-32903D03*
X72667Y-33159D03*
X72667Y-33415D03*
X72667Y-33671D03*
X72667Y-33927D03*
X72667Y-34183D03*
X72667Y-34438D03*
X72667Y-34694D03*
X72667Y-34950D03*
X72667Y-35206D03*
G54D22*
X73818Y-34055D03*
G54D23*
X76574Y-28740D03*
X75000Y-28740D03*
G54D24*
X77559Y-31298D03*
X77559Y-29724D03*
X81692Y-31298D03*
X81692Y-29724D03*
X78937Y-29724D03*
X78937Y-31298D03*
X80314Y-29724D03*
X80314Y-31298D03*
X87204Y-31298D03*
X87204Y-29724D03*
X83070Y-31298D03*
X83070Y-29724D03*
X85826Y-29724D03*
X85826Y-31298D03*
X84448Y-29724D03*
X84448Y-31298D03*
G54D25*
X75234Y-36548D03*
X75234Y-38648D03*
X75734Y-36548D03*
X76234Y-36548D03*
X76734Y-36548D03*
X75734Y-38648D03*
X76234Y-38648D03*
X76734Y-38648D03*
G54D26*
X75867Y-43988D03*
X75117Y-43988D03*
X75867Y-44988D03*
X75492Y-43988D03*
X75117Y-44988D03*
G54D27*
X77952Y-32870D03*
X78937Y-32870D03*
X79921Y-32870D03*
X80905Y-32870D03*
X81889Y-32870D03*
X81889Y-39570D03*
X80905Y-39570D03*
X79921Y-39570D03*
X78937Y-39570D03*
X77952Y-39570D03*
G54D25*
X77891Y-40682D03*
X77891Y-42782D03*
X78391Y-40682D03*
X78891Y-40682D03*
X79391Y-40682D03*
X78391Y-42782D03*
X78891Y-42782D03*
X79391Y-42782D03*
X81238Y-40583D03*
X81238Y-42683D03*
X81738Y-40583D03*
X82238Y-40583D03*
X82738Y-40583D03*
X81738Y-42683D03*
X82238Y-42683D03*
X82738Y-42683D03*
G54D28*
X74803Y-41029D03*
X74803Y-42829D03*
G54D29*
X74468Y-36712D03*
X73168Y-36712D03*
G54D30*
X74212Y-39134D03*
X74212Y-37834D03*
G54D31*
X83483Y-43110D03*
X84233Y-43110D03*
X71770Y-43700D03*
X72520Y-43700D03*
G54D32*
X76082Y-42144D03*
X76082Y-42894D03*
X76968Y-43189D03*
X76968Y-42439D03*
G54D31*
X71278Y-42716D03*
X72028Y-42716D03*
G54D32*
X75472Y-46634D03*
X75472Y-45884D03*
G54D31*
X71475Y-30413D03*
X72225Y-30413D03*
X71475Y-31102D03*
X72225Y-31102D03*
G54D32*
X72047Y-37617D03*
X72047Y-38367D03*
G54D31*
X84134Y-41240D03*
X83384Y-41240D03*
G54D32*
X71555Y-32991D03*
X71555Y-33741D03*
G54D33*
X77170Y-41732D03*
X76570Y-41732D03*
G54D34*
X72637Y-42514D03*
X72637Y-43114D03*
G54D33*
X74709Y-44685D03*
X74109Y-44685D03*
X75093Y-43503D03*
X75693Y-43503D03*
X74995Y-39271D03*
X75595Y-39271D03*
X74709Y-44094D03*
X74109Y-44094D03*
X74670Y-46062D03*
X74070Y-46062D03*
X71353Y-35531D03*
X71953Y-35531D03*
X94099Y-41633D03*
X93499Y-41633D03*
X94099Y-39448D03*
X93499Y-39448D03*
G54D34*
X76377Y-34059D03*
X76377Y-33459D03*
G54D33*
X72642Y-32381D03*
X72042Y-32381D03*
X74109Y-43503D03*
X74709Y-43503D03*
X75979Y-31102D03*
X76579Y-31102D03*
X74020Y-26771D03*
X73420Y-26771D03*
G54D34*
X75590Y-33075D03*
X75590Y-32475D03*
G54D33*
X74404Y-35629D03*
X75004Y-35629D03*
G54D34*
X72834Y-37495D03*
X72834Y-38095D03*
G54D33*
X84118Y-42480D03*
X83518Y-42480D03*
X73125Y-40255D03*
X73725Y-40255D03*
G54D34*
X71358Y-39374D03*
X71358Y-38774D03*
X75787Y-34059D03*
X75787Y-33459D03*
X71358Y-34847D03*
X71358Y-34247D03*
X71948Y-34847D03*
X71948Y-34247D03*
X75787Y-35034D03*
X75787Y-35634D03*
G54D33*
X76874Y-39271D03*
X76274Y-39271D03*
X75881Y-40551D03*
X76481Y-40551D03*
X74995Y-39960D03*
X75595Y-39960D03*
G54D35*
X71475Y-36909D03*
X72027Y-36909D03*
X71751Y-36122D03*
G54D36*
X73675Y-43572D03*
X73175Y-43572D03*
X73175Y-41072D03*
X73675Y-41072D03*
G54D37*
X85827Y-39173D03*
X83267Y-39173D03*
G54D38*
X77952Y-25885D03*
X74802Y-25885D03*
G54D39*
X90554Y-28127D03*
X90554Y-27627D03*
X90554Y-27127D03*
X90554Y-26627D03*
X90554Y-26127D03*
X90554Y-25627D03*
X90554Y-25127D03*
X90554Y-24627D03*
X87398Y-24627D03*
X87398Y-25127D03*
X87398Y-25627D03*
X87398Y-26127D03*
X87398Y-26627D03*
X87398Y-27127D03*
X87398Y-27627D03*
X87398Y-28127D03*
G54D40*
X74133Y-41633D03*
X73897Y-41633D03*
G54D34*
X93503Y-28449D03*
X93503Y-27849D03*
X92913Y-28449D03*
X92913Y-27849D03*
X92913Y-27465D03*
X92913Y-26865D03*
G54D33*
X89266Y-29330D03*
X89866Y-29330D03*
G54D34*
X91456Y-27416D03*
X91456Y-28016D03*
X92047Y-27613D03*
X92047Y-28213D03*
G54D33*
X91441Y-24015D03*
X90841Y-24015D03*
G54D34*
X93700Y-27229D03*
X93700Y-26629D03*
X92421Y-38873D03*
X92421Y-39473D03*
X91240Y-42711D03*
X91240Y-43311D03*
X87795Y-36422D03*
X87795Y-35822D03*
X86318Y-42327D03*
X86318Y-41727D03*
X91830Y-42711D03*
X91830Y-43311D03*
X90157Y-36520D03*
X90157Y-35920D03*
G54D33*
X90251Y-37106D03*
X90851Y-37106D03*
G54D41*
X90787Y-35846D03*
X90787Y-36220D03*
X90787Y-36594D03*
X91889Y-36594D03*
X91889Y-35846D03*
G54D42*
X93208Y-35255D03*
X93208Y-36397D03*
G54D43*
X94064Y-41003D03*
X94064Y-40098D03*
X93336Y-40098D03*
X93336Y-41003D03*
G54D34*
X80708Y-43302D03*
X80708Y-43902D03*
G54D31*
X84134Y-41830D03*
X83384Y-41830D03*
G54D33*
X80614Y-42224D03*
X80014Y-42224D03*
X78646Y-43503D03*
X78046Y-43503D03*
G54D32*
X75295Y-30493D03*
X75295Y-29743D03*
X76476Y-30493D03*
X76476Y-29743D03*
G54D33*
X80014Y-41338D03*
X80614Y-41338D03*
G54D44*
X92381Y-30492D03*
X92184Y-30492D03*
X91987Y-30492D03*
X91791Y-30492D03*
X91594Y-30492D03*
X91397Y-30492D03*
X91201Y-30492D03*
X91004Y-30492D03*
X90807Y-30492D03*
X90611Y-30492D03*
X90414Y-30492D03*
X90217Y-30492D03*
G54D45*
X89626Y-31083D03*
X89626Y-31280D03*
X89626Y-31477D03*
X89626Y-31673D03*
X89626Y-31870D03*
X89626Y-32067D03*
X89626Y-32263D03*
X89626Y-32460D03*
X89626Y-32657D03*
X89626Y-32853D03*
X89626Y-33050D03*
X89626Y-33247D03*
G54D44*
X90217Y-33838D03*
X90414Y-33838D03*
X90611Y-33838D03*
X90807Y-33838D03*
X91004Y-33838D03*
X91201Y-33838D03*
X91397Y-33838D03*
X91594Y-33838D03*
X91791Y-33838D03*
X91987Y-33838D03*
X92184Y-33838D03*
X92381Y-33838D03*
G54D45*
X92972Y-33247D03*
X92972Y-33050D03*
X92972Y-32853D03*
X92972Y-32657D03*
X92972Y-32460D03*
X92972Y-32263D03*
X92972Y-32067D03*
X92972Y-31870D03*
X92972Y-31673D03*
X92972Y-31477D03*
X92972Y-31280D03*
X92972Y-31083D03*
G54D32*
X93779Y-33562D03*
X93779Y-34312D03*
X89251Y-34705D03*
X89251Y-33955D03*
G54D34*
X91377Y-29827D03*
X91377Y-29227D03*
G54D33*
X91559Y-34527D03*
X90959Y-34527D03*
X89936Y-34724D03*
X90536Y-34724D03*
G54D34*
X93110Y-33637D03*
X93110Y-34237D03*
X92007Y-29827D03*
X92007Y-29227D03*
X92637Y-29827D03*
X92637Y-29227D03*
G54D32*
X93503Y-30178D03*
X93503Y-29428D03*
G54D46*
X80708Y-40669D03*
X79842Y-40669D03*
X79783Y-42913D03*
X80649Y-42913D03*
X72145Y-38838D03*
X72145Y-39704D03*
X74803Y-45472D03*
X73937Y-45472D03*
X72834Y-38838D03*
X72834Y-39704D03*
X71358Y-37460D03*
X71358Y-38326D03*
X76043Y-39862D03*
X76909Y-39862D03*
X73937Y-46692D03*
X74803Y-46692D03*
M02*
