M48
;DRILL file {Pcbnew (2013-jul-07)-stable} date Thu 13 Feb 2014 02:22:21 AM EST
;FORMAT={-:-/ absolute / inch / decimal}
FMAT,2
INCH,TZ
T1C0.013
T2C0.020
T3C0.025
T4C0.035
T5C0.062
T6C0.128
%
G90
G05
M72
T1
X7.2441Y-3.6909
X7.5492Y-4.0453
X7.5787Y-4.5433
X8.0906Y-4.2874
X8.3071Y-4.2028
X8.4528Y-3.9469
X8.5394Y-3.5
X8.5787Y-4.1732
X8.5827Y-4.2126
X8.6299Y-4.0276
X8.6496Y-3.622
X8.7323Y-3.5827
X8.7539Y-4.
X8.7835Y-4.1457
X8.7854Y-4.
X8.7874Y-3.878
X8.8169Y-4.
X8.8189Y-3.8701
X8.8406Y-4.124
X8.8622Y-3.9173
X8.872Y-4.124
X8.8839Y-3.6949
X8.8996Y-3.6476
X8.9035Y-4.124
X8.9055Y-2.8583
X8.9055Y-3.1772
X8.9055Y-3.5354
X8.9154Y-3.6949
X8.935Y-4.124
X8.9449Y-3.5157
X8.9665Y-4.124
X8.9882Y-3.6909
X8.998Y-4.124
X9.0236Y-4.1063
X9.0433Y-3.8425
X9.0433Y-4.0807
X9.0787Y-3.5571
X9.0846Y-4.0807
X9.0945Y-3.1457
X9.1024Y-3.3189
X9.1063Y-3.2323
X9.1339Y-4.2224
X9.1535Y-3.5354
X9.1614Y-3.3228
X9.1654Y-3.2913
X9.1693Y-4.2283
X9.2008Y-3.2638
X9.2008Y-4.2264
X9.2028Y-3.7756
X9.2028Y-3.9685
X9.2047Y-3.2953
X9.2224Y-4.0295
X9.2244Y-3.1693
X9.2283Y-4.2126
X9.2362Y-3.7756
X9.2402Y-3.9823
X9.2677Y-4.0295
X9.3012Y-3.9528
X9.3228Y-2.9291
X9.3701Y-3.0906
X9.4114Y-3.8878
T2
X7.126Y-3.6024
X7.1358Y-3.9764
X7.1358Y-4.4291
X7.1575Y-4.3307
X7.3228Y-3.2677
X7.3228Y-3.3071
X7.3425Y-3.75
X7.3622Y-3.2677
X7.3622Y-3.3071
X7.3622Y-3.5531
X7.3622Y-4.1634
X7.4016Y-3.2677
X7.4016Y-3.3071
X7.4213Y-4.0453
X7.4409Y-3.2677
X7.4409Y-3.3071
X7.4606Y-3.0945
X7.4606Y-3.9764
X7.4803Y-3.8583
X7.4961Y-4.0512
X7.5Y-3.8091
X7.5197Y-4.3858
X7.5394Y-3.2087
X7.5591Y-3.7106
X7.5591Y-3.7598
X7.5984Y-3.7106
X7.6083Y-2.9331
X7.6181Y-3.8091
X7.628Y-3.2776
X7.628Y-3.4843
X7.628Y-3.563
X7.6476Y-3.7106
X7.6575Y-3.7992
X7.6969Y-3.3268
X7.6969Y-3.3858
X7.6969Y-3.7106
X7.7165Y-3.6548
X7.7165Y-3.75
X7.7283Y-3.5315
X7.7362Y-3.4055
X7.7362Y-3.4528
X7.752Y-4.4488
X7.7559Y-3.563
X7.7598Y-4.3425
X7.8031Y-4.4252
X7.8071Y-3.5827
X7.8386Y-3.3898
X7.8386Y-4.122
X7.8642Y-3.6417
X7.8898Y-4.122
X7.8898Y-4.1654
X7.9409Y-4.122
X7.9409Y-4.1693
X7.9843Y-4.4724
X8.0217Y-3.3858
X8.063Y-4.4724
X8.1201Y-4.1339
X8.1398Y-4.0059
X8.1594Y-4.1043
X8.189Y-4.1339
X8.2185Y-4.1043
X8.2382Y-4.0059
X8.2677Y-4.1634
X8.2776Y-4.0059
X8.376Y-2.9035
X8.4646Y-4.0827
X8.7283Y-3.8228
X8.7756Y-2.7126
X8.7795Y-2.5197
X8.7874Y-3.6969
X8.9094Y-3.1181
X9.0787Y-3.9528
X9.1063Y-2.4488
X9.1457Y-3.1457
X9.1909Y-3.624
X9.1969Y-3.4409
X9.3031Y-4.1732
X9.4114Y-4.2165
T3
X9.3268Y-3.7362
X9.3386Y-3.8465
T4
X7.9977Y-2.5653
X8.0877Y-2.5653
X8.1277Y-2.7603
X8.1677Y-2.6603
X8.2077Y-2.7603
X8.2477Y-2.6603
X8.2877Y-2.7603
X8.3277Y-2.6603
X8.3677Y-2.7603
X8.4077Y-2.6603
X8.4477Y-2.5653
X8.5377Y-2.5653
T5
X7.9477Y-2.6283
X8.5877Y-2.6283
T6
X8.0177Y-2.7953
X8.5177Y-2.7953
T0
M30
