G04 (created by PCBNEW (2013-jul-07)-stable) date Thu 13 Feb 2014 02:22:19 AM EST*
%MOIN*%
G04 Gerber Fmt 3.4, Leading zero omitted, Abs format*
%FSLAX34Y34*%
G01*
G70*
G90*
G04 APERTURE LIST*
%ADD10C,0.00590551*%
%ADD11R,0.0275X0.1574*%
%ADD12C,0.0551*%
%ADD13C,0.1417*%
%ADD14C,0.0757*%
%ADD15C,0.023*%
%ADD16C,0.035*%
%ADD17C,0.0133858*%
%ADD18C,0.006*%
%ADD19C,0.01*%
%ADD20C,0.00984252*%
%ADD21C,0.019685*%
%ADD22C,0.008*%
%ADD23C,0.0114173*%
G04 APERTURE END LIST*
G54D10*
G54D11*
X77441Y-45787D03*
X77834Y-45787D03*
X78228Y-45787D03*
X78622Y-45787D03*
X79015Y-45787D03*
X79409Y-45787D03*
X79803Y-45787D03*
X80197Y-45787D03*
X80590Y-45787D03*
X80984Y-45787D03*
X81378Y-45787D03*
X82559Y-45787D03*
X82952Y-45787D03*
X83346Y-45787D03*
X83740Y-45787D03*
X84134Y-45787D03*
X84527Y-45787D03*
X84921Y-45787D03*
X85315Y-45787D03*
X85708Y-45787D03*
X86102Y-45787D03*
X86496Y-45787D03*
X86889Y-45787D03*
X87283Y-45787D03*
X87677Y-45787D03*
X88071Y-45787D03*
X88464Y-45787D03*
X88858Y-45787D03*
X89252Y-45787D03*
X89645Y-45787D03*
X90039Y-45787D03*
X90433Y-45787D03*
G54D12*
X84077Y-26602D03*
X83677Y-27602D03*
X83277Y-26602D03*
X82877Y-27602D03*
X82477Y-26602D03*
X82077Y-27602D03*
X81677Y-26602D03*
X81277Y-27602D03*
X85377Y-25652D03*
X84477Y-25652D03*
X80877Y-25652D03*
X79977Y-25652D03*
G54D13*
X85177Y-27952D03*
X80177Y-27952D03*
G54D14*
X79477Y-26282D03*
X85877Y-26282D03*
G54D15*
X86496Y-36220D03*
G54D16*
X91968Y-34409D03*
G54D15*
X89448Y-35157D03*
G54D16*
X93031Y-41732D03*
X80629Y-44724D03*
X93385Y-38464D03*
X91909Y-36240D03*
G54D15*
X89881Y-36909D03*
X85826Y-42125D03*
G54D16*
X77519Y-44488D03*
G54D15*
X75787Y-45433D03*
G54D16*
X71358Y-44291D03*
X84645Y-40826D03*
G54D15*
X90787Y-35570D03*
X75492Y-40452D03*
G54D16*
X73622Y-41633D03*
X76968Y-33267D03*
X71259Y-36023D03*
X76279Y-34842D03*
X74606Y-39763D03*
X77362Y-34527D03*
X75590Y-37598D03*
X73425Y-37500D03*
X76968Y-33858D03*
G54D15*
X87539Y-40000D03*
X87854Y-40000D03*
X88169Y-40000D03*
X88405Y-41240D03*
X88720Y-41240D03*
X89035Y-41240D03*
X89350Y-41240D03*
X89665Y-41240D03*
X89980Y-41240D03*
X90236Y-41062D03*
X90433Y-40807D03*
X90846Y-40807D03*
X92027Y-39685D03*
X92401Y-39822D03*
X92224Y-40295D03*
X92677Y-40295D03*
X92283Y-42125D03*
X92007Y-42263D03*
X91692Y-42283D03*
X91338Y-42224D03*
G54D16*
X87283Y-38228D03*
G54D15*
X91023Y-33188D03*
G54D16*
X89094Y-31181D03*
G54D15*
X89055Y-31771D03*
X84527Y-39468D03*
X85393Y-35000D03*
X93700Y-30905D03*
X86299Y-40275D03*
G54D16*
X91062Y-24488D03*
G54D15*
X88622Y-39173D03*
X88838Y-36948D03*
X92362Y-37755D03*
X92007Y-32637D03*
X89055Y-35354D03*
X88996Y-36476D03*
X93011Y-39527D03*
X92027Y-37755D03*
X89153Y-36948D03*
X91653Y-32913D03*
X87874Y-38779D03*
X88188Y-38700D03*
X92047Y-32952D03*
G54D16*
X87874Y-36968D03*
G54D15*
X91614Y-33228D03*
X89055Y-28582D03*
X90944Y-31456D03*
G54D16*
X78385Y-33897D03*
X78641Y-36417D03*
X78070Y-35826D03*
X74606Y-30944D03*
X74960Y-40511D03*
G54D15*
X72440Y-36909D03*
G54D16*
X76279Y-32775D03*
X77362Y-34055D03*
X77283Y-35314D03*
X71358Y-39763D03*
X73622Y-35531D03*
X77165Y-37500D03*
X76279Y-35629D03*
X75393Y-32086D03*
X76082Y-29330D03*
X73228Y-32677D03*
X73622Y-32677D03*
X74015Y-32677D03*
X74409Y-32677D03*
X74409Y-33070D03*
X74015Y-33070D03*
X73622Y-33070D03*
X73228Y-33070D03*
X82677Y-41633D03*
X81200Y-41338D03*
X79409Y-41692D03*
X78897Y-41653D03*
X78385Y-41220D03*
X78897Y-41220D03*
X79409Y-41220D03*
G54D15*
X80905Y-42874D03*
G54D16*
X81397Y-40059D03*
X82775Y-40059D03*
X82381Y-40059D03*
X81594Y-41043D03*
X82185Y-41043D03*
X81889Y-41338D03*
X77165Y-36548D03*
X76968Y-37106D03*
X76476Y-37106D03*
X75984Y-37106D03*
X75590Y-37106D03*
G54D15*
X87834Y-41456D03*
X91062Y-32322D03*
X92244Y-31692D03*
X83070Y-42027D03*
G54D16*
X93267Y-37362D03*
X79842Y-44724D03*
G54D15*
X85787Y-41732D03*
X91535Y-35354D03*
G54D16*
X90787Y-39527D03*
G54D15*
X90433Y-38425D03*
G54D16*
X94114Y-42165D03*
G54D15*
X94114Y-38877D03*
X87322Y-35826D03*
G54D16*
X77559Y-35629D03*
X74803Y-38582D03*
X75000Y-38090D03*
X76181Y-38090D03*
X76574Y-37992D03*
X87755Y-27125D03*
X71574Y-43307D03*
X75196Y-43858D03*
X77598Y-43425D03*
X78031Y-44251D03*
X87795Y-25196D03*
X83759Y-29035D03*
X74212Y-40452D03*
X80216Y-33858D03*
X91456Y-31456D03*
G54D15*
X93228Y-29291D03*
G54D17*
X83858Y-38858D02*
X83858Y-41371D01*
X85649Y-41417D02*
X85582Y-41484D01*
X85582Y-41484D02*
X83971Y-41484D01*
X83971Y-41484D02*
X83858Y-41371D01*
X85925Y-41417D02*
X85649Y-41417D01*
X86496Y-36220D02*
X83858Y-38858D01*
G54D18*
X91377Y-24094D02*
X91377Y-25826D01*
X85433Y-23818D02*
X91102Y-23818D01*
X91102Y-23818D02*
X91377Y-24094D01*
X85137Y-24114D02*
X85433Y-23818D01*
X94212Y-34409D02*
X93700Y-34921D01*
X94212Y-27559D02*
X94212Y-34409D01*
X93503Y-26850D02*
X94212Y-27559D01*
X92401Y-26850D02*
X93503Y-26850D01*
X91377Y-25826D02*
X92401Y-26850D01*
G54D17*
X91968Y-34921D02*
X91968Y-34409D01*
G54D18*
X85118Y-24114D02*
X85137Y-24114D01*
G54D17*
X85925Y-41417D02*
X85925Y-41279D01*
X85925Y-41279D02*
X87047Y-40157D01*
X87047Y-40157D02*
X87047Y-40000D01*
X87047Y-40000D02*
X87362Y-39685D01*
X87362Y-39685D02*
X90078Y-39685D01*
X90078Y-39685D02*
X90314Y-39921D01*
X90314Y-39921D02*
X91023Y-39921D01*
X91023Y-39921D02*
X91614Y-39330D01*
X91614Y-39330D02*
X92322Y-39330D01*
X92322Y-39330D02*
X93385Y-40393D01*
X91023Y-35157D02*
X89448Y-35157D01*
X91259Y-34921D02*
X91968Y-34921D01*
X91023Y-35157D02*
X91259Y-34921D01*
X93385Y-38228D02*
X93385Y-38236D01*
X93964Y-37657D02*
X93385Y-38236D01*
X93964Y-35106D02*
X93964Y-37657D01*
X93779Y-34921D02*
X93964Y-35106D01*
X93700Y-34921D02*
X93779Y-34921D01*
X91968Y-34921D02*
X93700Y-34921D01*
X86082Y-41870D02*
X85826Y-42125D01*
X86082Y-41870D02*
X86082Y-41574D01*
X86082Y-41574D02*
X85925Y-41417D01*
X93031Y-41732D02*
X93385Y-41377D01*
X93385Y-41377D02*
X93385Y-40393D01*
X93385Y-40393D02*
X93385Y-38464D01*
X84370Y-43582D02*
X85826Y-42125D01*
X81653Y-43582D02*
X84370Y-43582D01*
X81259Y-43976D02*
X81653Y-43582D01*
X81259Y-44094D02*
X81259Y-43976D01*
X80629Y-44724D02*
X81259Y-44094D01*
X91909Y-36240D02*
X91909Y-37165D01*
X91909Y-37165D02*
X91889Y-37165D01*
X93385Y-38228D02*
X93385Y-38110D01*
X92440Y-37165D02*
X91889Y-37165D01*
X93385Y-38110D02*
X92440Y-37165D01*
X91023Y-37165D02*
X91889Y-37165D01*
X90767Y-36909D02*
X91023Y-37165D01*
X89881Y-36909D02*
X90767Y-36909D01*
X93385Y-38464D02*
X93385Y-38228D01*
G54D19*
X85118Y-24114D02*
X80511Y-24114D01*
X79977Y-24648D02*
X79977Y-25652D01*
X80511Y-24114D02*
X79977Y-24648D01*
G54D20*
X84477Y-24774D02*
X85137Y-24114D01*
X84477Y-25652D02*
X84477Y-24774D01*
X75944Y-43582D02*
X75236Y-44291D01*
X77244Y-43582D02*
X75944Y-43582D01*
X77519Y-43858D02*
X77244Y-43582D01*
X77519Y-44488D02*
X77519Y-43858D01*
X75787Y-45433D02*
X75787Y-44842D01*
X75787Y-44842D02*
X75236Y-44291D01*
X75236Y-44291D02*
X71358Y-44291D01*
G54D17*
X90787Y-35570D02*
X89468Y-35570D01*
X84173Y-39370D02*
X84173Y-40354D01*
X84173Y-40354D02*
X84645Y-40826D01*
X88464Y-36574D02*
X88464Y-38937D01*
X84527Y-39015D02*
X84173Y-39370D01*
X85393Y-39015D02*
X84527Y-39015D01*
X85511Y-39133D02*
X85393Y-39015D01*
X88267Y-39133D02*
X85511Y-39133D01*
X88464Y-38937D02*
X88267Y-39133D01*
X89468Y-35570D02*
X88464Y-36574D01*
G54D20*
X76377Y-33858D02*
X76279Y-33858D01*
X72440Y-36023D02*
X71259Y-36023D01*
X73228Y-35236D02*
X72440Y-36023D01*
X74901Y-35236D02*
X73228Y-35236D01*
X76279Y-33858D02*
X74901Y-35236D01*
X74311Y-41633D02*
X73622Y-41633D01*
X75492Y-40452D02*
X74311Y-41633D01*
G54D19*
X73622Y-41633D02*
X72165Y-41633D01*
X72165Y-41633D02*
X71062Y-40531D01*
X71062Y-40531D02*
X71062Y-36220D01*
X71062Y-36220D02*
X71259Y-36023D01*
X76968Y-33267D02*
X76377Y-33858D01*
X76279Y-34842D02*
X76279Y-34940D01*
X74311Y-39468D02*
X74606Y-39763D01*
X74311Y-36909D02*
X74311Y-39468D01*
X76279Y-34940D02*
X74311Y-36909D01*
G54D20*
X77362Y-34527D02*
X77362Y-34724D01*
X76771Y-35708D02*
X76437Y-36043D01*
X76771Y-35314D02*
X76771Y-35708D01*
X77362Y-34724D02*
X76771Y-35314D01*
G54D19*
X75000Y-37007D02*
X75000Y-36909D01*
X75590Y-37598D02*
X75000Y-37007D01*
X76437Y-36043D02*
X75866Y-36043D01*
X75866Y-36043D02*
X75000Y-36909D01*
X73425Y-37470D02*
X73425Y-37500D01*
X75688Y-35206D02*
X73425Y-37470D01*
X75688Y-34940D02*
X75688Y-35206D01*
X76181Y-34448D02*
X75688Y-34940D01*
X76377Y-34448D02*
X76181Y-34448D01*
X76968Y-33858D02*
X76377Y-34448D01*
G54D18*
X82952Y-44763D02*
X82952Y-45787D01*
X83307Y-44409D02*
X82952Y-44763D01*
X84015Y-44409D02*
X83307Y-44409D01*
X86496Y-41929D02*
X84015Y-44409D01*
X86496Y-41043D02*
X86496Y-41929D01*
X87539Y-40000D02*
X86496Y-41043D01*
X83346Y-44743D02*
X83346Y-45787D01*
X83551Y-44539D02*
X83346Y-44743D01*
X84069Y-44539D02*
X83551Y-44539D01*
X86626Y-41982D02*
X84069Y-44539D01*
X86626Y-41228D02*
X86626Y-41982D01*
X87854Y-40000D02*
X86626Y-41228D01*
X83740Y-44802D02*
X83740Y-45787D01*
X83873Y-44669D02*
X83740Y-44802D01*
X84123Y-44669D02*
X83873Y-44669D01*
X86756Y-42036D02*
X84123Y-44669D01*
X86756Y-41413D02*
X86756Y-42036D01*
X88169Y-40000D02*
X86756Y-41413D01*
X84134Y-44940D02*
X84134Y-45787D01*
X84846Y-44228D02*
X84134Y-44940D01*
X85515Y-44228D02*
X84846Y-44228D01*
X86704Y-43038D02*
X85515Y-44228D01*
X87413Y-43038D02*
X86704Y-43038D01*
X88405Y-42046D02*
X87413Y-43038D01*
X88405Y-41240D02*
X88405Y-42046D01*
X88405Y-41240D02*
X88405Y-41240D01*
X84527Y-44973D02*
X84527Y-45787D01*
X85143Y-44358D02*
X84527Y-44973D01*
X85569Y-44358D02*
X85143Y-44358D01*
X86758Y-43168D02*
X85569Y-44358D01*
X87466Y-43168D02*
X86758Y-43168D01*
X88713Y-41922D02*
X87466Y-43168D01*
X88713Y-41247D02*
X88713Y-41922D01*
X88720Y-41240D02*
X88713Y-41247D01*
X84921Y-44763D02*
X84921Y-45787D01*
X85196Y-44488D02*
X84921Y-44763D01*
X85622Y-44488D02*
X85196Y-44488D01*
X86812Y-43298D02*
X85622Y-44488D01*
X87520Y-43298D02*
X86812Y-43298D01*
X89031Y-41787D02*
X87520Y-43298D01*
X89031Y-41243D02*
X89031Y-41787D01*
X89035Y-41240D02*
X89031Y-41243D01*
X85315Y-44979D02*
X85315Y-45787D01*
X86866Y-43428D02*
X85315Y-44979D01*
X87574Y-43428D02*
X86866Y-43428D01*
X89350Y-41653D02*
X87574Y-43428D01*
X89350Y-41240D02*
X89350Y-41653D01*
X89350Y-41240D02*
X89350Y-41240D01*
X85708Y-45787D02*
X85708Y-44769D01*
X87628Y-43558D02*
X86919Y-43558D01*
X89668Y-41518D02*
X87628Y-43558D01*
X89668Y-41243D02*
X89668Y-41518D01*
X89665Y-41240D02*
X89668Y-41243D01*
X85708Y-44769D02*
X86919Y-43558D01*
X87682Y-43688D02*
X86973Y-43688D01*
X89967Y-41404D02*
X87682Y-43688D01*
X89967Y-41253D02*
X89967Y-41404D01*
X89980Y-41240D02*
X89967Y-41253D01*
X86102Y-44559D02*
X86102Y-45787D01*
X86973Y-43688D02*
X86102Y-44559D01*
X86496Y-44349D02*
X86496Y-45787D01*
X87027Y-43818D02*
X86496Y-44349D01*
X87736Y-43818D02*
X87027Y-43818D01*
X90236Y-41318D02*
X87736Y-43818D01*
X90236Y-41062D02*
X90236Y-41318D01*
X86889Y-44887D02*
X86889Y-45787D01*
X90518Y-41258D02*
X86889Y-44887D01*
X90518Y-40892D02*
X90518Y-41258D01*
X90433Y-40807D02*
X90518Y-40892D01*
X87283Y-44677D02*
X87283Y-45787D01*
X90648Y-41312D02*
X87283Y-44677D01*
X90648Y-41005D02*
X90648Y-41312D01*
X90846Y-40807D02*
X90648Y-41005D01*
X87677Y-44467D02*
X87677Y-45787D01*
X90778Y-41366D02*
X87677Y-44467D01*
X90778Y-41183D02*
X90778Y-41366D01*
X91876Y-40085D02*
X90778Y-41183D01*
X91876Y-39836D02*
X91876Y-40085D01*
X92027Y-39685D02*
X91876Y-39836D01*
X88071Y-44257D02*
X88071Y-45787D01*
X90908Y-41420D02*
X88071Y-44257D01*
X90908Y-41237D02*
X90908Y-41420D01*
X92086Y-40059D02*
X90908Y-41237D01*
X92165Y-40059D02*
X92086Y-40059D01*
X92401Y-39822D02*
X92165Y-40059D01*
X88464Y-44047D02*
X88464Y-45787D01*
X91028Y-41484D02*
X88464Y-44047D01*
X91304Y-41484D02*
X91028Y-41484D01*
X92221Y-40567D02*
X91304Y-41484D01*
X92221Y-40298D02*
X92221Y-40567D01*
X92224Y-40295D02*
X92221Y-40298D01*
X88858Y-43837D02*
X88858Y-45787D01*
X91082Y-41614D02*
X88858Y-43837D01*
X91358Y-41614D02*
X91082Y-41614D01*
X92677Y-40295D02*
X91358Y-41614D01*
X89252Y-43627D02*
X89252Y-45787D01*
X91132Y-41747D02*
X89252Y-43627D01*
X91905Y-41747D02*
X91132Y-41747D01*
X92283Y-42125D02*
X91905Y-41747D01*
X89645Y-43418D02*
X89645Y-45787D01*
X91186Y-41877D02*
X89645Y-43418D01*
X91621Y-41877D02*
X91186Y-41877D01*
X92007Y-42263D02*
X91621Y-41877D01*
X90039Y-44802D02*
X90039Y-45787D01*
X90303Y-44538D02*
X90039Y-44802D01*
X90303Y-42944D02*
X90303Y-44538D01*
X91240Y-42007D02*
X90303Y-42944D01*
X91476Y-42007D02*
X91240Y-42007D01*
X91692Y-42224D02*
X91476Y-42007D01*
X91692Y-42283D02*
X91692Y-42224D01*
X90433Y-43129D02*
X90433Y-45787D01*
X91338Y-42224D02*
X90433Y-43129D01*
X87283Y-37822D02*
X87468Y-37637D01*
X87468Y-37637D02*
X87468Y-36324D01*
X87468Y-36324D02*
X87850Y-35942D01*
X87850Y-35942D02*
X87850Y-34498D01*
X87850Y-34498D02*
X88986Y-33362D01*
X88986Y-33362D02*
X90850Y-33362D01*
X90850Y-33362D02*
X91023Y-33188D01*
X87283Y-38228D02*
X87283Y-37822D01*
X89094Y-31732D02*
X89094Y-31181D01*
X89055Y-31771D02*
X89094Y-31732D01*
X88248Y-32145D02*
X90649Y-32145D01*
X84527Y-39645D02*
X84527Y-39468D01*
X85177Y-40295D02*
X84527Y-39645D01*
X85393Y-35000D02*
X88248Y-32145D01*
X91574Y-31850D02*
X90944Y-31850D01*
X92519Y-30905D02*
X91574Y-31850D01*
X93700Y-30905D02*
X92519Y-30905D01*
X90649Y-32145D02*
X90944Y-31850D01*
X86279Y-40295D02*
X85177Y-40295D01*
X86299Y-40275D02*
X86279Y-40295D01*
X91062Y-24488D02*
X91062Y-24253D01*
X85377Y-24347D02*
X85377Y-25652D01*
X85785Y-23938D02*
X85377Y-24347D01*
X90748Y-23938D02*
X85785Y-23938D01*
X91062Y-24253D02*
X90748Y-23938D01*
X91062Y-24488D02*
X91061Y-24488D01*
X88838Y-38956D02*
X88838Y-36948D01*
X88622Y-39173D02*
X88838Y-38956D01*
X88838Y-36929D02*
X88838Y-36948D01*
X89074Y-36692D02*
X88838Y-36929D01*
X89212Y-36692D02*
X89074Y-36692D01*
X89389Y-36870D02*
X89212Y-36692D01*
X89389Y-37001D02*
X89389Y-36870D01*
X90152Y-37763D02*
X89389Y-37001D01*
X91673Y-37763D02*
X90152Y-37763D01*
X91897Y-37539D02*
X91673Y-37763D01*
X92145Y-37539D02*
X91897Y-37539D01*
X92362Y-37755D02*
X92145Y-37539D01*
X92007Y-32637D02*
X92204Y-32637D01*
X92204Y-32637D02*
X92283Y-32716D01*
X92283Y-32716D02*
X92283Y-33136D01*
X92283Y-33136D02*
X91538Y-33882D01*
X91538Y-33882D02*
X89202Y-33882D01*
X89202Y-33882D02*
X89055Y-34029D01*
X89055Y-34029D02*
X89055Y-35354D01*
X89082Y-36562D02*
X88996Y-36476D01*
X89266Y-36562D02*
X89082Y-36562D01*
X89519Y-36816D02*
X89266Y-36562D01*
X89519Y-36947D02*
X89519Y-36816D01*
X90206Y-37633D02*
X89519Y-36947D01*
X91619Y-37633D02*
X90206Y-37633D01*
X91843Y-37409D02*
X91619Y-37633D01*
X92409Y-37409D02*
X91843Y-37409D01*
X93011Y-38011D02*
X92409Y-37409D01*
X93011Y-39527D02*
X93011Y-38011D01*
X92027Y-37755D02*
X91889Y-37893D01*
X91889Y-37893D02*
X90098Y-37893D01*
X90098Y-37893D02*
X89153Y-36948D01*
X87980Y-34552D02*
X87980Y-35996D01*
X89040Y-33492D02*
X87980Y-34552D01*
X91166Y-33492D02*
X89040Y-33492D01*
X91338Y-33320D02*
X91166Y-33492D01*
X91338Y-33110D02*
X91338Y-33320D01*
X91456Y-32992D02*
X91338Y-33110D01*
X91574Y-32992D02*
X91456Y-32992D01*
X91653Y-32913D02*
X91574Y-32992D01*
X87874Y-38740D02*
X87598Y-38464D01*
X87598Y-38464D02*
X87598Y-36377D01*
X87874Y-38779D02*
X87874Y-38740D01*
X87980Y-35996D02*
X87598Y-36377D01*
X88240Y-38649D02*
X88240Y-34660D01*
X88188Y-38700D02*
X88240Y-38649D01*
X89148Y-33752D02*
X88240Y-34660D01*
X91484Y-33752D02*
X89148Y-33752D01*
X91850Y-33385D02*
X91484Y-33752D01*
X91850Y-33149D02*
X91850Y-33385D01*
X92047Y-32952D02*
X91850Y-33149D01*
X87874Y-36968D02*
X88110Y-36732D01*
X88110Y-34606D02*
X88110Y-36732D01*
X91614Y-33228D02*
X91220Y-33622D01*
X91220Y-33622D02*
X89094Y-33622D01*
X89094Y-33622D02*
X88110Y-34606D01*
X89055Y-29566D02*
X89055Y-28582D01*
X90944Y-31456D02*
X89055Y-29566D01*
G54D20*
X79409Y-45787D02*
X79409Y-45000D01*
X79409Y-45000D02*
X79330Y-44921D01*
X79330Y-44921D02*
X79330Y-43110D01*
X79330Y-43110D02*
X77322Y-41102D01*
X77322Y-41102D02*
X77322Y-38818D01*
X77322Y-38818D02*
X81338Y-34803D01*
X81338Y-34803D02*
X81338Y-33700D01*
X81338Y-33700D02*
X80472Y-32834D01*
X80472Y-32834D02*
X78543Y-32834D01*
X78543Y-32834D02*
X78385Y-32992D01*
X78385Y-32992D02*
X78385Y-33897D01*
X79803Y-45787D02*
X79409Y-45787D01*
G54D21*
X78641Y-36397D02*
X78641Y-36417D01*
X78070Y-35826D02*
X78641Y-36397D01*
X74921Y-32283D02*
X75413Y-32775D01*
X74921Y-31259D02*
X74921Y-32283D01*
X74606Y-30944D02*
X74921Y-31259D01*
G54D20*
X78622Y-45787D02*
X78622Y-43229D01*
X78622Y-43229D02*
X76732Y-41338D01*
X76732Y-41338D02*
X76732Y-40629D01*
X76732Y-40629D02*
X76062Y-39960D01*
X74960Y-40433D02*
X74960Y-40511D01*
X75433Y-39960D02*
X74960Y-40433D01*
X76062Y-39960D02*
X75433Y-39960D01*
X78228Y-45787D02*
X78622Y-45787D01*
G54D21*
X75413Y-32775D02*
X76279Y-32775D01*
G54D20*
X77834Y-34527D02*
X77362Y-34055D01*
X77834Y-34763D02*
X77834Y-34527D01*
X77283Y-35314D02*
X77834Y-34763D01*
G54D19*
X72834Y-38287D02*
X72834Y-36318D01*
X71358Y-39763D02*
X72834Y-38287D01*
X72834Y-36318D02*
X73622Y-35531D01*
G54D20*
X77165Y-37500D02*
X76181Y-37500D01*
X76181Y-37500D02*
X75787Y-37893D01*
G54D19*
X75984Y-35629D02*
X74606Y-37007D01*
X74606Y-37007D02*
X74606Y-37204D01*
G54D20*
X75787Y-37893D02*
X75295Y-37893D01*
X75295Y-37893D02*
X74606Y-37204D01*
G54D19*
X76279Y-35629D02*
X75984Y-35629D01*
G54D21*
X75393Y-32086D02*
X75393Y-30019D01*
X75393Y-30019D02*
X76082Y-29330D01*
G54D20*
X73622Y-32677D02*
X73228Y-32677D01*
X74409Y-32677D02*
X74015Y-32677D01*
X74015Y-33070D02*
X74409Y-33070D01*
X73228Y-33070D02*
X73622Y-33070D01*
G54D21*
X82677Y-41633D02*
X82283Y-42027D01*
X81889Y-42027D02*
X81200Y-41338D01*
X82283Y-42027D02*
X81889Y-42027D01*
G54D17*
X78897Y-41220D02*
X78897Y-41653D01*
X78897Y-41220D02*
X79409Y-41220D01*
G54D20*
X81397Y-40059D02*
X80531Y-40059D01*
X80531Y-40059D02*
X80157Y-40433D01*
X80157Y-42125D02*
X80157Y-40433D01*
X80905Y-42874D02*
X80157Y-42125D01*
G54D21*
X82775Y-40059D02*
X82381Y-40059D01*
X81889Y-41338D02*
X82185Y-41043D01*
G54D20*
X77165Y-36548D02*
X77165Y-36515D01*
X76476Y-37106D02*
X76968Y-37106D01*
X75590Y-37106D02*
X75984Y-37106D01*
G54D18*
X87322Y-35826D02*
X87322Y-33976D01*
X88976Y-32322D02*
X91062Y-32322D01*
X87322Y-33976D02*
X88976Y-32322D01*
G54D17*
X94192Y-34842D02*
X94192Y-38799D01*
X94114Y-38877D02*
X94192Y-38799D01*
X83366Y-41732D02*
X83366Y-38602D01*
X86141Y-35826D02*
X87322Y-35826D01*
X83366Y-38602D02*
X86141Y-35826D01*
G54D20*
X82342Y-42755D02*
X83070Y-42027D01*
X81574Y-42755D02*
X82342Y-42755D01*
X80866Y-43464D02*
X81574Y-42755D01*
X80866Y-43700D02*
X80866Y-43464D01*
X79842Y-44724D02*
X80866Y-43700D01*
G54D17*
X85787Y-41732D02*
X83661Y-41732D01*
X83661Y-41732D02*
X83366Y-41732D01*
X83366Y-41732D02*
X83070Y-42027D01*
G54D22*
X90787Y-39527D02*
X90433Y-39173D01*
X90433Y-39173D02*
X90433Y-38425D01*
G54D17*
X94114Y-38877D02*
X94114Y-42165D01*
G54D20*
X77401Y-37992D02*
X76574Y-37992D01*
X78346Y-37047D02*
X77401Y-37992D01*
X78346Y-36614D02*
X78346Y-37047D01*
X77716Y-35984D02*
X78346Y-36614D01*
X77716Y-35787D02*
X77716Y-35984D01*
X77559Y-35629D02*
X77716Y-35787D01*
X74803Y-38287D02*
X74803Y-38582D01*
X75000Y-38090D02*
X74803Y-38287D01*
X76476Y-38090D02*
X76181Y-38090D01*
X76574Y-37992D02*
X76476Y-38090D01*
G54D21*
X83677Y-28232D02*
X83677Y-27602D01*
X83169Y-28740D02*
X83677Y-28232D01*
X83169Y-29330D02*
X83169Y-28740D01*
X83366Y-29527D02*
X83169Y-29330D01*
X85767Y-29527D02*
X83366Y-29527D01*
X86889Y-28405D02*
X85767Y-29527D01*
X87106Y-27165D02*
X86889Y-27381D01*
X86889Y-27381D02*
X86889Y-28405D01*
X87716Y-27165D02*
X87106Y-27165D01*
X87755Y-27125D02*
X87716Y-27165D01*
G54D20*
X74842Y-43858D02*
X73858Y-42874D01*
X73858Y-42874D02*
X72007Y-42874D01*
X72007Y-42874D02*
X71574Y-43307D01*
X74842Y-43858D02*
X75196Y-43858D01*
X77598Y-43425D02*
X77480Y-43425D01*
X75748Y-43307D02*
X75196Y-43858D01*
X77362Y-43307D02*
X75748Y-43307D01*
X77480Y-43425D02*
X77362Y-43307D01*
X77795Y-43425D02*
X77598Y-43425D01*
X78031Y-43661D02*
X77795Y-43425D01*
X78031Y-44251D02*
X78031Y-43661D01*
G54D21*
X86515Y-26476D02*
X86515Y-28149D01*
X87795Y-25196D02*
X86515Y-26476D01*
X85629Y-29035D02*
X83759Y-29035D01*
X86515Y-28149D02*
X85629Y-29035D01*
G54D20*
X75452Y-39507D02*
X76161Y-39507D01*
G54D19*
X74212Y-40452D02*
X74507Y-40452D01*
X74507Y-40452D02*
X75452Y-39507D01*
G54D20*
X76161Y-39507D02*
X79527Y-36141D01*
G54D19*
X79527Y-34547D02*
X80216Y-33858D01*
X79527Y-36141D02*
X79527Y-34547D01*
G54D23*
X93070Y-29330D02*
X91456Y-30748D01*
X91456Y-31456D02*
X91456Y-30748D01*
G54D18*
X93188Y-29330D02*
X93070Y-29330D01*
X93228Y-29291D02*
X93188Y-29330D01*
G54D10*
G36*
X85887Y-41789D02*
X85793Y-41882D01*
X85778Y-41882D01*
X85688Y-41919D01*
X85620Y-41987D01*
X85583Y-42077D01*
X85583Y-42092D01*
X84794Y-42881D01*
X84794Y-41679D01*
X85582Y-41679D01*
X85657Y-41664D01*
X85657Y-41664D01*
X85721Y-41622D01*
X85730Y-41612D01*
X85844Y-41612D01*
X85887Y-41655D01*
X85887Y-41789D01*
X85887Y-41789D01*
G37*
G54D19*
X85887Y-41789D02*
X85793Y-41882D01*
X85778Y-41882D01*
X85688Y-41919D01*
X85620Y-41987D01*
X85583Y-42077D01*
X85583Y-42092D01*
X84794Y-42881D01*
X84794Y-41679D01*
X85582Y-41679D01*
X85657Y-41664D01*
X85657Y-41664D01*
X85721Y-41622D01*
X85730Y-41612D01*
X85844Y-41612D01*
X85887Y-41655D01*
X85887Y-41789D01*
G54D10*
G36*
X91841Y-39526D02*
X91821Y-39546D01*
X91783Y-39636D01*
X91783Y-39704D01*
X91764Y-39723D01*
X91729Y-39775D01*
X91717Y-39836D01*
X91717Y-40019D01*
X91057Y-40679D01*
X91053Y-40669D01*
X90984Y-40600D01*
X90895Y-40563D01*
X90798Y-40563D01*
X90708Y-40600D01*
X90639Y-40668D01*
X90639Y-40669D01*
X90571Y-40600D01*
X90481Y-40563D01*
X90384Y-40563D01*
X90295Y-40600D01*
X90226Y-40668D01*
X90189Y-40758D01*
X90189Y-40819D01*
X90187Y-40819D01*
X90098Y-40856D01*
X90029Y-40924D01*
X89999Y-40996D01*
X89932Y-40996D01*
X89842Y-41033D01*
X89822Y-41052D01*
X89803Y-41033D01*
X89714Y-40996D01*
X89617Y-40996D01*
X89527Y-41033D01*
X89507Y-41052D01*
X89488Y-41033D01*
X89399Y-40996D01*
X89302Y-40996D01*
X89212Y-41033D01*
X89192Y-41052D01*
X89173Y-41033D01*
X89084Y-40996D01*
X88987Y-40996D01*
X88897Y-41033D01*
X88877Y-41052D01*
X88858Y-41033D01*
X88769Y-40996D01*
X88672Y-40996D01*
X88582Y-41033D01*
X88563Y-41052D01*
X88543Y-41033D01*
X88454Y-40996D01*
X88357Y-40996D01*
X88267Y-41033D01*
X88198Y-41101D01*
X88161Y-41191D01*
X88161Y-41288D01*
X88198Y-41378D01*
X88246Y-41425D01*
X88246Y-41981D01*
X87347Y-42880D01*
X86704Y-42880D01*
X86643Y-42892D01*
X86592Y-42926D01*
X85449Y-44069D01*
X84947Y-44069D01*
X86868Y-42149D01*
X86868Y-42149D01*
X86902Y-42097D01*
X86914Y-42036D01*
X86914Y-42036D01*
X86914Y-41478D01*
X88150Y-40243D01*
X88217Y-40243D01*
X88307Y-40206D01*
X88375Y-40138D01*
X88412Y-40048D01*
X88413Y-39951D01*
X88383Y-39880D01*
X89997Y-39880D01*
X90176Y-40059D01*
X90240Y-40102D01*
X90240Y-40102D01*
X90314Y-40116D01*
X91023Y-40116D01*
X91098Y-40102D01*
X91098Y-40102D01*
X91161Y-40059D01*
X91695Y-39526D01*
X91841Y-39526D01*
X91841Y-39526D01*
G37*
G54D19*
X91841Y-39526D02*
X91821Y-39546D01*
X91783Y-39636D01*
X91783Y-39704D01*
X91764Y-39723D01*
X91729Y-39775D01*
X91717Y-39836D01*
X91717Y-40019D01*
X91057Y-40679D01*
X91053Y-40669D01*
X90984Y-40600D01*
X90895Y-40563D01*
X90798Y-40563D01*
X90708Y-40600D01*
X90639Y-40668D01*
X90639Y-40669D01*
X90571Y-40600D01*
X90481Y-40563D01*
X90384Y-40563D01*
X90295Y-40600D01*
X90226Y-40668D01*
X90189Y-40758D01*
X90189Y-40819D01*
X90187Y-40819D01*
X90098Y-40856D01*
X90029Y-40924D01*
X89999Y-40996D01*
X89932Y-40996D01*
X89842Y-41033D01*
X89822Y-41052D01*
X89803Y-41033D01*
X89714Y-40996D01*
X89617Y-40996D01*
X89527Y-41033D01*
X89507Y-41052D01*
X89488Y-41033D01*
X89399Y-40996D01*
X89302Y-40996D01*
X89212Y-41033D01*
X89192Y-41052D01*
X89173Y-41033D01*
X89084Y-40996D01*
X88987Y-40996D01*
X88897Y-41033D01*
X88877Y-41052D01*
X88858Y-41033D01*
X88769Y-40996D01*
X88672Y-40996D01*
X88582Y-41033D01*
X88563Y-41052D01*
X88543Y-41033D01*
X88454Y-40996D01*
X88357Y-40996D01*
X88267Y-41033D01*
X88198Y-41101D01*
X88161Y-41191D01*
X88161Y-41288D01*
X88198Y-41378D01*
X88246Y-41425D01*
X88246Y-41981D01*
X87347Y-42880D01*
X86704Y-42880D01*
X86643Y-42892D01*
X86592Y-42926D01*
X85449Y-44069D01*
X84947Y-44069D01*
X86868Y-42149D01*
X86868Y-42149D01*
X86902Y-42097D01*
X86914Y-42036D01*
X86914Y-42036D01*
X86914Y-41478D01*
X88150Y-40243D01*
X88217Y-40243D01*
X88307Y-40206D01*
X88375Y-40138D01*
X88412Y-40048D01*
X88413Y-39951D01*
X88383Y-39880D01*
X89997Y-39880D01*
X90176Y-40059D01*
X90240Y-40102D01*
X90240Y-40102D01*
X90314Y-40116D01*
X91023Y-40116D01*
X91098Y-40102D01*
X91098Y-40102D01*
X91161Y-40059D01*
X91695Y-39526D01*
X91841Y-39526D01*
G54D10*
G36*
X92853Y-39341D02*
X92805Y-39389D01*
X92768Y-39478D01*
X92768Y-39499D01*
X92461Y-39192D01*
X92397Y-39149D01*
X92322Y-39135D01*
X91614Y-39135D01*
X91539Y-39149D01*
X91475Y-39192D01*
X90942Y-39725D01*
X90396Y-39725D01*
X90217Y-39546D01*
X90153Y-39504D01*
X90078Y-39489D01*
X87362Y-39489D01*
X87287Y-39504D01*
X87223Y-39546D01*
X87223Y-39546D01*
X87223Y-39546D01*
X86908Y-39861D01*
X86866Y-39925D01*
X86851Y-40000D01*
X86851Y-40076D01*
X85786Y-41141D01*
X85744Y-41204D01*
X85741Y-41221D01*
X85649Y-41221D01*
X85574Y-41236D01*
X85511Y-41278D01*
X85501Y-41288D01*
X84794Y-41288D01*
X84794Y-41094D01*
X84817Y-41084D01*
X84903Y-40999D01*
X84949Y-40887D01*
X84949Y-40766D01*
X84903Y-40654D01*
X84817Y-40569D01*
X84794Y-40559D01*
X84794Y-40289D01*
X84870Y-40213D01*
X85064Y-40407D01*
X85064Y-40407D01*
X85116Y-40441D01*
X85177Y-40454D01*
X86132Y-40454D01*
X86160Y-40482D01*
X86250Y-40519D01*
X86347Y-40519D01*
X86437Y-40482D01*
X86505Y-40413D01*
X86542Y-40324D01*
X86542Y-40227D01*
X86505Y-40137D01*
X86437Y-40069D01*
X86347Y-40031D01*
X86250Y-40031D01*
X86161Y-40068D01*
X86093Y-40136D01*
X85242Y-40136D01*
X85095Y-39988D01*
X85754Y-39329D01*
X88267Y-39329D01*
X88342Y-39314D01*
X88342Y-39314D01*
X88400Y-39275D01*
X88415Y-39311D01*
X88483Y-39379D01*
X88573Y-39416D01*
X88670Y-39417D01*
X88759Y-39379D01*
X88828Y-39311D01*
X88865Y-39221D01*
X88865Y-39153D01*
X88950Y-39068D01*
X88950Y-39068D01*
X88985Y-39017D01*
X88997Y-38956D01*
X88997Y-38956D01*
X88997Y-37137D01*
X89015Y-37155D01*
X89104Y-37192D01*
X89172Y-37192D01*
X89986Y-38005D01*
X89986Y-38005D01*
X90037Y-38040D01*
X90098Y-38052D01*
X91889Y-38052D01*
X91889Y-38052D01*
X91950Y-38040D01*
X92002Y-38005D01*
X92008Y-37999D01*
X92075Y-37999D01*
X92165Y-37962D01*
X92194Y-37933D01*
X92223Y-37962D01*
X92313Y-37999D01*
X92410Y-37999D01*
X92500Y-37962D01*
X92568Y-37894D01*
X92598Y-37822D01*
X92853Y-38077D01*
X92853Y-39341D01*
X92853Y-39341D01*
G37*
G54D19*
X92853Y-39341D02*
X92805Y-39389D01*
X92768Y-39478D01*
X92768Y-39499D01*
X92461Y-39192D01*
X92397Y-39149D01*
X92322Y-39135D01*
X91614Y-39135D01*
X91539Y-39149D01*
X91475Y-39192D01*
X90942Y-39725D01*
X90396Y-39725D01*
X90217Y-39546D01*
X90153Y-39504D01*
X90078Y-39489D01*
X87362Y-39489D01*
X87287Y-39504D01*
X87223Y-39546D01*
X87223Y-39546D01*
X87223Y-39546D01*
X86908Y-39861D01*
X86866Y-39925D01*
X86851Y-40000D01*
X86851Y-40076D01*
X85786Y-41141D01*
X85744Y-41204D01*
X85741Y-41221D01*
X85649Y-41221D01*
X85574Y-41236D01*
X85511Y-41278D01*
X85501Y-41288D01*
X84794Y-41288D01*
X84794Y-41094D01*
X84817Y-41084D01*
X84903Y-40999D01*
X84949Y-40887D01*
X84949Y-40766D01*
X84903Y-40654D01*
X84817Y-40569D01*
X84794Y-40559D01*
X84794Y-40289D01*
X84870Y-40213D01*
X85064Y-40407D01*
X85064Y-40407D01*
X85116Y-40441D01*
X85177Y-40454D01*
X86132Y-40454D01*
X86160Y-40482D01*
X86250Y-40519D01*
X86347Y-40519D01*
X86437Y-40482D01*
X86505Y-40413D01*
X86542Y-40324D01*
X86542Y-40227D01*
X86505Y-40137D01*
X86437Y-40069D01*
X86347Y-40031D01*
X86250Y-40031D01*
X86161Y-40068D01*
X86093Y-40136D01*
X85242Y-40136D01*
X85095Y-39988D01*
X85754Y-39329D01*
X88267Y-39329D01*
X88342Y-39314D01*
X88342Y-39314D01*
X88400Y-39275D01*
X88415Y-39311D01*
X88483Y-39379D01*
X88573Y-39416D01*
X88670Y-39417D01*
X88759Y-39379D01*
X88828Y-39311D01*
X88865Y-39221D01*
X88865Y-39153D01*
X88950Y-39068D01*
X88950Y-39068D01*
X88985Y-39017D01*
X88997Y-38956D01*
X88997Y-38956D01*
X88997Y-37137D01*
X89015Y-37155D01*
X89104Y-37192D01*
X89172Y-37192D01*
X89986Y-38005D01*
X89986Y-38005D01*
X90037Y-38040D01*
X90098Y-38052D01*
X91889Y-38052D01*
X91889Y-38052D01*
X91950Y-38040D01*
X92002Y-38005D01*
X92008Y-37999D01*
X92075Y-37999D01*
X92165Y-37962D01*
X92194Y-37933D01*
X92223Y-37962D01*
X92313Y-37999D01*
X92410Y-37999D01*
X92500Y-37962D01*
X92568Y-37894D01*
X92598Y-37822D01*
X92853Y-38077D01*
X92853Y-39341D01*
G54D10*
G36*
X93768Y-37576D02*
X93448Y-37896D01*
X92579Y-37026D01*
X92515Y-36984D01*
X92440Y-36969D01*
X92105Y-36969D01*
X92105Y-36861D01*
X93768Y-36861D01*
X93768Y-37576D01*
X93768Y-37576D01*
G37*
G54D19*
X93768Y-37576D02*
X93448Y-37896D01*
X92579Y-37026D01*
X92515Y-36984D01*
X92440Y-36969D01*
X92105Y-36969D01*
X92105Y-36861D01*
X93768Y-36861D01*
X93768Y-37576D01*
G54D10*
G36*
X94053Y-34343D02*
X93671Y-34725D01*
X92164Y-34725D01*
X92164Y-34643D01*
X92225Y-34581D01*
X92272Y-34470D01*
X92272Y-34349D01*
X92226Y-34237D01*
X92140Y-34152D01*
X92029Y-34105D01*
X91908Y-34105D01*
X91796Y-34151D01*
X91711Y-34237D01*
X91664Y-34348D01*
X91664Y-34469D01*
X91710Y-34581D01*
X91772Y-34643D01*
X91772Y-34725D01*
X91259Y-34725D01*
X91184Y-34740D01*
X91121Y-34782D01*
X90942Y-34961D01*
X89597Y-34961D01*
X89587Y-34950D01*
X89497Y-34913D01*
X89400Y-34913D01*
X89310Y-34950D01*
X89242Y-35019D01*
X89213Y-35087D01*
X89213Y-34094D01*
X89267Y-34040D01*
X91538Y-34040D01*
X91538Y-34040D01*
X91598Y-34028D01*
X91650Y-33994D01*
X92395Y-33248D01*
X92395Y-33248D01*
X92430Y-33197D01*
X92442Y-33136D01*
X92442Y-33136D01*
X92442Y-32716D01*
X92442Y-32716D01*
X92430Y-32655D01*
X92395Y-32604D01*
X92395Y-32604D01*
X92316Y-32525D01*
X92265Y-32491D01*
X92204Y-32479D01*
X92193Y-32479D01*
X92146Y-32431D01*
X92056Y-32394D01*
X91959Y-32394D01*
X91869Y-32431D01*
X91801Y-32499D01*
X91764Y-32589D01*
X91764Y-32686D01*
X91768Y-32697D01*
X91702Y-32669D01*
X91605Y-32669D01*
X91515Y-32706D01*
X91447Y-32775D01*
X91419Y-32840D01*
X91419Y-32840D01*
X91395Y-32845D01*
X91344Y-32879D01*
X91226Y-32997D01*
X91206Y-33027D01*
X91161Y-32982D01*
X91072Y-32945D01*
X90975Y-32945D01*
X90885Y-32982D01*
X90817Y-33050D01*
X90779Y-33140D01*
X90779Y-33203D01*
X88986Y-33203D01*
X88926Y-33215D01*
X88895Y-33236D01*
X88874Y-33249D01*
X87737Y-34386D01*
X87703Y-34437D01*
X87691Y-34498D01*
X87691Y-35876D01*
X87356Y-36211D01*
X87321Y-36263D01*
X87309Y-36324D01*
X87309Y-37572D01*
X87254Y-37627D01*
X87254Y-33363D01*
X88313Y-32304D01*
X90649Y-32304D01*
X90649Y-32304D01*
X90710Y-32292D01*
X90761Y-32257D01*
X91010Y-32009D01*
X91574Y-32009D01*
X91574Y-32009D01*
X91635Y-31997D01*
X91687Y-31962D01*
X92585Y-31064D01*
X93514Y-31064D01*
X93562Y-31112D01*
X93652Y-31149D01*
X93749Y-31149D01*
X93838Y-31112D01*
X93907Y-31043D01*
X93944Y-30954D01*
X93944Y-30857D01*
X93907Y-30767D01*
X93839Y-30698D01*
X93749Y-30661D01*
X93652Y-30661D01*
X93562Y-30698D01*
X93514Y-30746D01*
X92519Y-30746D01*
X92458Y-30758D01*
X92407Y-30793D01*
X91760Y-31440D01*
X91760Y-31396D01*
X91714Y-31284D01*
X91642Y-31212D01*
X91642Y-30832D01*
X93138Y-29517D01*
X93179Y-29535D01*
X93276Y-29535D01*
X93366Y-29498D01*
X93434Y-29429D01*
X93472Y-29340D01*
X93472Y-29243D01*
X93435Y-29153D01*
X93366Y-29084D01*
X93277Y-29047D01*
X93180Y-29047D01*
X93090Y-29084D01*
X93022Y-29152D01*
X93010Y-29154D01*
X92947Y-29190D01*
X91334Y-30608D01*
X91330Y-30613D01*
X91325Y-30616D01*
X91308Y-30641D01*
X91289Y-30665D01*
X91288Y-30671D01*
X91285Y-30676D01*
X91279Y-30706D01*
X91271Y-30736D01*
X91272Y-30742D01*
X91270Y-30748D01*
X91270Y-31213D01*
X91199Y-31284D01*
X91168Y-31359D01*
X91151Y-31318D01*
X91083Y-31250D01*
X90993Y-31212D01*
X90925Y-31212D01*
X89213Y-29501D01*
X89213Y-28768D01*
X89261Y-28720D01*
X89298Y-28631D01*
X89298Y-28534D01*
X89261Y-28444D01*
X89193Y-28376D01*
X89103Y-28338D01*
X89054Y-28338D01*
X89321Y-28071D01*
X89321Y-24097D01*
X90682Y-24097D01*
X90853Y-24268D01*
X90805Y-24315D01*
X90759Y-24427D01*
X90759Y-24548D01*
X90805Y-24660D01*
X90890Y-24745D01*
X91002Y-24791D01*
X91123Y-24791D01*
X91219Y-24752D01*
X91219Y-25826D01*
X91231Y-25887D01*
X91265Y-25939D01*
X92289Y-26962D01*
X92289Y-26962D01*
X92340Y-26997D01*
X92401Y-27009D01*
X93438Y-27009D01*
X94053Y-27624D01*
X94053Y-34343D01*
X94053Y-34343D01*
G37*
G54D19*
X94053Y-34343D02*
X93671Y-34725D01*
X92164Y-34725D01*
X92164Y-34643D01*
X92225Y-34581D01*
X92272Y-34470D01*
X92272Y-34349D01*
X92226Y-34237D01*
X92140Y-34152D01*
X92029Y-34105D01*
X91908Y-34105D01*
X91796Y-34151D01*
X91711Y-34237D01*
X91664Y-34348D01*
X91664Y-34469D01*
X91710Y-34581D01*
X91772Y-34643D01*
X91772Y-34725D01*
X91259Y-34725D01*
X91184Y-34740D01*
X91121Y-34782D01*
X90942Y-34961D01*
X89597Y-34961D01*
X89587Y-34950D01*
X89497Y-34913D01*
X89400Y-34913D01*
X89310Y-34950D01*
X89242Y-35019D01*
X89213Y-35087D01*
X89213Y-34094D01*
X89267Y-34040D01*
X91538Y-34040D01*
X91538Y-34040D01*
X91598Y-34028D01*
X91650Y-33994D01*
X92395Y-33248D01*
X92395Y-33248D01*
X92430Y-33197D01*
X92442Y-33136D01*
X92442Y-33136D01*
X92442Y-32716D01*
X92442Y-32716D01*
X92430Y-32655D01*
X92395Y-32604D01*
X92395Y-32604D01*
X92316Y-32525D01*
X92265Y-32491D01*
X92204Y-32479D01*
X92193Y-32479D01*
X92146Y-32431D01*
X92056Y-32394D01*
X91959Y-32394D01*
X91869Y-32431D01*
X91801Y-32499D01*
X91764Y-32589D01*
X91764Y-32686D01*
X91768Y-32697D01*
X91702Y-32669D01*
X91605Y-32669D01*
X91515Y-32706D01*
X91447Y-32775D01*
X91419Y-32840D01*
X91419Y-32840D01*
X91395Y-32845D01*
X91344Y-32879D01*
X91226Y-32997D01*
X91206Y-33027D01*
X91161Y-32982D01*
X91072Y-32945D01*
X90975Y-32945D01*
X90885Y-32982D01*
X90817Y-33050D01*
X90779Y-33140D01*
X90779Y-33203D01*
X88986Y-33203D01*
X88926Y-33215D01*
X88895Y-33236D01*
X88874Y-33249D01*
X87737Y-34386D01*
X87703Y-34437D01*
X87691Y-34498D01*
X87691Y-35876D01*
X87356Y-36211D01*
X87321Y-36263D01*
X87309Y-36324D01*
X87309Y-37572D01*
X87254Y-37627D01*
X87254Y-33363D01*
X88313Y-32304D01*
X90649Y-32304D01*
X90649Y-32304D01*
X90710Y-32292D01*
X90761Y-32257D01*
X91010Y-32009D01*
X91574Y-32009D01*
X91574Y-32009D01*
X91635Y-31997D01*
X91687Y-31962D01*
X92585Y-31064D01*
X93514Y-31064D01*
X93562Y-31112D01*
X93652Y-31149D01*
X93749Y-31149D01*
X93838Y-31112D01*
X93907Y-31043D01*
X93944Y-30954D01*
X93944Y-30857D01*
X93907Y-30767D01*
X93839Y-30698D01*
X93749Y-30661D01*
X93652Y-30661D01*
X93562Y-30698D01*
X93514Y-30746D01*
X92519Y-30746D01*
X92458Y-30758D01*
X92407Y-30793D01*
X91760Y-31440D01*
X91760Y-31396D01*
X91714Y-31284D01*
X91642Y-31212D01*
X91642Y-30832D01*
X93138Y-29517D01*
X93179Y-29535D01*
X93276Y-29535D01*
X93366Y-29498D01*
X93434Y-29429D01*
X93472Y-29340D01*
X93472Y-29243D01*
X93435Y-29153D01*
X93366Y-29084D01*
X93277Y-29047D01*
X93180Y-29047D01*
X93090Y-29084D01*
X93022Y-29152D01*
X93010Y-29154D01*
X92947Y-29190D01*
X91334Y-30608D01*
X91330Y-30613D01*
X91325Y-30616D01*
X91308Y-30641D01*
X91289Y-30665D01*
X91288Y-30671D01*
X91285Y-30676D01*
X91279Y-30706D01*
X91271Y-30736D01*
X91272Y-30742D01*
X91270Y-30748D01*
X91270Y-31213D01*
X91199Y-31284D01*
X91168Y-31359D01*
X91151Y-31318D01*
X91083Y-31250D01*
X90993Y-31212D01*
X90925Y-31212D01*
X89213Y-29501D01*
X89213Y-28768D01*
X89261Y-28720D01*
X89298Y-28631D01*
X89298Y-28534D01*
X89261Y-28444D01*
X89193Y-28376D01*
X89103Y-28338D01*
X89054Y-28338D01*
X89321Y-28071D01*
X89321Y-24097D01*
X90682Y-24097D01*
X90853Y-24268D01*
X90805Y-24315D01*
X90759Y-24427D01*
X90759Y-24548D01*
X90805Y-24660D01*
X90890Y-24745D01*
X91002Y-24791D01*
X91123Y-24791D01*
X91219Y-24752D01*
X91219Y-25826D01*
X91231Y-25887D01*
X91265Y-25939D01*
X92289Y-26962D01*
X92289Y-26962D01*
X92340Y-26997D01*
X92401Y-27009D01*
X93438Y-27009D01*
X94053Y-27624D01*
X94053Y-34343D01*
G54D10*
G36*
X94241Y-43552D02*
X94144Y-43552D01*
X94094Y-43552D01*
X90592Y-43552D01*
X90592Y-43194D01*
X91319Y-42468D01*
X91386Y-42468D01*
X91476Y-42431D01*
X91486Y-42421D01*
X91554Y-42489D01*
X91644Y-42527D01*
X91741Y-42527D01*
X91830Y-42490D01*
X91860Y-42460D01*
X91869Y-42470D01*
X91959Y-42507D01*
X92056Y-42507D01*
X92145Y-42470D01*
X92214Y-42402D01*
X92228Y-42367D01*
X92234Y-42369D01*
X92331Y-42369D01*
X92421Y-42332D01*
X92489Y-42264D01*
X92527Y-42174D01*
X92527Y-42077D01*
X92490Y-41988D01*
X92421Y-41919D01*
X92332Y-41882D01*
X92264Y-41882D01*
X92017Y-41635D01*
X91966Y-41601D01*
X91905Y-41589D01*
X91607Y-41589D01*
X92657Y-40538D01*
X92725Y-40539D01*
X92815Y-40502D01*
X92883Y-40433D01*
X92920Y-40343D01*
X92920Y-40247D01*
X92891Y-40176D01*
X93190Y-40474D01*
X93190Y-41296D01*
X93058Y-41428D01*
X92971Y-41428D01*
X92859Y-41474D01*
X92774Y-41560D01*
X92727Y-41671D01*
X92727Y-41792D01*
X92773Y-41904D01*
X92859Y-41989D01*
X92970Y-42035D01*
X93091Y-42036D01*
X93203Y-41989D01*
X93288Y-41904D01*
X93335Y-41792D01*
X93335Y-41705D01*
X93524Y-41516D01*
X93566Y-41452D01*
X93566Y-41452D01*
X93581Y-41377D01*
X93581Y-40393D01*
X93581Y-38698D01*
X93643Y-38636D01*
X93689Y-38525D01*
X93689Y-38404D01*
X93643Y-38292D01*
X93624Y-38273D01*
X94102Y-37795D01*
X94144Y-37733D01*
X94145Y-37732D01*
X94160Y-37657D01*
X94160Y-35106D01*
X94145Y-35031D01*
X94102Y-34967D01*
X94102Y-34967D01*
X93990Y-34855D01*
X94241Y-34605D01*
X94241Y-43552D01*
X94241Y-43552D01*
G37*
G54D19*
X94241Y-43552D02*
X94144Y-43552D01*
X94094Y-43552D01*
X90592Y-43552D01*
X90592Y-43194D01*
X91319Y-42468D01*
X91386Y-42468D01*
X91476Y-42431D01*
X91486Y-42421D01*
X91554Y-42489D01*
X91644Y-42527D01*
X91741Y-42527D01*
X91830Y-42490D01*
X91860Y-42460D01*
X91869Y-42470D01*
X91959Y-42507D01*
X92056Y-42507D01*
X92145Y-42470D01*
X92214Y-42402D01*
X92228Y-42367D01*
X92234Y-42369D01*
X92331Y-42369D01*
X92421Y-42332D01*
X92489Y-42264D01*
X92527Y-42174D01*
X92527Y-42077D01*
X92490Y-41988D01*
X92421Y-41919D01*
X92332Y-41882D01*
X92264Y-41882D01*
X92017Y-41635D01*
X91966Y-41601D01*
X91905Y-41589D01*
X91607Y-41589D01*
X92657Y-40538D01*
X92725Y-40539D01*
X92815Y-40502D01*
X92883Y-40433D01*
X92920Y-40343D01*
X92920Y-40247D01*
X92891Y-40176D01*
X93190Y-40474D01*
X93190Y-41296D01*
X93058Y-41428D01*
X92971Y-41428D01*
X92859Y-41474D01*
X92774Y-41560D01*
X92727Y-41671D01*
X92727Y-41792D01*
X92773Y-41904D01*
X92859Y-41989D01*
X92970Y-42035D01*
X93091Y-42036D01*
X93203Y-41989D01*
X93288Y-41904D01*
X93335Y-41792D01*
X93335Y-41705D01*
X93524Y-41516D01*
X93566Y-41452D01*
X93566Y-41452D01*
X93581Y-41377D01*
X93581Y-40393D01*
X93581Y-38698D01*
X93643Y-38636D01*
X93689Y-38525D01*
X93689Y-38404D01*
X93643Y-38292D01*
X93624Y-38273D01*
X94102Y-37795D01*
X94144Y-37733D01*
X94145Y-37732D01*
X94160Y-37657D01*
X94160Y-35106D01*
X94145Y-35031D01*
X94102Y-34967D01*
X94102Y-34967D01*
X93990Y-34855D01*
X94241Y-34605D01*
X94241Y-43552D01*
G54D10*
G36*
X93768Y-36662D02*
X92105Y-36662D01*
X92105Y-36474D01*
X92166Y-36412D01*
X92213Y-36300D01*
X92213Y-36180D01*
X92167Y-36068D01*
X92081Y-35982D01*
X91970Y-35936D01*
X91849Y-35936D01*
X91737Y-35982D01*
X91652Y-36067D01*
X91605Y-36179D01*
X91605Y-36300D01*
X91651Y-36411D01*
X91713Y-36474D01*
X91713Y-36662D01*
X90010Y-36662D01*
X90010Y-35766D01*
X90638Y-35766D01*
X90649Y-35777D01*
X90738Y-35814D01*
X90835Y-35814D01*
X90925Y-35777D01*
X90993Y-35709D01*
X91031Y-35619D01*
X91031Y-35522D01*
X90994Y-35432D01*
X90945Y-35384D01*
X91064Y-35384D01*
X91134Y-35314D01*
X91134Y-35314D01*
X91161Y-35295D01*
X91340Y-35116D01*
X91968Y-35116D01*
X93698Y-35116D01*
X93768Y-35187D01*
X93768Y-36662D01*
X93768Y-36662D01*
G37*
G54D19*
X93768Y-36662D02*
X92105Y-36662D01*
X92105Y-36474D01*
X92166Y-36412D01*
X92213Y-36300D01*
X92213Y-36180D01*
X92167Y-36068D01*
X92081Y-35982D01*
X91970Y-35936D01*
X91849Y-35936D01*
X91737Y-35982D01*
X91652Y-36067D01*
X91605Y-36179D01*
X91605Y-36300D01*
X91651Y-36411D01*
X91713Y-36474D01*
X91713Y-36662D01*
X90010Y-36662D01*
X90010Y-35766D01*
X90638Y-35766D01*
X90649Y-35777D01*
X90738Y-35814D01*
X90835Y-35814D01*
X90925Y-35777D01*
X90993Y-35709D01*
X91031Y-35619D01*
X91031Y-35522D01*
X90994Y-35432D01*
X90945Y-35384D01*
X91064Y-35384D01*
X91134Y-35314D01*
X91134Y-35314D01*
X91161Y-35295D01*
X91340Y-35116D01*
X91968Y-35116D01*
X93698Y-35116D01*
X93768Y-35187D01*
X93768Y-36662D01*
G54D10*
G36*
X78001Y-43379D02*
X77921Y-43299D01*
X77863Y-43260D01*
X77858Y-43259D01*
X77856Y-43253D01*
X77770Y-43167D01*
X77659Y-43121D01*
X77538Y-43121D01*
X77451Y-43157D01*
X77430Y-43142D01*
X77362Y-43129D01*
X75748Y-43129D01*
X75679Y-43142D01*
X75660Y-43155D01*
X75622Y-43181D01*
X75248Y-43554D01*
X75136Y-43554D01*
X75025Y-43600D01*
X74945Y-43680D01*
X74916Y-43680D01*
X73984Y-42748D01*
X73926Y-42709D01*
X73858Y-42696D01*
X72007Y-42696D01*
X71939Y-42709D01*
X71920Y-42722D01*
X71882Y-42748D01*
X71626Y-43003D01*
X71514Y-43003D01*
X71402Y-43049D01*
X71317Y-43134D01*
X71271Y-43246D01*
X71271Y-43367D01*
X71317Y-43478D01*
X71402Y-43564D01*
X71514Y-43610D01*
X71634Y-43610D01*
X71746Y-43564D01*
X71832Y-43479D01*
X71878Y-43367D01*
X71878Y-43254D01*
X72081Y-43051D01*
X73784Y-43051D01*
X74716Y-43984D01*
X74716Y-43984D01*
X74755Y-44009D01*
X74774Y-44022D01*
X74774Y-44022D01*
X74842Y-44036D01*
X74842Y-44036D01*
X74945Y-44036D01*
X75024Y-44115D01*
X75136Y-44161D01*
X75257Y-44162D01*
X75368Y-44115D01*
X75454Y-44030D01*
X75500Y-43918D01*
X75500Y-43806D01*
X75821Y-43485D01*
X77288Y-43485D01*
X77298Y-43495D01*
X77340Y-43597D01*
X77426Y-43682D01*
X77537Y-43728D01*
X77658Y-43728D01*
X77770Y-43682D01*
X77785Y-43667D01*
X77853Y-43735D01*
X77853Y-43847D01*
X77579Y-43847D01*
X77382Y-43650D01*
X76964Y-43650D01*
X76879Y-43633D01*
X76864Y-43633D01*
X76850Y-43631D01*
X76535Y-43631D01*
X76520Y-43634D01*
X76506Y-43634D01*
X76422Y-43650D01*
X76121Y-43650D01*
X75894Y-43876D01*
X75894Y-46997D01*
X73770Y-46997D01*
X73770Y-44959D01*
X73150Y-44339D01*
X71534Y-44339D01*
X71140Y-44733D01*
X71112Y-44733D01*
X71112Y-42372D01*
X72715Y-42372D01*
X72912Y-42569D01*
X74922Y-42569D01*
X75414Y-42077D01*
X76004Y-42077D01*
X76377Y-41704D01*
X78001Y-43327D01*
X78001Y-43379D01*
X78001Y-43379D01*
G37*
G54D19*
X78001Y-43379D02*
X77921Y-43299D01*
X77863Y-43260D01*
X77858Y-43259D01*
X77856Y-43253D01*
X77770Y-43167D01*
X77659Y-43121D01*
X77538Y-43121D01*
X77451Y-43157D01*
X77430Y-43142D01*
X77362Y-43129D01*
X75748Y-43129D01*
X75679Y-43142D01*
X75660Y-43155D01*
X75622Y-43181D01*
X75248Y-43554D01*
X75136Y-43554D01*
X75025Y-43600D01*
X74945Y-43680D01*
X74916Y-43680D01*
X73984Y-42748D01*
X73926Y-42709D01*
X73858Y-42696D01*
X72007Y-42696D01*
X71939Y-42709D01*
X71920Y-42722D01*
X71882Y-42748D01*
X71626Y-43003D01*
X71514Y-43003D01*
X71402Y-43049D01*
X71317Y-43134D01*
X71271Y-43246D01*
X71271Y-43367D01*
X71317Y-43478D01*
X71402Y-43564D01*
X71514Y-43610D01*
X71634Y-43610D01*
X71746Y-43564D01*
X71832Y-43479D01*
X71878Y-43367D01*
X71878Y-43254D01*
X72081Y-43051D01*
X73784Y-43051D01*
X74716Y-43984D01*
X74716Y-43984D01*
X74755Y-44009D01*
X74774Y-44022D01*
X74774Y-44022D01*
X74842Y-44036D01*
X74842Y-44036D01*
X74945Y-44036D01*
X75024Y-44115D01*
X75136Y-44161D01*
X75257Y-44162D01*
X75368Y-44115D01*
X75454Y-44030D01*
X75500Y-43918D01*
X75500Y-43806D01*
X75821Y-43485D01*
X77288Y-43485D01*
X77298Y-43495D01*
X77340Y-43597D01*
X77426Y-43682D01*
X77537Y-43728D01*
X77658Y-43728D01*
X77770Y-43682D01*
X77785Y-43667D01*
X77853Y-43735D01*
X77853Y-43847D01*
X77579Y-43847D01*
X77382Y-43650D01*
X76964Y-43650D01*
X76879Y-43633D01*
X76864Y-43633D01*
X76850Y-43631D01*
X76535Y-43631D01*
X76520Y-43634D01*
X76506Y-43634D01*
X76422Y-43650D01*
X76121Y-43650D01*
X75894Y-43876D01*
X75894Y-46997D01*
X73770Y-46997D01*
X73770Y-44959D01*
X73150Y-44339D01*
X71534Y-44339D01*
X71140Y-44733D01*
X71112Y-44733D01*
X71112Y-42372D01*
X72715Y-42372D01*
X72912Y-42569D01*
X74922Y-42569D01*
X75414Y-42077D01*
X76004Y-42077D01*
X76377Y-41704D01*
X78001Y-43327D01*
X78001Y-43379D01*
G54D10*
G36*
X72596Y-36222D02*
X72577Y-36318D01*
X72577Y-38180D01*
X71376Y-39381D01*
X71320Y-39381D01*
X71320Y-36406D01*
X71335Y-36406D01*
X71476Y-36348D01*
X71544Y-36280D01*
X72440Y-36280D01*
X72440Y-36280D01*
X72440Y-36280D01*
X72522Y-36264D01*
X72539Y-36260D01*
X72539Y-36260D01*
X72596Y-36222D01*
X72596Y-36222D01*
G37*
G54D19*
X72596Y-36222D02*
X72577Y-36318D01*
X72577Y-38180D01*
X71376Y-39381D01*
X71320Y-39381D01*
X71320Y-36406D01*
X71335Y-36406D01*
X71476Y-36348D01*
X71544Y-36280D01*
X72440Y-36280D01*
X72440Y-36280D01*
X72440Y-36280D01*
X72522Y-36264D01*
X72539Y-36260D01*
X72539Y-36260D01*
X72596Y-36222D01*
G54D10*
G36*
X77066Y-40579D02*
X76849Y-40796D01*
X76357Y-40796D01*
X75766Y-41387D01*
X75176Y-41387D01*
X74684Y-41879D01*
X74368Y-41879D01*
X74392Y-41874D01*
X74409Y-41871D01*
X74409Y-41871D01*
X74492Y-41815D01*
X75532Y-40775D01*
X75555Y-40775D01*
X75674Y-40726D01*
X75765Y-40635D01*
X75814Y-40517D01*
X75814Y-40388D01*
X75765Y-40270D01*
X75675Y-40179D01*
X75556Y-40130D01*
X75428Y-40130D01*
X75309Y-40179D01*
X75218Y-40269D01*
X75169Y-40388D01*
X75169Y-40412D01*
X74204Y-41377D01*
X73906Y-41377D01*
X73838Y-41309D01*
X73698Y-41251D01*
X73546Y-41251D01*
X73405Y-41309D01*
X73338Y-41376D01*
X72272Y-41376D01*
X71320Y-40424D01*
X71320Y-40146D01*
X71434Y-40146D01*
X71574Y-40088D01*
X71682Y-39980D01*
X71740Y-39840D01*
X71740Y-39745D01*
X73016Y-38469D01*
X73016Y-38469D01*
X73016Y-38469D01*
X73072Y-38385D01*
X73072Y-38385D01*
X73088Y-38303D01*
X73092Y-38287D01*
X73092Y-38287D01*
X73092Y-38287D01*
X73092Y-37695D01*
X73100Y-37716D01*
X73208Y-37824D01*
X73348Y-37882D01*
X73500Y-37882D01*
X73641Y-37824D01*
X73749Y-37716D01*
X73807Y-37576D01*
X73807Y-37452D01*
X73965Y-37294D01*
X73965Y-38069D01*
X73955Y-38079D01*
X73831Y-38079D01*
X73414Y-38496D01*
X73414Y-39774D01*
X74223Y-39774D01*
X74223Y-39839D01*
X74281Y-39980D01*
X74389Y-40087D01*
X74473Y-40122D01*
X74448Y-40147D01*
X74429Y-40128D01*
X74289Y-40070D01*
X74136Y-40070D01*
X73996Y-40128D01*
X73888Y-40235D01*
X73830Y-40376D01*
X73830Y-40528D01*
X73888Y-40669D01*
X73995Y-40776D01*
X74136Y-40835D01*
X74288Y-40835D01*
X74428Y-40777D01*
X74496Y-40710D01*
X74507Y-40710D01*
X74606Y-40690D01*
X74689Y-40634D01*
X75550Y-39774D01*
X76365Y-39774D01*
X76424Y-39715D01*
X77066Y-39715D01*
X77066Y-40579D01*
X77066Y-40579D01*
G37*
G54D19*
X77066Y-40579D02*
X76849Y-40796D01*
X76357Y-40796D01*
X75766Y-41387D01*
X75176Y-41387D01*
X74684Y-41879D01*
X74368Y-41879D01*
X74392Y-41874D01*
X74409Y-41871D01*
X74409Y-41871D01*
X74492Y-41815D01*
X75532Y-40775D01*
X75555Y-40775D01*
X75674Y-40726D01*
X75765Y-40635D01*
X75814Y-40517D01*
X75814Y-40388D01*
X75765Y-40270D01*
X75675Y-40179D01*
X75556Y-40130D01*
X75428Y-40130D01*
X75309Y-40179D01*
X75218Y-40269D01*
X75169Y-40388D01*
X75169Y-40412D01*
X74204Y-41377D01*
X73906Y-41377D01*
X73838Y-41309D01*
X73698Y-41251D01*
X73546Y-41251D01*
X73405Y-41309D01*
X73338Y-41376D01*
X72272Y-41376D01*
X71320Y-40424D01*
X71320Y-40146D01*
X71434Y-40146D01*
X71574Y-40088D01*
X71682Y-39980D01*
X71740Y-39840D01*
X71740Y-39745D01*
X73016Y-38469D01*
X73016Y-38469D01*
X73016Y-38469D01*
X73072Y-38385D01*
X73072Y-38385D01*
X73088Y-38303D01*
X73092Y-38287D01*
X73092Y-38287D01*
X73092Y-38287D01*
X73092Y-37695D01*
X73100Y-37716D01*
X73208Y-37824D01*
X73348Y-37882D01*
X73500Y-37882D01*
X73641Y-37824D01*
X73749Y-37716D01*
X73807Y-37576D01*
X73807Y-37452D01*
X73965Y-37294D01*
X73965Y-38069D01*
X73955Y-38079D01*
X73831Y-38079D01*
X73414Y-38496D01*
X73414Y-39774D01*
X74223Y-39774D01*
X74223Y-39839D01*
X74281Y-39980D01*
X74389Y-40087D01*
X74473Y-40122D01*
X74448Y-40147D01*
X74429Y-40128D01*
X74289Y-40070D01*
X74136Y-40070D01*
X73996Y-40128D01*
X73888Y-40235D01*
X73830Y-40376D01*
X73830Y-40528D01*
X73888Y-40669D01*
X73995Y-40776D01*
X74136Y-40835D01*
X74288Y-40835D01*
X74428Y-40777D01*
X74496Y-40710D01*
X74507Y-40710D01*
X74606Y-40690D01*
X74689Y-40634D01*
X75550Y-39774D01*
X76365Y-39774D01*
X76424Y-39715D01*
X77066Y-39715D01*
X77066Y-40579D01*
G54D10*
G36*
X83371Y-28105D02*
X82952Y-28523D01*
X82886Y-28623D01*
X82863Y-28740D01*
X82863Y-29330D01*
X82886Y-29447D01*
X82952Y-29547D01*
X83149Y-29743D01*
X83149Y-29743D01*
X83249Y-29810D01*
X83358Y-29831D01*
X82368Y-29831D01*
X82368Y-33808D01*
X82065Y-33808D01*
X81595Y-34278D01*
X81595Y-33700D01*
X81595Y-33700D01*
X81595Y-33700D01*
X81575Y-33602D01*
X81520Y-33519D01*
X81520Y-33519D01*
X80653Y-32653D01*
X80570Y-32597D01*
X80554Y-32594D01*
X80472Y-32577D01*
X80472Y-32577D01*
X78543Y-32577D01*
X78445Y-32597D01*
X78361Y-32653D01*
X78361Y-32653D01*
X78204Y-32810D01*
X78148Y-32893D01*
X78145Y-32910D01*
X78129Y-32992D01*
X78129Y-32992D01*
X78129Y-33613D01*
X78061Y-33680D01*
X78003Y-33821D01*
X78003Y-33973D01*
X78061Y-34114D01*
X78168Y-34221D01*
X78309Y-34280D01*
X78461Y-34280D01*
X78602Y-34222D01*
X78709Y-34114D01*
X78768Y-33974D01*
X78768Y-33821D01*
X78710Y-33681D01*
X78642Y-33613D01*
X78642Y-33098D01*
X78649Y-33091D01*
X80366Y-33091D01*
X81081Y-33807D01*
X81081Y-34696D01*
X79785Y-35993D01*
X79785Y-34653D01*
X80198Y-34240D01*
X80292Y-34240D01*
X80432Y-34182D01*
X80540Y-34075D01*
X80598Y-33934D01*
X80599Y-33782D01*
X80540Y-33641D01*
X80433Y-33534D01*
X80292Y-33475D01*
X80140Y-33475D01*
X80000Y-33533D01*
X79892Y-33641D01*
X79834Y-33781D01*
X79834Y-33876D01*
X79345Y-34365D01*
X79289Y-34448D01*
X79270Y-34547D01*
X79270Y-36012D01*
X78108Y-36012D01*
X77973Y-35877D01*
X77973Y-35787D01*
X77953Y-35689D01*
X77953Y-35689D01*
X77941Y-35670D01*
X77941Y-35670D01*
X77941Y-35554D01*
X77883Y-35413D01*
X77775Y-35305D01*
X77690Y-35270D01*
X78016Y-34945D01*
X78016Y-34945D01*
X78016Y-34945D01*
X78071Y-34862D01*
X78091Y-34763D01*
X78091Y-34763D01*
X78091Y-34763D01*
X78091Y-34527D01*
X78071Y-34429D01*
X78071Y-34429D01*
X78016Y-34346D01*
X78016Y-34346D01*
X77744Y-34074D01*
X77744Y-33979D01*
X77686Y-33838D01*
X77579Y-33731D01*
X77438Y-33672D01*
X77305Y-33672D01*
X77292Y-33641D01*
X77214Y-33562D01*
X77292Y-33484D01*
X77350Y-33344D01*
X77351Y-33191D01*
X77292Y-33051D01*
X77274Y-33032D01*
X79282Y-31024D01*
X79282Y-28185D01*
X79400Y-28470D01*
X79657Y-28728D01*
X79994Y-28868D01*
X80358Y-28868D01*
X80695Y-28729D01*
X80953Y-28472D01*
X81092Y-28135D01*
X81093Y-28049D01*
X81180Y-28085D01*
X81372Y-28085D01*
X81550Y-28012D01*
X81677Y-27885D01*
X81803Y-28011D01*
X81980Y-28085D01*
X82172Y-28085D01*
X82350Y-28012D01*
X82477Y-27885D01*
X82603Y-28011D01*
X82780Y-28085D01*
X82972Y-28085D01*
X83150Y-28012D01*
X83277Y-27885D01*
X83371Y-27979D01*
X83371Y-28105D01*
X83371Y-28105D01*
G37*
G54D19*
X83371Y-28105D02*
X82952Y-28523D01*
X82886Y-28623D01*
X82863Y-28740D01*
X82863Y-29330D01*
X82886Y-29447D01*
X82952Y-29547D01*
X83149Y-29743D01*
X83149Y-29743D01*
X83249Y-29810D01*
X83358Y-29831D01*
X82368Y-29831D01*
X82368Y-33808D01*
X82065Y-33808D01*
X81595Y-34278D01*
X81595Y-33700D01*
X81595Y-33700D01*
X81595Y-33700D01*
X81575Y-33602D01*
X81520Y-33519D01*
X81520Y-33519D01*
X80653Y-32653D01*
X80570Y-32597D01*
X80554Y-32594D01*
X80472Y-32577D01*
X80472Y-32577D01*
X78543Y-32577D01*
X78445Y-32597D01*
X78361Y-32653D01*
X78361Y-32653D01*
X78204Y-32810D01*
X78148Y-32893D01*
X78145Y-32910D01*
X78129Y-32992D01*
X78129Y-32992D01*
X78129Y-33613D01*
X78061Y-33680D01*
X78003Y-33821D01*
X78003Y-33973D01*
X78061Y-34114D01*
X78168Y-34221D01*
X78309Y-34280D01*
X78461Y-34280D01*
X78602Y-34222D01*
X78709Y-34114D01*
X78768Y-33974D01*
X78768Y-33821D01*
X78710Y-33681D01*
X78642Y-33613D01*
X78642Y-33098D01*
X78649Y-33091D01*
X80366Y-33091D01*
X81081Y-33807D01*
X81081Y-34696D01*
X79785Y-35993D01*
X79785Y-34653D01*
X80198Y-34240D01*
X80292Y-34240D01*
X80432Y-34182D01*
X80540Y-34075D01*
X80598Y-33934D01*
X80599Y-33782D01*
X80540Y-33641D01*
X80433Y-33534D01*
X80292Y-33475D01*
X80140Y-33475D01*
X80000Y-33533D01*
X79892Y-33641D01*
X79834Y-33781D01*
X79834Y-33876D01*
X79345Y-34365D01*
X79289Y-34448D01*
X79270Y-34547D01*
X79270Y-36012D01*
X78108Y-36012D01*
X77973Y-35877D01*
X77973Y-35787D01*
X77953Y-35689D01*
X77953Y-35689D01*
X77941Y-35670D01*
X77941Y-35670D01*
X77941Y-35554D01*
X77883Y-35413D01*
X77775Y-35305D01*
X77690Y-35270D01*
X78016Y-34945D01*
X78016Y-34945D01*
X78016Y-34945D01*
X78071Y-34862D01*
X78091Y-34763D01*
X78091Y-34763D01*
X78091Y-34763D01*
X78091Y-34527D01*
X78071Y-34429D01*
X78071Y-34429D01*
X78016Y-34346D01*
X78016Y-34346D01*
X77744Y-34074D01*
X77744Y-33979D01*
X77686Y-33838D01*
X77579Y-33731D01*
X77438Y-33672D01*
X77305Y-33672D01*
X77292Y-33641D01*
X77214Y-33562D01*
X77292Y-33484D01*
X77350Y-33344D01*
X77351Y-33191D01*
X77292Y-33051D01*
X77274Y-33032D01*
X79282Y-31024D01*
X79282Y-28185D01*
X79400Y-28470D01*
X79657Y-28728D01*
X79994Y-28868D01*
X80358Y-28868D01*
X80695Y-28729D01*
X80953Y-28472D01*
X81092Y-28135D01*
X81093Y-28049D01*
X81180Y-28085D01*
X81372Y-28085D01*
X81550Y-28012D01*
X81677Y-27885D01*
X81803Y-28011D01*
X81980Y-28085D01*
X82172Y-28085D01*
X82350Y-28012D01*
X82477Y-27885D01*
X82603Y-28011D01*
X82780Y-28085D01*
X82972Y-28085D01*
X83150Y-28012D01*
X83277Y-27885D01*
X83371Y-27979D01*
X83371Y-28105D01*
G54D10*
G36*
X79969Y-42371D02*
X79252Y-42371D01*
X77728Y-40846D01*
X77805Y-40768D01*
X77805Y-38997D01*
X79969Y-36833D01*
X79969Y-42371D01*
X79969Y-42371D01*
G37*
G54D19*
X79969Y-42371D02*
X79252Y-42371D01*
X77728Y-40846D01*
X77805Y-40768D01*
X77805Y-38997D01*
X79969Y-36833D01*
X79969Y-42371D01*
G54D10*
G36*
X83020Y-40812D02*
X82033Y-41800D01*
X81983Y-41800D01*
X81504Y-41321D01*
X81504Y-41278D01*
X81458Y-41166D01*
X81373Y-41081D01*
X81261Y-41034D01*
X81140Y-41034D01*
X81028Y-41080D01*
X80943Y-41166D01*
X80897Y-41277D01*
X80896Y-41398D01*
X80943Y-41510D01*
X81028Y-41595D01*
X81140Y-41642D01*
X81183Y-41642D01*
X81687Y-42146D01*
X81462Y-42371D01*
X80168Y-42371D01*
X80168Y-36811D01*
X80168Y-36634D01*
X82304Y-34498D01*
X83020Y-34498D01*
X83020Y-40812D01*
X83020Y-40812D01*
G37*
G54D19*
X83020Y-40812D02*
X82033Y-41800D01*
X81983Y-41800D01*
X81504Y-41321D01*
X81504Y-41278D01*
X81458Y-41166D01*
X81373Y-41081D01*
X81261Y-41034D01*
X81140Y-41034D01*
X81028Y-41080D01*
X80943Y-41166D01*
X80897Y-41277D01*
X80896Y-41398D01*
X80943Y-41510D01*
X81028Y-41595D01*
X81140Y-41642D01*
X81183Y-41642D01*
X81687Y-42146D01*
X81462Y-42371D01*
X80168Y-42371D01*
X80168Y-36811D01*
X80168Y-36634D01*
X82304Y-34498D01*
X83020Y-34498D01*
X83020Y-40812D01*
G54D10*
G36*
X78985Y-30786D02*
X76882Y-32889D01*
X76752Y-32943D01*
X76662Y-33033D01*
X76662Y-32699D01*
X76603Y-32559D01*
X76496Y-32451D01*
X76355Y-32393D01*
X76203Y-32393D01*
X76063Y-32451D01*
X76044Y-32469D01*
X75540Y-32469D01*
X75227Y-32156D01*
X75227Y-31259D01*
X75227Y-31259D01*
X75203Y-31142D01*
X75137Y-31043D01*
X75137Y-31043D01*
X74988Y-30894D01*
X74988Y-30869D01*
X74930Y-30728D01*
X74823Y-30620D01*
X74682Y-30562D01*
X74530Y-30562D01*
X74389Y-30620D01*
X74282Y-30727D01*
X74223Y-30868D01*
X74223Y-31020D01*
X74281Y-31161D01*
X74389Y-31268D01*
X74529Y-31327D01*
X74556Y-31327D01*
X74615Y-31386D01*
X74615Y-32283D01*
X74638Y-32400D01*
X74704Y-32499D01*
X75197Y-32991D01*
X75197Y-32991D01*
X75296Y-33058D01*
X75413Y-33081D01*
X75413Y-33081D01*
X76044Y-33081D01*
X76062Y-33099D01*
X76203Y-33158D01*
X76355Y-33158D01*
X76495Y-33100D01*
X76603Y-32992D01*
X76661Y-32852D01*
X76662Y-32699D01*
X76662Y-33033D01*
X76644Y-33050D01*
X76590Y-33181D01*
X74792Y-34979D01*
X73228Y-34979D01*
X73178Y-34989D01*
X73010Y-34989D01*
X72518Y-35481D01*
X71112Y-35481D01*
X71112Y-27460D01*
X71112Y-26920D01*
X73052Y-26920D01*
X74361Y-25611D01*
X74361Y-23868D01*
X78985Y-23868D01*
X78985Y-25945D01*
X78980Y-25950D01*
X78891Y-26165D01*
X78891Y-26398D01*
X78980Y-26614D01*
X78985Y-26619D01*
X78985Y-30786D01*
X78985Y-30786D01*
G37*
G54D19*
X78985Y-30786D02*
X76882Y-32889D01*
X76752Y-32943D01*
X76662Y-33033D01*
X76662Y-32699D01*
X76603Y-32559D01*
X76496Y-32451D01*
X76355Y-32393D01*
X76203Y-32393D01*
X76063Y-32451D01*
X76044Y-32469D01*
X75540Y-32469D01*
X75227Y-32156D01*
X75227Y-31259D01*
X75227Y-31259D01*
X75203Y-31142D01*
X75137Y-31043D01*
X75137Y-31043D01*
X74988Y-30894D01*
X74988Y-30869D01*
X74930Y-30728D01*
X74823Y-30620D01*
X74682Y-30562D01*
X74530Y-30562D01*
X74389Y-30620D01*
X74282Y-30727D01*
X74223Y-30868D01*
X74223Y-31020D01*
X74281Y-31161D01*
X74389Y-31268D01*
X74529Y-31327D01*
X74556Y-31327D01*
X74615Y-31386D01*
X74615Y-32283D01*
X74638Y-32400D01*
X74704Y-32499D01*
X75197Y-32991D01*
X75197Y-32991D01*
X75296Y-33058D01*
X75413Y-33081D01*
X75413Y-33081D01*
X76044Y-33081D01*
X76062Y-33099D01*
X76203Y-33158D01*
X76355Y-33158D01*
X76495Y-33100D01*
X76603Y-32992D01*
X76661Y-32852D01*
X76662Y-32699D01*
X76662Y-33033D01*
X76644Y-33050D01*
X76590Y-33181D01*
X74792Y-34979D01*
X73228Y-34979D01*
X73178Y-34989D01*
X73010Y-34989D01*
X72518Y-35481D01*
X71112Y-35481D01*
X71112Y-27460D01*
X71112Y-26920D01*
X73052Y-26920D01*
X74361Y-25611D01*
X74361Y-23868D01*
X78985Y-23868D01*
X78985Y-25945D01*
X78980Y-25950D01*
X78891Y-26165D01*
X78891Y-26398D01*
X78980Y-26614D01*
X78985Y-26619D01*
X78985Y-30786D01*
G54D10*
G36*
X78168Y-36973D02*
X77593Y-37548D01*
X77469Y-37548D01*
X77469Y-37439D01*
X77423Y-37328D01*
X77337Y-37242D01*
X77226Y-37196D01*
X77105Y-37196D01*
X76993Y-37242D01*
X76913Y-37322D01*
X76181Y-37322D01*
X76124Y-37333D01*
X76113Y-37335D01*
X76055Y-37374D01*
X75893Y-37536D01*
X75848Y-37426D01*
X75762Y-37341D01*
X75651Y-37294D01*
X75539Y-37294D01*
X75203Y-36958D01*
X75891Y-36270D01*
X77751Y-36270D01*
X78168Y-36687D01*
X78168Y-36973D01*
X78168Y-36973D01*
G37*
G54D19*
X78168Y-36973D02*
X77593Y-37548D01*
X77469Y-37548D01*
X77469Y-37439D01*
X77423Y-37328D01*
X77337Y-37242D01*
X77226Y-37196D01*
X77105Y-37196D01*
X76993Y-37242D01*
X76913Y-37322D01*
X76181Y-37322D01*
X76124Y-37333D01*
X76113Y-37335D01*
X76055Y-37374D01*
X75893Y-37536D01*
X75848Y-37426D01*
X75762Y-37341D01*
X75651Y-37294D01*
X75539Y-37294D01*
X75203Y-36958D01*
X75891Y-36270D01*
X77751Y-36270D01*
X78168Y-36687D01*
X78168Y-36973D01*
G54D10*
G36*
X87056Y-37770D02*
X87055Y-37775D01*
X85024Y-39806D01*
X84820Y-39603D01*
X84849Y-39532D01*
X84850Y-39404D01*
X84801Y-39286D01*
X84710Y-39195D01*
X84591Y-39146D01*
X84463Y-39145D01*
X84345Y-39194D01*
X84254Y-39285D01*
X84205Y-39404D01*
X84205Y-39532D01*
X84254Y-39650D01*
X84300Y-39697D01*
X84308Y-39736D01*
X84359Y-39813D01*
X84688Y-40142D01*
X84595Y-40235D01*
X84595Y-41209D01*
X84132Y-41209D01*
X84132Y-38971D01*
X86562Y-36541D01*
X86678Y-36494D01*
X86769Y-36403D01*
X86818Y-36284D01*
X86818Y-36156D01*
X86795Y-36101D01*
X87056Y-36101D01*
X87056Y-37770D01*
X87056Y-37770D01*
G37*
G54D19*
X87056Y-37770D02*
X87055Y-37775D01*
X85024Y-39806D01*
X84820Y-39603D01*
X84849Y-39532D01*
X84850Y-39404D01*
X84801Y-39286D01*
X84710Y-39195D01*
X84591Y-39146D01*
X84463Y-39145D01*
X84345Y-39194D01*
X84254Y-39285D01*
X84205Y-39404D01*
X84205Y-39532D01*
X84254Y-39650D01*
X84300Y-39697D01*
X84308Y-39736D01*
X84359Y-39813D01*
X84688Y-40142D01*
X84595Y-40235D01*
X84595Y-41209D01*
X84132Y-41209D01*
X84132Y-38971D01*
X86562Y-36541D01*
X86678Y-36494D01*
X86769Y-36403D01*
X86818Y-36284D01*
X86818Y-36156D01*
X86795Y-36101D01*
X87056Y-36101D01*
X87056Y-37770D01*
M02*
