M48
;DRILL file {Pcbnew (2013-dec-23)-stable} date Thu 15 May 2014 10:29:38 AM EDT
;FORMAT={-:-/ absolute / inch / decimal}
FMAT,2
INCH,TZ
T1C0.020
T2C0.028
T3C0.032
T4C0.035
T5C0.040
%
G90
G05
M72
T1
X9.315Y-4.5079
X9.5354Y-4.8386
X9.542Y-4.3631
X9.542Y-4.4431
X9.652Y-4.3631
X9.652Y-4.4331
X9.802Y-5.1331
X9.852Y-5.0831
X9.852Y-5.1331
X9.852Y-5.1831
X9.902Y-5.1331
X9.952Y-5.0831
X9.952Y-5.1331
X9.952Y-5.1831
X9.952Y-5.2331
X10.002Y-5.1331
X10.002Y-5.2331
X10.052Y-5.0831
X10.052Y-5.1331
X10.052Y-5.1831
X10.052Y-5.2331
X10.052Y-5.2831
X10.102Y-5.1331
X10.102Y-5.2331
T2
X8.7087Y-4.7933
X8.7087Y-4.8917
X8.7481Y-4.7147
X8.7481Y-4.9705
X8.7875Y-4.7934
X8.7875Y-4.8917
X8.8269Y-4.7147
X8.8269Y-4.9705
X8.8662Y-4.7934
X8.8662Y-4.8917
X8.9056Y-4.7147
X8.9056Y-4.9705
X8.945Y-4.7934
X8.945Y-4.8917
X8.9843Y-4.7147
X8.9843Y-4.9705
X9.0237Y-4.7934
X9.0237Y-4.8917
X9.0631Y-4.7147
X9.0631Y-4.9705
X9.1024Y-4.7934
X9.1024Y-4.8917
X9.1673Y-4.8425
X9.2206Y-4.7147
X9.2206Y-4.9705
X9.2599Y-4.7934
X9.2599Y-4.8917
X9.2993Y-4.7147
X9.2993Y-4.9705
X9.3387Y-4.7934
X9.3387Y-4.8917
X9.378Y-4.7147
X9.378Y-4.9705
X9.4174Y-4.7934
X9.4174Y-4.8917
X9.4568Y-4.7147
X9.4568Y-4.9705
X9.4961Y-4.7934
X9.4961Y-4.8917
X9.5355Y-4.7147
X9.5355Y-4.9705
X9.5749Y-4.7934
X9.5749Y-4.8917
X9.6143Y-4.7147
X9.6143Y-4.9705
X9.6536Y-4.7934
X9.6536Y-4.8917
X9.693Y-4.7147
X9.693Y-4.9705
X9.7324Y-4.7934
X9.7324Y-4.8917
X9.7717Y-4.7147
X9.7717Y-4.9705
X9.8111Y-4.7934
X9.8111Y-4.8917
X9.8505Y-4.7147
X9.8505Y-4.9705
X9.8898Y-4.7934
X9.8898Y-4.8917
X9.9292Y-4.7147
X9.9292Y-4.9705
X9.9686Y-4.7934
X9.9686Y-4.8917
X10.008Y-4.7147
X10.008Y-4.9705
X10.0787Y-4.8425
T3
X8.202Y-4.5831
X8.202Y-4.6831
X8.202Y-4.7831
X8.202Y-4.8831
X8.202Y-4.9831
X8.202Y-5.0831
X8.202Y-5.1831
X8.202Y-5.2831
X8.202Y-5.3831
X8.202Y-5.4831
X8.202Y-5.5831
X8.202Y-5.6831
X8.202Y-5.7831
X8.202Y-5.8831
X8.202Y-5.9831
X8.202Y-6.0831
X8.202Y-6.1831
X8.202Y-6.2831
X10.302Y-4.5831
X10.302Y-4.6831
X10.302Y-4.7831
X10.302Y-4.8831
X10.302Y-4.9831
X10.302Y-5.0831
X10.302Y-5.1831
X10.302Y-5.2831
X10.302Y-5.3831
X10.302Y-5.4831
X10.302Y-5.5831
X10.302Y-5.6831
X10.302Y-5.7831
X10.302Y-5.8831
X10.302Y-5.9831
X10.302Y-6.0831
X10.302Y-6.1831
X10.302Y-6.2831
T4
X8.302Y-6.1831
X8.302Y-6.2831
X8.402Y-5.3831
X8.402Y-5.4831
X8.402Y-5.5831
X8.402Y-5.6831
X8.402Y-5.7831
X8.402Y-5.8831
X8.402Y-5.9831
X8.402Y-6.0831
X8.402Y-6.1831
X8.402Y-6.2831
X8.402Y-6.3831
X8.402Y-6.4831
X8.502Y-5.3831
X8.502Y-5.4831
X8.502Y-5.5831
X8.502Y-5.6831
X8.502Y-5.7831
X8.502Y-5.8831
X8.502Y-5.9831
X8.502Y-6.0831
X8.502Y-6.1831
X8.502Y-6.2831
X8.502Y-6.3831
X8.502Y-6.4831
X8.602Y-5.3831
X8.602Y-5.4831
X8.602Y-5.5831
X8.602Y-5.6831
X8.602Y-5.7831
X8.602Y-5.8831
X8.602Y-5.9831
X8.602Y-6.0831
X8.602Y-6.1831
X8.602Y-6.2831
X8.602Y-6.3831
X8.602Y-6.4831
X8.702Y-5.3831
X8.702Y-5.4831
X8.702Y-5.5831
X8.702Y-5.6831
X8.702Y-5.7831
X8.702Y-5.8831
X8.702Y-5.9831
X8.702Y-6.0831
X8.702Y-6.1831
X8.702Y-6.2831
X8.702Y-6.3831
X8.702Y-6.4831
X8.802Y-5.3831
X8.802Y-5.4831
X8.802Y-5.5831
X8.802Y-5.6831
X8.802Y-5.7831
X8.802Y-5.8831
X8.802Y-5.9831
X8.802Y-6.0831
X8.802Y-6.1831
X8.802Y-6.2831
X8.802Y-6.3831
X8.802Y-6.4831
X8.902Y-5.3831
X8.902Y-5.4831
X8.902Y-5.5831
X8.902Y-5.6831
X8.902Y-5.7831
X8.902Y-5.8831
X8.902Y-5.9831
X8.902Y-6.0831
X8.902Y-6.1831
X8.902Y-6.2831
X8.902Y-6.3831
X8.902Y-6.4831
X9.002Y-5.3831
X9.002Y-5.4831
X9.002Y-5.5831
X9.002Y-5.6831
X9.002Y-5.7831
X9.002Y-5.8831
X9.002Y-5.9831
X9.002Y-6.0831
X9.002Y-6.1831
X9.002Y-6.2831
X9.002Y-6.3831
X9.002Y-6.4831
X9.102Y-5.3831
X9.102Y-5.4831
X9.102Y-5.5831
X9.102Y-5.6831
X9.102Y-5.7831
X9.102Y-5.8831
X9.102Y-5.9831
X9.102Y-6.0831
X9.102Y-6.1831
X9.102Y-6.2831
X9.102Y-6.3831
X9.102Y-6.4831
X9.202Y-5.3831
X9.202Y-5.4831
X9.202Y-5.5831
X9.202Y-5.6831
X9.202Y-5.7831
X9.202Y-5.8831
X9.202Y-5.9831
X9.202Y-6.0831
X9.202Y-6.1831
X9.202Y-6.2831
X9.202Y-6.3831
X9.202Y-6.4831
X9.302Y-5.3831
X9.302Y-5.4831
X9.302Y-5.5831
X9.302Y-5.6831
X9.302Y-5.7831
X9.302Y-5.8831
X9.302Y-5.9831
X9.302Y-6.0831
X9.302Y-6.1831
X9.302Y-6.2831
X9.302Y-6.3831
X9.302Y-6.4831
X9.402Y-5.2831
X9.402Y-5.3831
X9.402Y-5.4831
X9.402Y-5.5831
X9.402Y-5.6831
X9.402Y-5.7831
X9.402Y-5.8831
X9.402Y-5.9831
X9.402Y-6.0831
X9.402Y-6.1831
X9.402Y-6.2831
X9.402Y-6.3831
X9.402Y-6.4831
X9.452Y-5.3331
X9.502Y-5.2831
X9.502Y-5.3831
X9.502Y-5.4831
X9.502Y-5.5831
X9.502Y-5.6831
X9.502Y-5.7831
X9.502Y-5.8831
X9.502Y-5.9831
X9.502Y-6.0831
X9.502Y-6.1831
X9.502Y-6.2831
X9.502Y-6.3831
X9.502Y-6.4831
X9.552Y-5.3331
X9.602Y-5.2831
X9.602Y-5.3831
X9.602Y-5.4831
X9.602Y-5.5831
X9.602Y-5.6831
X9.602Y-5.7831
X9.602Y-5.8831
X9.602Y-5.9831
X9.602Y-6.0831
X9.602Y-6.1831
X9.602Y-6.2831
X9.602Y-6.3831
X9.602Y-6.4831
X9.652Y-5.3331
X9.702Y-5.2831
X9.702Y-5.3831
X9.702Y-5.4831
X9.702Y-5.5831
X9.702Y-5.6831
X9.702Y-5.7831
X9.702Y-5.8831
X9.702Y-5.9831
X9.702Y-6.0831
X9.702Y-6.1831
X9.702Y-6.2831
X9.702Y-6.3831
X9.702Y-6.4831
X9.752Y-5.3331
X9.802Y-5.1831
X9.802Y-5.2831
X9.802Y-5.3831
X9.802Y-5.4831
X9.802Y-5.5831
X9.802Y-5.6831
X9.802Y-5.7831
X9.802Y-5.8831
X9.802Y-5.9831
X9.802Y-6.0831
X9.802Y-6.1831
X9.802Y-6.2831
X9.802Y-6.3831
X9.802Y-6.4831
X9.852Y-5.3331
X9.902Y-5.0831
X9.902Y-5.1831
X9.902Y-5.2831
X9.902Y-5.3831
X9.902Y-5.4831
X9.902Y-5.5831
X9.902Y-5.6831
X9.902Y-5.7831
X9.902Y-5.8831
X9.902Y-5.9831
X9.902Y-6.0831
X9.902Y-6.1831
X9.902Y-6.2831
X9.902Y-6.3831
X9.902Y-6.4831
X10.002Y-5.0831
X10.002Y-5.1831
X10.002Y-5.2831
X10.002Y-5.3831
X10.002Y-5.4831
X10.002Y-5.5831
X10.002Y-5.6831
X10.002Y-5.7831
X10.002Y-5.8831
X10.002Y-5.9831
X10.002Y-6.0831
X10.002Y-6.1831
X10.002Y-6.2831
X10.002Y-6.3831
X10.002Y-6.4831
X10.102Y-5.0831
X10.102Y-5.1831
X10.102Y-5.2831
X10.102Y-5.3831
X10.102Y-5.4831
X10.102Y-5.5831
X10.102Y-5.6831
X10.102Y-5.7831
X10.102Y-5.8831
X10.102Y-5.9831
X10.102Y-6.0831
X10.102Y-6.1831
X10.102Y-6.2831
X10.102Y-6.3831
X10.102Y-6.4831
X10.202Y-6.0831
X10.202Y-6.1831
X10.202Y-6.2831
T5
X8.402Y-4.3831
X8.502Y-4.3831
X8.602Y-4.3831
X8.802Y-4.3831
X8.802Y-5.0831
X8.902Y-4.3831
X8.902Y-5.0831
X9.002Y-5.0831
T0
M30
