G04 (created by PCBNEW (2013-dec-23)-stable) date Thu 15 May 2014 10:29:33 AM EDT*
%MOIN*%
G04 Gerber Fmt 3.4, Leading zero omitted, Abs format*
%FSLAX34Y34*%
G01*
G70*
G90*
G04 APERTURE LIST*
%ADD10C,0.00590551*%
%ADD11R,0.055X0.055*%
%ADD12C,0.055*%
%ADD13R,0.06X0.06*%
%ADD14C,0.06*%
%ADD15R,0.0394X0.0354*%
%ADD16C,0.05*%
%ADD17R,0.015748X0.0531496*%
%ADD18R,0.0826772X0.0629921*%
%ADD19R,0.0748031X0.0748031*%
%ADD20R,0.0708661X0.0748031*%
%ADD21R,0.0511811X0.0649606*%
%ADD22R,0.0649606X0.0511811*%
%ADD23R,0.0472X0.0472*%
%ADD24C,0.0354331*%
%ADD25C,0.0511811*%
%ADD26C,0.000393701*%
G04 APERTURE END LIST*
G54D10*
G54D11*
X103019Y-45830D03*
G54D12*
X103019Y-46830D03*
X103019Y-47830D03*
X103019Y-48830D03*
X103019Y-49830D03*
X103019Y-50830D03*
X103019Y-51830D03*
X103019Y-52830D03*
X103019Y-53830D03*
X103019Y-54830D03*
X103019Y-55830D03*
X103019Y-56830D03*
X103019Y-57830D03*
X103019Y-58830D03*
X103019Y-59830D03*
X103019Y-60830D03*
X103019Y-61830D03*
X103019Y-62830D03*
G54D11*
X82019Y-45830D03*
G54D12*
X82019Y-46830D03*
X82019Y-47830D03*
X82019Y-48830D03*
X82019Y-49830D03*
X82019Y-50830D03*
X82019Y-51830D03*
X82019Y-52830D03*
X82019Y-53830D03*
X82019Y-54830D03*
X82019Y-55830D03*
X82019Y-56830D03*
X82019Y-57830D03*
X82019Y-58830D03*
X82019Y-59830D03*
X82019Y-60830D03*
X82019Y-61830D03*
X82019Y-62830D03*
G54D13*
X88019Y-50830D03*
G54D14*
X89019Y-50830D03*
X90019Y-50830D03*
G54D13*
X86019Y-43830D03*
G54D14*
X85019Y-43830D03*
X84019Y-43830D03*
G54D15*
X101023Y-44823D03*
X101023Y-44231D03*
X97204Y-43562D03*
X97204Y-44154D03*
G54D16*
X87480Y-47146D03*
X87874Y-47933D03*
X88268Y-47146D03*
X88661Y-47933D03*
X89055Y-47146D03*
X89449Y-47933D03*
X89842Y-47146D03*
X90236Y-47933D03*
X90630Y-47146D03*
X91023Y-47933D03*
X92205Y-47146D03*
X92598Y-47933D03*
X92992Y-47146D03*
X93386Y-47933D03*
X93779Y-47146D03*
X94173Y-47933D03*
X94567Y-47146D03*
X94960Y-47933D03*
X95354Y-47146D03*
X95748Y-47933D03*
X96142Y-47146D03*
X96535Y-47933D03*
X96929Y-47146D03*
X97323Y-47933D03*
X97716Y-47146D03*
X98110Y-47933D03*
X98504Y-47146D03*
X98897Y-47933D03*
X99291Y-47146D03*
X99685Y-47933D03*
X100079Y-47146D03*
X87086Y-48916D03*
X87480Y-49704D03*
X87874Y-48916D03*
X88268Y-49704D03*
X88661Y-48916D03*
X89055Y-49704D03*
X89449Y-48916D03*
X89842Y-49704D03*
X90236Y-48916D03*
X90630Y-49704D03*
X91023Y-48916D03*
X92205Y-49704D03*
X92598Y-48916D03*
X92992Y-49704D03*
X93386Y-48916D03*
X93779Y-49704D03*
X94173Y-48916D03*
X94567Y-49704D03*
X94960Y-48916D03*
X95354Y-49704D03*
X95748Y-48916D03*
X96142Y-49704D03*
X96535Y-48916D03*
X96929Y-49704D03*
X97323Y-48916D03*
X97716Y-49704D03*
X98110Y-48916D03*
X98504Y-49704D03*
X98897Y-48916D03*
X99291Y-49704D03*
X99685Y-48916D03*
X100079Y-49704D03*
X87086Y-47933D03*
X91673Y-48425D03*
X100787Y-48425D03*
G54D13*
X88019Y-43830D03*
G54D14*
X89019Y-43830D03*
G54D17*
X93031Y-44488D03*
X92775Y-44488D03*
X92519Y-44488D03*
X92263Y-44488D03*
X92007Y-44488D03*
G54D18*
X93740Y-44438D03*
X91299Y-44438D03*
G54D19*
X92992Y-43169D03*
X92047Y-43169D03*
G54D20*
X94015Y-43169D03*
X91023Y-43169D03*
G54D21*
X96555Y-43120D03*
X96555Y-46250D03*
X94783Y-43120D03*
X94783Y-46250D03*
G54D22*
X101013Y-45413D03*
X97883Y-45413D03*
X101013Y-43641D03*
X97883Y-43641D03*
G54D23*
X92932Y-46062D03*
X92106Y-46062D03*
G54D24*
X100519Y-52830D03*
X98019Y-51330D03*
X98519Y-50830D03*
X98519Y-51330D03*
X98519Y-51830D03*
X101019Y-52330D03*
X100519Y-52330D03*
X100519Y-51830D03*
X101019Y-51330D03*
X100519Y-51330D03*
X100519Y-50830D03*
X100019Y-52330D03*
X99519Y-52330D03*
X99519Y-51830D03*
X100019Y-51330D03*
X99019Y-51330D03*
X99519Y-51330D03*
X99519Y-50830D03*
G54D25*
X98519Y-53330D03*
X97519Y-53330D03*
X96519Y-53330D03*
X95519Y-53330D03*
X94519Y-53330D03*
X99019Y-50830D03*
X100019Y-50830D03*
X101019Y-50830D03*
X101019Y-51830D03*
X95019Y-53830D03*
X96019Y-53830D03*
X97019Y-53830D03*
X94019Y-53830D03*
X91019Y-53830D03*
X98019Y-53830D03*
X90019Y-53830D03*
X98019Y-51830D03*
X98019Y-52830D03*
X94019Y-52830D03*
X97019Y-52830D03*
X96019Y-52830D03*
X95019Y-52830D03*
X84019Y-64830D03*
X86019Y-64830D03*
X85019Y-64830D03*
X89019Y-64830D03*
X88019Y-64830D03*
X87019Y-64830D03*
X95019Y-64830D03*
X96019Y-64830D03*
X97019Y-64830D03*
X93019Y-64830D03*
X94019Y-64830D03*
X92019Y-64830D03*
X91019Y-64830D03*
X100019Y-64830D03*
X99019Y-64830D03*
X101019Y-64830D03*
X98019Y-64830D03*
X90019Y-64830D03*
X90019Y-63830D03*
X98019Y-63830D03*
X101019Y-63830D03*
X99019Y-63830D03*
X100019Y-63830D03*
X91019Y-63830D03*
X92019Y-63830D03*
X94019Y-63830D03*
X93019Y-63830D03*
X97019Y-63830D03*
X96019Y-63830D03*
X95019Y-63830D03*
X87019Y-63830D03*
X88019Y-63830D03*
X89019Y-63830D03*
X85019Y-63830D03*
X86019Y-63830D03*
X84019Y-63830D03*
X84019Y-55830D03*
X86019Y-55830D03*
X85019Y-55830D03*
X89019Y-55830D03*
X88019Y-55830D03*
X87019Y-55830D03*
X95019Y-55830D03*
X96019Y-55830D03*
X97019Y-55830D03*
X93019Y-55830D03*
X94019Y-55830D03*
X91019Y-55830D03*
X100019Y-55830D03*
X99019Y-55830D03*
X101019Y-55830D03*
X98019Y-55830D03*
X90019Y-55830D03*
X90019Y-54830D03*
X98019Y-54830D03*
X101019Y-54830D03*
X99019Y-54830D03*
X100019Y-54830D03*
X91019Y-54830D03*
X92019Y-54830D03*
X93019Y-54830D03*
X97019Y-54830D03*
X96019Y-54830D03*
X95019Y-54830D03*
X87019Y-54830D03*
X88019Y-54830D03*
X89019Y-54830D03*
X85019Y-54830D03*
X86019Y-54830D03*
X84019Y-54830D03*
X100019Y-51830D03*
X99019Y-51830D03*
X101019Y-52830D03*
X100019Y-52830D03*
X84019Y-53830D03*
X85019Y-53830D03*
X89019Y-53830D03*
X88019Y-53830D03*
X87019Y-53830D03*
X100019Y-53830D03*
X101019Y-53830D03*
X90019Y-58830D03*
X98019Y-58830D03*
X101019Y-58830D03*
X99019Y-58830D03*
X100019Y-58830D03*
X91019Y-58830D03*
X92019Y-58830D03*
X94019Y-58830D03*
X93019Y-58830D03*
X97019Y-58830D03*
X96019Y-58830D03*
X95019Y-58830D03*
X87019Y-58830D03*
X88019Y-58830D03*
X89019Y-58830D03*
X85019Y-58830D03*
X86019Y-58830D03*
X84019Y-58830D03*
X84019Y-57830D03*
X86019Y-57830D03*
X85019Y-57830D03*
X89019Y-57830D03*
X88019Y-57830D03*
X87019Y-57830D03*
X95019Y-57830D03*
X96019Y-57830D03*
X97019Y-57830D03*
X93019Y-57830D03*
X94019Y-57830D03*
X92019Y-57830D03*
X91019Y-57830D03*
X100019Y-57830D03*
X99019Y-57830D03*
X101019Y-57830D03*
X98019Y-57830D03*
X90019Y-57830D03*
X90019Y-56830D03*
X98019Y-56830D03*
X101019Y-56830D03*
X99019Y-56830D03*
X100019Y-56830D03*
X91019Y-56830D03*
X92019Y-56830D03*
X94019Y-56830D03*
X93019Y-56830D03*
X97019Y-56830D03*
X96019Y-56830D03*
X95019Y-56830D03*
X87019Y-56830D03*
X88019Y-56830D03*
X89019Y-56830D03*
X85019Y-56830D03*
X86019Y-56830D03*
X84019Y-56830D03*
X84019Y-59830D03*
X86019Y-59830D03*
X85019Y-59830D03*
X89019Y-59830D03*
X88019Y-59830D03*
X87019Y-59830D03*
X95019Y-59830D03*
X96019Y-59830D03*
X97019Y-59830D03*
X93019Y-59830D03*
X94019Y-59830D03*
X92019Y-59830D03*
X91019Y-59830D03*
X100019Y-59830D03*
X99019Y-59830D03*
X101019Y-59830D03*
X98019Y-59830D03*
X90019Y-59830D03*
X90019Y-60830D03*
X98019Y-60830D03*
X101019Y-60830D03*
X102019Y-60830D03*
X99019Y-60830D03*
X100019Y-60830D03*
X91019Y-60830D03*
X92019Y-60830D03*
X94019Y-60830D03*
X93019Y-60830D03*
X97019Y-60830D03*
X96019Y-60830D03*
X95019Y-60830D03*
X87019Y-60830D03*
X88019Y-60830D03*
X89019Y-60830D03*
X85019Y-60830D03*
X86019Y-60830D03*
X84019Y-60830D03*
X83019Y-61830D03*
X84019Y-61830D03*
X86019Y-61830D03*
X85019Y-61830D03*
X89019Y-61830D03*
X88019Y-61830D03*
X87019Y-61830D03*
X95019Y-61830D03*
X96019Y-61830D03*
X97019Y-61830D03*
X93019Y-61830D03*
X94019Y-61830D03*
X92019Y-61830D03*
X91019Y-61830D03*
X100019Y-61830D03*
X99019Y-61830D03*
X102019Y-61830D03*
X101019Y-61830D03*
X98019Y-61830D03*
X90019Y-61830D03*
X90019Y-62830D03*
X98019Y-62830D03*
X101019Y-62830D03*
X102019Y-62830D03*
X99019Y-62830D03*
X100019Y-62830D03*
X91019Y-62830D03*
X92019Y-62830D03*
X94019Y-62830D03*
X93019Y-62830D03*
X97019Y-62830D03*
X96019Y-62830D03*
X95019Y-62830D03*
X87019Y-62830D03*
X88019Y-62830D03*
X89019Y-62830D03*
X85019Y-62830D03*
X86019Y-62830D03*
X84019Y-62830D03*
X83019Y-62830D03*
X94019Y-54830D03*
X92019Y-55830D03*
X93019Y-53830D03*
G54D24*
X95354Y-48385D03*
X95419Y-44430D03*
X95419Y-43630D03*
G54D25*
X99019Y-52830D03*
G54D24*
X93149Y-45078D03*
X96519Y-43630D03*
X96519Y-44330D03*
G54D25*
X86019Y-53830D03*
X99019Y-53830D03*
X92019Y-53830D03*
G54D10*
G36*
X85127Y-49945D02*
X85116Y-50026D01*
X85069Y-50093D01*
X85046Y-50108D01*
X85007Y-50124D01*
X84937Y-50124D01*
X84724Y-50049D01*
X84420Y-50049D01*
X84325Y-50088D01*
X84270Y-50132D01*
X84222Y-50227D01*
X84226Y-50311D01*
X84270Y-50398D01*
X84309Y-50438D01*
X84424Y-50497D01*
X84727Y-50572D01*
X84904Y-50663D01*
X84963Y-50711D01*
X84885Y-50718D01*
X84617Y-50805D01*
X84562Y-50852D01*
X84335Y-50797D01*
X84131Y-50703D01*
X84013Y-50573D01*
X83919Y-50389D01*
X83915Y-50338D01*
X83915Y-50157D01*
X84013Y-49957D01*
X84111Y-49855D01*
X84146Y-49836D01*
X84319Y-49745D01*
X84366Y-49738D01*
X84751Y-49738D01*
X84782Y-49742D01*
X85085Y-49859D01*
X85127Y-49945D01*
X85127Y-49945D01*
G37*
G54D26*
X85127Y-49945D02*
X85116Y-50026D01*
X85069Y-50093D01*
X85046Y-50108D01*
X85007Y-50124D01*
X84937Y-50124D01*
X84724Y-50049D01*
X84420Y-50049D01*
X84325Y-50088D01*
X84270Y-50132D01*
X84222Y-50227D01*
X84226Y-50311D01*
X84270Y-50398D01*
X84309Y-50438D01*
X84424Y-50497D01*
X84727Y-50572D01*
X84904Y-50663D01*
X84963Y-50711D01*
X84885Y-50718D01*
X84617Y-50805D01*
X84562Y-50852D01*
X84335Y-50797D01*
X84131Y-50703D01*
X84013Y-50573D01*
X83919Y-50389D01*
X83915Y-50338D01*
X83915Y-50157D01*
X84013Y-49957D01*
X84111Y-49855D01*
X84146Y-49836D01*
X84319Y-49745D01*
X84366Y-49738D01*
X84751Y-49738D01*
X84782Y-49742D01*
X85085Y-49859D01*
X85127Y-49945D01*
G54D10*
G36*
X85124Y-51184D02*
X85116Y-51223D01*
X85025Y-51404D01*
X85010Y-51419D01*
X84927Y-51506D01*
X84900Y-51525D01*
X84715Y-51616D01*
X84676Y-51624D01*
X84283Y-51624D01*
X84256Y-51620D01*
X84020Y-51541D01*
X83993Y-51529D01*
X83958Y-51502D01*
X83927Y-51459D01*
X83915Y-51417D01*
X83915Y-51370D01*
X83930Y-51323D01*
X83962Y-51277D01*
X84008Y-51249D01*
X84063Y-51238D01*
X84105Y-51242D01*
X84318Y-51312D01*
X84630Y-51312D01*
X84725Y-51265D01*
X84765Y-51229D01*
X84812Y-51130D01*
X84812Y-51079D01*
X84819Y-51076D01*
X84945Y-51033D01*
X85101Y-51033D01*
X85124Y-51044D01*
X85124Y-51184D01*
X85124Y-51184D01*
G37*
G54D26*
X85124Y-51184D02*
X85116Y-51223D01*
X85025Y-51404D01*
X85010Y-51419D01*
X84927Y-51506D01*
X84900Y-51525D01*
X84715Y-51616D01*
X84676Y-51624D01*
X84283Y-51624D01*
X84256Y-51620D01*
X84020Y-51541D01*
X83993Y-51529D01*
X83958Y-51502D01*
X83927Y-51459D01*
X83915Y-51417D01*
X83915Y-51370D01*
X83930Y-51323D01*
X83962Y-51277D01*
X84008Y-51249D01*
X84063Y-51238D01*
X84105Y-51242D01*
X84318Y-51312D01*
X84630Y-51312D01*
X84725Y-51265D01*
X84765Y-51229D01*
X84812Y-51130D01*
X84812Y-51079D01*
X84819Y-51076D01*
X84945Y-51033D01*
X85101Y-51033D01*
X85124Y-51044D01*
X85124Y-51184D01*
M02*
