G04 (created by PCBNEW (2013-dec-23)-stable) date Thu 15 May 2014 10:29:33 AM EDT*
%MOIN*%
G04 Gerber Fmt 3.4, Leading zero omitted, Abs format*
%FSLAX34Y34*%
G01*
G70*
G90*
G04 APERTURE LIST*
%ADD10C,0.00590551*%
%ADD11C,0.0314961*%
%ADD12R,0.055X0.055*%
%ADD13C,0.055*%
%ADD14R,0.06X0.06*%
%ADD15C,0.06*%
%ADD16R,0.0394X0.0354*%
%ADD17C,0.05*%
%ADD18R,0.015748X0.0531496*%
%ADD19R,0.0826772X0.0629921*%
%ADD20R,0.0748031X0.0748031*%
%ADD21R,0.0708661X0.0748031*%
%ADD22R,0.0511811X0.0649606*%
%ADD23R,0.0649606X0.0511811*%
%ADD24R,0.0472X0.0472*%
%ADD25C,0.0354331*%
%ADD26C,0.0511811*%
%ADD27C,0.023622*%
%ADD28C,0.00629921*%
%ADD29C,0.00787402*%
G04 APERTURE END LIST*
G54D10*
G54D11*
X84069Y-51393D02*
X84294Y-51468D01*
X84669Y-51468D01*
X84819Y-51393D01*
X84894Y-51318D01*
X84969Y-51168D01*
X84969Y-51018D01*
X84894Y-50868D01*
X84819Y-50793D01*
X84669Y-50718D01*
X84369Y-50643D01*
X84219Y-50568D01*
X84144Y-50493D01*
X84069Y-50343D01*
X84069Y-50193D01*
X84144Y-50043D01*
X84219Y-49968D01*
X84369Y-49893D01*
X84744Y-49893D01*
X84969Y-49968D01*
G54D12*
X103019Y-45830D03*
G54D13*
X103019Y-46830D03*
X103019Y-47830D03*
X103019Y-48830D03*
X103019Y-49830D03*
X103019Y-50830D03*
X103019Y-51830D03*
X103019Y-52830D03*
X103019Y-53830D03*
X103019Y-54830D03*
X103019Y-55830D03*
X103019Y-56830D03*
X103019Y-57830D03*
X103019Y-58830D03*
X103019Y-59830D03*
X103019Y-60830D03*
X103019Y-61830D03*
X103019Y-62830D03*
G54D12*
X82019Y-45830D03*
G54D13*
X82019Y-46830D03*
X82019Y-47830D03*
X82019Y-48830D03*
X82019Y-49830D03*
X82019Y-50830D03*
X82019Y-51830D03*
X82019Y-52830D03*
X82019Y-53830D03*
X82019Y-54830D03*
X82019Y-55830D03*
X82019Y-56830D03*
X82019Y-57830D03*
X82019Y-58830D03*
X82019Y-59830D03*
X82019Y-60830D03*
X82019Y-61830D03*
X82019Y-62830D03*
G54D14*
X88019Y-50830D03*
G54D15*
X89019Y-50830D03*
X90019Y-50830D03*
G54D14*
X86019Y-43830D03*
G54D15*
X85019Y-43830D03*
X84019Y-43830D03*
G54D16*
X101023Y-44823D03*
X101023Y-44231D03*
X97204Y-43562D03*
X97204Y-44154D03*
G54D17*
X87480Y-47146D03*
X87874Y-47933D03*
X88268Y-47146D03*
X88661Y-47933D03*
X89055Y-47146D03*
X89449Y-47933D03*
X89842Y-47146D03*
X90236Y-47933D03*
X90630Y-47146D03*
X91023Y-47933D03*
X92205Y-47146D03*
X92598Y-47933D03*
X92992Y-47146D03*
X93386Y-47933D03*
X93779Y-47146D03*
X94173Y-47933D03*
X94567Y-47146D03*
X94960Y-47933D03*
X95354Y-47146D03*
X95748Y-47933D03*
X96142Y-47146D03*
X96535Y-47933D03*
X96929Y-47146D03*
X97323Y-47933D03*
X97716Y-47146D03*
X98110Y-47933D03*
X98504Y-47146D03*
X98897Y-47933D03*
X99291Y-47146D03*
X99685Y-47933D03*
X100079Y-47146D03*
X87086Y-48916D03*
X87480Y-49704D03*
X87874Y-48916D03*
X88268Y-49704D03*
X88661Y-48916D03*
X89055Y-49704D03*
X89449Y-48916D03*
X89842Y-49704D03*
X90236Y-48916D03*
X90630Y-49704D03*
X91023Y-48916D03*
X92205Y-49704D03*
X92598Y-48916D03*
X92992Y-49704D03*
X93386Y-48916D03*
X93779Y-49704D03*
X94173Y-48916D03*
X94567Y-49704D03*
X94960Y-48916D03*
X95354Y-49704D03*
X95748Y-48916D03*
X96142Y-49704D03*
X96535Y-48916D03*
X96929Y-49704D03*
X97323Y-48916D03*
X97716Y-49704D03*
X98110Y-48916D03*
X98504Y-49704D03*
X98897Y-48916D03*
X99291Y-49704D03*
X99685Y-48916D03*
X100079Y-49704D03*
X87086Y-47933D03*
X91673Y-48425D03*
X100787Y-48425D03*
G54D14*
X88019Y-43830D03*
G54D15*
X89019Y-43830D03*
G54D18*
X93031Y-44488D03*
X92775Y-44488D03*
X92519Y-44488D03*
X92263Y-44488D03*
X92007Y-44488D03*
G54D19*
X93740Y-44438D03*
X91299Y-44438D03*
G54D20*
X92992Y-43169D03*
X92047Y-43169D03*
G54D21*
X94015Y-43169D03*
X91023Y-43169D03*
G54D22*
X96555Y-43120D03*
X96555Y-46250D03*
X94783Y-43120D03*
X94783Y-46250D03*
G54D23*
X101013Y-45413D03*
X97883Y-45413D03*
X101013Y-43641D03*
X97883Y-43641D03*
G54D24*
X92932Y-46062D03*
X92106Y-46062D03*
G54D25*
X100519Y-52830D03*
X98019Y-51330D03*
X98519Y-50830D03*
X98519Y-51330D03*
X98519Y-51830D03*
X101019Y-52330D03*
X100519Y-52330D03*
X100519Y-51830D03*
X101019Y-51330D03*
X100519Y-51330D03*
X100519Y-50830D03*
X100019Y-52330D03*
X99519Y-52330D03*
X99519Y-51830D03*
X100019Y-51330D03*
X99019Y-51330D03*
X99519Y-51330D03*
X99519Y-50830D03*
G54D26*
X98519Y-53330D03*
X97519Y-53330D03*
X96519Y-53330D03*
X95519Y-53330D03*
X94519Y-53330D03*
X99019Y-50830D03*
X100019Y-50830D03*
X101019Y-50830D03*
X101019Y-51830D03*
X95019Y-53830D03*
X96019Y-53830D03*
X97019Y-53830D03*
X94019Y-53830D03*
X91019Y-53830D03*
X98019Y-53830D03*
X90019Y-53830D03*
X98019Y-51830D03*
X98019Y-52830D03*
X94019Y-52830D03*
X97019Y-52830D03*
X96019Y-52830D03*
X95019Y-52830D03*
X84019Y-64830D03*
X86019Y-64830D03*
X85019Y-64830D03*
X89019Y-64830D03*
X88019Y-64830D03*
X87019Y-64830D03*
X95019Y-64830D03*
X96019Y-64830D03*
X97019Y-64830D03*
X93019Y-64830D03*
X94019Y-64830D03*
X92019Y-64830D03*
X91019Y-64830D03*
X100019Y-64830D03*
X99019Y-64830D03*
X101019Y-64830D03*
X98019Y-64830D03*
X90019Y-64830D03*
X90019Y-63830D03*
X98019Y-63830D03*
X101019Y-63830D03*
X99019Y-63830D03*
X100019Y-63830D03*
X91019Y-63830D03*
X92019Y-63830D03*
X94019Y-63830D03*
X93019Y-63830D03*
X97019Y-63830D03*
X96019Y-63830D03*
X95019Y-63830D03*
X87019Y-63830D03*
X88019Y-63830D03*
X89019Y-63830D03*
X85019Y-63830D03*
X86019Y-63830D03*
X84019Y-63830D03*
X84019Y-55830D03*
X86019Y-55830D03*
X85019Y-55830D03*
X89019Y-55830D03*
X88019Y-55830D03*
X87019Y-55830D03*
X95019Y-55830D03*
X96019Y-55830D03*
X97019Y-55830D03*
X93019Y-55830D03*
X94019Y-55830D03*
X91019Y-55830D03*
X100019Y-55830D03*
X99019Y-55830D03*
X101019Y-55830D03*
X98019Y-55830D03*
X90019Y-55830D03*
X90019Y-54830D03*
X98019Y-54830D03*
X101019Y-54830D03*
X99019Y-54830D03*
X100019Y-54830D03*
X91019Y-54830D03*
X92019Y-54830D03*
X93019Y-54830D03*
X97019Y-54830D03*
X96019Y-54830D03*
X95019Y-54830D03*
X87019Y-54830D03*
X88019Y-54830D03*
X89019Y-54830D03*
X85019Y-54830D03*
X86019Y-54830D03*
X84019Y-54830D03*
X100019Y-51830D03*
X99019Y-51830D03*
X101019Y-52830D03*
X100019Y-52830D03*
X84019Y-53830D03*
X85019Y-53830D03*
X89019Y-53830D03*
X88019Y-53830D03*
X87019Y-53830D03*
X100019Y-53830D03*
X101019Y-53830D03*
X90019Y-58830D03*
X98019Y-58830D03*
X101019Y-58830D03*
X99019Y-58830D03*
X100019Y-58830D03*
X91019Y-58830D03*
X92019Y-58830D03*
X94019Y-58830D03*
X93019Y-58830D03*
X97019Y-58830D03*
X96019Y-58830D03*
X95019Y-58830D03*
X87019Y-58830D03*
X88019Y-58830D03*
X89019Y-58830D03*
X85019Y-58830D03*
X86019Y-58830D03*
X84019Y-58830D03*
X84019Y-57830D03*
X86019Y-57830D03*
X85019Y-57830D03*
X89019Y-57830D03*
X88019Y-57830D03*
X87019Y-57830D03*
X95019Y-57830D03*
X96019Y-57830D03*
X97019Y-57830D03*
X93019Y-57830D03*
X94019Y-57830D03*
X92019Y-57830D03*
X91019Y-57830D03*
X100019Y-57830D03*
X99019Y-57830D03*
X101019Y-57830D03*
X98019Y-57830D03*
X90019Y-57830D03*
X90019Y-56830D03*
X98019Y-56830D03*
X101019Y-56830D03*
X99019Y-56830D03*
X100019Y-56830D03*
X91019Y-56830D03*
X92019Y-56830D03*
X94019Y-56830D03*
X93019Y-56830D03*
X97019Y-56830D03*
X96019Y-56830D03*
X95019Y-56830D03*
X87019Y-56830D03*
X88019Y-56830D03*
X89019Y-56830D03*
X85019Y-56830D03*
X86019Y-56830D03*
X84019Y-56830D03*
X84019Y-59830D03*
X86019Y-59830D03*
X85019Y-59830D03*
X89019Y-59830D03*
X88019Y-59830D03*
X87019Y-59830D03*
X95019Y-59830D03*
X96019Y-59830D03*
X97019Y-59830D03*
X93019Y-59830D03*
X94019Y-59830D03*
X92019Y-59830D03*
X91019Y-59830D03*
X100019Y-59830D03*
X99019Y-59830D03*
X101019Y-59830D03*
X98019Y-59830D03*
X90019Y-59830D03*
X90019Y-60830D03*
X98019Y-60830D03*
X101019Y-60830D03*
X102019Y-60830D03*
X99019Y-60830D03*
X100019Y-60830D03*
X91019Y-60830D03*
X92019Y-60830D03*
X94019Y-60830D03*
X93019Y-60830D03*
X97019Y-60830D03*
X96019Y-60830D03*
X95019Y-60830D03*
X87019Y-60830D03*
X88019Y-60830D03*
X89019Y-60830D03*
X85019Y-60830D03*
X86019Y-60830D03*
X84019Y-60830D03*
X83019Y-61830D03*
X84019Y-61830D03*
X86019Y-61830D03*
X85019Y-61830D03*
X89019Y-61830D03*
X88019Y-61830D03*
X87019Y-61830D03*
X95019Y-61830D03*
X96019Y-61830D03*
X97019Y-61830D03*
X93019Y-61830D03*
X94019Y-61830D03*
X92019Y-61830D03*
X91019Y-61830D03*
X100019Y-61830D03*
X99019Y-61830D03*
X102019Y-61830D03*
X101019Y-61830D03*
X98019Y-61830D03*
X90019Y-61830D03*
X90019Y-62830D03*
X98019Y-62830D03*
X101019Y-62830D03*
X102019Y-62830D03*
X99019Y-62830D03*
X100019Y-62830D03*
X91019Y-62830D03*
X92019Y-62830D03*
X94019Y-62830D03*
X93019Y-62830D03*
X97019Y-62830D03*
X96019Y-62830D03*
X95019Y-62830D03*
X87019Y-62830D03*
X88019Y-62830D03*
X89019Y-62830D03*
X85019Y-62830D03*
X86019Y-62830D03*
X84019Y-62830D03*
X83019Y-62830D03*
X94019Y-54830D03*
X92019Y-55830D03*
X93019Y-53830D03*
G54D25*
X95354Y-48385D03*
X95419Y-44430D03*
X95419Y-43630D03*
G54D26*
X99019Y-52830D03*
G54D25*
X93149Y-45078D03*
X96519Y-43630D03*
X96519Y-44330D03*
G54D26*
X86019Y-53830D03*
X99019Y-53830D03*
X92019Y-53830D03*
G54D27*
X89019Y-50830D02*
X89019Y-51330D01*
X92019Y-52830D02*
X93019Y-53830D01*
X90519Y-52830D02*
X92019Y-52830D01*
X89019Y-51330D02*
X90519Y-52830D01*
G54D28*
X94960Y-46427D02*
X94783Y-46250D01*
X94960Y-47283D02*
X94960Y-46427D01*
X95354Y-47677D02*
X94960Y-47283D01*
X95354Y-48385D02*
X95354Y-47677D01*
X94783Y-43120D02*
X94909Y-43120D01*
X94783Y-45066D02*
X94783Y-46250D01*
X95419Y-44430D02*
X94783Y-45066D01*
X94909Y-43120D02*
X95419Y-43630D01*
G54D27*
X90236Y-48916D02*
X90236Y-49035D01*
X89842Y-49429D02*
X89842Y-49704D01*
X90236Y-49035D02*
X89842Y-49429D01*
X89019Y-50830D02*
X89019Y-50295D01*
X89019Y-50295D02*
X88976Y-50295D01*
X86289Y-50196D02*
X86387Y-50295D01*
X85019Y-46043D02*
X85330Y-46354D01*
X85019Y-43830D02*
X85019Y-46043D01*
X85330Y-46354D02*
X85330Y-49238D01*
X85330Y-49238D02*
X86289Y-50196D01*
X86387Y-50295D02*
X88976Y-50295D01*
X88976Y-50295D02*
X89251Y-50295D01*
X89251Y-50295D02*
X89842Y-49704D01*
X90019Y-50830D02*
X90019Y-51330D01*
X98519Y-52330D02*
X99019Y-52830D01*
X91019Y-52330D02*
X98519Y-52330D01*
X90019Y-51330D02*
X91019Y-52330D01*
G54D28*
X93031Y-44488D02*
X93031Y-44960D01*
X93031Y-44960D02*
X93149Y-45078D01*
G54D27*
X87874Y-48916D02*
X87086Y-48916D01*
X88661Y-48916D02*
X87874Y-48916D01*
X91023Y-48916D02*
X91023Y-48897D01*
X89153Y-48425D02*
X88661Y-48916D01*
X90551Y-48425D02*
X89153Y-48425D01*
X91023Y-48897D02*
X90551Y-48425D01*
X91023Y-48916D02*
X91023Y-49311D01*
X91023Y-49311D02*
X90630Y-49704D01*
X90019Y-50830D02*
X90019Y-50629D01*
X90630Y-50018D02*
X90630Y-49704D01*
X90019Y-50629D02*
X90630Y-50018D01*
G54D28*
X95748Y-49527D02*
X96141Y-49133D01*
X96141Y-47677D02*
X95748Y-47283D01*
X96141Y-49133D02*
X96141Y-47677D01*
X96555Y-46250D02*
X96348Y-46250D01*
X98838Y-50157D02*
X99291Y-49704D01*
X95866Y-50157D02*
X98838Y-50157D01*
X95748Y-50039D02*
X95866Y-50157D01*
X95748Y-49527D02*
X95748Y-50039D01*
X95748Y-46850D02*
X95748Y-47283D01*
X96348Y-46250D02*
X95748Y-46850D01*
X97204Y-43562D02*
X96997Y-43562D01*
X96997Y-43562D02*
X96555Y-43120D01*
X96555Y-46250D02*
X96555Y-44366D01*
X96555Y-43595D02*
X96555Y-43120D01*
X96519Y-43630D02*
X96555Y-43595D01*
X96555Y-44366D02*
X96519Y-44330D01*
X103019Y-56830D02*
X102775Y-56830D01*
X96929Y-47007D02*
X96929Y-47146D01*
X98149Y-45787D02*
X96929Y-47007D01*
X101338Y-45787D02*
X98149Y-45787D01*
X102519Y-46968D02*
X101338Y-45787D01*
X102519Y-56574D02*
X102519Y-46968D01*
X102775Y-56830D02*
X102519Y-56574D01*
X93001Y-45482D02*
X93907Y-45482D01*
X94173Y-45748D02*
X94173Y-46653D01*
X93907Y-45482D02*
X94173Y-45748D01*
X92775Y-44488D02*
X92775Y-45255D01*
X93956Y-49704D02*
X93779Y-49704D01*
X94173Y-46653D02*
X94173Y-47322D01*
X94173Y-47322D02*
X94566Y-47716D01*
X94566Y-47716D02*
X94566Y-49094D01*
X94566Y-49094D02*
X93956Y-49704D01*
X92775Y-45255D02*
X93001Y-45482D01*
X92519Y-45177D02*
X92519Y-45275D01*
X93897Y-46456D02*
X93385Y-46968D01*
X93897Y-45866D02*
X93897Y-46456D01*
X93700Y-45669D02*
X93897Y-45866D01*
X92913Y-45669D02*
X93700Y-45669D01*
X92519Y-45275D02*
X92913Y-45669D01*
X92519Y-44488D02*
X92519Y-45177D01*
X93779Y-48522D02*
X94173Y-48916D01*
X93779Y-47755D02*
X93779Y-48522D01*
X93385Y-47362D02*
X93779Y-47755D01*
X93385Y-46968D02*
X93385Y-47362D01*
X98110Y-47933D02*
X98110Y-46928D01*
X102141Y-58952D02*
X103019Y-59830D01*
X102141Y-47181D02*
X102141Y-58952D01*
X101220Y-46259D02*
X102141Y-47181D01*
X98779Y-46259D02*
X101220Y-46259D01*
X98110Y-46928D02*
X98779Y-46259D01*
X103019Y-62830D02*
X102472Y-62283D01*
X99685Y-46849D02*
X99685Y-47933D01*
X99803Y-46732D02*
X99685Y-46849D01*
X101102Y-46732D02*
X99803Y-46732D01*
X101763Y-47393D02*
X101102Y-46732D01*
X101763Y-59600D02*
X101763Y-47393D01*
X102472Y-60309D02*
X101763Y-59600D01*
X102472Y-62283D02*
X102472Y-60309D01*
X99291Y-47146D02*
X99291Y-47007D01*
X102598Y-61409D02*
X103019Y-61830D01*
X102598Y-60256D02*
X102598Y-61409D01*
X101889Y-59548D02*
X102598Y-60256D01*
X101889Y-47322D02*
X101889Y-59548D01*
X101141Y-46574D02*
X101889Y-47322D01*
X99724Y-46574D02*
X101141Y-46574D01*
X99291Y-47007D02*
X99724Y-46574D01*
X103019Y-60830D02*
X103019Y-60500D01*
X98897Y-47007D02*
X98897Y-47933D01*
X99488Y-46417D02*
X98897Y-47007D01*
X101181Y-46417D02*
X99488Y-46417D01*
X102015Y-47251D02*
X101181Y-46417D01*
X102015Y-59496D02*
X102015Y-47251D01*
X103019Y-60500D02*
X102015Y-59496D01*
X103019Y-58830D02*
X102267Y-58078D01*
X97716Y-46850D02*
X97716Y-47146D01*
X98464Y-46102D02*
X97716Y-46850D01*
X101259Y-46102D02*
X98464Y-46102D01*
X102267Y-47110D02*
X101259Y-46102D01*
X102267Y-58078D02*
X102267Y-47110D01*
X97323Y-47933D02*
X97323Y-46928D01*
X102393Y-57204D02*
X103019Y-57830D01*
X102393Y-47039D02*
X102393Y-57204D01*
X101299Y-45944D02*
X102393Y-47039D01*
X98307Y-45944D02*
X101299Y-45944D01*
X97323Y-46928D02*
X98307Y-45944D01*
X92598Y-47933D02*
X92598Y-46397D01*
X92598Y-46397D02*
X92932Y-46062D01*
X98504Y-47146D02*
X98504Y-48188D01*
X97883Y-45816D02*
X97883Y-45413D01*
X96968Y-46732D02*
X97883Y-45816D01*
X96653Y-46732D02*
X96968Y-46732D01*
X96535Y-46850D02*
X96653Y-46732D01*
X96535Y-47401D02*
X96535Y-46850D01*
X96929Y-47795D02*
X96535Y-47401D01*
X96929Y-48307D02*
X96929Y-47795D01*
X97047Y-48425D02*
X96929Y-48307D01*
X98267Y-48425D02*
X97047Y-48425D01*
X98504Y-48188D02*
X98267Y-48425D01*
X97883Y-45413D02*
X101013Y-45413D01*
X101023Y-44823D02*
X101023Y-45403D01*
X101023Y-45403D02*
X101013Y-45413D01*
X92106Y-46062D02*
X91732Y-46062D01*
X91299Y-45629D02*
X91299Y-44438D01*
X91732Y-46062D02*
X91299Y-45629D01*
G54D27*
X88019Y-51830D02*
X86019Y-53830D01*
X92019Y-53830D02*
X92519Y-54330D01*
X98519Y-54330D02*
X99019Y-53830D01*
X92519Y-54330D02*
X98519Y-54330D01*
X88019Y-50830D02*
X88019Y-51830D01*
X91519Y-53330D02*
X92019Y-53830D01*
X89519Y-53330D02*
X91519Y-53330D01*
X88019Y-51830D02*
X89519Y-53330D01*
G54D28*
X101013Y-43641D02*
X101013Y-44221D01*
X101013Y-44221D02*
X101023Y-44231D01*
X97883Y-43641D02*
X101013Y-43641D01*
X97204Y-44154D02*
X97371Y-44154D01*
X97371Y-44154D02*
X97883Y-43641D01*
X94488Y-43996D02*
X97046Y-43996D01*
X93740Y-43996D02*
X94488Y-43996D01*
X97046Y-43996D02*
X97204Y-44154D01*
G54D27*
X89449Y-48916D02*
X89271Y-49094D01*
X89271Y-49488D02*
X89055Y-49704D01*
X89271Y-49094D02*
X89271Y-49488D01*
X88268Y-49704D02*
X89055Y-49704D01*
X87480Y-49704D02*
X88268Y-49704D01*
X87480Y-49704D02*
X86220Y-49704D01*
X86019Y-45771D02*
X86019Y-44488D01*
X85629Y-46161D02*
X86019Y-45771D01*
X85629Y-49114D02*
X85629Y-46161D01*
X86220Y-49704D02*
X85629Y-49114D01*
G54D28*
X91299Y-44438D02*
X86019Y-44438D01*
X86023Y-44488D02*
X86019Y-44488D01*
X86023Y-44442D02*
X86023Y-44488D01*
X86019Y-44438D02*
X86023Y-44442D01*
X94015Y-43169D02*
X92992Y-43169D01*
X93740Y-44438D02*
X93740Y-43996D01*
X93740Y-43996D02*
X93740Y-43444D01*
X93740Y-43444D02*
X94015Y-43169D01*
X92992Y-43169D02*
X92047Y-43169D01*
X91023Y-43169D02*
X91023Y-44163D01*
X91023Y-44163D02*
X91299Y-44438D01*
X92047Y-43169D02*
X91023Y-43169D01*
X91299Y-44438D02*
X91958Y-44438D01*
G54D27*
X86019Y-44488D02*
X86019Y-43830D01*
G54D10*
G36*
X89540Y-48922D02*
X89455Y-49007D01*
X89449Y-49002D01*
X89444Y-49007D01*
X89358Y-48922D01*
X89363Y-48916D01*
X89358Y-48911D01*
X89444Y-48825D01*
X89449Y-48830D01*
X89455Y-48825D01*
X89540Y-48911D01*
X89535Y-48916D01*
X89540Y-48922D01*
X89540Y-48922D01*
G37*
G54D29*
X89540Y-48922D02*
X89455Y-49007D01*
X89449Y-49002D01*
X89444Y-49007D01*
X89358Y-48922D01*
X89363Y-48916D01*
X89358Y-48911D01*
X89444Y-48825D01*
X89449Y-48830D01*
X89455Y-48825D01*
X89540Y-48911D01*
X89535Y-48916D01*
X89540Y-48922D01*
G54D10*
G36*
X103622Y-50275D02*
X102669Y-50275D01*
X102669Y-50012D01*
X102686Y-50053D01*
X102796Y-50163D01*
X102941Y-50223D01*
X103097Y-50223D01*
X103242Y-50164D01*
X103352Y-50053D01*
X103412Y-49909D01*
X103412Y-49752D01*
X103353Y-49608D01*
X103242Y-49497D01*
X103098Y-49437D01*
X102941Y-49437D01*
X102797Y-49497D01*
X102686Y-49607D01*
X102669Y-49649D01*
X102669Y-49012D01*
X102686Y-49053D01*
X102796Y-49163D01*
X102941Y-49223D01*
X103097Y-49223D01*
X103242Y-49164D01*
X103352Y-49053D01*
X103412Y-48909D01*
X103412Y-48752D01*
X103353Y-48608D01*
X103242Y-48497D01*
X103098Y-48437D01*
X102941Y-48437D01*
X102797Y-48497D01*
X102686Y-48607D01*
X102669Y-48649D01*
X102669Y-48012D01*
X102686Y-48053D01*
X102796Y-48163D01*
X102941Y-48223D01*
X103097Y-48223D01*
X103242Y-48164D01*
X103352Y-48053D01*
X103412Y-47909D01*
X103412Y-47752D01*
X103353Y-47608D01*
X103242Y-47497D01*
X103098Y-47437D01*
X102941Y-47437D01*
X102797Y-47497D01*
X102686Y-47607D01*
X102669Y-47649D01*
X102669Y-47012D01*
X102686Y-47053D01*
X102796Y-47163D01*
X102941Y-47223D01*
X103097Y-47223D01*
X103242Y-47164D01*
X103352Y-47053D01*
X103412Y-46909D01*
X103412Y-46752D01*
X103412Y-46752D01*
X103412Y-46082D01*
X103412Y-45532D01*
X103394Y-45488D01*
X103361Y-45455D01*
X103318Y-45437D01*
X103271Y-45437D01*
X102721Y-45437D01*
X102677Y-45455D01*
X102644Y-45488D01*
X102626Y-45532D01*
X102626Y-45579D01*
X102626Y-46129D01*
X102644Y-46172D01*
X102677Y-46205D01*
X102721Y-46223D01*
X102768Y-46223D01*
X103318Y-46223D01*
X103361Y-46205D01*
X103394Y-46172D01*
X103412Y-46129D01*
X103412Y-46082D01*
X103412Y-46752D01*
X103353Y-46608D01*
X103242Y-46497D01*
X103098Y-46437D01*
X102941Y-46437D01*
X102797Y-46497D01*
X102686Y-46607D01*
X102626Y-46752D01*
X102626Y-46864D01*
X102625Y-46862D01*
X102625Y-46862D01*
X101456Y-45693D01*
X101456Y-45692D01*
X101456Y-45645D01*
X101456Y-45134D01*
X101438Y-45090D01*
X101405Y-45057D01*
X101362Y-45039D01*
X101332Y-45039D01*
X101338Y-45024D01*
X101338Y-44977D01*
X101338Y-44623D01*
X101337Y-44619D01*
X101356Y-44611D01*
X101423Y-44543D01*
X101460Y-44455D01*
X101459Y-44352D01*
X101400Y-44292D01*
X101084Y-44292D01*
X101084Y-44300D01*
X100962Y-44300D01*
X100962Y-44292D01*
X100962Y-44170D01*
X100962Y-43875D01*
X100953Y-43865D01*
X100953Y-43702D01*
X100509Y-43702D01*
X100449Y-43762D01*
X100449Y-43850D01*
X100449Y-43945D01*
X100486Y-44033D01*
X100553Y-44100D01*
X100593Y-44117D01*
X100647Y-44170D01*
X100962Y-44170D01*
X100962Y-44292D01*
X100647Y-44292D01*
X100587Y-44352D01*
X100587Y-44455D01*
X100623Y-44543D01*
X100690Y-44611D01*
X100710Y-44619D01*
X100708Y-44622D01*
X100708Y-44669D01*
X100708Y-45023D01*
X100714Y-45039D01*
X100665Y-45039D01*
X100622Y-45057D01*
X100588Y-45090D01*
X100570Y-45133D01*
X100570Y-45180D01*
X100570Y-45263D01*
X98448Y-45263D01*
X98448Y-43850D01*
X98448Y-43762D01*
X98388Y-43702D01*
X97944Y-43702D01*
X97944Y-44077D01*
X98004Y-44137D01*
X98256Y-44137D01*
X98344Y-44100D01*
X98411Y-44033D01*
X98447Y-43945D01*
X98448Y-43850D01*
X98448Y-45263D01*
X98326Y-45263D01*
X98326Y-45134D01*
X98308Y-45090D01*
X98275Y-45057D01*
X98232Y-45039D01*
X98185Y-45039D01*
X97641Y-45039D01*
X97641Y-44378D01*
X97641Y-44274D01*
X97581Y-44214D01*
X97265Y-44214D01*
X97265Y-44510D01*
X97325Y-44570D01*
X97354Y-44570D01*
X97449Y-44570D01*
X97537Y-44534D01*
X97604Y-44466D01*
X97641Y-44378D01*
X97641Y-45039D01*
X97535Y-45039D01*
X97492Y-45057D01*
X97458Y-45090D01*
X97440Y-45133D01*
X97440Y-45180D01*
X97440Y-45692D01*
X97458Y-45736D01*
X97492Y-45769D01*
X97535Y-45787D01*
X97582Y-45787D01*
X97701Y-45787D01*
X96929Y-46560D01*
X96929Y-46551D01*
X96929Y-45901D01*
X96911Y-45858D01*
X96878Y-45825D01*
X96834Y-45807D01*
X96787Y-45807D01*
X96704Y-45807D01*
X96704Y-44563D01*
X96769Y-44498D01*
X96793Y-44440D01*
X96804Y-44466D01*
X96871Y-44534D01*
X96959Y-44570D01*
X97055Y-44570D01*
X97084Y-44570D01*
X97144Y-44510D01*
X97144Y-44214D01*
X96828Y-44214D01*
X96802Y-44240D01*
X96770Y-44163D01*
X96687Y-44080D01*
X96578Y-44035D01*
X96461Y-44035D01*
X96352Y-44080D01*
X96269Y-44163D01*
X96224Y-44271D01*
X96224Y-44389D01*
X96269Y-44497D01*
X96352Y-44580D01*
X96405Y-44603D01*
X96405Y-45807D01*
X96275Y-45807D01*
X96232Y-45825D01*
X96199Y-45858D01*
X96181Y-45901D01*
X96181Y-45948D01*
X96181Y-46205D01*
X95642Y-46744D01*
X95609Y-46793D01*
X95607Y-46802D01*
X95598Y-46850D01*
X95598Y-46850D01*
X95598Y-46869D01*
X95563Y-46834D01*
X95428Y-46778D01*
X95281Y-46778D01*
X95146Y-46834D01*
X95110Y-46870D01*
X95110Y-46670D01*
X95139Y-46641D01*
X95157Y-46598D01*
X95157Y-46551D01*
X95157Y-45901D01*
X95139Y-45858D01*
X95106Y-45825D01*
X95062Y-45807D01*
X95015Y-45807D01*
X94933Y-45807D01*
X94933Y-45128D01*
X95343Y-44718D01*
X95360Y-44725D01*
X95478Y-44726D01*
X95586Y-44681D01*
X95669Y-44598D01*
X95714Y-44489D01*
X95715Y-44372D01*
X95670Y-44263D01*
X95587Y-44180D01*
X95478Y-44135D01*
X95361Y-44135D01*
X95252Y-44180D01*
X95169Y-44263D01*
X95124Y-44371D01*
X95124Y-44489D01*
X95131Y-44507D01*
X94677Y-44961D01*
X94645Y-45009D01*
X94643Y-45019D01*
X94633Y-45066D01*
X94633Y-45066D01*
X94633Y-45807D01*
X94504Y-45807D01*
X94460Y-45825D01*
X94427Y-45858D01*
X94409Y-45901D01*
X94409Y-45948D01*
X94409Y-46598D01*
X94427Y-46641D01*
X94460Y-46674D01*
X94503Y-46692D01*
X94550Y-46692D01*
X94811Y-46692D01*
X94811Y-46869D01*
X94776Y-46834D01*
X94641Y-46778D01*
X94494Y-46778D01*
X94392Y-46820D01*
X94392Y-44706D01*
X94392Y-44171D01*
X94392Y-44076D01*
X94356Y-43988D01*
X94288Y-43920D01*
X94200Y-43884D01*
X93955Y-43884D01*
X93860Y-43884D01*
X93800Y-43944D01*
X93800Y-44378D01*
X94333Y-44378D01*
X94392Y-44318D01*
X94392Y-44171D01*
X94392Y-44706D01*
X94392Y-44559D01*
X94333Y-44499D01*
X93800Y-44499D01*
X93800Y-44933D01*
X93860Y-44993D01*
X94200Y-44993D01*
X94288Y-44956D01*
X94356Y-44889D01*
X94392Y-44801D01*
X94392Y-44706D01*
X94392Y-46820D01*
X94359Y-46834D01*
X94322Y-46870D01*
X94322Y-46653D01*
X94322Y-45748D01*
X94311Y-45690D01*
X94311Y-45690D01*
X94279Y-45642D01*
X94279Y-45642D01*
X94013Y-45376D01*
X93964Y-45344D01*
X93955Y-45342D01*
X93907Y-45332D01*
X93907Y-45332D01*
X93308Y-45332D01*
X93316Y-45329D01*
X93399Y-45246D01*
X93444Y-45137D01*
X93444Y-45020D01*
X93433Y-44993D01*
X93619Y-44993D01*
X93679Y-44933D01*
X93679Y-44499D01*
X93671Y-44499D01*
X93671Y-44378D01*
X93679Y-44378D01*
X93679Y-43944D01*
X93619Y-43884D01*
X93279Y-43884D01*
X93191Y-43920D01*
X93123Y-43988D01*
X93087Y-44076D01*
X93087Y-44104D01*
X93086Y-44104D01*
X92931Y-44104D01*
X92929Y-44104D01*
X92903Y-44114D01*
X92877Y-44104D01*
X92830Y-44104D01*
X92673Y-44104D01*
X92647Y-44114D01*
X92622Y-44104D01*
X92575Y-44104D01*
X92552Y-44104D01*
X92545Y-44086D01*
X92477Y-44019D01*
X92389Y-43983D01*
X92362Y-43983D01*
X92303Y-44042D01*
X92303Y-44119D01*
X92289Y-44086D01*
X92222Y-44019D01*
X92186Y-44004D01*
X92164Y-43983D01*
X92137Y-43983D01*
X92135Y-43983D01*
X92134Y-43983D01*
X92107Y-43983D01*
X92085Y-44004D01*
X92049Y-44019D01*
X91986Y-44082D01*
X91982Y-44086D01*
X91968Y-44119D01*
X91968Y-44042D01*
X91916Y-43990D01*
X91915Y-43988D01*
X91848Y-43920D01*
X91760Y-43884D01*
X91419Y-43884D01*
X91359Y-43944D01*
X91359Y-44378D01*
X91700Y-44378D01*
X91749Y-44427D01*
X91968Y-44427D01*
X91968Y-44390D01*
X92005Y-44427D01*
X92047Y-44427D01*
X92076Y-44427D01*
X92076Y-44548D01*
X92047Y-44548D01*
X92005Y-44548D01*
X91968Y-44585D01*
X91968Y-44548D01*
X91941Y-44548D01*
X91892Y-44499D01*
X91359Y-44499D01*
X91359Y-44933D01*
X91419Y-44993D01*
X91760Y-44993D01*
X91820Y-44968D01*
X91881Y-44993D01*
X91908Y-44993D01*
X91968Y-44933D01*
X91968Y-44856D01*
X91982Y-44889D01*
X92049Y-44956D01*
X92085Y-44971D01*
X92107Y-44993D01*
X92134Y-44993D01*
X92135Y-44992D01*
X92137Y-44993D01*
X92164Y-44993D01*
X92186Y-44971D01*
X92222Y-44956D01*
X92289Y-44889D01*
X92303Y-44856D01*
X92303Y-44933D01*
X92362Y-44993D01*
X92370Y-44993D01*
X92370Y-45177D01*
X92370Y-45275D01*
X92370Y-45275D01*
X92379Y-45323D01*
X92381Y-45332D01*
X92413Y-45381D01*
X92741Y-45708D01*
X92673Y-45708D01*
X92629Y-45726D01*
X92596Y-45760D01*
X92582Y-45795D01*
X92582Y-45779D01*
X92545Y-45691D01*
X92478Y-45623D01*
X92390Y-45587D01*
X92227Y-45587D01*
X92167Y-45647D01*
X92167Y-46002D01*
X92175Y-46002D01*
X92175Y-46123D01*
X92167Y-46123D01*
X92167Y-46478D01*
X92227Y-46538D01*
X92390Y-46538D01*
X92449Y-46514D01*
X92449Y-46869D01*
X92414Y-46834D01*
X92279Y-46778D01*
X92132Y-46778D01*
X92046Y-46814D01*
X92046Y-46478D01*
X92046Y-46123D01*
X92046Y-46002D01*
X92046Y-45647D01*
X91986Y-45587D01*
X91823Y-45587D01*
X91735Y-45623D01*
X91667Y-45691D01*
X91631Y-45779D01*
X91631Y-45874D01*
X91631Y-45942D01*
X91691Y-46002D01*
X92046Y-46002D01*
X92046Y-46123D01*
X91691Y-46123D01*
X91631Y-46183D01*
X91631Y-46251D01*
X91631Y-46346D01*
X91667Y-46434D01*
X91735Y-46502D01*
X91823Y-46538D01*
X91986Y-46538D01*
X92046Y-46478D01*
X92046Y-46814D01*
X91997Y-46834D01*
X91893Y-46937D01*
X91837Y-47073D01*
X91837Y-47219D01*
X91893Y-47354D01*
X91996Y-47458D01*
X92132Y-47514D01*
X92278Y-47514D01*
X92413Y-47458D01*
X92449Y-47423D01*
X92449Y-47597D01*
X92390Y-47621D01*
X92286Y-47724D01*
X92230Y-47860D01*
X92230Y-48006D01*
X92286Y-48141D01*
X92389Y-48245D01*
X92525Y-48301D01*
X92671Y-48301D01*
X92806Y-48245D01*
X92910Y-48142D01*
X92966Y-48007D01*
X92966Y-47860D01*
X92910Y-47725D01*
X92807Y-47621D01*
X92748Y-47597D01*
X92748Y-47422D01*
X92783Y-47458D01*
X92919Y-47514D01*
X93065Y-47514D01*
X93200Y-47458D01*
X93246Y-47413D01*
X93247Y-47419D01*
X93280Y-47467D01*
X93377Y-47565D01*
X93313Y-47565D01*
X93178Y-47621D01*
X93074Y-47724D01*
X93018Y-47860D01*
X93018Y-48006D01*
X93074Y-48141D01*
X93177Y-48245D01*
X93313Y-48301D01*
X93459Y-48301D01*
X93594Y-48245D01*
X93629Y-48210D01*
X93629Y-48522D01*
X93629Y-48522D01*
X93639Y-48570D01*
X93641Y-48579D01*
X93673Y-48628D01*
X93829Y-48784D01*
X93805Y-48843D01*
X93805Y-48989D01*
X93861Y-49124D01*
X93964Y-49228D01*
X94100Y-49284D01*
X94165Y-49284D01*
X94022Y-49427D01*
X93988Y-49392D01*
X93853Y-49336D01*
X93754Y-49336D01*
X93754Y-48843D01*
X93698Y-48708D01*
X93595Y-48604D01*
X93460Y-48548D01*
X93313Y-48548D01*
X93178Y-48604D01*
X93074Y-48707D01*
X93018Y-48843D01*
X93018Y-48989D01*
X93074Y-49124D01*
X93177Y-49228D01*
X93313Y-49284D01*
X93459Y-49284D01*
X93594Y-49228D01*
X93698Y-49125D01*
X93754Y-48990D01*
X93754Y-48843D01*
X93754Y-49336D01*
X93706Y-49336D01*
X93571Y-49392D01*
X93467Y-49495D01*
X93411Y-49631D01*
X93411Y-49777D01*
X93467Y-49912D01*
X93570Y-50016D01*
X93706Y-50072D01*
X93852Y-50072D01*
X93987Y-50016D01*
X94091Y-49913D01*
X94147Y-49778D01*
X94147Y-49725D01*
X94199Y-49673D01*
X94199Y-49777D01*
X94255Y-49912D01*
X94358Y-50016D01*
X94494Y-50072D01*
X94640Y-50072D01*
X94775Y-50016D01*
X94879Y-49913D01*
X94935Y-49778D01*
X94935Y-49631D01*
X94879Y-49496D01*
X94776Y-49392D01*
X94641Y-49336D01*
X94536Y-49336D01*
X94672Y-49200D01*
X94672Y-49200D01*
X94672Y-49200D01*
X94693Y-49169D01*
X94693Y-49169D01*
X94751Y-49228D01*
X94887Y-49284D01*
X95033Y-49284D01*
X95168Y-49228D01*
X95272Y-49125D01*
X95328Y-48990D01*
X95328Y-48843D01*
X95272Y-48708D01*
X95210Y-48645D01*
X95295Y-48681D01*
X95412Y-48681D01*
X95499Y-48645D01*
X95436Y-48707D01*
X95380Y-48843D01*
X95380Y-48989D01*
X95436Y-49124D01*
X95539Y-49228D01*
X95675Y-49284D01*
X95779Y-49284D01*
X95642Y-49421D01*
X95622Y-49451D01*
X95563Y-49392D01*
X95428Y-49336D01*
X95281Y-49336D01*
X95146Y-49392D01*
X95042Y-49495D01*
X94986Y-49631D01*
X94986Y-49777D01*
X95042Y-49912D01*
X95145Y-50016D01*
X95281Y-50072D01*
X95427Y-50072D01*
X95562Y-50016D01*
X95598Y-49981D01*
X95598Y-50039D01*
X95598Y-50039D01*
X95607Y-50087D01*
X95609Y-50096D01*
X95642Y-50145D01*
X95760Y-50263D01*
X95808Y-50295D01*
X95808Y-50295D01*
X95818Y-50297D01*
X95866Y-50307D01*
X95866Y-50307D01*
X95866Y-50307D01*
X98503Y-50307D01*
X98503Y-50535D01*
X98461Y-50535D01*
X98352Y-50580D01*
X98269Y-50663D01*
X98224Y-50771D01*
X98224Y-50889D01*
X98269Y-50997D01*
X98352Y-51080D01*
X98269Y-51163D01*
X98187Y-51080D01*
X98078Y-51035D01*
X97961Y-51035D01*
X97852Y-51080D01*
X97769Y-51163D01*
X97724Y-51271D01*
X97724Y-51299D01*
X97519Y-51299D01*
X97519Y-52094D01*
X93360Y-52094D01*
X93360Y-49631D01*
X93304Y-49496D01*
X93201Y-49392D01*
X93066Y-49336D01*
X92966Y-49336D01*
X92966Y-48843D01*
X92910Y-48708D01*
X92807Y-48604D01*
X92672Y-48548D01*
X92525Y-48548D01*
X92390Y-48604D01*
X92286Y-48707D01*
X92230Y-48843D01*
X92230Y-48989D01*
X92286Y-49124D01*
X92389Y-49228D01*
X92525Y-49284D01*
X92671Y-49284D01*
X92806Y-49228D01*
X92910Y-49125D01*
X92966Y-48990D01*
X92966Y-48843D01*
X92966Y-49336D01*
X92919Y-49336D01*
X92784Y-49392D01*
X92680Y-49495D01*
X92624Y-49631D01*
X92624Y-49777D01*
X92680Y-49912D01*
X92783Y-50016D01*
X92919Y-50072D01*
X93065Y-50072D01*
X93200Y-50016D01*
X93304Y-49913D01*
X93360Y-49778D01*
X93360Y-49631D01*
X93360Y-52094D01*
X92573Y-52094D01*
X92573Y-49631D01*
X92517Y-49496D01*
X92414Y-49392D01*
X92279Y-49336D01*
X92132Y-49336D01*
X92041Y-49374D01*
X92041Y-48352D01*
X91985Y-48216D01*
X91882Y-48113D01*
X91746Y-48057D01*
X91600Y-48057D01*
X91464Y-48112D01*
X91391Y-48185D01*
X91391Y-47860D01*
X91335Y-47725D01*
X91238Y-47627D01*
X91238Y-44933D01*
X91238Y-44499D01*
X91238Y-44378D01*
X91238Y-43944D01*
X91178Y-43884D01*
X90962Y-43884D01*
X90838Y-43884D01*
X90750Y-43920D01*
X90683Y-43988D01*
X90646Y-44076D01*
X90646Y-44171D01*
X90646Y-44318D01*
X90706Y-44378D01*
X91238Y-44378D01*
X91238Y-44499D01*
X90706Y-44499D01*
X90646Y-44559D01*
X90646Y-44706D01*
X90646Y-44801D01*
X90683Y-44889D01*
X90750Y-44956D01*
X90838Y-44993D01*
X91178Y-44993D01*
X91238Y-44933D01*
X91238Y-47627D01*
X91232Y-47621D01*
X91097Y-47565D01*
X90998Y-47565D01*
X90998Y-47073D01*
X90942Y-46938D01*
X90839Y-46834D01*
X90704Y-46778D01*
X90557Y-46778D01*
X90422Y-46834D01*
X90318Y-46937D01*
X90262Y-47073D01*
X90262Y-47219D01*
X90318Y-47354D01*
X90421Y-47458D01*
X90557Y-47514D01*
X90703Y-47514D01*
X90838Y-47458D01*
X90942Y-47355D01*
X90998Y-47220D01*
X90998Y-47073D01*
X90998Y-47565D01*
X90950Y-47565D01*
X90815Y-47621D01*
X90711Y-47724D01*
X90655Y-47860D01*
X90655Y-48006D01*
X90711Y-48141D01*
X90814Y-48245D01*
X90950Y-48301D01*
X91096Y-48301D01*
X91231Y-48245D01*
X91335Y-48142D01*
X91391Y-48007D01*
X91391Y-47860D01*
X91391Y-48185D01*
X91361Y-48216D01*
X91305Y-48351D01*
X91305Y-48498D01*
X91360Y-48633D01*
X91464Y-48737D01*
X91599Y-48793D01*
X91746Y-48793D01*
X91881Y-48737D01*
X91985Y-48633D01*
X92041Y-48498D01*
X92041Y-48352D01*
X92041Y-49374D01*
X91997Y-49392D01*
X91893Y-49495D01*
X91837Y-49631D01*
X91837Y-49777D01*
X91893Y-49912D01*
X91996Y-50016D01*
X92132Y-50072D01*
X92278Y-50072D01*
X92413Y-50016D01*
X92517Y-49913D01*
X92573Y-49778D01*
X92573Y-49631D01*
X92573Y-52094D01*
X91117Y-52094D01*
X90255Y-51232D01*
X90255Y-51185D01*
X90256Y-51185D01*
X90373Y-51067D01*
X90437Y-50914D01*
X90437Y-50747D01*
X90378Y-50604D01*
X90797Y-50185D01*
X90848Y-50109D01*
X90866Y-50018D01*
X90866Y-49988D01*
X90942Y-49913D01*
X90998Y-49778D01*
X90998Y-49670D01*
X91190Y-49478D01*
X91241Y-49402D01*
X91259Y-49311D01*
X91259Y-49200D01*
X91335Y-49125D01*
X91391Y-48990D01*
X91391Y-48843D01*
X91335Y-48708D01*
X91232Y-48604D01*
X91097Y-48548D01*
X91008Y-48548D01*
X90718Y-48258D01*
X90641Y-48206D01*
X90551Y-48188D01*
X90501Y-48188D01*
X90548Y-48142D01*
X90604Y-48007D01*
X90604Y-47860D01*
X90548Y-47725D01*
X90445Y-47621D01*
X90310Y-47565D01*
X90210Y-47565D01*
X90210Y-47073D01*
X90154Y-46938D01*
X90051Y-46834D01*
X89916Y-46778D01*
X89769Y-46778D01*
X89634Y-46834D01*
X89530Y-46937D01*
X89474Y-47073D01*
X89474Y-47219D01*
X89530Y-47354D01*
X89633Y-47458D01*
X89769Y-47514D01*
X89915Y-47514D01*
X90050Y-47458D01*
X90154Y-47355D01*
X90210Y-47220D01*
X90210Y-47073D01*
X90210Y-47565D01*
X90163Y-47565D01*
X90028Y-47621D01*
X89924Y-47724D01*
X89868Y-47860D01*
X89868Y-48006D01*
X89924Y-48141D01*
X89971Y-48188D01*
X89714Y-48188D01*
X89761Y-48142D01*
X89817Y-48007D01*
X89817Y-47860D01*
X89761Y-47725D01*
X89658Y-47621D01*
X89523Y-47565D01*
X89437Y-47565D01*
X89437Y-43747D01*
X89374Y-43594D01*
X89256Y-43476D01*
X89103Y-43412D01*
X88936Y-43412D01*
X88783Y-43476D01*
X88665Y-43593D01*
X88601Y-43747D01*
X88601Y-43913D01*
X88665Y-44067D01*
X88782Y-44184D01*
X88936Y-44248D01*
X89102Y-44248D01*
X89256Y-44185D01*
X89373Y-44067D01*
X89437Y-43914D01*
X89437Y-43747D01*
X89437Y-47565D01*
X89423Y-47565D01*
X89423Y-47073D01*
X89367Y-46938D01*
X89264Y-46834D01*
X89129Y-46778D01*
X88982Y-46778D01*
X88847Y-46834D01*
X88743Y-46937D01*
X88687Y-47073D01*
X88687Y-47219D01*
X88743Y-47354D01*
X88846Y-47458D01*
X88982Y-47514D01*
X89128Y-47514D01*
X89263Y-47458D01*
X89367Y-47355D01*
X89423Y-47220D01*
X89423Y-47073D01*
X89423Y-47565D01*
X89376Y-47565D01*
X89241Y-47621D01*
X89137Y-47724D01*
X89081Y-47860D01*
X89081Y-48006D01*
X89137Y-48141D01*
X89184Y-48188D01*
X89153Y-48188D01*
X89062Y-48206D01*
X89037Y-48223D01*
X89029Y-48228D01*
X89029Y-47860D01*
X88973Y-47725D01*
X88870Y-47621D01*
X88735Y-47565D01*
X88636Y-47565D01*
X88636Y-47073D01*
X88580Y-46938D01*
X88477Y-46834D01*
X88437Y-46818D01*
X88437Y-44107D01*
X88437Y-43507D01*
X88419Y-43463D01*
X88386Y-43430D01*
X88343Y-43412D01*
X88296Y-43412D01*
X87696Y-43412D01*
X87652Y-43430D01*
X87619Y-43463D01*
X87601Y-43507D01*
X87601Y-43554D01*
X87601Y-44154D01*
X87619Y-44197D01*
X87652Y-44230D01*
X87696Y-44248D01*
X87743Y-44248D01*
X88343Y-44248D01*
X88386Y-44230D01*
X88419Y-44197D01*
X88437Y-44154D01*
X88437Y-44107D01*
X88437Y-46818D01*
X88342Y-46778D01*
X88195Y-46778D01*
X88060Y-46834D01*
X87956Y-46937D01*
X87900Y-47073D01*
X87900Y-47219D01*
X87956Y-47354D01*
X88059Y-47458D01*
X88195Y-47514D01*
X88341Y-47514D01*
X88476Y-47458D01*
X88580Y-47355D01*
X88636Y-47220D01*
X88636Y-47073D01*
X88636Y-47565D01*
X88588Y-47565D01*
X88453Y-47621D01*
X88349Y-47724D01*
X88293Y-47860D01*
X88293Y-48006D01*
X88349Y-48141D01*
X88452Y-48245D01*
X88588Y-48301D01*
X88734Y-48301D01*
X88869Y-48245D01*
X88973Y-48142D01*
X89029Y-48007D01*
X89029Y-47860D01*
X89029Y-48228D01*
X88986Y-48258D01*
X88695Y-48548D01*
X88588Y-48548D01*
X88453Y-48604D01*
X88377Y-48680D01*
X88242Y-48680D01*
X88242Y-47860D01*
X88186Y-47725D01*
X88083Y-47621D01*
X87948Y-47565D01*
X87848Y-47565D01*
X87848Y-47073D01*
X87792Y-46938D01*
X87689Y-46834D01*
X87554Y-46778D01*
X87407Y-46778D01*
X87272Y-46834D01*
X87168Y-46937D01*
X87112Y-47073D01*
X87112Y-47219D01*
X87168Y-47354D01*
X87271Y-47458D01*
X87407Y-47514D01*
X87553Y-47514D01*
X87688Y-47458D01*
X87792Y-47355D01*
X87848Y-47220D01*
X87848Y-47073D01*
X87848Y-47565D01*
X87801Y-47565D01*
X87666Y-47621D01*
X87562Y-47724D01*
X87506Y-47860D01*
X87506Y-48006D01*
X87562Y-48141D01*
X87665Y-48245D01*
X87801Y-48301D01*
X87947Y-48301D01*
X88082Y-48245D01*
X88186Y-48142D01*
X88242Y-48007D01*
X88242Y-47860D01*
X88242Y-48680D01*
X88158Y-48680D01*
X88083Y-48604D01*
X87948Y-48548D01*
X87801Y-48548D01*
X87666Y-48604D01*
X87590Y-48680D01*
X87454Y-48680D01*
X87454Y-47860D01*
X87398Y-47724D01*
X87295Y-47621D01*
X87160Y-47565D01*
X87013Y-47564D01*
X86878Y-47620D01*
X86774Y-47724D01*
X86718Y-47859D01*
X86718Y-48005D01*
X86774Y-48141D01*
X86877Y-48244D01*
X87013Y-48301D01*
X87159Y-48301D01*
X87294Y-48245D01*
X87398Y-48141D01*
X87454Y-48006D01*
X87454Y-47860D01*
X87454Y-48680D01*
X87370Y-48680D01*
X87295Y-48604D01*
X87160Y-48548D01*
X87013Y-48548D01*
X86878Y-48604D01*
X86774Y-48707D01*
X86718Y-48843D01*
X86718Y-48989D01*
X86774Y-49124D01*
X86877Y-49228D01*
X87013Y-49284D01*
X87159Y-49284D01*
X87294Y-49228D01*
X87371Y-49152D01*
X87590Y-49152D01*
X87665Y-49228D01*
X87801Y-49284D01*
X87947Y-49284D01*
X88082Y-49228D01*
X88159Y-49152D01*
X88377Y-49152D01*
X88452Y-49228D01*
X88588Y-49284D01*
X88734Y-49284D01*
X88869Y-49228D01*
X88973Y-49125D01*
X88986Y-49094D01*
X89013Y-49158D01*
X89099Y-49181D01*
X89067Y-49212D01*
X88918Y-49224D01*
X88813Y-49268D01*
X88790Y-49354D01*
X89055Y-49618D01*
X89061Y-49613D01*
X89146Y-49699D01*
X89141Y-49704D01*
X89146Y-49710D01*
X89061Y-49795D01*
X89055Y-49790D01*
X88969Y-49876D01*
X88969Y-49704D01*
X88705Y-49439D01*
X88662Y-49451D01*
X88619Y-49439D01*
X88533Y-49525D01*
X88533Y-49354D01*
X88510Y-49268D01*
X88325Y-49208D01*
X88131Y-49224D01*
X88026Y-49268D01*
X88003Y-49354D01*
X88268Y-49618D01*
X88533Y-49354D01*
X88533Y-49525D01*
X88354Y-49704D01*
X88619Y-49969D01*
X88662Y-49957D01*
X88705Y-49969D01*
X88969Y-49704D01*
X88969Y-49876D01*
X88790Y-50055D01*
X88792Y-50059D01*
X88532Y-50059D01*
X88533Y-50055D01*
X88268Y-49790D01*
X88182Y-49876D01*
X88182Y-49704D01*
X87918Y-49439D01*
X87874Y-49451D01*
X87831Y-49439D01*
X87745Y-49525D01*
X87745Y-49354D01*
X87722Y-49268D01*
X87537Y-49208D01*
X87343Y-49224D01*
X87238Y-49268D01*
X87215Y-49354D01*
X87480Y-49618D01*
X87745Y-49354D01*
X87745Y-49525D01*
X87566Y-49704D01*
X87831Y-49969D01*
X87874Y-49957D01*
X87918Y-49969D01*
X88182Y-49704D01*
X88182Y-49876D01*
X88003Y-50055D01*
X88005Y-50059D01*
X87744Y-50059D01*
X87745Y-50055D01*
X87480Y-49790D01*
X87394Y-49876D01*
X87394Y-49704D01*
X87130Y-49439D01*
X87044Y-49462D01*
X86984Y-49647D01*
X87000Y-49841D01*
X87044Y-49946D01*
X87130Y-49969D01*
X87394Y-49704D01*
X87394Y-49876D01*
X87215Y-50055D01*
X87217Y-50059D01*
X86559Y-50059D01*
X86559Y-44083D01*
X86559Y-43578D01*
X86559Y-43482D01*
X86522Y-43394D01*
X86455Y-43327D01*
X86367Y-43291D01*
X86140Y-43291D01*
X86080Y-43351D01*
X86080Y-43770D01*
X86499Y-43770D01*
X86559Y-43710D01*
X86559Y-43578D01*
X86559Y-44083D01*
X86559Y-43951D01*
X86499Y-43891D01*
X86080Y-43891D01*
X86080Y-44310D01*
X86140Y-44370D01*
X86367Y-44370D01*
X86455Y-44333D01*
X86522Y-44266D01*
X86559Y-44178D01*
X86559Y-44083D01*
X86559Y-50059D01*
X86485Y-50059D01*
X86456Y-50029D01*
X85959Y-49532D01*
X85959Y-44310D01*
X85959Y-43891D01*
X85959Y-43770D01*
X85959Y-43351D01*
X85899Y-43291D01*
X85672Y-43291D01*
X85584Y-43327D01*
X85516Y-43394D01*
X85480Y-43482D01*
X85480Y-43578D01*
X85480Y-43710D01*
X85540Y-43770D01*
X85959Y-43770D01*
X85959Y-43891D01*
X85540Y-43891D01*
X85480Y-43951D01*
X85480Y-44083D01*
X85480Y-44178D01*
X85516Y-44266D01*
X85584Y-44333D01*
X85672Y-44370D01*
X85899Y-44370D01*
X85959Y-44310D01*
X85959Y-49532D01*
X85566Y-49140D01*
X85566Y-46354D01*
X85566Y-46354D01*
X85548Y-46263D01*
X85548Y-46263D01*
X85497Y-46187D01*
X85497Y-46187D01*
X85255Y-45945D01*
X85255Y-44185D01*
X85256Y-44185D01*
X85373Y-44067D01*
X85437Y-43914D01*
X85437Y-43747D01*
X85374Y-43594D01*
X85256Y-43476D01*
X85103Y-43412D01*
X84936Y-43412D01*
X84783Y-43476D01*
X84665Y-43593D01*
X84601Y-43747D01*
X84601Y-43913D01*
X84665Y-44067D01*
X84782Y-44184D01*
X84783Y-44185D01*
X84783Y-46043D01*
X84801Y-46133D01*
X84852Y-46210D01*
X85094Y-46452D01*
X85094Y-49137D01*
X84437Y-49137D01*
X84437Y-43747D01*
X84374Y-43594D01*
X84256Y-43476D01*
X84103Y-43412D01*
X83936Y-43412D01*
X83783Y-43476D01*
X83665Y-43593D01*
X83601Y-43747D01*
X83601Y-43913D01*
X83665Y-44067D01*
X83782Y-44184D01*
X83936Y-44248D01*
X84102Y-44248D01*
X84256Y-44185D01*
X84373Y-44067D01*
X84437Y-43914D01*
X84437Y-43747D01*
X84437Y-49137D01*
X83494Y-49137D01*
X83494Y-49169D01*
X83492Y-49169D01*
X83492Y-52830D01*
X86039Y-52830D01*
X86039Y-50280D01*
X86122Y-50363D01*
X86220Y-50462D01*
X86297Y-50513D01*
X86297Y-50513D01*
X86387Y-50531D01*
X87480Y-50531D01*
X87480Y-50578D01*
X87480Y-50710D01*
X87540Y-50770D01*
X87959Y-50770D01*
X87959Y-50762D01*
X88080Y-50762D01*
X88080Y-50770D01*
X88499Y-50770D01*
X88559Y-50710D01*
X88559Y-50578D01*
X88559Y-50531D01*
X88727Y-50531D01*
X88665Y-50593D01*
X88601Y-50747D01*
X88601Y-50913D01*
X88665Y-51067D01*
X88782Y-51184D01*
X88783Y-51185D01*
X88783Y-51330D01*
X88801Y-51421D01*
X88852Y-51497D01*
X90352Y-52997D01*
X90352Y-52997D01*
X90403Y-53031D01*
X90429Y-53048D01*
X90429Y-53048D01*
X90519Y-53066D01*
X91921Y-53066D01*
X92161Y-53307D01*
X88559Y-53307D01*
X88559Y-51083D01*
X88559Y-50951D01*
X88499Y-50891D01*
X88080Y-50891D01*
X88080Y-51310D01*
X88140Y-51370D01*
X88367Y-51370D01*
X88455Y-51333D01*
X88522Y-51266D01*
X88559Y-51178D01*
X88559Y-51083D01*
X88559Y-53307D01*
X87959Y-53307D01*
X87959Y-51310D01*
X87959Y-50891D01*
X87540Y-50891D01*
X87480Y-50951D01*
X87480Y-51083D01*
X87480Y-51178D01*
X87516Y-51266D01*
X87584Y-51333D01*
X87672Y-51370D01*
X87899Y-51370D01*
X87959Y-51310D01*
X87959Y-53307D01*
X82412Y-53307D01*
X82412Y-52752D01*
X82412Y-51752D01*
X82412Y-50752D01*
X82412Y-49752D01*
X82412Y-48752D01*
X82412Y-47752D01*
X82412Y-46752D01*
X82412Y-46752D01*
X82412Y-46082D01*
X82412Y-45532D01*
X82394Y-45488D01*
X82361Y-45455D01*
X82318Y-45437D01*
X82271Y-45437D01*
X81721Y-45437D01*
X81677Y-45455D01*
X81644Y-45488D01*
X81626Y-45532D01*
X81626Y-45579D01*
X81626Y-46129D01*
X81644Y-46172D01*
X81677Y-46205D01*
X81721Y-46223D01*
X81768Y-46223D01*
X82318Y-46223D01*
X82361Y-46205D01*
X82394Y-46172D01*
X82412Y-46129D01*
X82412Y-46082D01*
X82412Y-46752D01*
X82353Y-46608D01*
X82242Y-46497D01*
X82098Y-46437D01*
X81941Y-46437D01*
X81797Y-46497D01*
X81686Y-46607D01*
X81626Y-46752D01*
X81626Y-46908D01*
X81686Y-47053D01*
X81796Y-47163D01*
X81941Y-47223D01*
X82097Y-47223D01*
X82242Y-47164D01*
X82352Y-47053D01*
X82412Y-46909D01*
X82412Y-46752D01*
X82412Y-47752D01*
X82353Y-47608D01*
X82242Y-47497D01*
X82098Y-47437D01*
X81941Y-47437D01*
X81797Y-47497D01*
X81686Y-47607D01*
X81626Y-47752D01*
X81626Y-47908D01*
X81686Y-48053D01*
X81796Y-48163D01*
X81941Y-48223D01*
X82097Y-48223D01*
X82242Y-48164D01*
X82352Y-48053D01*
X82412Y-47909D01*
X82412Y-47752D01*
X82412Y-48752D01*
X82353Y-48608D01*
X82242Y-48497D01*
X82098Y-48437D01*
X81941Y-48437D01*
X81797Y-48497D01*
X81686Y-48607D01*
X81626Y-48752D01*
X81626Y-48908D01*
X81686Y-49053D01*
X81796Y-49163D01*
X81941Y-49223D01*
X82097Y-49223D01*
X82242Y-49164D01*
X82352Y-49053D01*
X82412Y-48909D01*
X82412Y-48752D01*
X82412Y-49752D01*
X82353Y-49608D01*
X82242Y-49497D01*
X82098Y-49437D01*
X81941Y-49437D01*
X81797Y-49497D01*
X81686Y-49607D01*
X81626Y-49752D01*
X81626Y-49908D01*
X81686Y-50053D01*
X81796Y-50163D01*
X81941Y-50223D01*
X82097Y-50223D01*
X82242Y-50164D01*
X82352Y-50053D01*
X82412Y-49909D01*
X82412Y-49752D01*
X82412Y-50752D01*
X82353Y-50608D01*
X82242Y-50497D01*
X82098Y-50437D01*
X81941Y-50437D01*
X81797Y-50497D01*
X81686Y-50607D01*
X81626Y-50752D01*
X81626Y-50908D01*
X81686Y-51053D01*
X81796Y-51163D01*
X81941Y-51223D01*
X82097Y-51223D01*
X82242Y-51164D01*
X82352Y-51053D01*
X82412Y-50909D01*
X82412Y-50752D01*
X82412Y-51752D01*
X82353Y-51608D01*
X82242Y-51497D01*
X82098Y-51437D01*
X81941Y-51437D01*
X81797Y-51497D01*
X81686Y-51607D01*
X81626Y-51752D01*
X81626Y-51908D01*
X81686Y-52053D01*
X81796Y-52163D01*
X81941Y-52223D01*
X82097Y-52223D01*
X82242Y-52164D01*
X82352Y-52053D01*
X82412Y-51909D01*
X82412Y-51752D01*
X82412Y-52752D01*
X82353Y-52608D01*
X82242Y-52497D01*
X82098Y-52437D01*
X81941Y-52437D01*
X81797Y-52497D01*
X81686Y-52607D01*
X81626Y-52752D01*
X81626Y-52908D01*
X81686Y-53053D01*
X81796Y-53163D01*
X81941Y-53223D01*
X82097Y-53223D01*
X82242Y-53164D01*
X82352Y-53053D01*
X82412Y-52909D01*
X82412Y-52752D01*
X82412Y-53307D01*
X81417Y-53307D01*
X81417Y-45314D01*
X83503Y-45314D01*
X83503Y-43228D01*
X83897Y-43228D01*
X90429Y-43228D01*
X90429Y-43229D01*
X90489Y-43229D01*
X90429Y-43289D01*
X90429Y-43495D01*
X90429Y-43591D01*
X90466Y-43679D01*
X90533Y-43746D01*
X90621Y-43782D01*
X90903Y-43782D01*
X90962Y-43722D01*
X90962Y-43229D01*
X90955Y-43229D01*
X90955Y-43228D01*
X91092Y-43228D01*
X91092Y-43229D01*
X91084Y-43229D01*
X91084Y-43722D01*
X91144Y-43782D01*
X91425Y-43782D01*
X91513Y-43746D01*
X91525Y-43734D01*
X91537Y-43746D01*
X91625Y-43782D01*
X91926Y-43782D01*
X91986Y-43722D01*
X91986Y-43229D01*
X91978Y-43229D01*
X91978Y-43228D01*
X92115Y-43228D01*
X92115Y-43229D01*
X92107Y-43229D01*
X92107Y-43722D01*
X92167Y-43782D01*
X92468Y-43782D01*
X92519Y-43761D01*
X92570Y-43782D01*
X92871Y-43782D01*
X92931Y-43722D01*
X92931Y-43229D01*
X92923Y-43229D01*
X92923Y-43228D01*
X93060Y-43228D01*
X93060Y-43229D01*
X93052Y-43229D01*
X93052Y-43722D01*
X93112Y-43782D01*
X93413Y-43782D01*
X93501Y-43746D01*
X93513Y-43734D01*
X93526Y-43746D01*
X93614Y-43782D01*
X93895Y-43782D01*
X93955Y-43722D01*
X93955Y-43229D01*
X93947Y-43229D01*
X93947Y-43228D01*
X94084Y-43228D01*
X94084Y-43229D01*
X94076Y-43229D01*
X94076Y-43722D01*
X94136Y-43782D01*
X94417Y-43782D01*
X94505Y-43746D01*
X94572Y-43679D01*
X94609Y-43591D01*
X94609Y-43563D01*
X95062Y-43563D01*
X95106Y-43545D01*
X95114Y-43536D01*
X95131Y-43554D01*
X95124Y-43571D01*
X95124Y-43689D01*
X95169Y-43797D01*
X95252Y-43880D01*
X95360Y-43925D01*
X95478Y-43926D01*
X95586Y-43881D01*
X95669Y-43798D01*
X95714Y-43689D01*
X95715Y-43572D01*
X95670Y-43463D01*
X95587Y-43380D01*
X95478Y-43335D01*
X95361Y-43335D01*
X95343Y-43342D01*
X95228Y-43228D01*
X96181Y-43228D01*
X96181Y-43468D01*
X96199Y-43511D01*
X96232Y-43544D01*
X96235Y-43546D01*
X96224Y-43571D01*
X96224Y-43689D01*
X96269Y-43797D01*
X96352Y-43880D01*
X96460Y-43925D01*
X96578Y-43926D01*
X96686Y-43881D01*
X96769Y-43798D01*
X96814Y-43689D01*
X96814Y-43591D01*
X96889Y-43666D01*
X96889Y-43762D01*
X96891Y-43766D01*
X96871Y-43774D01*
X96804Y-43841D01*
X96768Y-43929D01*
X96768Y-44033D01*
X96828Y-44093D01*
X97144Y-44093D01*
X97144Y-44085D01*
X97265Y-44085D01*
X97265Y-44093D01*
X97416Y-44093D01*
X97423Y-44100D01*
X97511Y-44137D01*
X97763Y-44137D01*
X97823Y-44077D01*
X97823Y-43702D01*
X97815Y-43702D01*
X97815Y-43581D01*
X97823Y-43581D01*
X97823Y-43573D01*
X97944Y-43573D01*
X97944Y-43581D01*
X98388Y-43581D01*
X98448Y-43521D01*
X98448Y-43433D01*
X98447Y-43338D01*
X98411Y-43250D01*
X98389Y-43228D01*
X100507Y-43228D01*
X100486Y-43250D01*
X100449Y-43338D01*
X100449Y-43433D01*
X100449Y-43521D01*
X100509Y-43581D01*
X100953Y-43581D01*
X100953Y-43573D01*
X101074Y-43573D01*
X101074Y-43581D01*
X101082Y-43581D01*
X101082Y-43702D01*
X101074Y-43702D01*
X101074Y-44077D01*
X101084Y-44087D01*
X101084Y-44170D01*
X101400Y-44170D01*
X101459Y-44111D01*
X101459Y-44106D01*
X101473Y-44100D01*
X101535Y-44039D01*
X101535Y-45314D01*
X103622Y-45314D01*
X103622Y-50275D01*
X103622Y-50275D01*
G37*
G54D29*
X103622Y-50275D02*
X102669Y-50275D01*
X102669Y-50012D01*
X102686Y-50053D01*
X102796Y-50163D01*
X102941Y-50223D01*
X103097Y-50223D01*
X103242Y-50164D01*
X103352Y-50053D01*
X103412Y-49909D01*
X103412Y-49752D01*
X103353Y-49608D01*
X103242Y-49497D01*
X103098Y-49437D01*
X102941Y-49437D01*
X102797Y-49497D01*
X102686Y-49607D01*
X102669Y-49649D01*
X102669Y-49012D01*
X102686Y-49053D01*
X102796Y-49163D01*
X102941Y-49223D01*
X103097Y-49223D01*
X103242Y-49164D01*
X103352Y-49053D01*
X103412Y-48909D01*
X103412Y-48752D01*
X103353Y-48608D01*
X103242Y-48497D01*
X103098Y-48437D01*
X102941Y-48437D01*
X102797Y-48497D01*
X102686Y-48607D01*
X102669Y-48649D01*
X102669Y-48012D01*
X102686Y-48053D01*
X102796Y-48163D01*
X102941Y-48223D01*
X103097Y-48223D01*
X103242Y-48164D01*
X103352Y-48053D01*
X103412Y-47909D01*
X103412Y-47752D01*
X103353Y-47608D01*
X103242Y-47497D01*
X103098Y-47437D01*
X102941Y-47437D01*
X102797Y-47497D01*
X102686Y-47607D01*
X102669Y-47649D01*
X102669Y-47012D01*
X102686Y-47053D01*
X102796Y-47163D01*
X102941Y-47223D01*
X103097Y-47223D01*
X103242Y-47164D01*
X103352Y-47053D01*
X103412Y-46909D01*
X103412Y-46752D01*
X103412Y-46752D01*
X103412Y-46082D01*
X103412Y-45532D01*
X103394Y-45488D01*
X103361Y-45455D01*
X103318Y-45437D01*
X103271Y-45437D01*
X102721Y-45437D01*
X102677Y-45455D01*
X102644Y-45488D01*
X102626Y-45532D01*
X102626Y-45579D01*
X102626Y-46129D01*
X102644Y-46172D01*
X102677Y-46205D01*
X102721Y-46223D01*
X102768Y-46223D01*
X103318Y-46223D01*
X103361Y-46205D01*
X103394Y-46172D01*
X103412Y-46129D01*
X103412Y-46082D01*
X103412Y-46752D01*
X103353Y-46608D01*
X103242Y-46497D01*
X103098Y-46437D01*
X102941Y-46437D01*
X102797Y-46497D01*
X102686Y-46607D01*
X102626Y-46752D01*
X102626Y-46864D01*
X102625Y-46862D01*
X102625Y-46862D01*
X101456Y-45693D01*
X101456Y-45692D01*
X101456Y-45645D01*
X101456Y-45134D01*
X101438Y-45090D01*
X101405Y-45057D01*
X101362Y-45039D01*
X101332Y-45039D01*
X101338Y-45024D01*
X101338Y-44977D01*
X101338Y-44623D01*
X101337Y-44619D01*
X101356Y-44611D01*
X101423Y-44543D01*
X101460Y-44455D01*
X101459Y-44352D01*
X101400Y-44292D01*
X101084Y-44292D01*
X101084Y-44300D01*
X100962Y-44300D01*
X100962Y-44292D01*
X100962Y-44170D01*
X100962Y-43875D01*
X100953Y-43865D01*
X100953Y-43702D01*
X100509Y-43702D01*
X100449Y-43762D01*
X100449Y-43850D01*
X100449Y-43945D01*
X100486Y-44033D01*
X100553Y-44100D01*
X100593Y-44117D01*
X100647Y-44170D01*
X100962Y-44170D01*
X100962Y-44292D01*
X100647Y-44292D01*
X100587Y-44352D01*
X100587Y-44455D01*
X100623Y-44543D01*
X100690Y-44611D01*
X100710Y-44619D01*
X100708Y-44622D01*
X100708Y-44669D01*
X100708Y-45023D01*
X100714Y-45039D01*
X100665Y-45039D01*
X100622Y-45057D01*
X100588Y-45090D01*
X100570Y-45133D01*
X100570Y-45180D01*
X100570Y-45263D01*
X98448Y-45263D01*
X98448Y-43850D01*
X98448Y-43762D01*
X98388Y-43702D01*
X97944Y-43702D01*
X97944Y-44077D01*
X98004Y-44137D01*
X98256Y-44137D01*
X98344Y-44100D01*
X98411Y-44033D01*
X98447Y-43945D01*
X98448Y-43850D01*
X98448Y-45263D01*
X98326Y-45263D01*
X98326Y-45134D01*
X98308Y-45090D01*
X98275Y-45057D01*
X98232Y-45039D01*
X98185Y-45039D01*
X97641Y-45039D01*
X97641Y-44378D01*
X97641Y-44274D01*
X97581Y-44214D01*
X97265Y-44214D01*
X97265Y-44510D01*
X97325Y-44570D01*
X97354Y-44570D01*
X97449Y-44570D01*
X97537Y-44534D01*
X97604Y-44466D01*
X97641Y-44378D01*
X97641Y-45039D01*
X97535Y-45039D01*
X97492Y-45057D01*
X97458Y-45090D01*
X97440Y-45133D01*
X97440Y-45180D01*
X97440Y-45692D01*
X97458Y-45736D01*
X97492Y-45769D01*
X97535Y-45787D01*
X97582Y-45787D01*
X97701Y-45787D01*
X96929Y-46560D01*
X96929Y-46551D01*
X96929Y-45901D01*
X96911Y-45858D01*
X96878Y-45825D01*
X96834Y-45807D01*
X96787Y-45807D01*
X96704Y-45807D01*
X96704Y-44563D01*
X96769Y-44498D01*
X96793Y-44440D01*
X96804Y-44466D01*
X96871Y-44534D01*
X96959Y-44570D01*
X97055Y-44570D01*
X97084Y-44570D01*
X97144Y-44510D01*
X97144Y-44214D01*
X96828Y-44214D01*
X96802Y-44240D01*
X96770Y-44163D01*
X96687Y-44080D01*
X96578Y-44035D01*
X96461Y-44035D01*
X96352Y-44080D01*
X96269Y-44163D01*
X96224Y-44271D01*
X96224Y-44389D01*
X96269Y-44497D01*
X96352Y-44580D01*
X96405Y-44603D01*
X96405Y-45807D01*
X96275Y-45807D01*
X96232Y-45825D01*
X96199Y-45858D01*
X96181Y-45901D01*
X96181Y-45948D01*
X96181Y-46205D01*
X95642Y-46744D01*
X95609Y-46793D01*
X95607Y-46802D01*
X95598Y-46850D01*
X95598Y-46850D01*
X95598Y-46869D01*
X95563Y-46834D01*
X95428Y-46778D01*
X95281Y-46778D01*
X95146Y-46834D01*
X95110Y-46870D01*
X95110Y-46670D01*
X95139Y-46641D01*
X95157Y-46598D01*
X95157Y-46551D01*
X95157Y-45901D01*
X95139Y-45858D01*
X95106Y-45825D01*
X95062Y-45807D01*
X95015Y-45807D01*
X94933Y-45807D01*
X94933Y-45128D01*
X95343Y-44718D01*
X95360Y-44725D01*
X95478Y-44726D01*
X95586Y-44681D01*
X95669Y-44598D01*
X95714Y-44489D01*
X95715Y-44372D01*
X95670Y-44263D01*
X95587Y-44180D01*
X95478Y-44135D01*
X95361Y-44135D01*
X95252Y-44180D01*
X95169Y-44263D01*
X95124Y-44371D01*
X95124Y-44489D01*
X95131Y-44507D01*
X94677Y-44961D01*
X94645Y-45009D01*
X94643Y-45019D01*
X94633Y-45066D01*
X94633Y-45066D01*
X94633Y-45807D01*
X94504Y-45807D01*
X94460Y-45825D01*
X94427Y-45858D01*
X94409Y-45901D01*
X94409Y-45948D01*
X94409Y-46598D01*
X94427Y-46641D01*
X94460Y-46674D01*
X94503Y-46692D01*
X94550Y-46692D01*
X94811Y-46692D01*
X94811Y-46869D01*
X94776Y-46834D01*
X94641Y-46778D01*
X94494Y-46778D01*
X94392Y-46820D01*
X94392Y-44706D01*
X94392Y-44171D01*
X94392Y-44076D01*
X94356Y-43988D01*
X94288Y-43920D01*
X94200Y-43884D01*
X93955Y-43884D01*
X93860Y-43884D01*
X93800Y-43944D01*
X93800Y-44378D01*
X94333Y-44378D01*
X94392Y-44318D01*
X94392Y-44171D01*
X94392Y-44706D01*
X94392Y-44559D01*
X94333Y-44499D01*
X93800Y-44499D01*
X93800Y-44933D01*
X93860Y-44993D01*
X94200Y-44993D01*
X94288Y-44956D01*
X94356Y-44889D01*
X94392Y-44801D01*
X94392Y-44706D01*
X94392Y-46820D01*
X94359Y-46834D01*
X94322Y-46870D01*
X94322Y-46653D01*
X94322Y-45748D01*
X94311Y-45690D01*
X94311Y-45690D01*
X94279Y-45642D01*
X94279Y-45642D01*
X94013Y-45376D01*
X93964Y-45344D01*
X93955Y-45342D01*
X93907Y-45332D01*
X93907Y-45332D01*
X93308Y-45332D01*
X93316Y-45329D01*
X93399Y-45246D01*
X93444Y-45137D01*
X93444Y-45020D01*
X93433Y-44993D01*
X93619Y-44993D01*
X93679Y-44933D01*
X93679Y-44499D01*
X93671Y-44499D01*
X93671Y-44378D01*
X93679Y-44378D01*
X93679Y-43944D01*
X93619Y-43884D01*
X93279Y-43884D01*
X93191Y-43920D01*
X93123Y-43988D01*
X93087Y-44076D01*
X93087Y-44104D01*
X93086Y-44104D01*
X92931Y-44104D01*
X92929Y-44104D01*
X92903Y-44114D01*
X92877Y-44104D01*
X92830Y-44104D01*
X92673Y-44104D01*
X92647Y-44114D01*
X92622Y-44104D01*
X92575Y-44104D01*
X92552Y-44104D01*
X92545Y-44086D01*
X92477Y-44019D01*
X92389Y-43983D01*
X92362Y-43983D01*
X92303Y-44042D01*
X92303Y-44119D01*
X92289Y-44086D01*
X92222Y-44019D01*
X92186Y-44004D01*
X92164Y-43983D01*
X92137Y-43983D01*
X92135Y-43983D01*
X92134Y-43983D01*
X92107Y-43983D01*
X92085Y-44004D01*
X92049Y-44019D01*
X91986Y-44082D01*
X91982Y-44086D01*
X91968Y-44119D01*
X91968Y-44042D01*
X91916Y-43990D01*
X91915Y-43988D01*
X91848Y-43920D01*
X91760Y-43884D01*
X91419Y-43884D01*
X91359Y-43944D01*
X91359Y-44378D01*
X91700Y-44378D01*
X91749Y-44427D01*
X91968Y-44427D01*
X91968Y-44390D01*
X92005Y-44427D01*
X92047Y-44427D01*
X92076Y-44427D01*
X92076Y-44548D01*
X92047Y-44548D01*
X92005Y-44548D01*
X91968Y-44585D01*
X91968Y-44548D01*
X91941Y-44548D01*
X91892Y-44499D01*
X91359Y-44499D01*
X91359Y-44933D01*
X91419Y-44993D01*
X91760Y-44993D01*
X91820Y-44968D01*
X91881Y-44993D01*
X91908Y-44993D01*
X91968Y-44933D01*
X91968Y-44856D01*
X91982Y-44889D01*
X92049Y-44956D01*
X92085Y-44971D01*
X92107Y-44993D01*
X92134Y-44993D01*
X92135Y-44992D01*
X92137Y-44993D01*
X92164Y-44993D01*
X92186Y-44971D01*
X92222Y-44956D01*
X92289Y-44889D01*
X92303Y-44856D01*
X92303Y-44933D01*
X92362Y-44993D01*
X92370Y-44993D01*
X92370Y-45177D01*
X92370Y-45275D01*
X92370Y-45275D01*
X92379Y-45323D01*
X92381Y-45332D01*
X92413Y-45381D01*
X92741Y-45708D01*
X92673Y-45708D01*
X92629Y-45726D01*
X92596Y-45760D01*
X92582Y-45795D01*
X92582Y-45779D01*
X92545Y-45691D01*
X92478Y-45623D01*
X92390Y-45587D01*
X92227Y-45587D01*
X92167Y-45647D01*
X92167Y-46002D01*
X92175Y-46002D01*
X92175Y-46123D01*
X92167Y-46123D01*
X92167Y-46478D01*
X92227Y-46538D01*
X92390Y-46538D01*
X92449Y-46514D01*
X92449Y-46869D01*
X92414Y-46834D01*
X92279Y-46778D01*
X92132Y-46778D01*
X92046Y-46814D01*
X92046Y-46478D01*
X92046Y-46123D01*
X92046Y-46002D01*
X92046Y-45647D01*
X91986Y-45587D01*
X91823Y-45587D01*
X91735Y-45623D01*
X91667Y-45691D01*
X91631Y-45779D01*
X91631Y-45874D01*
X91631Y-45942D01*
X91691Y-46002D01*
X92046Y-46002D01*
X92046Y-46123D01*
X91691Y-46123D01*
X91631Y-46183D01*
X91631Y-46251D01*
X91631Y-46346D01*
X91667Y-46434D01*
X91735Y-46502D01*
X91823Y-46538D01*
X91986Y-46538D01*
X92046Y-46478D01*
X92046Y-46814D01*
X91997Y-46834D01*
X91893Y-46937D01*
X91837Y-47073D01*
X91837Y-47219D01*
X91893Y-47354D01*
X91996Y-47458D01*
X92132Y-47514D01*
X92278Y-47514D01*
X92413Y-47458D01*
X92449Y-47423D01*
X92449Y-47597D01*
X92390Y-47621D01*
X92286Y-47724D01*
X92230Y-47860D01*
X92230Y-48006D01*
X92286Y-48141D01*
X92389Y-48245D01*
X92525Y-48301D01*
X92671Y-48301D01*
X92806Y-48245D01*
X92910Y-48142D01*
X92966Y-48007D01*
X92966Y-47860D01*
X92910Y-47725D01*
X92807Y-47621D01*
X92748Y-47597D01*
X92748Y-47422D01*
X92783Y-47458D01*
X92919Y-47514D01*
X93065Y-47514D01*
X93200Y-47458D01*
X93246Y-47413D01*
X93247Y-47419D01*
X93280Y-47467D01*
X93377Y-47565D01*
X93313Y-47565D01*
X93178Y-47621D01*
X93074Y-47724D01*
X93018Y-47860D01*
X93018Y-48006D01*
X93074Y-48141D01*
X93177Y-48245D01*
X93313Y-48301D01*
X93459Y-48301D01*
X93594Y-48245D01*
X93629Y-48210D01*
X93629Y-48522D01*
X93629Y-48522D01*
X93639Y-48570D01*
X93641Y-48579D01*
X93673Y-48628D01*
X93829Y-48784D01*
X93805Y-48843D01*
X93805Y-48989D01*
X93861Y-49124D01*
X93964Y-49228D01*
X94100Y-49284D01*
X94165Y-49284D01*
X94022Y-49427D01*
X93988Y-49392D01*
X93853Y-49336D01*
X93754Y-49336D01*
X93754Y-48843D01*
X93698Y-48708D01*
X93595Y-48604D01*
X93460Y-48548D01*
X93313Y-48548D01*
X93178Y-48604D01*
X93074Y-48707D01*
X93018Y-48843D01*
X93018Y-48989D01*
X93074Y-49124D01*
X93177Y-49228D01*
X93313Y-49284D01*
X93459Y-49284D01*
X93594Y-49228D01*
X93698Y-49125D01*
X93754Y-48990D01*
X93754Y-48843D01*
X93754Y-49336D01*
X93706Y-49336D01*
X93571Y-49392D01*
X93467Y-49495D01*
X93411Y-49631D01*
X93411Y-49777D01*
X93467Y-49912D01*
X93570Y-50016D01*
X93706Y-50072D01*
X93852Y-50072D01*
X93987Y-50016D01*
X94091Y-49913D01*
X94147Y-49778D01*
X94147Y-49725D01*
X94199Y-49673D01*
X94199Y-49777D01*
X94255Y-49912D01*
X94358Y-50016D01*
X94494Y-50072D01*
X94640Y-50072D01*
X94775Y-50016D01*
X94879Y-49913D01*
X94935Y-49778D01*
X94935Y-49631D01*
X94879Y-49496D01*
X94776Y-49392D01*
X94641Y-49336D01*
X94536Y-49336D01*
X94672Y-49200D01*
X94672Y-49200D01*
X94672Y-49200D01*
X94693Y-49169D01*
X94693Y-49169D01*
X94751Y-49228D01*
X94887Y-49284D01*
X95033Y-49284D01*
X95168Y-49228D01*
X95272Y-49125D01*
X95328Y-48990D01*
X95328Y-48843D01*
X95272Y-48708D01*
X95210Y-48645D01*
X95295Y-48681D01*
X95412Y-48681D01*
X95499Y-48645D01*
X95436Y-48707D01*
X95380Y-48843D01*
X95380Y-48989D01*
X95436Y-49124D01*
X95539Y-49228D01*
X95675Y-49284D01*
X95779Y-49284D01*
X95642Y-49421D01*
X95622Y-49451D01*
X95563Y-49392D01*
X95428Y-49336D01*
X95281Y-49336D01*
X95146Y-49392D01*
X95042Y-49495D01*
X94986Y-49631D01*
X94986Y-49777D01*
X95042Y-49912D01*
X95145Y-50016D01*
X95281Y-50072D01*
X95427Y-50072D01*
X95562Y-50016D01*
X95598Y-49981D01*
X95598Y-50039D01*
X95598Y-50039D01*
X95607Y-50087D01*
X95609Y-50096D01*
X95642Y-50145D01*
X95760Y-50263D01*
X95808Y-50295D01*
X95808Y-50295D01*
X95818Y-50297D01*
X95866Y-50307D01*
X95866Y-50307D01*
X95866Y-50307D01*
X98503Y-50307D01*
X98503Y-50535D01*
X98461Y-50535D01*
X98352Y-50580D01*
X98269Y-50663D01*
X98224Y-50771D01*
X98224Y-50889D01*
X98269Y-50997D01*
X98352Y-51080D01*
X98269Y-51163D01*
X98187Y-51080D01*
X98078Y-51035D01*
X97961Y-51035D01*
X97852Y-51080D01*
X97769Y-51163D01*
X97724Y-51271D01*
X97724Y-51299D01*
X97519Y-51299D01*
X97519Y-52094D01*
X93360Y-52094D01*
X93360Y-49631D01*
X93304Y-49496D01*
X93201Y-49392D01*
X93066Y-49336D01*
X92966Y-49336D01*
X92966Y-48843D01*
X92910Y-48708D01*
X92807Y-48604D01*
X92672Y-48548D01*
X92525Y-48548D01*
X92390Y-48604D01*
X92286Y-48707D01*
X92230Y-48843D01*
X92230Y-48989D01*
X92286Y-49124D01*
X92389Y-49228D01*
X92525Y-49284D01*
X92671Y-49284D01*
X92806Y-49228D01*
X92910Y-49125D01*
X92966Y-48990D01*
X92966Y-48843D01*
X92966Y-49336D01*
X92919Y-49336D01*
X92784Y-49392D01*
X92680Y-49495D01*
X92624Y-49631D01*
X92624Y-49777D01*
X92680Y-49912D01*
X92783Y-50016D01*
X92919Y-50072D01*
X93065Y-50072D01*
X93200Y-50016D01*
X93304Y-49913D01*
X93360Y-49778D01*
X93360Y-49631D01*
X93360Y-52094D01*
X92573Y-52094D01*
X92573Y-49631D01*
X92517Y-49496D01*
X92414Y-49392D01*
X92279Y-49336D01*
X92132Y-49336D01*
X92041Y-49374D01*
X92041Y-48352D01*
X91985Y-48216D01*
X91882Y-48113D01*
X91746Y-48057D01*
X91600Y-48057D01*
X91464Y-48112D01*
X91391Y-48185D01*
X91391Y-47860D01*
X91335Y-47725D01*
X91238Y-47627D01*
X91238Y-44933D01*
X91238Y-44499D01*
X91238Y-44378D01*
X91238Y-43944D01*
X91178Y-43884D01*
X90962Y-43884D01*
X90838Y-43884D01*
X90750Y-43920D01*
X90683Y-43988D01*
X90646Y-44076D01*
X90646Y-44171D01*
X90646Y-44318D01*
X90706Y-44378D01*
X91238Y-44378D01*
X91238Y-44499D01*
X90706Y-44499D01*
X90646Y-44559D01*
X90646Y-44706D01*
X90646Y-44801D01*
X90683Y-44889D01*
X90750Y-44956D01*
X90838Y-44993D01*
X91178Y-44993D01*
X91238Y-44933D01*
X91238Y-47627D01*
X91232Y-47621D01*
X91097Y-47565D01*
X90998Y-47565D01*
X90998Y-47073D01*
X90942Y-46938D01*
X90839Y-46834D01*
X90704Y-46778D01*
X90557Y-46778D01*
X90422Y-46834D01*
X90318Y-46937D01*
X90262Y-47073D01*
X90262Y-47219D01*
X90318Y-47354D01*
X90421Y-47458D01*
X90557Y-47514D01*
X90703Y-47514D01*
X90838Y-47458D01*
X90942Y-47355D01*
X90998Y-47220D01*
X90998Y-47073D01*
X90998Y-47565D01*
X90950Y-47565D01*
X90815Y-47621D01*
X90711Y-47724D01*
X90655Y-47860D01*
X90655Y-48006D01*
X90711Y-48141D01*
X90814Y-48245D01*
X90950Y-48301D01*
X91096Y-48301D01*
X91231Y-48245D01*
X91335Y-48142D01*
X91391Y-48007D01*
X91391Y-47860D01*
X91391Y-48185D01*
X91361Y-48216D01*
X91305Y-48351D01*
X91305Y-48498D01*
X91360Y-48633D01*
X91464Y-48737D01*
X91599Y-48793D01*
X91746Y-48793D01*
X91881Y-48737D01*
X91985Y-48633D01*
X92041Y-48498D01*
X92041Y-48352D01*
X92041Y-49374D01*
X91997Y-49392D01*
X91893Y-49495D01*
X91837Y-49631D01*
X91837Y-49777D01*
X91893Y-49912D01*
X91996Y-50016D01*
X92132Y-50072D01*
X92278Y-50072D01*
X92413Y-50016D01*
X92517Y-49913D01*
X92573Y-49778D01*
X92573Y-49631D01*
X92573Y-52094D01*
X91117Y-52094D01*
X90255Y-51232D01*
X90255Y-51185D01*
X90256Y-51185D01*
X90373Y-51067D01*
X90437Y-50914D01*
X90437Y-50747D01*
X90378Y-50604D01*
X90797Y-50185D01*
X90848Y-50109D01*
X90866Y-50018D01*
X90866Y-49988D01*
X90942Y-49913D01*
X90998Y-49778D01*
X90998Y-49670D01*
X91190Y-49478D01*
X91241Y-49402D01*
X91259Y-49311D01*
X91259Y-49200D01*
X91335Y-49125D01*
X91391Y-48990D01*
X91391Y-48843D01*
X91335Y-48708D01*
X91232Y-48604D01*
X91097Y-48548D01*
X91008Y-48548D01*
X90718Y-48258D01*
X90641Y-48206D01*
X90551Y-48188D01*
X90501Y-48188D01*
X90548Y-48142D01*
X90604Y-48007D01*
X90604Y-47860D01*
X90548Y-47725D01*
X90445Y-47621D01*
X90310Y-47565D01*
X90210Y-47565D01*
X90210Y-47073D01*
X90154Y-46938D01*
X90051Y-46834D01*
X89916Y-46778D01*
X89769Y-46778D01*
X89634Y-46834D01*
X89530Y-46937D01*
X89474Y-47073D01*
X89474Y-47219D01*
X89530Y-47354D01*
X89633Y-47458D01*
X89769Y-47514D01*
X89915Y-47514D01*
X90050Y-47458D01*
X90154Y-47355D01*
X90210Y-47220D01*
X90210Y-47073D01*
X90210Y-47565D01*
X90163Y-47565D01*
X90028Y-47621D01*
X89924Y-47724D01*
X89868Y-47860D01*
X89868Y-48006D01*
X89924Y-48141D01*
X89971Y-48188D01*
X89714Y-48188D01*
X89761Y-48142D01*
X89817Y-48007D01*
X89817Y-47860D01*
X89761Y-47725D01*
X89658Y-47621D01*
X89523Y-47565D01*
X89437Y-47565D01*
X89437Y-43747D01*
X89374Y-43594D01*
X89256Y-43476D01*
X89103Y-43412D01*
X88936Y-43412D01*
X88783Y-43476D01*
X88665Y-43593D01*
X88601Y-43747D01*
X88601Y-43913D01*
X88665Y-44067D01*
X88782Y-44184D01*
X88936Y-44248D01*
X89102Y-44248D01*
X89256Y-44185D01*
X89373Y-44067D01*
X89437Y-43914D01*
X89437Y-43747D01*
X89437Y-47565D01*
X89423Y-47565D01*
X89423Y-47073D01*
X89367Y-46938D01*
X89264Y-46834D01*
X89129Y-46778D01*
X88982Y-46778D01*
X88847Y-46834D01*
X88743Y-46937D01*
X88687Y-47073D01*
X88687Y-47219D01*
X88743Y-47354D01*
X88846Y-47458D01*
X88982Y-47514D01*
X89128Y-47514D01*
X89263Y-47458D01*
X89367Y-47355D01*
X89423Y-47220D01*
X89423Y-47073D01*
X89423Y-47565D01*
X89376Y-47565D01*
X89241Y-47621D01*
X89137Y-47724D01*
X89081Y-47860D01*
X89081Y-48006D01*
X89137Y-48141D01*
X89184Y-48188D01*
X89153Y-48188D01*
X89062Y-48206D01*
X89037Y-48223D01*
X89029Y-48228D01*
X89029Y-47860D01*
X88973Y-47725D01*
X88870Y-47621D01*
X88735Y-47565D01*
X88636Y-47565D01*
X88636Y-47073D01*
X88580Y-46938D01*
X88477Y-46834D01*
X88437Y-46818D01*
X88437Y-44107D01*
X88437Y-43507D01*
X88419Y-43463D01*
X88386Y-43430D01*
X88343Y-43412D01*
X88296Y-43412D01*
X87696Y-43412D01*
X87652Y-43430D01*
X87619Y-43463D01*
X87601Y-43507D01*
X87601Y-43554D01*
X87601Y-44154D01*
X87619Y-44197D01*
X87652Y-44230D01*
X87696Y-44248D01*
X87743Y-44248D01*
X88343Y-44248D01*
X88386Y-44230D01*
X88419Y-44197D01*
X88437Y-44154D01*
X88437Y-44107D01*
X88437Y-46818D01*
X88342Y-46778D01*
X88195Y-46778D01*
X88060Y-46834D01*
X87956Y-46937D01*
X87900Y-47073D01*
X87900Y-47219D01*
X87956Y-47354D01*
X88059Y-47458D01*
X88195Y-47514D01*
X88341Y-47514D01*
X88476Y-47458D01*
X88580Y-47355D01*
X88636Y-47220D01*
X88636Y-47073D01*
X88636Y-47565D01*
X88588Y-47565D01*
X88453Y-47621D01*
X88349Y-47724D01*
X88293Y-47860D01*
X88293Y-48006D01*
X88349Y-48141D01*
X88452Y-48245D01*
X88588Y-48301D01*
X88734Y-48301D01*
X88869Y-48245D01*
X88973Y-48142D01*
X89029Y-48007D01*
X89029Y-47860D01*
X89029Y-48228D01*
X88986Y-48258D01*
X88695Y-48548D01*
X88588Y-48548D01*
X88453Y-48604D01*
X88377Y-48680D01*
X88242Y-48680D01*
X88242Y-47860D01*
X88186Y-47725D01*
X88083Y-47621D01*
X87948Y-47565D01*
X87848Y-47565D01*
X87848Y-47073D01*
X87792Y-46938D01*
X87689Y-46834D01*
X87554Y-46778D01*
X87407Y-46778D01*
X87272Y-46834D01*
X87168Y-46937D01*
X87112Y-47073D01*
X87112Y-47219D01*
X87168Y-47354D01*
X87271Y-47458D01*
X87407Y-47514D01*
X87553Y-47514D01*
X87688Y-47458D01*
X87792Y-47355D01*
X87848Y-47220D01*
X87848Y-47073D01*
X87848Y-47565D01*
X87801Y-47565D01*
X87666Y-47621D01*
X87562Y-47724D01*
X87506Y-47860D01*
X87506Y-48006D01*
X87562Y-48141D01*
X87665Y-48245D01*
X87801Y-48301D01*
X87947Y-48301D01*
X88082Y-48245D01*
X88186Y-48142D01*
X88242Y-48007D01*
X88242Y-47860D01*
X88242Y-48680D01*
X88158Y-48680D01*
X88083Y-48604D01*
X87948Y-48548D01*
X87801Y-48548D01*
X87666Y-48604D01*
X87590Y-48680D01*
X87454Y-48680D01*
X87454Y-47860D01*
X87398Y-47724D01*
X87295Y-47621D01*
X87160Y-47565D01*
X87013Y-47564D01*
X86878Y-47620D01*
X86774Y-47724D01*
X86718Y-47859D01*
X86718Y-48005D01*
X86774Y-48141D01*
X86877Y-48244D01*
X87013Y-48301D01*
X87159Y-48301D01*
X87294Y-48245D01*
X87398Y-48141D01*
X87454Y-48006D01*
X87454Y-47860D01*
X87454Y-48680D01*
X87370Y-48680D01*
X87295Y-48604D01*
X87160Y-48548D01*
X87013Y-48548D01*
X86878Y-48604D01*
X86774Y-48707D01*
X86718Y-48843D01*
X86718Y-48989D01*
X86774Y-49124D01*
X86877Y-49228D01*
X87013Y-49284D01*
X87159Y-49284D01*
X87294Y-49228D01*
X87371Y-49152D01*
X87590Y-49152D01*
X87665Y-49228D01*
X87801Y-49284D01*
X87947Y-49284D01*
X88082Y-49228D01*
X88159Y-49152D01*
X88377Y-49152D01*
X88452Y-49228D01*
X88588Y-49284D01*
X88734Y-49284D01*
X88869Y-49228D01*
X88973Y-49125D01*
X88986Y-49094D01*
X89013Y-49158D01*
X89099Y-49181D01*
X89067Y-49212D01*
X88918Y-49224D01*
X88813Y-49268D01*
X88790Y-49354D01*
X89055Y-49618D01*
X89061Y-49613D01*
X89146Y-49699D01*
X89141Y-49704D01*
X89146Y-49710D01*
X89061Y-49795D01*
X89055Y-49790D01*
X88969Y-49876D01*
X88969Y-49704D01*
X88705Y-49439D01*
X88662Y-49451D01*
X88619Y-49439D01*
X88533Y-49525D01*
X88533Y-49354D01*
X88510Y-49268D01*
X88325Y-49208D01*
X88131Y-49224D01*
X88026Y-49268D01*
X88003Y-49354D01*
X88268Y-49618D01*
X88533Y-49354D01*
X88533Y-49525D01*
X88354Y-49704D01*
X88619Y-49969D01*
X88662Y-49957D01*
X88705Y-49969D01*
X88969Y-49704D01*
X88969Y-49876D01*
X88790Y-50055D01*
X88792Y-50059D01*
X88532Y-50059D01*
X88533Y-50055D01*
X88268Y-49790D01*
X88182Y-49876D01*
X88182Y-49704D01*
X87918Y-49439D01*
X87874Y-49451D01*
X87831Y-49439D01*
X87745Y-49525D01*
X87745Y-49354D01*
X87722Y-49268D01*
X87537Y-49208D01*
X87343Y-49224D01*
X87238Y-49268D01*
X87215Y-49354D01*
X87480Y-49618D01*
X87745Y-49354D01*
X87745Y-49525D01*
X87566Y-49704D01*
X87831Y-49969D01*
X87874Y-49957D01*
X87918Y-49969D01*
X88182Y-49704D01*
X88182Y-49876D01*
X88003Y-50055D01*
X88005Y-50059D01*
X87744Y-50059D01*
X87745Y-50055D01*
X87480Y-49790D01*
X87394Y-49876D01*
X87394Y-49704D01*
X87130Y-49439D01*
X87044Y-49462D01*
X86984Y-49647D01*
X87000Y-49841D01*
X87044Y-49946D01*
X87130Y-49969D01*
X87394Y-49704D01*
X87394Y-49876D01*
X87215Y-50055D01*
X87217Y-50059D01*
X86559Y-50059D01*
X86559Y-44083D01*
X86559Y-43578D01*
X86559Y-43482D01*
X86522Y-43394D01*
X86455Y-43327D01*
X86367Y-43291D01*
X86140Y-43291D01*
X86080Y-43351D01*
X86080Y-43770D01*
X86499Y-43770D01*
X86559Y-43710D01*
X86559Y-43578D01*
X86559Y-44083D01*
X86559Y-43951D01*
X86499Y-43891D01*
X86080Y-43891D01*
X86080Y-44310D01*
X86140Y-44370D01*
X86367Y-44370D01*
X86455Y-44333D01*
X86522Y-44266D01*
X86559Y-44178D01*
X86559Y-44083D01*
X86559Y-50059D01*
X86485Y-50059D01*
X86456Y-50029D01*
X85959Y-49532D01*
X85959Y-44310D01*
X85959Y-43891D01*
X85959Y-43770D01*
X85959Y-43351D01*
X85899Y-43291D01*
X85672Y-43291D01*
X85584Y-43327D01*
X85516Y-43394D01*
X85480Y-43482D01*
X85480Y-43578D01*
X85480Y-43710D01*
X85540Y-43770D01*
X85959Y-43770D01*
X85959Y-43891D01*
X85540Y-43891D01*
X85480Y-43951D01*
X85480Y-44083D01*
X85480Y-44178D01*
X85516Y-44266D01*
X85584Y-44333D01*
X85672Y-44370D01*
X85899Y-44370D01*
X85959Y-44310D01*
X85959Y-49532D01*
X85566Y-49140D01*
X85566Y-46354D01*
X85566Y-46354D01*
X85548Y-46263D01*
X85548Y-46263D01*
X85497Y-46187D01*
X85497Y-46187D01*
X85255Y-45945D01*
X85255Y-44185D01*
X85256Y-44185D01*
X85373Y-44067D01*
X85437Y-43914D01*
X85437Y-43747D01*
X85374Y-43594D01*
X85256Y-43476D01*
X85103Y-43412D01*
X84936Y-43412D01*
X84783Y-43476D01*
X84665Y-43593D01*
X84601Y-43747D01*
X84601Y-43913D01*
X84665Y-44067D01*
X84782Y-44184D01*
X84783Y-44185D01*
X84783Y-46043D01*
X84801Y-46133D01*
X84852Y-46210D01*
X85094Y-46452D01*
X85094Y-49137D01*
X84437Y-49137D01*
X84437Y-43747D01*
X84374Y-43594D01*
X84256Y-43476D01*
X84103Y-43412D01*
X83936Y-43412D01*
X83783Y-43476D01*
X83665Y-43593D01*
X83601Y-43747D01*
X83601Y-43913D01*
X83665Y-44067D01*
X83782Y-44184D01*
X83936Y-44248D01*
X84102Y-44248D01*
X84256Y-44185D01*
X84373Y-44067D01*
X84437Y-43914D01*
X84437Y-43747D01*
X84437Y-49137D01*
X83494Y-49137D01*
X83494Y-49169D01*
X83492Y-49169D01*
X83492Y-52830D01*
X86039Y-52830D01*
X86039Y-50280D01*
X86122Y-50363D01*
X86220Y-50462D01*
X86297Y-50513D01*
X86297Y-50513D01*
X86387Y-50531D01*
X87480Y-50531D01*
X87480Y-50578D01*
X87480Y-50710D01*
X87540Y-50770D01*
X87959Y-50770D01*
X87959Y-50762D01*
X88080Y-50762D01*
X88080Y-50770D01*
X88499Y-50770D01*
X88559Y-50710D01*
X88559Y-50578D01*
X88559Y-50531D01*
X88727Y-50531D01*
X88665Y-50593D01*
X88601Y-50747D01*
X88601Y-50913D01*
X88665Y-51067D01*
X88782Y-51184D01*
X88783Y-51185D01*
X88783Y-51330D01*
X88801Y-51421D01*
X88852Y-51497D01*
X90352Y-52997D01*
X90352Y-52997D01*
X90403Y-53031D01*
X90429Y-53048D01*
X90429Y-53048D01*
X90519Y-53066D01*
X91921Y-53066D01*
X92161Y-53307D01*
X88559Y-53307D01*
X88559Y-51083D01*
X88559Y-50951D01*
X88499Y-50891D01*
X88080Y-50891D01*
X88080Y-51310D01*
X88140Y-51370D01*
X88367Y-51370D01*
X88455Y-51333D01*
X88522Y-51266D01*
X88559Y-51178D01*
X88559Y-51083D01*
X88559Y-53307D01*
X87959Y-53307D01*
X87959Y-51310D01*
X87959Y-50891D01*
X87540Y-50891D01*
X87480Y-50951D01*
X87480Y-51083D01*
X87480Y-51178D01*
X87516Y-51266D01*
X87584Y-51333D01*
X87672Y-51370D01*
X87899Y-51370D01*
X87959Y-51310D01*
X87959Y-53307D01*
X82412Y-53307D01*
X82412Y-52752D01*
X82412Y-51752D01*
X82412Y-50752D01*
X82412Y-49752D01*
X82412Y-48752D01*
X82412Y-47752D01*
X82412Y-46752D01*
X82412Y-46752D01*
X82412Y-46082D01*
X82412Y-45532D01*
X82394Y-45488D01*
X82361Y-45455D01*
X82318Y-45437D01*
X82271Y-45437D01*
X81721Y-45437D01*
X81677Y-45455D01*
X81644Y-45488D01*
X81626Y-45532D01*
X81626Y-45579D01*
X81626Y-46129D01*
X81644Y-46172D01*
X81677Y-46205D01*
X81721Y-46223D01*
X81768Y-46223D01*
X82318Y-46223D01*
X82361Y-46205D01*
X82394Y-46172D01*
X82412Y-46129D01*
X82412Y-46082D01*
X82412Y-46752D01*
X82353Y-46608D01*
X82242Y-46497D01*
X82098Y-46437D01*
X81941Y-46437D01*
X81797Y-46497D01*
X81686Y-46607D01*
X81626Y-46752D01*
X81626Y-46908D01*
X81686Y-47053D01*
X81796Y-47163D01*
X81941Y-47223D01*
X82097Y-47223D01*
X82242Y-47164D01*
X82352Y-47053D01*
X82412Y-46909D01*
X82412Y-46752D01*
X82412Y-47752D01*
X82353Y-47608D01*
X82242Y-47497D01*
X82098Y-47437D01*
X81941Y-47437D01*
X81797Y-47497D01*
X81686Y-47607D01*
X81626Y-47752D01*
X81626Y-47908D01*
X81686Y-48053D01*
X81796Y-48163D01*
X81941Y-48223D01*
X82097Y-48223D01*
X82242Y-48164D01*
X82352Y-48053D01*
X82412Y-47909D01*
X82412Y-47752D01*
X82412Y-48752D01*
X82353Y-48608D01*
X82242Y-48497D01*
X82098Y-48437D01*
X81941Y-48437D01*
X81797Y-48497D01*
X81686Y-48607D01*
X81626Y-48752D01*
X81626Y-48908D01*
X81686Y-49053D01*
X81796Y-49163D01*
X81941Y-49223D01*
X82097Y-49223D01*
X82242Y-49164D01*
X82352Y-49053D01*
X82412Y-48909D01*
X82412Y-48752D01*
X82412Y-49752D01*
X82353Y-49608D01*
X82242Y-49497D01*
X82098Y-49437D01*
X81941Y-49437D01*
X81797Y-49497D01*
X81686Y-49607D01*
X81626Y-49752D01*
X81626Y-49908D01*
X81686Y-50053D01*
X81796Y-50163D01*
X81941Y-50223D01*
X82097Y-50223D01*
X82242Y-50164D01*
X82352Y-50053D01*
X82412Y-49909D01*
X82412Y-49752D01*
X82412Y-50752D01*
X82353Y-50608D01*
X82242Y-50497D01*
X82098Y-50437D01*
X81941Y-50437D01*
X81797Y-50497D01*
X81686Y-50607D01*
X81626Y-50752D01*
X81626Y-50908D01*
X81686Y-51053D01*
X81796Y-51163D01*
X81941Y-51223D01*
X82097Y-51223D01*
X82242Y-51164D01*
X82352Y-51053D01*
X82412Y-50909D01*
X82412Y-50752D01*
X82412Y-51752D01*
X82353Y-51608D01*
X82242Y-51497D01*
X82098Y-51437D01*
X81941Y-51437D01*
X81797Y-51497D01*
X81686Y-51607D01*
X81626Y-51752D01*
X81626Y-51908D01*
X81686Y-52053D01*
X81796Y-52163D01*
X81941Y-52223D01*
X82097Y-52223D01*
X82242Y-52164D01*
X82352Y-52053D01*
X82412Y-51909D01*
X82412Y-51752D01*
X82412Y-52752D01*
X82353Y-52608D01*
X82242Y-52497D01*
X82098Y-52437D01*
X81941Y-52437D01*
X81797Y-52497D01*
X81686Y-52607D01*
X81626Y-52752D01*
X81626Y-52908D01*
X81686Y-53053D01*
X81796Y-53163D01*
X81941Y-53223D01*
X82097Y-53223D01*
X82242Y-53164D01*
X82352Y-53053D01*
X82412Y-52909D01*
X82412Y-52752D01*
X82412Y-53307D01*
X81417Y-53307D01*
X81417Y-45314D01*
X83503Y-45314D01*
X83503Y-43228D01*
X83897Y-43228D01*
X90429Y-43228D01*
X90429Y-43229D01*
X90489Y-43229D01*
X90429Y-43289D01*
X90429Y-43495D01*
X90429Y-43591D01*
X90466Y-43679D01*
X90533Y-43746D01*
X90621Y-43782D01*
X90903Y-43782D01*
X90962Y-43722D01*
X90962Y-43229D01*
X90955Y-43229D01*
X90955Y-43228D01*
X91092Y-43228D01*
X91092Y-43229D01*
X91084Y-43229D01*
X91084Y-43722D01*
X91144Y-43782D01*
X91425Y-43782D01*
X91513Y-43746D01*
X91525Y-43734D01*
X91537Y-43746D01*
X91625Y-43782D01*
X91926Y-43782D01*
X91986Y-43722D01*
X91986Y-43229D01*
X91978Y-43229D01*
X91978Y-43228D01*
X92115Y-43228D01*
X92115Y-43229D01*
X92107Y-43229D01*
X92107Y-43722D01*
X92167Y-43782D01*
X92468Y-43782D01*
X92519Y-43761D01*
X92570Y-43782D01*
X92871Y-43782D01*
X92931Y-43722D01*
X92931Y-43229D01*
X92923Y-43229D01*
X92923Y-43228D01*
X93060Y-43228D01*
X93060Y-43229D01*
X93052Y-43229D01*
X93052Y-43722D01*
X93112Y-43782D01*
X93413Y-43782D01*
X93501Y-43746D01*
X93513Y-43734D01*
X93526Y-43746D01*
X93614Y-43782D01*
X93895Y-43782D01*
X93955Y-43722D01*
X93955Y-43229D01*
X93947Y-43229D01*
X93947Y-43228D01*
X94084Y-43228D01*
X94084Y-43229D01*
X94076Y-43229D01*
X94076Y-43722D01*
X94136Y-43782D01*
X94417Y-43782D01*
X94505Y-43746D01*
X94572Y-43679D01*
X94609Y-43591D01*
X94609Y-43563D01*
X95062Y-43563D01*
X95106Y-43545D01*
X95114Y-43536D01*
X95131Y-43554D01*
X95124Y-43571D01*
X95124Y-43689D01*
X95169Y-43797D01*
X95252Y-43880D01*
X95360Y-43925D01*
X95478Y-43926D01*
X95586Y-43881D01*
X95669Y-43798D01*
X95714Y-43689D01*
X95715Y-43572D01*
X95670Y-43463D01*
X95587Y-43380D01*
X95478Y-43335D01*
X95361Y-43335D01*
X95343Y-43342D01*
X95228Y-43228D01*
X96181Y-43228D01*
X96181Y-43468D01*
X96199Y-43511D01*
X96232Y-43544D01*
X96235Y-43546D01*
X96224Y-43571D01*
X96224Y-43689D01*
X96269Y-43797D01*
X96352Y-43880D01*
X96460Y-43925D01*
X96578Y-43926D01*
X96686Y-43881D01*
X96769Y-43798D01*
X96814Y-43689D01*
X96814Y-43591D01*
X96889Y-43666D01*
X96889Y-43762D01*
X96891Y-43766D01*
X96871Y-43774D01*
X96804Y-43841D01*
X96768Y-43929D01*
X96768Y-44033D01*
X96828Y-44093D01*
X97144Y-44093D01*
X97144Y-44085D01*
X97265Y-44085D01*
X97265Y-44093D01*
X97416Y-44093D01*
X97423Y-44100D01*
X97511Y-44137D01*
X97763Y-44137D01*
X97823Y-44077D01*
X97823Y-43702D01*
X97815Y-43702D01*
X97815Y-43581D01*
X97823Y-43581D01*
X97823Y-43573D01*
X97944Y-43573D01*
X97944Y-43581D01*
X98388Y-43581D01*
X98448Y-43521D01*
X98448Y-43433D01*
X98447Y-43338D01*
X98411Y-43250D01*
X98389Y-43228D01*
X100507Y-43228D01*
X100486Y-43250D01*
X100449Y-43338D01*
X100449Y-43433D01*
X100449Y-43521D01*
X100509Y-43581D01*
X100953Y-43581D01*
X100953Y-43573D01*
X101074Y-43573D01*
X101074Y-43581D01*
X101082Y-43581D01*
X101082Y-43702D01*
X101074Y-43702D01*
X101074Y-44077D01*
X101084Y-44087D01*
X101084Y-44170D01*
X101400Y-44170D01*
X101459Y-44111D01*
X101459Y-44106D01*
X101473Y-44100D01*
X101535Y-44039D01*
X101535Y-45314D01*
X103622Y-45314D01*
X103622Y-50275D01*
M02*
