G04 (created by PCBNEW (2013-dec-23)-stable) date Thu 15 May 2014 10:29:33 AM EDT*
%MOIN*%
G04 Gerber Fmt 3.4, Leading zero omitted, Abs format*
%FSLAX34Y34*%
G01*
G70*
G90*
G04 APERTURE LIST*
%ADD10C,0.00590551*%
%ADD11C,0.0314961*%
%ADD12C,0.011811*%
%ADD13C,0.012*%
%ADD14C,0.006*%
%ADD15C,0.005*%
%ADD16C,0.0026*%
%ADD17C,0.004*%
%ADD18C,0.002*%
%ADD19R,0.055X0.055*%
%ADD20C,0.055*%
%ADD21R,0.06X0.06*%
%ADD22C,0.06*%
%ADD23R,0.0394X0.0354*%
%ADD24C,0.05*%
%ADD25R,0.015748X0.0531496*%
%ADD26R,0.0826772X0.0629921*%
%ADD27R,0.0748031X0.0748031*%
%ADD28R,0.0708661X0.0748031*%
%ADD29R,0.0511811X0.0649606*%
%ADD30R,0.0649606X0.0511811*%
%ADD31R,0.0472X0.0472*%
%ADD32C,0.0354331*%
%ADD33C,0.0511811*%
%ADD34C,0.000393701*%
G04 APERTURE END LIST*
G54D10*
G54D11*
X85294Y-50948D02*
X85144Y-50873D01*
X84919Y-50873D01*
X84694Y-50948D01*
X84544Y-51098D01*
X84469Y-51248D01*
X84394Y-51548D01*
X84394Y-51773D01*
X84469Y-52073D01*
X84544Y-52223D01*
X84694Y-52373D01*
X84919Y-52448D01*
X85069Y-52448D01*
X85294Y-52373D01*
X85369Y-52298D01*
X85369Y-51773D01*
X85069Y-51773D01*
G54D10*
X81439Y-63160D02*
X81143Y-63160D01*
X81143Y-63047D01*
X81157Y-63019D01*
X81172Y-63005D01*
X81200Y-62991D01*
X81242Y-62991D01*
X81270Y-63005D01*
X81284Y-63019D01*
X81298Y-63047D01*
X81298Y-63160D01*
X81284Y-62766D02*
X81298Y-62724D01*
X81312Y-62710D01*
X81340Y-62696D01*
X81382Y-62696D01*
X81411Y-62710D01*
X81425Y-62724D01*
X81439Y-62752D01*
X81439Y-62865D01*
X81143Y-62865D01*
X81143Y-62766D01*
X81157Y-62738D01*
X81172Y-62724D01*
X81200Y-62710D01*
X81228Y-62710D01*
X81256Y-62724D01*
X81270Y-62738D01*
X81284Y-62766D01*
X81284Y-62865D01*
X81143Y-62597D02*
X81143Y-62401D01*
X81439Y-62527D01*
X81439Y-62160D02*
X81143Y-62160D01*
X81143Y-62047D01*
X81157Y-62019D01*
X81172Y-62005D01*
X81200Y-61991D01*
X81242Y-61991D01*
X81270Y-62005D01*
X81284Y-62019D01*
X81298Y-62047D01*
X81298Y-62160D01*
X81284Y-61766D02*
X81298Y-61724D01*
X81312Y-61710D01*
X81340Y-61696D01*
X81382Y-61696D01*
X81411Y-61710D01*
X81425Y-61724D01*
X81439Y-61752D01*
X81439Y-61865D01*
X81143Y-61865D01*
X81143Y-61766D01*
X81157Y-61738D01*
X81172Y-61724D01*
X81200Y-61710D01*
X81228Y-61710D01*
X81256Y-61724D01*
X81270Y-61738D01*
X81284Y-61766D01*
X81284Y-61865D01*
X81143Y-61443D02*
X81143Y-61499D01*
X81157Y-61527D01*
X81172Y-61541D01*
X81214Y-61569D01*
X81270Y-61583D01*
X81382Y-61583D01*
X81411Y-61569D01*
X81425Y-61555D01*
X81439Y-61527D01*
X81439Y-61471D01*
X81425Y-61443D01*
X81411Y-61429D01*
X81382Y-61415D01*
X81312Y-61415D01*
X81284Y-61429D01*
X81270Y-61443D01*
X81256Y-61471D01*
X81256Y-61527D01*
X81270Y-61555D01*
X81284Y-61569D01*
X81312Y-61583D01*
X103770Y-62328D02*
X103514Y-62181D01*
X103570Y-62083D01*
X103596Y-62066D01*
X103616Y-62061D01*
X103647Y-62063D01*
X103683Y-62084D01*
X103701Y-62110D01*
X103706Y-62129D01*
X103704Y-62161D01*
X103648Y-62258D01*
X103977Y-61912D02*
X103982Y-61932D01*
X103973Y-61975D01*
X103959Y-62000D01*
X103926Y-62029D01*
X103888Y-62039D01*
X103856Y-62037D01*
X103801Y-62022D01*
X103764Y-62000D01*
X103722Y-61960D01*
X103705Y-61934D01*
X103695Y-61895D01*
X103704Y-61852D01*
X103718Y-61828D01*
X103751Y-61798D01*
X103770Y-61793D01*
X104142Y-61683D02*
X104058Y-61829D01*
X104100Y-61756D02*
X103844Y-61608D01*
X103867Y-61654D01*
X103877Y-61692D01*
X103875Y-61724D01*
X104098Y-61365D02*
X104269Y-61464D01*
X103966Y-61370D02*
X104113Y-61536D01*
X104205Y-61378D01*
X103770Y-63328D02*
X103514Y-63181D01*
X103570Y-63083D01*
X103596Y-63066D01*
X103616Y-63061D01*
X103647Y-63063D01*
X103683Y-63084D01*
X103701Y-63110D01*
X103706Y-63129D01*
X103704Y-63161D01*
X103648Y-63258D01*
X103977Y-62912D02*
X103982Y-62932D01*
X103973Y-62975D01*
X103959Y-63000D01*
X103926Y-63029D01*
X103888Y-63039D01*
X103856Y-63037D01*
X103801Y-63022D01*
X103764Y-63000D01*
X103722Y-62960D01*
X103705Y-62934D01*
X103695Y-62895D01*
X103704Y-62852D01*
X103718Y-62828D01*
X103751Y-62798D01*
X103770Y-62793D01*
X104142Y-62683D02*
X104058Y-62829D01*
X104100Y-62756D02*
X103844Y-62608D01*
X103867Y-62654D01*
X103877Y-62692D01*
X103875Y-62724D01*
X103936Y-62450D02*
X104027Y-62292D01*
X104075Y-62433D01*
X104096Y-62397D01*
X104123Y-62379D01*
X104142Y-62374D01*
X104173Y-62376D01*
X104234Y-62411D01*
X104251Y-62438D01*
X104257Y-62457D01*
X104255Y-62488D01*
X104213Y-62561D01*
X104186Y-62579D01*
X104167Y-62584D01*
X103770Y-61328D02*
X103514Y-61181D01*
X103570Y-61083D01*
X103596Y-61066D01*
X103616Y-61061D01*
X103647Y-61063D01*
X103683Y-61084D01*
X103701Y-61110D01*
X103706Y-61129D01*
X103704Y-61161D01*
X103648Y-61258D01*
X103977Y-60912D02*
X103982Y-60932D01*
X103973Y-60975D01*
X103959Y-61000D01*
X103926Y-61029D01*
X103888Y-61039D01*
X103856Y-61037D01*
X103801Y-61022D01*
X103764Y-61000D01*
X103722Y-60960D01*
X103705Y-60934D01*
X103695Y-60895D01*
X103704Y-60852D01*
X103718Y-60828D01*
X103751Y-60798D01*
X103770Y-60793D01*
X104142Y-60683D02*
X104058Y-60829D01*
X104100Y-60756D02*
X103844Y-60608D01*
X103867Y-60654D01*
X103877Y-60692D01*
X103875Y-60724D01*
X104020Y-60304D02*
X103950Y-60426D01*
X104065Y-60508D01*
X104059Y-60489D01*
X104061Y-60458D01*
X104096Y-60397D01*
X104123Y-60379D01*
X104142Y-60374D01*
X104173Y-60376D01*
X104234Y-60411D01*
X104251Y-60438D01*
X104257Y-60457D01*
X104255Y-60488D01*
X104220Y-60549D01*
X104193Y-60566D01*
X104174Y-60571D01*
X101618Y-59950D02*
X101618Y-59654D01*
X101730Y-59654D01*
X101758Y-59669D01*
X101772Y-59683D01*
X101786Y-59711D01*
X101786Y-59753D01*
X101772Y-59781D01*
X101758Y-59795D01*
X101730Y-59809D01*
X101618Y-59809D01*
X102082Y-59922D02*
X102068Y-59936D01*
X102025Y-59950D01*
X101997Y-59950D01*
X101955Y-59936D01*
X101927Y-59908D01*
X101913Y-59879D01*
X101899Y-59823D01*
X101899Y-59781D01*
X101913Y-59725D01*
X101927Y-59697D01*
X101955Y-59669D01*
X101997Y-59654D01*
X102025Y-59654D01*
X102068Y-59669D01*
X102082Y-59683D01*
X102265Y-59654D02*
X102293Y-59654D01*
X102321Y-59669D01*
X102335Y-59683D01*
X102349Y-59711D01*
X102363Y-59767D01*
X102363Y-59837D01*
X102349Y-59893D01*
X102335Y-59922D01*
X102321Y-59936D01*
X102293Y-59950D01*
X102265Y-59950D01*
X102236Y-59936D01*
X102222Y-59922D01*
X102208Y-59893D01*
X102194Y-59837D01*
X102194Y-59767D01*
X102208Y-59711D01*
X102222Y-59683D01*
X102236Y-59669D01*
X102265Y-59654D01*
X101618Y-58950D02*
X101618Y-58654D01*
X101730Y-58654D01*
X101758Y-58669D01*
X101772Y-58683D01*
X101786Y-58711D01*
X101786Y-58753D01*
X101772Y-58781D01*
X101758Y-58795D01*
X101730Y-58809D01*
X101618Y-58809D01*
X102082Y-58922D02*
X102068Y-58936D01*
X102025Y-58950D01*
X101997Y-58950D01*
X101955Y-58936D01*
X101927Y-58908D01*
X101913Y-58879D01*
X101899Y-58823D01*
X101899Y-58781D01*
X101913Y-58725D01*
X101927Y-58697D01*
X101955Y-58669D01*
X101997Y-58654D01*
X102025Y-58654D01*
X102068Y-58669D01*
X102082Y-58683D01*
X102194Y-58683D02*
X102208Y-58669D01*
X102236Y-58654D01*
X102307Y-58654D01*
X102335Y-58669D01*
X102349Y-58683D01*
X102363Y-58711D01*
X102363Y-58739D01*
X102349Y-58781D01*
X102180Y-58950D01*
X102363Y-58950D01*
X101618Y-57950D02*
X101618Y-57654D01*
X101730Y-57654D01*
X101758Y-57669D01*
X101772Y-57683D01*
X101786Y-57711D01*
X101786Y-57753D01*
X101772Y-57781D01*
X101758Y-57795D01*
X101730Y-57809D01*
X101618Y-57809D01*
X102082Y-57922D02*
X102068Y-57936D01*
X102025Y-57950D01*
X101997Y-57950D01*
X101955Y-57936D01*
X101927Y-57908D01*
X101913Y-57879D01*
X101899Y-57823D01*
X101899Y-57781D01*
X101913Y-57725D01*
X101927Y-57697D01*
X101955Y-57669D01*
X101997Y-57654D01*
X102025Y-57654D01*
X102068Y-57669D01*
X102082Y-57683D01*
X102180Y-57654D02*
X102363Y-57654D01*
X102265Y-57767D01*
X102307Y-57767D01*
X102335Y-57781D01*
X102349Y-57795D01*
X102363Y-57823D01*
X102363Y-57893D01*
X102349Y-57922D01*
X102335Y-57936D01*
X102307Y-57950D01*
X102222Y-57950D01*
X102194Y-57936D01*
X102180Y-57922D01*
X101660Y-56950D02*
X101660Y-56654D01*
X101772Y-56654D01*
X101801Y-56669D01*
X101815Y-56683D01*
X101829Y-56711D01*
X101829Y-56753D01*
X101815Y-56781D01*
X101801Y-56795D01*
X101772Y-56809D01*
X101660Y-56809D01*
X101941Y-56865D02*
X102082Y-56865D01*
X101913Y-56950D02*
X102011Y-56654D01*
X102110Y-56950D01*
X102265Y-56654D02*
X102293Y-56654D01*
X102321Y-56669D01*
X102335Y-56683D01*
X102349Y-56711D01*
X102363Y-56767D01*
X102363Y-56837D01*
X102349Y-56893D01*
X102335Y-56922D01*
X102321Y-56936D01*
X102293Y-56950D01*
X102265Y-56950D01*
X102236Y-56936D01*
X102222Y-56922D01*
X102208Y-56893D01*
X102194Y-56837D01*
X102194Y-56767D01*
X102208Y-56711D01*
X102222Y-56683D01*
X102236Y-56669D01*
X102265Y-56654D01*
X101660Y-55950D02*
X101660Y-55654D01*
X101772Y-55654D01*
X101801Y-55669D01*
X101815Y-55683D01*
X101829Y-55711D01*
X101829Y-55753D01*
X101815Y-55781D01*
X101801Y-55795D01*
X101772Y-55809D01*
X101660Y-55809D01*
X101941Y-55865D02*
X102082Y-55865D01*
X101913Y-55950D02*
X102011Y-55654D01*
X102110Y-55950D01*
X102180Y-55654D02*
X102363Y-55654D01*
X102265Y-55767D01*
X102307Y-55767D01*
X102335Y-55781D01*
X102349Y-55795D01*
X102363Y-55823D01*
X102363Y-55893D01*
X102349Y-55922D01*
X102335Y-55936D01*
X102307Y-55950D01*
X102222Y-55950D01*
X102194Y-55936D01*
X102180Y-55922D01*
X101660Y-54950D02*
X101660Y-54654D01*
X101772Y-54654D01*
X101801Y-54669D01*
X101815Y-54683D01*
X101829Y-54711D01*
X101829Y-54753D01*
X101815Y-54781D01*
X101801Y-54795D01*
X101772Y-54809D01*
X101660Y-54809D01*
X101941Y-54865D02*
X102082Y-54865D01*
X101913Y-54950D02*
X102011Y-54654D01*
X102110Y-54950D01*
X102335Y-54753D02*
X102335Y-54950D01*
X102265Y-54640D02*
X102194Y-54851D01*
X102377Y-54851D01*
X101660Y-53950D02*
X101660Y-53654D01*
X101772Y-53654D01*
X101801Y-53669D01*
X101815Y-53683D01*
X101829Y-53711D01*
X101829Y-53753D01*
X101815Y-53781D01*
X101801Y-53795D01*
X101772Y-53809D01*
X101660Y-53809D01*
X101941Y-53865D02*
X102082Y-53865D01*
X101913Y-53950D02*
X102011Y-53654D01*
X102110Y-53950D01*
X102349Y-53654D02*
X102208Y-53654D01*
X102194Y-53795D01*
X102208Y-53781D01*
X102236Y-53767D01*
X102307Y-53767D01*
X102335Y-53781D01*
X102349Y-53795D01*
X102363Y-53823D01*
X102363Y-53893D01*
X102349Y-53922D01*
X102335Y-53936D01*
X102307Y-53950D01*
X102236Y-53950D01*
X102208Y-53936D01*
X102194Y-53922D01*
X101660Y-52950D02*
X101660Y-52654D01*
X101772Y-52654D01*
X101801Y-52669D01*
X101815Y-52683D01*
X101829Y-52711D01*
X101829Y-52753D01*
X101815Y-52781D01*
X101801Y-52795D01*
X101772Y-52809D01*
X101660Y-52809D01*
X101941Y-52865D02*
X102082Y-52865D01*
X101913Y-52950D02*
X102011Y-52654D01*
X102110Y-52950D01*
X102335Y-52654D02*
X102279Y-52654D01*
X102250Y-52669D01*
X102236Y-52683D01*
X102208Y-52725D01*
X102194Y-52781D01*
X102194Y-52893D01*
X102208Y-52922D01*
X102222Y-52936D01*
X102250Y-52950D01*
X102307Y-52950D01*
X102335Y-52936D01*
X102349Y-52922D01*
X102363Y-52893D01*
X102363Y-52823D01*
X102349Y-52795D01*
X102335Y-52781D01*
X102307Y-52767D01*
X102250Y-52767D01*
X102222Y-52781D01*
X102208Y-52795D01*
X102194Y-52823D01*
X101618Y-51950D02*
X101618Y-51654D01*
X101730Y-51654D01*
X101758Y-51669D01*
X101772Y-51683D01*
X101786Y-51711D01*
X101786Y-51753D01*
X101772Y-51781D01*
X101758Y-51795D01*
X101730Y-51809D01*
X101618Y-51809D01*
X102011Y-51795D02*
X102054Y-51809D01*
X102068Y-51823D01*
X102082Y-51851D01*
X102082Y-51893D01*
X102068Y-51922D01*
X102054Y-51936D01*
X102025Y-51950D01*
X101913Y-51950D01*
X101913Y-51654D01*
X102011Y-51654D01*
X102040Y-51669D01*
X102054Y-51683D01*
X102068Y-51711D01*
X102068Y-51739D01*
X102054Y-51767D01*
X102040Y-51781D01*
X102011Y-51795D01*
X101913Y-51795D01*
X102265Y-51654D02*
X102293Y-51654D01*
X102321Y-51669D01*
X102335Y-51683D01*
X102349Y-51711D01*
X102363Y-51767D01*
X102363Y-51837D01*
X102349Y-51893D01*
X102335Y-51922D01*
X102321Y-51936D01*
X102293Y-51950D01*
X102265Y-51950D01*
X102236Y-51936D01*
X102222Y-51922D01*
X102208Y-51893D01*
X102194Y-51837D01*
X102194Y-51767D01*
X102208Y-51711D01*
X102222Y-51683D01*
X102236Y-51669D01*
X102265Y-51654D01*
X101618Y-50950D02*
X101618Y-50654D01*
X101730Y-50654D01*
X101758Y-50669D01*
X101772Y-50683D01*
X101786Y-50711D01*
X101786Y-50753D01*
X101772Y-50781D01*
X101758Y-50795D01*
X101730Y-50809D01*
X101618Y-50809D01*
X102011Y-50795D02*
X102054Y-50809D01*
X102068Y-50823D01*
X102082Y-50851D01*
X102082Y-50893D01*
X102068Y-50922D01*
X102054Y-50936D01*
X102025Y-50950D01*
X101913Y-50950D01*
X101913Y-50654D01*
X102011Y-50654D01*
X102040Y-50669D01*
X102054Y-50683D01*
X102068Y-50711D01*
X102068Y-50739D01*
X102054Y-50767D01*
X102040Y-50781D01*
X102011Y-50795D01*
X101913Y-50795D01*
X102363Y-50950D02*
X102194Y-50950D01*
X102279Y-50950D02*
X102279Y-50654D01*
X102250Y-50697D01*
X102222Y-50725D01*
X102194Y-50739D01*
X101618Y-46050D02*
X101618Y-45754D01*
X101730Y-45754D01*
X101758Y-45769D01*
X101772Y-45783D01*
X101786Y-45811D01*
X101786Y-45853D01*
X101772Y-45881D01*
X101758Y-45895D01*
X101730Y-45909D01*
X101618Y-45909D01*
X102082Y-46022D02*
X102068Y-46036D01*
X102025Y-46050D01*
X101997Y-46050D01*
X101955Y-46036D01*
X101927Y-46008D01*
X101913Y-45979D01*
X101899Y-45923D01*
X101899Y-45881D01*
X101913Y-45825D01*
X101927Y-45797D01*
X101955Y-45769D01*
X101997Y-45754D01*
X102025Y-45754D01*
X102068Y-45769D01*
X102082Y-45783D01*
X102335Y-45754D02*
X102279Y-45754D01*
X102250Y-45769D01*
X102236Y-45783D01*
X102208Y-45825D01*
X102194Y-45881D01*
X102194Y-45993D01*
X102208Y-46022D01*
X102222Y-46036D01*
X102250Y-46050D01*
X102307Y-46050D01*
X102335Y-46036D01*
X102349Y-46022D01*
X102363Y-45993D01*
X102363Y-45923D01*
X102349Y-45895D01*
X102335Y-45881D01*
X102307Y-45867D01*
X102250Y-45867D01*
X102222Y-45881D01*
X102208Y-45895D01*
X102194Y-45923D01*
X101337Y-48950D02*
X101337Y-48654D01*
X101449Y-48654D01*
X101477Y-48669D01*
X101491Y-48683D01*
X101505Y-48711D01*
X101505Y-48753D01*
X101491Y-48781D01*
X101477Y-48795D01*
X101449Y-48809D01*
X101337Y-48809D01*
X101730Y-48795D02*
X101772Y-48809D01*
X101786Y-48823D01*
X101801Y-48851D01*
X101801Y-48893D01*
X101786Y-48922D01*
X101772Y-48936D01*
X101744Y-48950D01*
X101632Y-48950D01*
X101632Y-48654D01*
X101730Y-48654D01*
X101758Y-48669D01*
X101772Y-48683D01*
X101786Y-48711D01*
X101786Y-48739D01*
X101772Y-48767D01*
X101758Y-48781D01*
X101730Y-48795D01*
X101632Y-48795D01*
X102082Y-48950D02*
X101913Y-48950D01*
X101997Y-48950D02*
X101997Y-48654D01*
X101969Y-48697D01*
X101941Y-48725D01*
X101913Y-48739D01*
X102265Y-48654D02*
X102293Y-48654D01*
X102321Y-48669D01*
X102335Y-48683D01*
X102349Y-48711D01*
X102363Y-48767D01*
X102363Y-48837D01*
X102349Y-48893D01*
X102335Y-48922D01*
X102321Y-48936D01*
X102293Y-48950D01*
X102265Y-48950D01*
X102236Y-48936D01*
X102222Y-48922D01*
X102208Y-48893D01*
X102194Y-48837D01*
X102194Y-48767D01*
X102208Y-48711D01*
X102222Y-48683D01*
X102236Y-48669D01*
X102265Y-48654D01*
X101337Y-47950D02*
X101337Y-47654D01*
X101449Y-47654D01*
X101477Y-47669D01*
X101491Y-47683D01*
X101505Y-47711D01*
X101505Y-47753D01*
X101491Y-47781D01*
X101477Y-47795D01*
X101449Y-47809D01*
X101337Y-47809D01*
X101730Y-47795D02*
X101772Y-47809D01*
X101786Y-47823D01*
X101801Y-47851D01*
X101801Y-47893D01*
X101786Y-47922D01*
X101772Y-47936D01*
X101744Y-47950D01*
X101632Y-47950D01*
X101632Y-47654D01*
X101730Y-47654D01*
X101758Y-47669D01*
X101772Y-47683D01*
X101786Y-47711D01*
X101786Y-47739D01*
X101772Y-47767D01*
X101758Y-47781D01*
X101730Y-47795D01*
X101632Y-47795D01*
X102082Y-47950D02*
X101913Y-47950D01*
X101997Y-47950D02*
X101997Y-47654D01*
X101969Y-47697D01*
X101941Y-47725D01*
X101913Y-47739D01*
X102335Y-47753D02*
X102335Y-47950D01*
X102265Y-47640D02*
X102194Y-47851D01*
X102377Y-47851D01*
X101337Y-46950D02*
X101337Y-46654D01*
X101449Y-46654D01*
X101477Y-46669D01*
X101491Y-46683D01*
X101505Y-46711D01*
X101505Y-46753D01*
X101491Y-46781D01*
X101477Y-46795D01*
X101449Y-46809D01*
X101337Y-46809D01*
X101730Y-46795D02*
X101772Y-46809D01*
X101786Y-46823D01*
X101801Y-46851D01*
X101801Y-46893D01*
X101786Y-46922D01*
X101772Y-46936D01*
X101744Y-46950D01*
X101632Y-46950D01*
X101632Y-46654D01*
X101730Y-46654D01*
X101758Y-46669D01*
X101772Y-46683D01*
X101786Y-46711D01*
X101786Y-46739D01*
X101772Y-46767D01*
X101758Y-46781D01*
X101730Y-46795D01*
X101632Y-46795D01*
X102082Y-46950D02*
X101913Y-46950D01*
X101997Y-46950D02*
X101997Y-46654D01*
X101969Y-46697D01*
X101941Y-46725D01*
X101913Y-46739D01*
X102349Y-46654D02*
X102208Y-46654D01*
X102194Y-46795D01*
X102208Y-46781D01*
X102236Y-46767D01*
X102307Y-46767D01*
X102335Y-46781D01*
X102349Y-46795D01*
X102363Y-46823D01*
X102363Y-46893D01*
X102349Y-46922D01*
X102335Y-46936D01*
X102307Y-46950D01*
X102236Y-46950D01*
X102208Y-46936D01*
X102194Y-46922D01*
X101618Y-49950D02*
X101618Y-49654D01*
X101730Y-49654D01*
X101758Y-49669D01*
X101772Y-49683D01*
X101786Y-49711D01*
X101786Y-49753D01*
X101772Y-49781D01*
X101758Y-49795D01*
X101730Y-49809D01*
X101618Y-49809D01*
X102011Y-49795D02*
X102054Y-49809D01*
X102068Y-49823D01*
X102082Y-49851D01*
X102082Y-49893D01*
X102068Y-49922D01*
X102054Y-49936D01*
X102025Y-49950D01*
X101913Y-49950D01*
X101913Y-49654D01*
X102011Y-49654D01*
X102040Y-49669D01*
X102054Y-49683D01*
X102068Y-49711D01*
X102068Y-49739D01*
X102054Y-49767D01*
X102040Y-49781D01*
X102011Y-49795D01*
X101913Y-49795D01*
X102194Y-49683D02*
X102208Y-49669D01*
X102236Y-49654D01*
X102307Y-49654D01*
X102335Y-49669D01*
X102349Y-49683D01*
X102363Y-49711D01*
X102363Y-49739D01*
X102349Y-49781D01*
X102180Y-49950D01*
X102363Y-49950D01*
X82689Y-60950D02*
X82689Y-60654D01*
X82802Y-60654D01*
X82830Y-60669D01*
X82844Y-60683D01*
X82858Y-60711D01*
X82858Y-60753D01*
X82844Y-60781D01*
X82830Y-60795D01*
X82802Y-60809D01*
X82689Y-60809D01*
X83083Y-60795D02*
X83125Y-60809D01*
X83139Y-60823D01*
X83153Y-60851D01*
X83153Y-60893D01*
X83139Y-60922D01*
X83125Y-60936D01*
X83097Y-60950D01*
X82985Y-60950D01*
X82985Y-60654D01*
X83083Y-60654D01*
X83111Y-60669D01*
X83125Y-60683D01*
X83139Y-60711D01*
X83139Y-60739D01*
X83125Y-60767D01*
X83111Y-60781D01*
X83083Y-60795D01*
X82985Y-60795D01*
X83421Y-60654D02*
X83280Y-60654D01*
X83266Y-60795D01*
X83280Y-60781D01*
X83308Y-60767D01*
X83378Y-60767D01*
X83407Y-60781D01*
X83421Y-60795D01*
X83435Y-60823D01*
X83435Y-60893D01*
X83421Y-60922D01*
X83407Y-60936D01*
X83378Y-60950D01*
X83308Y-60950D01*
X83280Y-60936D01*
X83266Y-60922D01*
X82689Y-59950D02*
X82689Y-59654D01*
X82802Y-59654D01*
X82830Y-59669D01*
X82844Y-59683D01*
X82858Y-59711D01*
X82858Y-59753D01*
X82844Y-59781D01*
X82830Y-59795D01*
X82802Y-59809D01*
X82689Y-59809D01*
X83083Y-59795D02*
X83125Y-59809D01*
X83139Y-59823D01*
X83153Y-59851D01*
X83153Y-59893D01*
X83139Y-59922D01*
X83125Y-59936D01*
X83097Y-59950D01*
X82985Y-59950D01*
X82985Y-59654D01*
X83083Y-59654D01*
X83111Y-59669D01*
X83125Y-59683D01*
X83139Y-59711D01*
X83139Y-59739D01*
X83125Y-59767D01*
X83111Y-59781D01*
X83083Y-59795D01*
X82985Y-59795D01*
X83407Y-59753D02*
X83407Y-59950D01*
X83336Y-59640D02*
X83266Y-59851D01*
X83449Y-59851D01*
X82689Y-58950D02*
X82689Y-58654D01*
X82802Y-58654D01*
X82830Y-58669D01*
X82844Y-58683D01*
X82858Y-58711D01*
X82858Y-58753D01*
X82844Y-58781D01*
X82830Y-58795D01*
X82802Y-58809D01*
X82689Y-58809D01*
X83083Y-58795D02*
X83125Y-58809D01*
X83139Y-58823D01*
X83153Y-58851D01*
X83153Y-58893D01*
X83139Y-58922D01*
X83125Y-58936D01*
X83097Y-58950D01*
X82985Y-58950D01*
X82985Y-58654D01*
X83083Y-58654D01*
X83111Y-58669D01*
X83125Y-58683D01*
X83139Y-58711D01*
X83139Y-58739D01*
X83125Y-58767D01*
X83111Y-58781D01*
X83083Y-58795D01*
X82985Y-58795D01*
X83252Y-58654D02*
X83435Y-58654D01*
X83336Y-58767D01*
X83378Y-58767D01*
X83407Y-58781D01*
X83421Y-58795D01*
X83435Y-58823D01*
X83435Y-58893D01*
X83421Y-58922D01*
X83407Y-58936D01*
X83378Y-58950D01*
X83294Y-58950D01*
X83266Y-58936D01*
X83252Y-58922D01*
X82689Y-57950D02*
X82689Y-57654D01*
X82802Y-57654D01*
X82830Y-57669D01*
X82844Y-57683D01*
X82858Y-57711D01*
X82858Y-57753D01*
X82844Y-57781D01*
X82830Y-57795D01*
X82802Y-57809D01*
X82689Y-57809D01*
X82985Y-57950D02*
X82985Y-57654D01*
X83055Y-57654D01*
X83097Y-57669D01*
X83125Y-57697D01*
X83139Y-57725D01*
X83153Y-57781D01*
X83153Y-57823D01*
X83139Y-57879D01*
X83125Y-57908D01*
X83097Y-57936D01*
X83055Y-57950D01*
X82985Y-57950D01*
X83266Y-57683D02*
X83280Y-57669D01*
X83308Y-57654D01*
X83378Y-57654D01*
X83407Y-57669D01*
X83421Y-57683D01*
X83435Y-57711D01*
X83435Y-57739D01*
X83421Y-57781D01*
X83252Y-57950D01*
X83435Y-57950D01*
X82689Y-56950D02*
X82689Y-56654D01*
X82802Y-56654D01*
X82830Y-56669D01*
X82844Y-56683D01*
X82858Y-56711D01*
X82858Y-56753D01*
X82844Y-56781D01*
X82830Y-56795D01*
X82802Y-56809D01*
X82689Y-56809D01*
X83153Y-56922D02*
X83139Y-56936D01*
X83097Y-56950D01*
X83069Y-56950D01*
X83027Y-56936D01*
X82999Y-56908D01*
X82985Y-56879D01*
X82971Y-56823D01*
X82971Y-56781D01*
X82985Y-56725D01*
X82999Y-56697D01*
X83027Y-56669D01*
X83069Y-56654D01*
X83097Y-56654D01*
X83139Y-56669D01*
X83153Y-56683D01*
X83435Y-56950D02*
X83266Y-56950D01*
X83350Y-56950D02*
X83350Y-56654D01*
X83322Y-56697D01*
X83294Y-56725D01*
X83266Y-56739D01*
X83547Y-56683D02*
X83561Y-56669D01*
X83589Y-56654D01*
X83660Y-56654D01*
X83688Y-56669D01*
X83702Y-56683D01*
X83716Y-56711D01*
X83716Y-56739D01*
X83702Y-56781D01*
X83533Y-56950D01*
X83716Y-56950D01*
X82689Y-55950D02*
X82689Y-55654D01*
X82802Y-55654D01*
X82830Y-55669D01*
X82844Y-55683D01*
X82858Y-55711D01*
X82858Y-55753D01*
X82844Y-55781D01*
X82830Y-55795D01*
X82802Y-55809D01*
X82689Y-55809D01*
X83153Y-55922D02*
X83139Y-55936D01*
X83097Y-55950D01*
X83069Y-55950D01*
X83027Y-55936D01*
X82999Y-55908D01*
X82985Y-55879D01*
X82971Y-55823D01*
X82971Y-55781D01*
X82985Y-55725D01*
X82999Y-55697D01*
X83027Y-55669D01*
X83069Y-55654D01*
X83097Y-55654D01*
X83139Y-55669D01*
X83153Y-55683D01*
X83435Y-55950D02*
X83266Y-55950D01*
X83350Y-55950D02*
X83350Y-55654D01*
X83322Y-55697D01*
X83294Y-55725D01*
X83266Y-55739D01*
X83716Y-55950D02*
X83547Y-55950D01*
X83632Y-55950D02*
X83632Y-55654D01*
X83603Y-55697D01*
X83575Y-55725D01*
X83547Y-55739D01*
X82689Y-54950D02*
X82689Y-54654D01*
X82802Y-54654D01*
X82830Y-54669D01*
X82844Y-54683D01*
X82858Y-54711D01*
X82858Y-54753D01*
X82844Y-54781D01*
X82830Y-54795D01*
X82802Y-54809D01*
X82689Y-54809D01*
X83153Y-54922D02*
X83139Y-54936D01*
X83097Y-54950D01*
X83069Y-54950D01*
X83027Y-54936D01*
X82999Y-54908D01*
X82985Y-54879D01*
X82971Y-54823D01*
X82971Y-54781D01*
X82985Y-54725D01*
X82999Y-54697D01*
X83027Y-54669D01*
X83069Y-54654D01*
X83097Y-54654D01*
X83139Y-54669D01*
X83153Y-54683D01*
X83435Y-54950D02*
X83266Y-54950D01*
X83350Y-54950D02*
X83350Y-54654D01*
X83322Y-54697D01*
X83294Y-54725D01*
X83266Y-54739D01*
X83617Y-54654D02*
X83646Y-54654D01*
X83674Y-54669D01*
X83688Y-54683D01*
X83702Y-54711D01*
X83716Y-54767D01*
X83716Y-54837D01*
X83702Y-54893D01*
X83688Y-54922D01*
X83674Y-54936D01*
X83646Y-54950D01*
X83617Y-54950D01*
X83589Y-54936D01*
X83575Y-54922D01*
X83561Y-54893D01*
X83547Y-54837D01*
X83547Y-54767D01*
X83561Y-54711D01*
X83575Y-54683D01*
X83589Y-54669D01*
X83617Y-54654D01*
X82689Y-53950D02*
X82689Y-53654D01*
X82802Y-53654D01*
X82830Y-53669D01*
X82844Y-53683D01*
X82858Y-53711D01*
X82858Y-53753D01*
X82844Y-53781D01*
X82830Y-53795D01*
X82802Y-53809D01*
X82689Y-53809D01*
X82971Y-53865D02*
X83111Y-53865D01*
X82943Y-53950D02*
X83041Y-53654D01*
X83139Y-53950D01*
X83393Y-53950D02*
X83224Y-53950D01*
X83308Y-53950D02*
X83308Y-53654D01*
X83280Y-53697D01*
X83252Y-53725D01*
X83224Y-53739D01*
X83660Y-53654D02*
X83519Y-53654D01*
X83505Y-53795D01*
X83519Y-53781D01*
X83547Y-53767D01*
X83617Y-53767D01*
X83646Y-53781D01*
X83660Y-53795D01*
X83674Y-53823D01*
X83674Y-53893D01*
X83660Y-53922D01*
X83646Y-53936D01*
X83617Y-53950D01*
X83547Y-53950D01*
X83519Y-53936D01*
X83505Y-53922D01*
X82689Y-52950D02*
X82689Y-52654D01*
X82802Y-52654D01*
X82830Y-52669D01*
X82844Y-52683D01*
X82858Y-52711D01*
X82858Y-52753D01*
X82844Y-52781D01*
X82830Y-52795D01*
X82802Y-52809D01*
X82689Y-52809D01*
X82971Y-52865D02*
X83111Y-52865D01*
X82943Y-52950D02*
X83041Y-52654D01*
X83139Y-52950D01*
X83393Y-52950D02*
X83224Y-52950D01*
X83308Y-52950D02*
X83308Y-52654D01*
X83280Y-52697D01*
X83252Y-52725D01*
X83224Y-52739D01*
X83646Y-52753D02*
X83646Y-52950D01*
X83575Y-52640D02*
X83505Y-52851D01*
X83688Y-52851D01*
X82689Y-51950D02*
X82689Y-51654D01*
X82802Y-51654D01*
X82830Y-51669D01*
X82844Y-51683D01*
X82858Y-51711D01*
X82858Y-51753D01*
X82844Y-51781D01*
X82830Y-51795D01*
X82802Y-51809D01*
X82689Y-51809D01*
X82971Y-51865D02*
X83111Y-51865D01*
X82943Y-51950D02*
X83041Y-51654D01*
X83139Y-51950D01*
X83393Y-51950D02*
X83224Y-51950D01*
X83308Y-51950D02*
X83308Y-51654D01*
X83280Y-51697D01*
X83252Y-51725D01*
X83224Y-51739D01*
X83491Y-51654D02*
X83674Y-51654D01*
X83575Y-51767D01*
X83617Y-51767D01*
X83646Y-51781D01*
X83660Y-51795D01*
X83674Y-51823D01*
X83674Y-51893D01*
X83660Y-51922D01*
X83646Y-51936D01*
X83617Y-51950D01*
X83533Y-51950D01*
X83505Y-51936D01*
X83491Y-51922D01*
X82689Y-50950D02*
X82689Y-50654D01*
X82802Y-50654D01*
X82830Y-50669D01*
X82844Y-50683D01*
X82858Y-50711D01*
X82858Y-50753D01*
X82844Y-50781D01*
X82830Y-50795D01*
X82802Y-50809D01*
X82689Y-50809D01*
X82971Y-50865D02*
X83111Y-50865D01*
X82943Y-50950D02*
X83041Y-50654D01*
X83139Y-50950D01*
X83393Y-50950D02*
X83224Y-50950D01*
X83308Y-50950D02*
X83308Y-50654D01*
X83280Y-50697D01*
X83252Y-50725D01*
X83224Y-50739D01*
X83505Y-50683D02*
X83519Y-50669D01*
X83547Y-50654D01*
X83617Y-50654D01*
X83646Y-50669D01*
X83660Y-50683D01*
X83674Y-50711D01*
X83674Y-50739D01*
X83660Y-50781D01*
X83491Y-50950D01*
X83674Y-50950D01*
X82689Y-49950D02*
X82689Y-49654D01*
X82802Y-49654D01*
X82830Y-49669D01*
X82844Y-49683D01*
X82858Y-49711D01*
X82858Y-49753D01*
X82844Y-49781D01*
X82830Y-49795D01*
X82802Y-49809D01*
X82689Y-49809D01*
X82971Y-49865D02*
X83111Y-49865D01*
X82943Y-49950D02*
X83041Y-49654D01*
X83139Y-49950D01*
X83393Y-49950D02*
X83224Y-49950D01*
X83308Y-49950D02*
X83308Y-49654D01*
X83280Y-49697D01*
X83252Y-49725D01*
X83224Y-49739D01*
X83674Y-49950D02*
X83505Y-49950D01*
X83589Y-49950D02*
X83589Y-49654D01*
X83561Y-49697D01*
X83533Y-49725D01*
X83505Y-49739D01*
X82689Y-48950D02*
X82689Y-48654D01*
X82802Y-48654D01*
X82830Y-48669D01*
X82844Y-48683D01*
X82858Y-48711D01*
X82858Y-48753D01*
X82844Y-48781D01*
X82830Y-48795D01*
X82802Y-48809D01*
X82689Y-48809D01*
X82971Y-48865D02*
X83111Y-48865D01*
X82943Y-48950D02*
X83041Y-48654D01*
X83139Y-48950D01*
X83393Y-48950D02*
X83224Y-48950D01*
X83308Y-48950D02*
X83308Y-48654D01*
X83280Y-48697D01*
X83252Y-48725D01*
X83224Y-48739D01*
X83575Y-48654D02*
X83603Y-48654D01*
X83632Y-48669D01*
X83646Y-48683D01*
X83660Y-48711D01*
X83674Y-48767D01*
X83674Y-48837D01*
X83660Y-48893D01*
X83646Y-48922D01*
X83632Y-48936D01*
X83603Y-48950D01*
X83575Y-48950D01*
X83547Y-48936D01*
X83533Y-48922D01*
X83519Y-48893D01*
X83505Y-48837D01*
X83505Y-48767D01*
X83519Y-48711D01*
X83533Y-48683D01*
X83547Y-48669D01*
X83575Y-48654D01*
X82689Y-47950D02*
X82689Y-47654D01*
X82802Y-47654D01*
X82830Y-47669D01*
X82844Y-47683D01*
X82858Y-47711D01*
X82858Y-47753D01*
X82844Y-47781D01*
X82830Y-47795D01*
X82802Y-47809D01*
X82689Y-47809D01*
X82971Y-47865D02*
X83111Y-47865D01*
X82943Y-47950D02*
X83041Y-47654D01*
X83139Y-47950D01*
X83252Y-47950D02*
X83308Y-47950D01*
X83336Y-47936D01*
X83350Y-47922D01*
X83378Y-47879D01*
X83393Y-47823D01*
X83393Y-47711D01*
X83378Y-47683D01*
X83364Y-47669D01*
X83336Y-47654D01*
X83280Y-47654D01*
X83252Y-47669D01*
X83238Y-47683D01*
X83224Y-47711D01*
X83224Y-47781D01*
X83238Y-47809D01*
X83252Y-47823D01*
X83280Y-47837D01*
X83336Y-47837D01*
X83364Y-47823D01*
X83378Y-47809D01*
X83393Y-47781D01*
X82689Y-46950D02*
X82689Y-46654D01*
X82802Y-46654D01*
X82830Y-46669D01*
X82844Y-46683D01*
X82858Y-46711D01*
X82858Y-46753D01*
X82844Y-46781D01*
X82830Y-46795D01*
X82802Y-46809D01*
X82689Y-46809D01*
X83153Y-46922D02*
X83139Y-46936D01*
X83097Y-46950D01*
X83069Y-46950D01*
X83027Y-46936D01*
X82999Y-46908D01*
X82985Y-46879D01*
X82971Y-46823D01*
X82971Y-46781D01*
X82985Y-46725D01*
X82999Y-46697D01*
X83027Y-46669D01*
X83069Y-46654D01*
X83097Y-46654D01*
X83139Y-46669D01*
X83153Y-46683D01*
X83322Y-46781D02*
X83294Y-46767D01*
X83280Y-46753D01*
X83266Y-46725D01*
X83266Y-46711D01*
X83280Y-46683D01*
X83294Y-46669D01*
X83322Y-46654D01*
X83378Y-46654D01*
X83407Y-46669D01*
X83421Y-46683D01*
X83435Y-46711D01*
X83435Y-46725D01*
X83421Y-46753D01*
X83407Y-46767D01*
X83378Y-46781D01*
X83322Y-46781D01*
X83294Y-46795D01*
X83280Y-46809D01*
X83266Y-46837D01*
X83266Y-46893D01*
X83280Y-46922D01*
X83294Y-46936D01*
X83322Y-46950D01*
X83378Y-46950D01*
X83407Y-46936D01*
X83421Y-46922D01*
X83435Y-46893D01*
X83435Y-46837D01*
X83421Y-46809D01*
X83407Y-46795D01*
X83378Y-46781D01*
X82689Y-45950D02*
X82689Y-45654D01*
X82802Y-45654D01*
X82830Y-45669D01*
X82844Y-45683D01*
X82858Y-45711D01*
X82858Y-45753D01*
X82844Y-45781D01*
X82830Y-45795D01*
X82802Y-45809D01*
X82689Y-45809D01*
X83153Y-45922D02*
X83139Y-45936D01*
X83097Y-45950D01*
X83069Y-45950D01*
X83027Y-45936D01*
X82999Y-45908D01*
X82985Y-45879D01*
X82971Y-45823D01*
X82971Y-45781D01*
X82985Y-45725D01*
X82999Y-45697D01*
X83027Y-45669D01*
X83069Y-45654D01*
X83097Y-45654D01*
X83139Y-45669D01*
X83153Y-45683D01*
X83252Y-45654D02*
X83449Y-45654D01*
X83322Y-45950D01*
G54D12*
X88920Y-46006D02*
X89313Y-46006D01*
X88695Y-46147D02*
X89116Y-46287D01*
X89116Y-45922D01*
X88976Y-45613D02*
X88948Y-45669D01*
X88920Y-45697D01*
X88863Y-45725D01*
X88835Y-45725D01*
X88779Y-45697D01*
X88751Y-45669D01*
X88723Y-45613D01*
X88723Y-45500D01*
X88751Y-45444D01*
X88779Y-45416D01*
X88835Y-45388D01*
X88863Y-45388D01*
X88920Y-45416D01*
X88948Y-45444D01*
X88976Y-45500D01*
X88976Y-45613D01*
X89004Y-45669D01*
X89032Y-45697D01*
X89088Y-45725D01*
X89201Y-45725D01*
X89257Y-45697D01*
X89285Y-45669D01*
X89313Y-45613D01*
X89313Y-45500D01*
X89285Y-45444D01*
X89257Y-45416D01*
X89201Y-45388D01*
X89088Y-45388D01*
X89032Y-45416D01*
X89004Y-45444D01*
X88976Y-45500D01*
X89088Y-45134D02*
X89088Y-44685D01*
X89313Y-44910D02*
X88863Y-44910D01*
X87935Y-46006D02*
X88329Y-46006D01*
X87710Y-46147D02*
X88132Y-46287D01*
X88132Y-45922D01*
X87992Y-45613D02*
X87964Y-45669D01*
X87935Y-45697D01*
X87879Y-45725D01*
X87851Y-45725D01*
X87795Y-45697D01*
X87767Y-45669D01*
X87739Y-45613D01*
X87739Y-45500D01*
X87767Y-45444D01*
X87795Y-45416D01*
X87851Y-45388D01*
X87879Y-45388D01*
X87935Y-45416D01*
X87964Y-45444D01*
X87992Y-45500D01*
X87992Y-45613D01*
X88020Y-45669D01*
X88048Y-45697D01*
X88104Y-45725D01*
X88217Y-45725D01*
X88273Y-45697D01*
X88301Y-45669D01*
X88329Y-45613D01*
X88329Y-45500D01*
X88301Y-45444D01*
X88273Y-45416D01*
X88217Y-45388D01*
X88104Y-45388D01*
X88048Y-45416D01*
X88020Y-45444D01*
X87992Y-45500D01*
X88104Y-45134D02*
X88104Y-44685D01*
X85798Y-46020D02*
X85770Y-46077D01*
X85770Y-46161D01*
X85798Y-46245D01*
X85854Y-46302D01*
X85911Y-46330D01*
X86023Y-46358D01*
X86107Y-46358D01*
X86220Y-46330D01*
X86276Y-46302D01*
X86332Y-46245D01*
X86361Y-46161D01*
X86361Y-46105D01*
X86332Y-46020D01*
X86304Y-45992D01*
X86107Y-45992D01*
X86107Y-46105D01*
X86361Y-45739D02*
X85770Y-45739D01*
X86361Y-45402D01*
X85770Y-45402D01*
X86361Y-45120D02*
X85770Y-45120D01*
X85770Y-44980D01*
X85798Y-44895D01*
X85854Y-44839D01*
X85911Y-44811D01*
X86023Y-44783D01*
X86107Y-44783D01*
X86220Y-44811D01*
X86276Y-44839D01*
X86332Y-44895D01*
X86361Y-44980D01*
X86361Y-45120D01*
X84786Y-46344D02*
X84786Y-45978D01*
X85011Y-46175D01*
X85011Y-46091D01*
X85039Y-46034D01*
X85067Y-46006D01*
X85123Y-45978D01*
X85264Y-45978D01*
X85320Y-46006D01*
X85348Y-46034D01*
X85376Y-46091D01*
X85376Y-46259D01*
X85348Y-46316D01*
X85320Y-46344D01*
X85320Y-45725D02*
X85348Y-45697D01*
X85376Y-45725D01*
X85348Y-45753D01*
X85320Y-45725D01*
X85376Y-45725D01*
X84786Y-45500D02*
X84786Y-45134D01*
X85011Y-45331D01*
X85011Y-45247D01*
X85039Y-45191D01*
X85067Y-45163D01*
X85123Y-45134D01*
X85264Y-45134D01*
X85320Y-45163D01*
X85348Y-45191D01*
X85376Y-45247D01*
X85376Y-45416D01*
X85348Y-45472D01*
X85320Y-45500D01*
X84786Y-44966D02*
X85376Y-44769D01*
X84786Y-44572D01*
X83703Y-45388D02*
X83703Y-45669D01*
X83984Y-45697D01*
X83956Y-45669D01*
X83928Y-45613D01*
X83928Y-45472D01*
X83956Y-45416D01*
X83984Y-45388D01*
X84041Y-45359D01*
X84181Y-45359D01*
X84237Y-45388D01*
X84266Y-45416D01*
X84294Y-45472D01*
X84294Y-45613D01*
X84266Y-45669D01*
X84237Y-45697D01*
X83703Y-45191D02*
X84294Y-44994D01*
X83703Y-44797D01*
X89707Y-52474D02*
X89707Y-52755D01*
X89988Y-52784D01*
X89960Y-52755D01*
X89932Y-52699D01*
X89932Y-52559D01*
X89960Y-52502D01*
X89988Y-52474D01*
X90044Y-52446D01*
X90185Y-52446D01*
X90241Y-52474D01*
X90269Y-52502D01*
X90298Y-52559D01*
X90298Y-52699D01*
X90269Y-52755D01*
X90241Y-52784D01*
X89707Y-52277D02*
X90298Y-52080D01*
X89707Y-51884D01*
X88723Y-53233D02*
X88723Y-52868D01*
X88948Y-53065D01*
X88948Y-52980D01*
X88976Y-52924D01*
X89004Y-52896D01*
X89060Y-52868D01*
X89201Y-52868D01*
X89257Y-52896D01*
X89285Y-52924D01*
X89313Y-52980D01*
X89313Y-53149D01*
X89285Y-53205D01*
X89257Y-53233D01*
X89257Y-52615D02*
X89285Y-52587D01*
X89313Y-52615D01*
X89285Y-52643D01*
X89257Y-52615D01*
X89313Y-52615D01*
X88723Y-52390D02*
X88723Y-52024D01*
X88948Y-52221D01*
X88948Y-52137D01*
X88976Y-52080D01*
X89004Y-52052D01*
X89060Y-52024D01*
X89201Y-52024D01*
X89257Y-52052D01*
X89285Y-52080D01*
X89313Y-52137D01*
X89313Y-52305D01*
X89285Y-52362D01*
X89257Y-52390D01*
X88723Y-51856D02*
X89313Y-51659D01*
X88723Y-51462D01*
X87767Y-52812D02*
X87739Y-52868D01*
X87739Y-52952D01*
X87767Y-53037D01*
X87823Y-53093D01*
X87879Y-53121D01*
X87992Y-53149D01*
X88076Y-53149D01*
X88188Y-53121D01*
X88245Y-53093D01*
X88301Y-53037D01*
X88329Y-52952D01*
X88329Y-52896D01*
X88301Y-52812D01*
X88273Y-52784D01*
X88076Y-52784D01*
X88076Y-52896D01*
X88329Y-52530D02*
X87739Y-52530D01*
X88329Y-52193D01*
X87739Y-52193D01*
X88329Y-51912D02*
X87739Y-51912D01*
X87739Y-51771D01*
X87767Y-51687D01*
X87823Y-51631D01*
X87879Y-51602D01*
X87992Y-51574D01*
X88076Y-51574D01*
X88188Y-51602D01*
X88245Y-51631D01*
X88301Y-51687D01*
X88329Y-51771D01*
X88329Y-51912D01*
G54D13*
X103519Y-45330D02*
X103519Y-63330D01*
X103519Y-63330D02*
X102519Y-63330D01*
X102519Y-63330D02*
X102519Y-45330D01*
X102519Y-45330D02*
X103519Y-45330D01*
X103519Y-46330D02*
X102519Y-46330D01*
X82519Y-45330D02*
X82519Y-63330D01*
X82519Y-63330D02*
X81519Y-63330D01*
X81519Y-63330D02*
X81519Y-45330D01*
X81519Y-45330D02*
X82519Y-45330D01*
X82519Y-46330D02*
X81519Y-46330D01*
G54D14*
X87519Y-51330D02*
X87519Y-50330D01*
X87519Y-50330D02*
X90519Y-50330D01*
X90519Y-50330D02*
X90519Y-51330D01*
X90519Y-51330D02*
X87519Y-51330D01*
X88519Y-50330D02*
X88519Y-51330D01*
X86519Y-43330D02*
X86519Y-44330D01*
X86519Y-44330D02*
X83519Y-44330D01*
X83519Y-44330D02*
X83519Y-43330D01*
X83519Y-43330D02*
X86519Y-43330D01*
X85519Y-44330D02*
X85519Y-43330D01*
G54D15*
X100863Y-44747D02*
X101183Y-44747D01*
X101173Y-44307D02*
X100863Y-44307D01*
X101183Y-44207D02*
X101183Y-44847D01*
X101183Y-44847D02*
X100863Y-44847D01*
X100863Y-44847D02*
X100863Y-44207D01*
X100863Y-44207D02*
X101183Y-44207D01*
X97364Y-43638D02*
X97044Y-43638D01*
X97054Y-44078D02*
X97364Y-44078D01*
X97044Y-44178D02*
X97044Y-43538D01*
X97044Y-43538D02*
X97364Y-43538D01*
X97364Y-43538D02*
X97364Y-44178D01*
X97364Y-44178D02*
X97044Y-44178D01*
G54D10*
X85964Y-50433D02*
X85964Y-46968D01*
X101318Y-50433D02*
X101318Y-46968D01*
X101318Y-50433D02*
X85964Y-50433D01*
X101318Y-49881D02*
X85964Y-49881D01*
X101318Y-46968D02*
X85964Y-46968D01*
G54D14*
X87519Y-44330D02*
X87519Y-43330D01*
X87519Y-43330D02*
X89519Y-43330D01*
X89519Y-43330D02*
X89519Y-44330D01*
X89519Y-44330D02*
X87519Y-44330D01*
G54D10*
X94015Y-42598D02*
X91023Y-42598D01*
X96358Y-44685D02*
G75*
G03X96358Y-44685I-688J0D01*
G74*
G01*
X96850Y-43503D02*
X94488Y-43503D01*
X94488Y-43503D02*
X94488Y-45866D01*
X94488Y-45866D02*
X96850Y-45866D01*
X96850Y-45866D02*
X96850Y-43503D01*
X100137Y-44527D02*
G75*
G03X100137Y-44527I-688J0D01*
G74*
G01*
X100629Y-45708D02*
X100629Y-43346D01*
X100629Y-43346D02*
X98267Y-43346D01*
X98267Y-43346D02*
X98267Y-45708D01*
X98267Y-45708D02*
X100629Y-45708D01*
G54D16*
X92323Y-45944D02*
X92323Y-45816D01*
X92323Y-45816D02*
X92126Y-45816D01*
X92126Y-45944D02*
X92126Y-45816D01*
X92323Y-45944D02*
X92126Y-45944D01*
X92323Y-46189D02*
X92323Y-46130D01*
X92323Y-46130D02*
X92224Y-46130D01*
X92224Y-46189D02*
X92224Y-46130D01*
X92323Y-46189D02*
X92224Y-46189D01*
X92323Y-45994D02*
X92323Y-45935D01*
X92323Y-45935D02*
X92224Y-45935D01*
X92224Y-45994D02*
X92224Y-45935D01*
X92323Y-45994D02*
X92224Y-45994D01*
X92323Y-46140D02*
X92323Y-45984D01*
X92323Y-45984D02*
X92254Y-45984D01*
X92254Y-46140D02*
X92254Y-45984D01*
X92323Y-46140D02*
X92254Y-46140D01*
X92912Y-45944D02*
X92912Y-45816D01*
X92912Y-45816D02*
X92715Y-45816D01*
X92715Y-45944D02*
X92715Y-45816D01*
X92912Y-45944D02*
X92715Y-45944D01*
X92912Y-46308D02*
X92912Y-46180D01*
X92912Y-46180D02*
X92715Y-46180D01*
X92715Y-46308D02*
X92715Y-46180D01*
X92912Y-46308D02*
X92715Y-46308D01*
X92814Y-45994D02*
X92814Y-45935D01*
X92814Y-45935D02*
X92715Y-45935D01*
X92715Y-45994D02*
X92715Y-45935D01*
X92814Y-45994D02*
X92715Y-45994D01*
X92814Y-46189D02*
X92814Y-46130D01*
X92814Y-46130D02*
X92715Y-46130D01*
X92715Y-46189D02*
X92715Y-46130D01*
X92814Y-46189D02*
X92715Y-46189D01*
X92784Y-46140D02*
X92784Y-45984D01*
X92784Y-45984D02*
X92715Y-45984D01*
X92715Y-46140D02*
X92715Y-45984D01*
X92784Y-46140D02*
X92715Y-46140D01*
X92519Y-46101D02*
X92519Y-46023D01*
X92519Y-46023D02*
X92441Y-46023D01*
X92441Y-46101D02*
X92441Y-46023D01*
X92519Y-46101D02*
X92441Y-46101D01*
X92323Y-46298D02*
X92323Y-46180D01*
X92323Y-46180D02*
X92205Y-46180D01*
X92205Y-46298D02*
X92205Y-46180D01*
X92323Y-46298D02*
X92205Y-46298D01*
X92155Y-46308D02*
X92155Y-46219D01*
X92155Y-46219D02*
X92126Y-46219D01*
X92126Y-46308D02*
X92126Y-46219D01*
X92155Y-46308D02*
X92126Y-46308D01*
G54D17*
X92313Y-45836D02*
X92725Y-45836D01*
X92715Y-46288D02*
X92155Y-46288D01*
G54D18*
X92213Y-46239D02*
G75*
G03X92213Y-46239I-28J0D01*
G74*
G01*
G54D17*
X92126Y-46199D02*
G75*
G03X92126Y-45925I0J137D01*
G74*
G01*
X92912Y-45925D02*
G75*
G03X92912Y-46199I0J-137D01*
G74*
G01*
G54D10*
X100515Y-44928D02*
X100534Y-44947D01*
X100553Y-45003D01*
X100553Y-45041D01*
X100534Y-45097D01*
X100496Y-45134D01*
X100459Y-45153D01*
X100384Y-45172D01*
X100328Y-45172D01*
X100253Y-45153D01*
X100215Y-45134D01*
X100178Y-45097D01*
X100159Y-45041D01*
X100159Y-45003D01*
X100178Y-44947D01*
X100196Y-44928D01*
X100553Y-44553D02*
X100553Y-44778D01*
X100553Y-44666D02*
X100159Y-44666D01*
X100215Y-44703D01*
X100253Y-44741D01*
X100271Y-44778D01*
X100159Y-44310D02*
X100159Y-44272D01*
X100178Y-44235D01*
X100196Y-44216D01*
X100234Y-44197D01*
X100309Y-44178D01*
X100403Y-44178D01*
X100478Y-44197D01*
X100515Y-44216D01*
X100534Y-44235D01*
X100553Y-44272D01*
X100553Y-44310D01*
X100534Y-44347D01*
X100515Y-44366D01*
X100478Y-44385D01*
X100403Y-44403D01*
X100309Y-44403D01*
X100234Y-44385D01*
X100196Y-44366D01*
X100178Y-44347D01*
X100159Y-44310D01*
X100553Y-43803D02*
X100553Y-44028D01*
X100553Y-43916D02*
X100159Y-43916D01*
X100215Y-43953D01*
X100253Y-43991D01*
X100271Y-44028D01*
X95622Y-44155D02*
X95491Y-43967D01*
X95397Y-44155D02*
X95397Y-43761D01*
X95547Y-43761D01*
X95584Y-43780D01*
X95603Y-43799D01*
X95622Y-43836D01*
X95622Y-43892D01*
X95603Y-43930D01*
X95584Y-43949D01*
X95547Y-43967D01*
X95397Y-43967D01*
X95997Y-44155D02*
X95772Y-44155D01*
X95884Y-44155D02*
X95884Y-43761D01*
X95847Y-43817D01*
X95809Y-43855D01*
X95772Y-43874D01*
X96241Y-43761D02*
X96278Y-43761D01*
X96316Y-43780D01*
X96334Y-43799D01*
X96353Y-43836D01*
X96372Y-43911D01*
X96372Y-44005D01*
X96353Y-44080D01*
X96334Y-44117D01*
X96316Y-44136D01*
X96278Y-44155D01*
X96241Y-44155D01*
X96203Y-44136D01*
X96184Y-44117D01*
X96166Y-44080D01*
X96147Y-44005D01*
X96147Y-43911D01*
X96166Y-43836D01*
X96184Y-43799D01*
X96203Y-43780D01*
X96241Y-43761D01*
X96747Y-44155D02*
X96522Y-44155D01*
X96634Y-44155D02*
X96634Y-43761D01*
X96597Y-43817D01*
X96559Y-43855D01*
X96522Y-43874D01*
%LPC*%
G54D19*
X103019Y-45830D03*
G54D20*
X103019Y-46830D03*
X103019Y-47830D03*
X103019Y-48830D03*
X103019Y-49830D03*
X103019Y-50830D03*
X103019Y-51830D03*
X103019Y-52830D03*
X103019Y-53830D03*
X103019Y-54830D03*
X103019Y-55830D03*
X103019Y-56830D03*
X103019Y-57830D03*
X103019Y-58830D03*
X103019Y-59830D03*
X103019Y-60830D03*
X103019Y-61830D03*
X103019Y-62830D03*
G54D19*
X82019Y-45830D03*
G54D20*
X82019Y-46830D03*
X82019Y-47830D03*
X82019Y-48830D03*
X82019Y-49830D03*
X82019Y-50830D03*
X82019Y-51830D03*
X82019Y-52830D03*
X82019Y-53830D03*
X82019Y-54830D03*
X82019Y-55830D03*
X82019Y-56830D03*
X82019Y-57830D03*
X82019Y-58830D03*
X82019Y-59830D03*
X82019Y-60830D03*
X82019Y-61830D03*
X82019Y-62830D03*
G54D21*
X88019Y-50830D03*
G54D22*
X89019Y-50830D03*
X90019Y-50830D03*
G54D21*
X86019Y-43830D03*
G54D22*
X85019Y-43830D03*
X84019Y-43830D03*
G54D23*
X101023Y-44823D03*
X101023Y-44231D03*
X97204Y-43562D03*
X97204Y-44154D03*
G54D24*
X87480Y-47146D03*
X87874Y-47933D03*
X88268Y-47146D03*
X88661Y-47933D03*
X89055Y-47146D03*
X89449Y-47933D03*
X89842Y-47146D03*
X90236Y-47933D03*
X90630Y-47146D03*
X91023Y-47933D03*
X92205Y-47146D03*
X92598Y-47933D03*
X92992Y-47146D03*
X93386Y-47933D03*
X93779Y-47146D03*
X94173Y-47933D03*
X94567Y-47146D03*
X94960Y-47933D03*
X95354Y-47146D03*
X95748Y-47933D03*
X96142Y-47146D03*
X96535Y-47933D03*
X96929Y-47146D03*
X97323Y-47933D03*
X97716Y-47146D03*
X98110Y-47933D03*
X98504Y-47146D03*
X98897Y-47933D03*
X99291Y-47146D03*
X99685Y-47933D03*
X100079Y-47146D03*
X87086Y-48916D03*
X87480Y-49704D03*
X87874Y-48916D03*
X88268Y-49704D03*
X88661Y-48916D03*
X89055Y-49704D03*
X89449Y-48916D03*
X89842Y-49704D03*
X90236Y-48916D03*
X90630Y-49704D03*
X91023Y-48916D03*
X92205Y-49704D03*
X92598Y-48916D03*
X92992Y-49704D03*
X93386Y-48916D03*
X93779Y-49704D03*
X94173Y-48916D03*
X94567Y-49704D03*
X94960Y-48916D03*
X95354Y-49704D03*
X95748Y-48916D03*
X96142Y-49704D03*
X96535Y-48916D03*
X96929Y-49704D03*
X97323Y-48916D03*
X97716Y-49704D03*
X98110Y-48916D03*
X98504Y-49704D03*
X98897Y-48916D03*
X99291Y-49704D03*
X99685Y-48916D03*
X100079Y-49704D03*
X87086Y-47933D03*
X91673Y-48425D03*
X100787Y-48425D03*
G54D21*
X88019Y-43830D03*
G54D22*
X89019Y-43830D03*
G54D25*
X93031Y-44488D03*
X92775Y-44488D03*
X92519Y-44488D03*
X92263Y-44488D03*
X92007Y-44488D03*
G54D26*
X93740Y-44438D03*
X91299Y-44438D03*
G54D27*
X92992Y-43169D03*
X92047Y-43169D03*
G54D28*
X94015Y-43169D03*
X91023Y-43169D03*
G54D29*
X96555Y-43120D03*
X96555Y-46250D03*
X94783Y-43120D03*
X94783Y-46250D03*
G54D30*
X101013Y-45413D03*
X97883Y-45413D03*
X101013Y-43641D03*
X97883Y-43641D03*
G54D31*
X92932Y-46062D03*
X92106Y-46062D03*
G54D32*
X100519Y-52830D03*
X98019Y-51330D03*
X98519Y-50830D03*
X98519Y-51330D03*
X98519Y-51830D03*
X101019Y-52330D03*
X100519Y-52330D03*
X100519Y-51830D03*
X101019Y-51330D03*
X100519Y-51330D03*
X100519Y-50830D03*
X100019Y-52330D03*
X99519Y-52330D03*
X99519Y-51830D03*
X100019Y-51330D03*
X99019Y-51330D03*
X99519Y-51330D03*
X99519Y-50830D03*
G54D33*
X98519Y-53330D03*
X97519Y-53330D03*
X96519Y-53330D03*
X95519Y-53330D03*
X94519Y-53330D03*
X99019Y-50830D03*
X100019Y-50830D03*
X101019Y-50830D03*
X101019Y-51830D03*
X95019Y-53830D03*
X96019Y-53830D03*
X97019Y-53830D03*
X94019Y-53830D03*
X91019Y-53830D03*
X98019Y-53830D03*
X90019Y-53830D03*
X98019Y-51830D03*
X98019Y-52830D03*
X94019Y-52830D03*
X97019Y-52830D03*
X96019Y-52830D03*
X95019Y-52830D03*
X84019Y-64830D03*
X86019Y-64830D03*
X85019Y-64830D03*
X89019Y-64830D03*
X88019Y-64830D03*
X87019Y-64830D03*
X95019Y-64830D03*
X96019Y-64830D03*
X97019Y-64830D03*
X93019Y-64830D03*
X94019Y-64830D03*
X92019Y-64830D03*
X91019Y-64830D03*
X100019Y-64830D03*
X99019Y-64830D03*
X101019Y-64830D03*
X98019Y-64830D03*
X90019Y-64830D03*
X90019Y-63830D03*
X98019Y-63830D03*
X101019Y-63830D03*
X99019Y-63830D03*
X100019Y-63830D03*
X91019Y-63830D03*
X92019Y-63830D03*
X94019Y-63830D03*
X93019Y-63830D03*
X97019Y-63830D03*
X96019Y-63830D03*
X95019Y-63830D03*
X87019Y-63830D03*
X88019Y-63830D03*
X89019Y-63830D03*
X85019Y-63830D03*
X86019Y-63830D03*
X84019Y-63830D03*
X84019Y-55830D03*
X86019Y-55830D03*
X85019Y-55830D03*
X89019Y-55830D03*
X88019Y-55830D03*
X87019Y-55830D03*
X95019Y-55830D03*
X96019Y-55830D03*
X97019Y-55830D03*
X93019Y-55830D03*
X94019Y-55830D03*
X91019Y-55830D03*
X100019Y-55830D03*
X99019Y-55830D03*
X101019Y-55830D03*
X98019Y-55830D03*
X90019Y-55830D03*
X90019Y-54830D03*
X98019Y-54830D03*
X101019Y-54830D03*
X99019Y-54830D03*
X100019Y-54830D03*
X91019Y-54830D03*
X92019Y-54830D03*
X93019Y-54830D03*
X97019Y-54830D03*
X96019Y-54830D03*
X95019Y-54830D03*
X87019Y-54830D03*
X88019Y-54830D03*
X89019Y-54830D03*
X85019Y-54830D03*
X86019Y-54830D03*
X84019Y-54830D03*
X100019Y-51830D03*
X99019Y-51830D03*
X101019Y-52830D03*
X100019Y-52830D03*
X84019Y-53830D03*
X85019Y-53830D03*
X89019Y-53830D03*
X88019Y-53830D03*
X87019Y-53830D03*
X100019Y-53830D03*
X101019Y-53830D03*
X90019Y-58830D03*
X98019Y-58830D03*
X101019Y-58830D03*
X99019Y-58830D03*
X100019Y-58830D03*
X91019Y-58830D03*
X92019Y-58830D03*
X94019Y-58830D03*
X93019Y-58830D03*
X97019Y-58830D03*
X96019Y-58830D03*
X95019Y-58830D03*
X87019Y-58830D03*
X88019Y-58830D03*
X89019Y-58830D03*
X85019Y-58830D03*
X86019Y-58830D03*
X84019Y-58830D03*
X84019Y-57830D03*
X86019Y-57830D03*
X85019Y-57830D03*
X89019Y-57830D03*
X88019Y-57830D03*
X87019Y-57830D03*
X95019Y-57830D03*
X96019Y-57830D03*
X97019Y-57830D03*
X93019Y-57830D03*
X94019Y-57830D03*
X92019Y-57830D03*
X91019Y-57830D03*
X100019Y-57830D03*
X99019Y-57830D03*
X101019Y-57830D03*
X98019Y-57830D03*
X90019Y-57830D03*
X90019Y-56830D03*
X98019Y-56830D03*
X101019Y-56830D03*
X99019Y-56830D03*
X100019Y-56830D03*
X91019Y-56830D03*
X92019Y-56830D03*
X94019Y-56830D03*
X93019Y-56830D03*
X97019Y-56830D03*
X96019Y-56830D03*
X95019Y-56830D03*
X87019Y-56830D03*
X88019Y-56830D03*
X89019Y-56830D03*
X85019Y-56830D03*
X86019Y-56830D03*
X84019Y-56830D03*
X84019Y-59830D03*
X86019Y-59830D03*
X85019Y-59830D03*
X89019Y-59830D03*
X88019Y-59830D03*
X87019Y-59830D03*
X95019Y-59830D03*
X96019Y-59830D03*
X97019Y-59830D03*
X93019Y-59830D03*
X94019Y-59830D03*
X92019Y-59830D03*
X91019Y-59830D03*
X100019Y-59830D03*
X99019Y-59830D03*
X101019Y-59830D03*
X98019Y-59830D03*
X90019Y-59830D03*
X90019Y-60830D03*
X98019Y-60830D03*
X101019Y-60830D03*
X102019Y-60830D03*
X99019Y-60830D03*
X100019Y-60830D03*
X91019Y-60830D03*
X92019Y-60830D03*
X94019Y-60830D03*
X93019Y-60830D03*
X97019Y-60830D03*
X96019Y-60830D03*
X95019Y-60830D03*
X87019Y-60830D03*
X88019Y-60830D03*
X89019Y-60830D03*
X85019Y-60830D03*
X86019Y-60830D03*
X84019Y-60830D03*
X83019Y-61830D03*
X84019Y-61830D03*
X86019Y-61830D03*
X85019Y-61830D03*
X89019Y-61830D03*
X88019Y-61830D03*
X87019Y-61830D03*
X95019Y-61830D03*
X96019Y-61830D03*
X97019Y-61830D03*
X93019Y-61830D03*
X94019Y-61830D03*
X92019Y-61830D03*
X91019Y-61830D03*
X100019Y-61830D03*
X99019Y-61830D03*
X102019Y-61830D03*
X101019Y-61830D03*
X98019Y-61830D03*
X90019Y-61830D03*
X90019Y-62830D03*
X98019Y-62830D03*
X101019Y-62830D03*
X102019Y-62830D03*
X99019Y-62830D03*
X100019Y-62830D03*
X91019Y-62830D03*
X92019Y-62830D03*
X94019Y-62830D03*
X93019Y-62830D03*
X97019Y-62830D03*
X96019Y-62830D03*
X95019Y-62830D03*
X87019Y-62830D03*
X88019Y-62830D03*
X89019Y-62830D03*
X85019Y-62830D03*
X86019Y-62830D03*
X84019Y-62830D03*
X83019Y-62830D03*
X94019Y-54830D03*
X92019Y-55830D03*
X93019Y-53830D03*
G54D32*
X95354Y-48385D03*
X95419Y-44430D03*
X95419Y-43630D03*
G54D33*
X99019Y-52830D03*
G54D32*
X93149Y-45078D03*
X96519Y-43630D03*
X96519Y-44330D03*
G54D33*
X86019Y-53830D03*
X99019Y-53830D03*
X92019Y-53830D03*
G54D10*
G36*
X85127Y-49945D02*
X85116Y-50026D01*
X85069Y-50093D01*
X85046Y-50108D01*
X85007Y-50124D01*
X84937Y-50124D01*
X84724Y-50049D01*
X84420Y-50049D01*
X84325Y-50088D01*
X84270Y-50132D01*
X84222Y-50227D01*
X84226Y-50311D01*
X84270Y-50398D01*
X84309Y-50438D01*
X84424Y-50497D01*
X84727Y-50572D01*
X84904Y-50663D01*
X84963Y-50711D01*
X84885Y-50718D01*
X84617Y-50805D01*
X84562Y-50852D01*
X84335Y-50797D01*
X84131Y-50703D01*
X84013Y-50573D01*
X83919Y-50389D01*
X83915Y-50338D01*
X83915Y-50157D01*
X84013Y-49957D01*
X84111Y-49855D01*
X84146Y-49836D01*
X84319Y-49745D01*
X84366Y-49738D01*
X84751Y-49738D01*
X84782Y-49742D01*
X85085Y-49859D01*
X85127Y-49945D01*
X85127Y-49945D01*
G37*
G54D34*
X85127Y-49945D02*
X85116Y-50026D01*
X85069Y-50093D01*
X85046Y-50108D01*
X85007Y-50124D01*
X84937Y-50124D01*
X84724Y-50049D01*
X84420Y-50049D01*
X84325Y-50088D01*
X84270Y-50132D01*
X84222Y-50227D01*
X84226Y-50311D01*
X84270Y-50398D01*
X84309Y-50438D01*
X84424Y-50497D01*
X84727Y-50572D01*
X84904Y-50663D01*
X84963Y-50711D01*
X84885Y-50718D01*
X84617Y-50805D01*
X84562Y-50852D01*
X84335Y-50797D01*
X84131Y-50703D01*
X84013Y-50573D01*
X83919Y-50389D01*
X83915Y-50338D01*
X83915Y-50157D01*
X84013Y-49957D01*
X84111Y-49855D01*
X84146Y-49836D01*
X84319Y-49745D01*
X84366Y-49738D01*
X84751Y-49738D01*
X84782Y-49742D01*
X85085Y-49859D01*
X85127Y-49945D01*
G54D10*
G36*
X85124Y-51184D02*
X85116Y-51223D01*
X85025Y-51404D01*
X85010Y-51419D01*
X84927Y-51506D01*
X84900Y-51525D01*
X84715Y-51616D01*
X84676Y-51624D01*
X84283Y-51624D01*
X84256Y-51620D01*
X84020Y-51541D01*
X83993Y-51529D01*
X83958Y-51502D01*
X83927Y-51459D01*
X83915Y-51417D01*
X83915Y-51370D01*
X83930Y-51323D01*
X83962Y-51277D01*
X84008Y-51249D01*
X84063Y-51238D01*
X84105Y-51242D01*
X84318Y-51312D01*
X84630Y-51312D01*
X84725Y-51265D01*
X84765Y-51229D01*
X84812Y-51130D01*
X84812Y-51079D01*
X84819Y-51076D01*
X84945Y-51033D01*
X85101Y-51033D01*
X85124Y-51044D01*
X85124Y-51184D01*
X85124Y-51184D01*
G37*
G54D34*
X85124Y-51184D02*
X85116Y-51223D01*
X85025Y-51404D01*
X85010Y-51419D01*
X84927Y-51506D01*
X84900Y-51525D01*
X84715Y-51616D01*
X84676Y-51624D01*
X84283Y-51624D01*
X84256Y-51620D01*
X84020Y-51541D01*
X83993Y-51529D01*
X83958Y-51502D01*
X83927Y-51459D01*
X83915Y-51417D01*
X83915Y-51370D01*
X83930Y-51323D01*
X83962Y-51277D01*
X84008Y-51249D01*
X84063Y-51238D01*
X84105Y-51242D01*
X84318Y-51312D01*
X84630Y-51312D01*
X84725Y-51265D01*
X84765Y-51229D01*
X84812Y-51130D01*
X84812Y-51079D01*
X84819Y-51076D01*
X84945Y-51033D01*
X85101Y-51033D01*
X85124Y-51044D01*
X85124Y-51184D01*
M02*
